<svg baseProfile="full" class="OperationalEntityBlank" height="1520" version="1.1" viewBox="90 90 3000 1520" width="3000" xmlns="http://www.w3.org/2000/svg" xmlns:ev="http://www.w3.org/2001/xml-events" xmlns:xlink="http://www.w3.org/1999/xlink"><defs><style>.OperationalEntityBlank * { shape-rendering: geometricPrecision; }
.OperationalEntityBlank text { font-family: "Segoe UI"; font-size: 8pt; }
.OperationalEntityBlank g { cursor: pointer; }
.OperationalEntityBlank g.Edge &gt; path { fill: none; stroke: rgb(0, 0, 0); }
.OperationalEntityBlank g.Box &gt; line { stroke: #000000; }
.OperationalEntityBlank g.Box &gt; rect, .OperationalEntityBlank g.Box &gt; use { fill: transparent; stroke: #000000; stroke-width: 1; }
.OperationalEntityBlank g.Box.Annotation &gt; line { stroke: none; }
.OperationalEntityBlank g.Box.Annotation &gt; rect, .OperationalEntityBlank g.Box.Annotation &gt; use { fill: none; stroke: none; }
.OperationalEntityBlank g.Box.Constraint &gt; line { stroke: #888888; }
.OperationalEntityBlank g.Box.Constraint &gt; rect, .OperationalEntityBlank g.Box.Constraint &gt; use { fill: #FFF5B5; stroke: #888888; }
.OperationalEntityBlank g.Box.Constraint &gt; text { fill: #000000; }
.OperationalEntityBlank g.Box.Note &gt; line { stroke: #FFCC66; }
.OperationalEntityBlank g.Box.Note &gt; rect, .OperationalEntityBlank g.Box.Note &gt; use { fill: #FFFFCB; stroke: #FFCC66; }
.OperationalEntityBlank g.Box.Note &gt; text { fill: #000000; }
.OperationalEntityBlank g.Box.Requirement &gt; line { stroke: #72496E; }
.OperationalEntityBlank g.Box.Requirement &gt; rect, .OperationalEntityBlank g.Box.Requirement &gt; use { fill: #D9C4D7; stroke: #72496E; }
.OperationalEntityBlank g.Box.Requirement &gt; text { fill: #000000; }
.OperationalEntityBlank g.Box.Text &gt; line { stroke: transparent; }
.OperationalEntityBlank g.Box.Text &gt; rect, .OperationalEntityBlank g.Box.Text &gt; use { stroke: transparent; }
.OperationalEntityBlank g.Edge &gt; rect { fill: none; stroke: none; }
.OperationalEntityBlank g.Circle &gt; circle { fill: #000000; stroke: none; }
.OperationalEntityBlank g.Edge &gt; path { stroke-width: 1; }
.OperationalEntityBlank g.Edge.Connector &gt; rect { fill: none; stroke: none; }
.OperationalEntityBlank g.Circle.Connector &gt; circle { fill: #B0B0B0; stroke: none; }
.OperationalEntityBlank g.Edge.Connector &gt; path { stroke: #B0B0B0; stroke-dasharray: 1; }
.OperationalEntityBlank g.Edge.Constraint &gt; rect { fill: none; stroke: none; }
.OperationalEntityBlank g.Circle.Constraint &gt; circle { fill: #000000; stroke: none; }
.OperationalEntityBlank g.Edge.Constraint &gt; path { stroke: #000000; stroke-dasharray: 1, 3; marker-end: url(#FineArrowMark_000000); stroke-linecap: round; }
.OperationalEntityBlank g.Edge.Note &gt; rect { fill: none; stroke: none; }
.OperationalEntityBlank g.Circle.Note &gt; circle { fill: #000000; stroke: none; }
.OperationalEntityBlank g.Edge.Note &gt; path { stroke: #000000; stroke-dasharray: 1, 3; }
.OperationalEntityBlank g.Edge.RequirementRelation &gt; rect { fill: none; stroke: none; }
.OperationalEntityBlank g.Circle.RequirementRelation &gt; circle { fill: #72496E; stroke: none; }
.OperationalEntityBlank g.Edge.RequirementRelation &gt; path { stroke: #72496E; stroke-width: 2; marker-end: url(#FineArrowMark_72496E); stroke-dasharray: 5; }
.OperationalEntityBlank g.Edge.RequirementRelation &gt; text { fill: #72496E; }
.OperationalEntityBlank g.Box.Entity &gt; line { stroke: #454545; }
.OperationalEntityBlank g.Box.Entity &gt; rect, .OperationalEntityBlank g.Box.Entity &gt; use { fill: url("#.EntityFillGradient"); stroke: #454545; }
.OperationalEntityBlank g.Box.Entity &gt; text { fill: #000000; }
.OperationalEntityBlank g.Box.OperationalActivity &gt; line { stroke: #5B4040; }
.OperationalEntityBlank g.Box.OperationalActivity &gt; rect, .OperationalEntityBlank g.Box.OperationalActivity &gt; use { fill: #F7DA74; stroke: #5B4040; }
.OperationalEntityBlank g.Box.OperationalActivity &gt; text { fill: #5B4040; }
.OperationalEntityBlank g.Box.OperationalActor &gt; line { stroke: #454545; }
.OperationalEntityBlank g.Box.OperationalActor &gt; rect, .OperationalEntityBlank g.Box.OperationalActor &gt; use { fill: url("#.OperationalActorFillGradient"); stroke: #454545; }
.OperationalEntityBlank g.Box.OperationalActor &gt; text { fill: #000000; }
.OperationalEntityBlank g.Box.Role &gt; line { stroke: #72496E; }
.OperationalEntityBlank g.Box.Role &gt; rect, .OperationalEntityBlank g.Box.Role &gt; use { fill: url("#.RoleFillGradient"); stroke: #72496E; }
.OperationalEntityBlank g.Box.Role &gt; text { fill: #000000; }
.OperationalEntityBlank g.Edge.CommunicationMean &gt; rect { fill: none; stroke: none; }
.OperationalEntityBlank g.Circle.CommunicationMean &gt; circle { fill: #454545; stroke: none; }
.OperationalEntityBlank g.Edge.CommunicationMean &gt; path { marker-end: url(#ArrowMark_454545); stroke: #454545; }
.OperationalEntityBlank g.Edge.FunctionalExchange &gt; rect { fill: none; stroke: none; }
.OperationalEntityBlank g.Circle.FunctionalExchange &gt; circle { fill: #5B4040; stroke: none; }
.OperationalEntityBlank g.Edge.FunctionalExchange &gt; path { marker-end: url(#ArrowMark_5B4040); stroke: #5B4040; }
</style><symbol id="ErrorSymbol" viewBox="0 0 2.6458 2.6458"><path d="M 0,0 2.6458333,2.6458333 M 0,2.6458333 2.6458333,0" style="fill: none; stroke: red; stroke-width: 0.5;" /></symbol><symbol id="RequirementSymbol" style="stroke: none;" viewBox="0 0 50 50"><path d="M 12.806813,6.5702324 A 6.244379,5.8113241 0 0 1 6.5624342,12.381557 6.244379,5.8113241 0 0 1 0.31805515,6.5702324 6.244379,5.8113241 0 0 1 6.5624342,0.75890827 6.244379,5.8113241 0 0 1 12.806813,6.5702324 Z" style="fill: #431964" /><path d="m 4.3228658,5.8752475 h 2.9514721 q 0.2945581,0 0.5184223,-0.1413879 Q 8.0225155,5.5865806 8.1462299,5.3214783 8.2699443,5.056376 8.2758355,4.7029063 v 0 q 0,-0.3475786 -0.1237144,-0.6126808 Q 8.0284067,3.8251232 7.7986513,3.6837353 7.5747872,3.5364562 7.2743379,3.5364562 H 4.3228658 V 2.1873801 h 2.9927103 q 0.7246129,0 1.2724909,0.3122316 0.5478781,0.3122316 0.8483274,0.8836743 0.3063404,0.5714427 0.3063404,1.3196203 v 0 q 0,0.7540687 -0.3063404,1.3255114 Q 9.1359451,6.5998605 8.5821759,6.912092 8.0342978,7.2243236 7.3155761,7.2243236 H 4.3228658 Z M 3.7396407,2.1873801 H 5.1476285 V 10.759021 H 3.7396407 Z M 6.3906636,6.9592213 7.8516718,6.6882279 10.102096,10.759021 H 8.4113322 Z" style="fill:#ffffff;" /></symbol><symbol id="EntitySymbol" style="stroke: #000; stroke-width: 2;" viewBox="0 0 79 79"><linearGradient id="ls-blue" x1="0" x2="0" y1="0" y2="1"><stop offset="0.0" stop-color="#c3e4ff" stop-opacity="1" /><stop offset="1.0" stop-color="#98b0dd" stop-opacity="1" /></linearGradient><path d="M18 237h46v43H18z" style="fill: url(#ls-blue)" transform="translate(0 -218)" /><path d="M12 247h11v8H12z" style="fill: url(#ls-blue)" transform="translate(0 -218)" /><path d="M12 261h11v8H12z" style="fill: url(#ls-blue)" transform="translate(0 -218)" /><path d="m 41.658466,55.581913 q 0,1.062616 -0.693953,1.734883 -0.672267,0.672267 -1.734883,0.672267 h -9.498483 q -1.062615,0 -1.734883,-0.672267 -0.672267,-0.672267 -0.672267,-1.734883 V 26.457569 q 0,-1.062615 0.672267,-1.734882 0.672268,-0.672267 1.734883,-0.672267 h 9.498483 q 1.062616,0 1.734883,0.672267 0.693953,0.672267 0.693953,1.734882 z M 38.644107,55.321681 V 26.717802 h -8.305751 v 28.603879 z" style="fill:black;" /><path d="M 58.248283,57.989063 H 47.101662 V 24.05042 h 11.016505 v 2.667382 H 50.11602 v 12.664644 h 5.091614 l 0.09145,2.616665 -5.183068,0.09409 v 13.228481 h 8.132263 z" style="fill:black;" /></symbol><symbol id="OperationalActivitySymbol" viewBox="0 0 79 79"><radialGradient cx="42.2" cy="32" fx="42.2" fy="32" gradientTransform="matrix(1 0 0 0.7 0 11.3)" gradientUnits="userSpaceOnUse" id="b" r="22.6" xlink:href="#a"><stop offset="0" stop-color="white" /><stop offset="1" stop-color="#f4901d" /></radialGradient><ellipse cx="42.2" cy="32" rx="22.5" ry="15.5" style="fill: url(#b); stroke: #000; stroke-width: 2;" /><text style="font-family: &quot;Segoe UI&quot;; font-size: 12pt; font-weight: bold; fill: black; stroke: none;" text-anchor="middle" x="42.2" y="38">OA</text></symbol><symbol id="OperationalActorBoxSymbol" style="stroke: #000000; stroke-width: 2;" viewBox="-10 -10 79 79"><circle cx="6.8" cy="7.75" r="5" style="fill:none;" /><path d="m 6.723408,12.783569 0.1864956,13.042426 -6.52734189,6.042591 v 0 l 6.52734189,-6.042591 6.2009764,5.95285 -6.2942242,-6.012678 -0.092832,-6.050988 6.2026382,0.033 -12.3973765,0.02992" style="fill: none;" /></symbol><symbol id="OperationalExchangeSymbol" viewBox="0 0 40 30"><linearGradient id="OperationalExchangeSymbol-gradient" x1="0" x2="1" y1="0" y2="1"><stop offset="0.0" stop-color="#DF943C" stop-opacity="1" /><stop offset="1.0" stop-color="#FFF1E0" stop-opacity="1" /></linearGradient><linearGradient id="OperationalExchangeSymbol-gradientreverse" x1="0" x2="1" y1="0" y2="1"><stop offset="0.0" stop-color="#FFF1E0" stop-opacity="1" /><stop offset="1.0" stop-color="#DF943C" stop-opacity="1" /></linearGradient><g style="stroke:#000;stroke-width:2;"><path d="M 36.190065,5.0377724 V 24.962228 H 26.17482 V 5.0377724 Z" style="fill: url(#OperationalExchangeSymbol-gradientreverse)" /><path d="m 14.372107,10 h 12.622435 c 0.926189,0.585267 1.836022,1.274509 2.268178,5 -0.208657,2.812473 -0.954601,4.503809 -2.273297,5 H 14.296948" style="fill: #EF8D1C" /><path d="M 3.9464908,5.0048246 V 24.995175 H 10.87518 C 12.433713,24.159139 15.158267,20.291241 15.313795,15 15.498614,11.583142 14.059659,6.6240913 10.87518,5.0048246 c -2.2179509,0 -4.5908341,0 -6.9286892,0 z" style="fill: url(#OperationalExchangeSymbol-gradient)" /></g></symbol><linearGradient id=".EntityFillGradient" x1="0%" x2="0%" y1="0%" y2="100%"><stop offset="0" stop-color="#F9F8F5" /><stop offset="1" stop-color="#DDDDC8" /></linearGradient><linearGradient id=".OperationalActorFillGradient" x1="0%" x2="0%" y1="0%" y2="100%"><stop offset="0" stop-color="#F9F8F5" /><stop offset="1" stop-color="#DDDDC8" /></linearGradient><linearGradient id=".RoleFillGradient" x1="0%" x2="0%" y1="0%" y2="100%"><stop offset="0" stop-color="#FFFFFF" /><stop offset="1" stop-color="#CBAEC8" /></linearGradient><marker id="ArrowMark_5B4040" markerHeight="11" markerUnits="userSpaceOnUse" markerWidth="11" orient="auto" refX="10" refY="5"><path d="M 0,0 10,5 0,10" style="marker-end: url(&quot;#ArrowMark_5B4040&quot;); fill: #5B4040; stroke: #5B4040; stroke-width: None" /></marker></defs><rect fill="white" height="1520" stroke="none" width="3000" x="90" y="90" /><g class="Box Entity" id="_-W0roCwrEeyT0qosUy6M3w"><rect class="Entity" height="387" style="stroke-width: 1" width="761" x="551.5" y="851.5" /><text class="Entity" dominant-baseline="middle" text-anchor="middle" x="551" y="851"><tspan x="931.5" xml:space="preserve" y="862.4285714285714">Excavation System</tspan></text><use height="20" width="20" x="862.2142857142857" xlink:href="#EntitySymbol" y="852.4285714285714" /></g><g class="Box OperationalActivity" id="_F1rkgDD7EeyhCYRJNkfruA"><rect class="OperationalActivity" height="140" style="stroke-width: 1" width="280" x="943.5" y="992.5" /><text class="OperationalActivity" dominant-baseline="middle" text-anchor="middle" x="943" y="992"><tspan x="1083.0" xml:space="preserve" y="1002.0">Drill Lunar Ground</tspan></text><use height="20" width="20" x="1013.0" xlink:href="#OperationalActivitySymbol" y="992.0" /></g><g class="Box OperationalActivity" id="_F1sLkDD7EeyhCYRJNkfruA"><rect class="OperationalActivity" height="150" style="stroke-width: 1" width="200" x="623.5" y="982.5" /><text class="OperationalActivity" dominant-baseline="middle" text-anchor="middle" x="623" y="982"><tspan x="723.0" xml:space="preserve" y="993.4285714285714">Provide Unprocessed Regolith</tspan></text><use height="20" width="20" x="623.0" xlink:href="#OperationalActivitySymbol" y="983.4285714285714" /></g><g class="Box Entity" id="_-W0roywrEeyT0qosUy6M3w"><rect class="Entity" height="1401" style="stroke-width: 1" width="1570" x="1510.5" y="180.5" /><text class="Entity" dominant-baseline="middle" text-anchor="middle" x="1510" y="180"><tspan x="2295.0" xml:space="preserve" y="191.42857142857142">Spacecraft</tspan></text><use height="20" width="20" x="2247.1428571428573" xlink:href="#EntitySymbol" y="181.42857142857142" /></g><g class="Box Entity" id="_YMrIgDGAEeyhCYRJNkfruA"><rect class="Entity" height="711" style="stroke-width: 1" width="381" x="1975.5" y="804.5" /><text class="Entity" dominant-baseline="middle" text-anchor="middle" x="1975" y="804"><tspan x="2165.5" xml:space="preserve" y="815.4285714285714">Power System</tspan></text><use height="20" width="20" x="2107.6428571428573" xlink:href="#EntitySymbol" y="805.4285714285714" /></g><g class="Box OperationalActivity" id="_gCKlcDF9EeyhCYRJNkfruA"><rect class="OperationalActivity" height="216" style="stroke-width: 1" width="237" x="2047.5" y="885.5" /><text class="OperationalActivity" dominant-baseline="middle" text-anchor="middle" x="2047" y="885"><tspan x="2165.5" xml:space="preserve" y="896.4285714285714">Produce Drilling Power</tspan></text><use height="20" width="20" x="2084.0714285714284" xlink:href="#OperationalActivitySymbol" y="886.4285714285714" /></g><g class="Box OperationalActivity" id="_OxiGozfJEeygINj2kOX-Xg"><rect class="OperationalActivity" height="151" style="stroke-width: 1" width="237" x="2047.5" y="1175.5" /><text class="OperationalActivity" dominant-baseline="middle" text-anchor="middle" x="2047" y="1175"><tspan x="2165.5" xml:space="preserve" y="1185.0">Power Travel</tspan></text><use height="20" width="20" x="2111.214285714286" xlink:href="#OperationalActivitySymbol" y="1175.0" /></g><g class="Box Entity" id="_ys2qcDJjEeyhCYRJNkfruA"><rect class="Entity" height="709" style="stroke-width: 1" width="380" x="1555.5" y="794.5" /><text class="Entity" dominant-baseline="middle" text-anchor="middle" x="1555" y="794"><tspan x="1745.0" xml:space="preserve" y="805.4285714285714">Propulsion System</tspan></text><use height="20" width="20" x="1675.7142857142858" xlink:href="#EntitySymbol" y="795.4285714285714" /></g><g class="Box OperationalActivity" id="_rDZ2QDfIEeygINj2kOX-Xg"><rect class="OperationalActivity" height="180" style="stroke-width: 1" width="200" x="1647.5" y="1255.5" /><text class="OperationalActivity" dominant-baseline="middle" text-anchor="middle" x="1647" y="1255"><tspan x="1747.0" xml:space="preserve" y="1265.0">Travel to the moon</tspan></text><use height="20" width="20" x="1676.2857142857142" xlink:href="#OperationalActivitySymbol" y="1255.0" /></g><g class="Box Entity" id="_7DNXUDfHEeygINj2kOX-Xg"><rect class="Entity" height="710" style="stroke-width: 1" width="620" x="2415.5" y="804.5" /><text class="Entity" dominant-baseline="middle" text-anchor="middle" x="2415" y="804"><tspan x="2725.0" xml:space="preserve" y="814.0">OBC</tspan></text><use height="20" width="20" x="2693.5714285714284" xlink:href="#EntitySymbol" y="804.0" /></g><g class="Box OperationalActivity" id="_w_484DJkEeyhCYRJNkfruA"><rect class="OperationalActivity" height="111" style="stroke-width: 1" width="300" x="2647.5" y="1385.5" /><text class="OperationalActivity" dominant-baseline="middle" text-anchor="middle" x="2647" y="1385"><tspan x="2797.0" xml:space="preserve" y="1396.4285714285713">Monitor Spacecraft Status</tspan></text><use height="20" width="20" x="2707.714285714286" xlink:href="#OperationalActivitySymbol" y="1386.4285714285713" /></g><g class="Box OperationalActivity" id="_w_485jJkEeyhCYRJNkfruA"><rect class="OperationalActivity" height="120" style="stroke-width: 1" width="300" x="2467.5" y="905.5" /><text class="OperationalActivity" dominant-baseline="middle" text-anchor="middle" x="2467" y="905"><tspan x="2617.0" xml:space="preserve" y="916.4285714285714">Monitor Drilling</tspan></text><use height="20" width="20" x="2554.8571428571427" xlink:href="#OperationalActivitySymbol" y="906.4285714285714" /></g><g class="Box Entity" id="_ys3RgDJjEeyhCYRJNkfruA"><rect class="Entity" height="480" style="stroke-width: 1" width="1510" x="1535.5" y="214.5" /><text class="Entity" dominant-baseline="middle" text-anchor="middle" x="1535" y="214"><tspan x="2290.0" xml:space="preserve" y="225.42857142857142">Spacecraft Communication System</tspan></text><use height="20" width="20" x="2177.1428571428573" xlink:href="#EntitySymbol" y="215.42857142857142" /></g><g class="Box OperationalActivity" id="_w_5j8TJkEeyhCYRJNkfruA"><rect class="OperationalActivity" height="148" style="stroke-width: 1" width="141" x="2107.5" y="335.5" /><text class="OperationalActivity" dominant-baseline="middle" text-anchor="middle" x="2107" y="335"><tspan x="2177.5" xml:space="preserve" y="346.42857142857144">Receive Drilling</tspan><tspan x="2177.5" xml:space="preserve" y="359.2857142857143">Control Order</tspan></text><use height="20" width="20" x="2116.785714285714" xlink:href="#OperationalActivitySymbol" y="342.85714285714283" /></g><g class="Box OperationalActivity" id="_0k9FADfIEeygINj2kOX-Xg"><rect class="OperationalActivity" height="150" style="stroke-width: 1" width="280" x="2627.5" y="255.5" /><text class="OperationalActivity" dominant-baseline="middle" text-anchor="middle" x="2627" y="255"><tspan x="2767.0" xml:space="preserve" y="265.0">Send Data to Ground</tspan></text><use height="20" width="20" x="2690.5714285714284" xlink:href="#OperationalActivitySymbol" y="255.0" /></g><g class="Box OperationalActivity" id="_EdJswDfJEeygINj2kOX-Xg"><rect class="OperationalActivity" height="150" style="stroke-width: 1" width="351" x="1587.5" y="495.5" /><text class="OperationalActivity" dominant-baseline="middle" text-anchor="middle" x="1587" y="495"><tspan x="1762.5" xml:space="preserve" y="506.42857142857144">Handle Spacecraft Control</tspan></text><use height="20" width="20" x="1672.5" xlink:href="#OperationalActivitySymbol" y="496.42857142857144" /></g><g class="Box OperationalActivity" id="_EdJswzfJEeygINj2kOX-Xg"><rect class="OperationalActivity" height="160" style="stroke-width: 1" width="151" x="1627.5" y="295.5" /><text class="OperationalActivity" dominant-baseline="middle" text-anchor="middle" x="1627" y="295"><tspan x="1702.5" xml:space="preserve" y="306.42857142857144">Receive Spacecraft</tspan><tspan x="1702.5" xml:space="preserve" y="319.2857142857143">Order</tspan></text><use height="20" width="20" x="1632.5" xlink:href="#OperationalActivitySymbol" y="302.85714285714283" /></g><g class="Box OperationalActivity" id="_LqNwYDfJEeygINj2kOX-Xg"><rect class="OperationalActivity" height="111" style="stroke-width: 1" width="361" x="2097.5" y="524.5" /><text class="OperationalActivity" dominant-baseline="middle" text-anchor="middle" x="2097" y="524"><tspan x="2277.5" xml:space="preserve" y="535.4285714285714">Handle Drilling Control</tspan></text><use height="20" width="20" x="2196.785714285714" xlink:href="#OperationalActivitySymbol" y="525.4285714285714" /></g><g class="Box OperationalActivity" id="_bhz7MDfJEeygINj2kOX-Xg"><rect class="OperationalActivity" height="150" style="stroke-width: 1" width="141" x="2297.5" y="335.5" /><text class="OperationalActivity" dominant-baseline="middle" text-anchor="middle" x="2297" y="335"><tspan x="2367.5" xml:space="preserve" y="346.42857142857144">Operate Drill</tspan><tspan x="2367.5" xml:space="preserve" y="359.2857142857143">Autonomously</tspan></text><use height="20" width="20" x="2308.214285714286" xlink:href="#OperationalActivitySymbol" y="342.85714285714283" /></g><g class="Box OperationalActivity" id="_bh2XcDfJEeygINj2kOX-Xg"><rect class="OperationalActivity" height="160" style="stroke-width: 1" width="131" x="1847.5" y="315.5" /><text class="OperationalActivity" dominant-baseline="middle" text-anchor="middle" x="1847" y="315"><tspan x="1912.5" xml:space="preserve" y="326.42857142857144">Operate Spacecraft</tspan><tspan x="1912.5" xml:space="preserve" y="339.2857142857143">Autonomously</tspan></text><use height="20" width="20" x="1845" xlink:href="#OperationalActivitySymbol" y="322.85714285714283" /></g><g class="Box Entity" id="_bxUWkCwzEeyT0qosUy6M3w"><rect class="Entity" height="320" style="stroke-width: 1" width="1210" x="100.5" y="1280.5" /><text class="Entity" dominant-baseline="middle" text-anchor="middle" x="100" y="1280"><tspan x="705.0" xml:space="preserve" y="1290.0">Lunar Environment</tspan></text><use height="20" width="20" x="633.5714285714286" xlink:href="#EntitySymbol" y="1280.0" /></g><g class="Box Entity" id="_-W0EkiwrEeyT0qosUy6M3w"><rect class="Entity" height="250" style="stroke-width: 1" width="300" x="936.5" y="1314.5" /><text class="Entity" dominant-baseline="middle" text-anchor="middle" x="936" y="1314"><tspan x="1086.0" xml:space="preserve" y="1324.0">Lunar Soil</tspan></text><use height="20" width="20" x="1039.5714285714287" xlink:href="#EntitySymbol" y="1314.0" /></g><g class="Box OperationalActivity" id="_95XkYDAtEeyluZrdaVDz3A"><rect class="OperationalActivity" height="70" style="stroke-width: 1" width="160" x="999.5" y="1365.5" /><text class="OperationalActivity" dominant-baseline="middle" text-anchor="middle" x="999" y="1365"><tspan x="1079.0" xml:space="preserve" y="1375.0">Provide Lunar Ground</tspan></text><use height="20" width="20" x="999.7142857142857" xlink:href="#OperationalActivitySymbol" y="1365.0" /></g><g class="Box OperationalActivity" id="_7mAU8DZfEeygINj2kOX-Xg"><rect class="OperationalActivity" height="70" style="stroke-width: 1" width="150" x="1019.5" y="1465.5" /><text class="OperationalActivity" dominant-baseline="middle" text-anchor="middle" x="1019" y="1465"><tspan x="1094.0" xml:space="preserve" y="1475.0">Provide Shadow</tspan></text><use height="20" width="20" x="1030.4285714285713" xlink:href="#OperationalActivitySymbol" y="1465.0" /></g><g class="Box Entity" id="_y5nhICwuEeyT0qosUy6M3w"><rect class="Entity" height="180" style="stroke-width: 1" width="280" x="145.5" y="1320.5" /><text class="Entity" dominant-baseline="middle" text-anchor="middle" x="145" y="1320"><tspan x="285.0" xml:space="preserve" y="1330.0">Sun</tspan></text><use height="20" width="20" x="255.0" xlink:href="#EntitySymbol" y="1320.0" /></g><g class="Box OperationalActivity" id="_G2Re0DD7EeyhCYRJNkfruA"><rect class="OperationalActivity" height="70" style="stroke-width: 1" width="230" x="177.5" y="1381.5" /><text class="OperationalActivity" dominant-baseline="middle" text-anchor="middle" x="177" y="1381"><tspan x="292.0" xml:space="preserve" y="1392.4285714285713">Provide Sunlight</tspan></text><use height="20" width="20" x="228.42857142857144" xlink:href="#OperationalActivitySymbol" y="1382.4285714285713" /></g><g class="Box OperationalActivity" id="_KxiNwDDrEeyB69gAhEcipw"><rect class="OperationalActivity" height="220" style="stroke-width: 1" width="230" x="562.5" y="1341.5" /><text class="OperationalActivity" dominant-baseline="middle" text-anchor="middle" x="562" y="1341"><tspan x="677.0" xml:space="preserve" y="1351.0">Provide Environmental Conditions</tspan></text><use height="20" width="20" x="566.2857142857143" xlink:href="#OperationalActivitySymbol" y="1341.0" /></g><g class="Box Entity" id="_9ckkgDD6EeyhCYRJNkfruA"><rect class="Entity" height="690" style="stroke-width: 1" width="1009" x="400.5" y="100.5" /><text class="Entity" dominant-baseline="middle" text-anchor="middle" x="400" y="100"><tspan x="904.5" xml:space="preserve" y="110.0">External Control</tspan></text><use height="20" width="20" x="841.6428571428571" xlink:href="#EntitySymbol" y="100.0" /></g><g class="Box OperationalActivity" id="__Q-UYDGJEeyhCYRJNkfruA"><rect class="OperationalActivity" height="70" style="stroke-width: 1" width="160" x="1122.5" y="411.5" /><text class="OperationalActivity" dominant-baseline="middle" text-anchor="middle" x="1122" y="411"><tspan x="1202.0" xml:space="preserve" y="422.42857142857144">Receive Spacecraft Data</tspan></text><use height="20" width="20" x="1120" xlink:href="#OperationalActivitySymbol" y="412.42857142857144" /></g><g class="Box OperationalActivity" id="__Q-UYzGJEeyhCYRJNkfruA"><rect class="OperationalActivity" height="70" style="stroke-width: 1" width="191" x="1072.5" y="181.5" /><text class="OperationalActivity" dominant-baseline="middle" text-anchor="middle" x="1072" y="181"><tspan x="1167.5" xml:space="preserve" y="192.42857142857142">Receive Drilling Data</tspan></text><use height="20" width="20" x="1093.2142857142858" xlink:href="#OperationalActivitySymbol" y="182.42857142857142" /></g><g class="Box OperationalActivity" id="_cqLG4DfIEeygINj2kOX-Xg"><rect class="OperationalActivity" height="130" style="stroke-width: 1" width="309" x="482.5" y="431.5" /><text class="OperationalActivity" dominant-baseline="middle" text-anchor="middle" x="482" y="431"><tspan x="636.5" xml:space="preserve" y="442.42857142857144">Operate Spacecraft from Ground</tspan></text><use height="20" width="20" x="528.6428571428571" xlink:href="#OperationalActivitySymbol" y="432.42857142857144" /></g><g class="Box OperationalActivity" id="_cqLt8DfIEeygINj2kOX-Xg"><rect class="OperationalActivity" height="140" style="stroke-width: 1" width="320" x="492.5" y="201.5" /><text class="OperationalActivity" dominant-baseline="middle" text-anchor="middle" x="492" y="201"><tspan x="652.0" xml:space="preserve" y="212.42857142857142">Operate Drill from Ground</tspan></text><use height="20" width="20" x="561.2857142857143" xlink:href="#OperationalActivitySymbol" y="202.42857142857142" /></g><g class="Box OperationalActivity" id="_pVuA4DfSEeygINj2kOX-Xg"><rect class="OperationalActivity" height="141" style="stroke-width: 1" width="191" x="1122.5" y="611.5" /><text class="OperationalActivity" dominant-baseline="middle" text-anchor="middle" x="1122" y="611"><tspan x="1217.5" xml:space="preserve" y="622.4285714285714">Send Spacecraft Order</tspan></text><use height="20" width="20" x="1136.7857142857142" xlink:href="#OperationalActivitySymbol" y="612.4285714285714" /></g><g class="Box OperationalActivity" id="_pVun8jfSEeygINj2kOX-Xg"><rect class="OperationalActivity" height="101" style="stroke-width: 1" width="211" x="1112.5" y="261.5" /><text class="OperationalActivity" dominant-baseline="middle" text-anchor="middle" x="1112" y="261"><tspan x="1217.5" xml:space="preserve" y="272.42857142857144">Send Drilling Order</tspan></text><use height="20" width="20" x="1146.0714285714287" xlink:href="#OperationalActivitySymbol" y="262.42857142857144" /></g><g class="Edge FunctionalExchange" id="_6JH-qFRYEeyyLounhgaE_g"><path class="Edge" d="M 792.5 1406.5 1019.5 1406.5" style="marker-end: url(&quot;#ArrowMark_5B4040&quot;)" /><rect class="AnnotationBB" height="10" width="42" x="835" y="1402" /><text class="Annotation" dominant-baseline="middle" text-anchor="middle" x="823.0" y="1402"><tspan x="857.0" xml:space="preserve" y="1407.0">Ground</tspan></text><use height="20" width="20" x="816.2857142857143" xlink:href="#OperationalExchangeSymbol" y="1397.0" /></g><g class="Edge FunctionalExchange" id="_6JHXkFRYEeyyLounhgaE_g"><path class="Edge" d="M 943.5 1023.5 823.5 1020.5" style="marker-end: url(&quot;#ArrowMark_5B4040&quot;)" /><rect class="AnnotationBB" height="13" width="80" x="841" y="1004" /><text class="Annotation" dominant-baseline="middle" text-anchor="middle" x="829.0" y="1004"><tspan x="882.0" xml:space="preserve" y="1010.4285714285714">ExtractRegolith</tspan></text><use height="20" width="20" x="822.0" xlink:href="#OperationalExchangeSymbol" y="1000.4285714285714" /></g><g class="Edge FunctionalExchange" id="_6JH-sVRYEeyyLounhgaE_g"><path class="Edge" d="M 562.5 1422.5 407.5 1422.5" style="marker-end: url(&quot;#ArrowMark_5B4040&quot;)" /><rect class="AnnotationBB" height="10" width="53" x="457" y="1417" /><text class="Annotation" dominant-baseline="middle" text-anchor="middle" x="445.0" y="1417"><tspan x="484.5" xml:space="preserve" y="1422.0">Solar Flux</tspan></text><use height="20" width="20" x="438.07142857142856" xlink:href="#OperationalExchangeSymbol" y="1412.0" /></g><g class="Edge FunctionalExchange" id="_6JJM0VRYEeyyLounhgaE_g"><path class="Edge" d="M 2047.5 1080.5 1203.5 1080.5" style="marker-end: url(&quot;#ArrowMark_5B4040&quot;)" /><rect class="AnnotationBB" height="10" width="109" x="1571" y="1069" /><text class="Annotation" dominant-baseline="middle" text-anchor="middle" x="1559.0" y="1069"><tspan x="1626.5" xml:space="preserve" y="1074.0">ProvidePowerToDrill</tspan></text><use height="20" width="20" x="1552.2142857142858" xlink:href="#OperationalExchangeSymbol" y="1064.0" /></g><g class="Edge FunctionalExchange" id="_6JLCAlRYEeyyLounhgaE_g"><path class="Edge" d="M 1079.5 1365.5 1079.5 1108.5" style="marker-end: url(&quot;#ArrowMark_5B4040&quot;)" /><rect class="AnnotationBB" height="13" width="79" x="1039" y="1257" /><text class="Annotation" dominant-baseline="middle" text-anchor="middle" x="1027.0" y="1257"><tspan x="1079.5" xml:space="preserve" y="1263.4285714285713">RegolithToDrill</tspan></text><use height="20" width="20" x="1020.2142857142858" xlink:href="#OperationalExchangeSymbol" y="1253.4285714285713" /></g><g class="Edge FunctionalExchange" id="_6JH-ulRYEeyyLounhgaE_g"><path class="Edge" d="M 792.5 1511.5 1039.5 1511.5" style="marker-end: url(&quot;#ArrowMark_5B4040&quot;)" /><rect class="AnnotationBB" height="10" width="43" x="886" y="1495" /><text class="Annotation" dominant-baseline="middle" text-anchor="middle" x="874.0" y="1495"><tspan x="908.5" xml:space="preserve" y="1500.0">Shadow</tspan></text><use height="20" width="20" x="867.0714285714286" xlink:href="#OperationalExchangeSymbol" y="1490.0" /></g><g class="Edge FunctionalExchange" id="_6JIlsFRYEeyyLounhgaE_g"><path class="Edge" d="M 1122.5 445.5 482.5 437.5" style="marker-end: url(&quot;#ArrowMark_5B4040&quot;)" /><rect class="AnnotationBB" height="13" width="82" x="444" y="428" /><text class="Annotation" dominant-baseline="middle" text-anchor="middle" x="432.0" y="428"><tspan x="486.0" xml:space="preserve" y="434.42857142857144">SpacecraftData</tspan></text><use height="20" width="20" x="425.2857142857143" xlink:href="#OperationalExchangeSymbol" y="424.42857142857144" /></g><g class="Edge FunctionalExchange" id="_6JIluVRYEeyyLounhgaE_g"><path class="Edge" d="M 1074.5 214.5 812.5 214.5" style="marker-end: url(&quot;#ArrowMark_5B4040&quot;)" /><rect class="AnnotationBB" height="13" width="63" x="845" y="203" /><text class="Annotation" dominant-baseline="middle" text-anchor="middle" x="833.0" y="203"><tspan x="877.5" xml:space="preserve" y="209.42857142857142">DrillingData</tspan></text><use height="20" width="20" x="826.0714285714286" xlink:href="#OperationalExchangeSymbol" y="199.42857142857142" /></g><g class="Edge FunctionalExchange" id="_6JHXmVRYEeyyLounhgaE_g"><path class="Edge" d="M 1223.5 1062.5 2546.5 1062.5 2546.5 1025.5" style="marker-end: url(&quot;#ArrowMark_5B4040&quot;)" /><rect class="AnnotationBB" height="13" width="63" x="1909" y="1046" /><text class="Annotation" dominant-baseline="middle" text-anchor="middle" x="1897.0" y="1046"><tspan x="1941.5" xml:space="preserve" y="1052.4285714285713">DrillingData</tspan></text><use height="20" width="20" x="1890.0714285714287" xlink:href="#OperationalExchangeSymbol" y="1042.4285714285713" /></g><g class="Edge FunctionalExchange" id="_6JJM41RYEeyyLounhgaE_g"><path class="Edge" d="M 1847.5 1414.5 2647.5 1414.5" style="marker-end: url(&quot;#ArrowMark_5B4040&quot;)" /><rect class="AnnotationBB" height="13" width="82" x="2188" y="1397" /><text class="Annotation" dominant-baseline="middle" text-anchor="middle" x="2176.0" y="1397"><tspan x="2230.0" xml:space="preserve" y="1403.4285714285713">SpacecraftData</tspan></text><use height="20" width="20" x="2169.285714285714" xlink:href="#OperationalExchangeSymbol" y="1393.4285714285713" /></g><g class="Edge FunctionalExchange" id="_6JJz2FRYEeyyLounhgaE_g"><path class="Edge" d="M 2860.5 1385.5 2860.5 405.5" style="marker-end: url(&quot;#ArrowMark_5B4040&quot;)" /><rect class="AnnotationBB" height="13" width="82" x="2813" y="901" /><text class="Annotation" dominant-baseline="middle" text-anchor="middle" x="2801.0" y="901"><tspan x="2855.0" xml:space="preserve" y="907.4285714285714">SpacecraftData</tspan></text><use height="20" width="20" x="2794.285714285714" xlink:href="#OperationalExchangeSymbol" y="897.4285714285714" /></g><g class="Edge FunctionalExchange" id="_6JJz4VRYEeyyLounhgaE_g"><path class="Edge" d="M 2669.5 905.5 2672.5 405.5" style="marker-end: url(&quot;#ArrowMark_5B4040&quot;)" /><rect class="AnnotationBB" height="13" width="63" x="2635" y="651" /><text class="Annotation" dominant-baseline="middle" text-anchor="middle" x="2623.0" y="651"><tspan x="2667.5" xml:space="preserve" y="657.4285714285714">DrillingData</tspan></text><use height="20" width="20" x="2616.0714285714284" xlink:href="#OperationalExchangeSymbol" y="647.4285714285714" /></g><g class="Edge FunctionalExchange" id="_6JJz81RYEeyyLounhgaE_g"><path class="Edge" d="M 2627.5 290.5 1457.5 290.5 1457.5 440.5 1262.5 440.5" style="marker-end: url(&quot;#ArrowMark_5B4040&quot;)" /><rect class="AnnotationBB" height="13" width="82" x="1886" y="274" /><text class="Annotation" dominant-baseline="middle" text-anchor="middle" x="1874.0" y="274"><tspan x="1928.0" xml:space="preserve" y="280.42857142857144">SpacecraftData</tspan></text><use height="20" width="20" x="1867.2857142857142" xlink:href="#OperationalExchangeSymbol" y="270.42857142857144" /></g><g class="Edge FunctionalExchange" id="_6JKa5FRYEeyyLounhgaE_g"><path class="Edge" d="M 2642.5 255.5 2642.5 204.5 1243.5 209.5" style="marker-end: url(&quot;#ArrowMark_5B4040&quot;)" /><rect class="AnnotationBB" height="13" width="63" x="1944" y="190" /><text class="Annotation" dominant-baseline="middle" text-anchor="middle" x="1932.0" y="190"><tspan x="1976.5" xml:space="preserve" y="196.42857142857142">DrillingData</tspan></text><use height="20" width="20" x="1925.0714285714287" xlink:href="#OperationalExchangeSymbol" y="186.42857142857142" /></g><g class="Edge FunctionalExchange" id="_6JKa7VRYEeyyLounhgaE_g"><path class="Edge" d="M 1747.5 645.5 1747.5 1255.5" style="marker-end: url(&quot;#ArrowMark_5B4040&quot;)" /><rect class="AnnotationBB" height="13" width="108" x="1697" y="945" /><text class="Annotation" dominant-baseline="middle" text-anchor="middle" x="1685.0" y="945"><tspan x="1752.0" xml:space="preserve" y="951.4285714285714">OperateSpaceTravel</tspan></text><use height="20" width="20" x="1678.4285714285713" xlink:href="#OperationalExchangeSymbol" y="941.4285714285714" /></g><g class="Edge FunctionalExchange" id="_6JKa9lRYEeyyLounhgaE_g"><path class="Edge" d="M 1720.5 455.5 1720.5 495.5" style="marker-end: url(&quot;#ArrowMark_5B4040&quot;)" /><rect class="AnnotationBB" height="10" width="88" x="1684" y="465" /><text class="Annotation" dominant-baseline="middle" text-anchor="middle" x="1672.0" y="465"><tspan x="1729.0" xml:space="preserve" y="470.0">SCGroundOrder</tspan></text><use height="20" width="20" x="1665.4285714285713" xlink:href="#OperationalExchangeSymbol" y="460.0" /></g><g class="Edge FunctionalExchange" id="_6JJz6lRYEeyyLounhgaE_g"><path class="Edge" d="M 2215.5 483.5 2262.5 524.5" style="marker-end: url(&quot;#ArrowMark_5B4040&quot;)" /><rect class="AnnotationBB" height="13" width="112" x="2190" y="493" /><text class="Annotation" dominant-baseline="middle" text-anchor="middle" x="2178.0" y="493"><tspan x="2247.0" xml:space="preserve" y="499.42857142857144">DrillingGroundOrder</tspan></text><use height="20" width="20" x="2171.285714285714" xlink:href="#OperationalExchangeSymbol" y="489.42857142857144" /></g><g class="Edge FunctionalExchange" id="_6JKa_1RYEeyyLounhgaE_g"><path class="Edge" d="M 2262.5 635.5 2262.5 755.5 1446.5 764.5 1446.5 1056.5 1203.5 1056.5" style="marker-end: url(&quot;#ArrowMark_5B4040&quot;)" /><rect class="AnnotationBB" height="13" width="70" x="1701" y="744" /><text class="Annotation" dominant-baseline="middle" text-anchor="middle" x="1689.0" y="744"><tspan x="1737.0" xml:space="preserve" y="750.4285714285714">DrillingOrder</tspan></text><use height="20" width="20" x="1682.0" xlink:href="#OperationalExchangeSymbol" y="740.4285714285714" /></g><g class="Edge FunctionalExchange" id="_6JJM2lRYEeyyLounhgaE_g"><path class="Edge" d="M 2047.5 1303.5 1847.5 1303.5" style="marker-end: url(&quot;#ArrowMark_5B4040&quot;)" /><rect class="AnnotationBB" height="13" width="86" x="1896" y="1298" /><text class="Annotation" dominant-baseline="middle" text-anchor="middle" x="1884.0" y="1298"><tspan x="1940.0" xml:space="preserve" y="1304.4285714285713">Traveling Power</tspan></text><use height="20" width="20" x="1877.142857142857" xlink:href="#OperationalExchangeSymbol" y="1294.4285714285713" /></g><g class="Edge FunctionalExchange" id="_6JLB8FRYEeyyLounhgaE_g"><path class="Edge" d="M 2317.5 485.5 2300.5 524.5" style="marker-end: url(&quot;#ArrowMark_5B4040&quot;)" /><rect class="AnnotationBB" height="13" width="140" x="2242" y="495" /><text class="Annotation" dominant-baseline="middle" text-anchor="middle" x="2230.0" y="495"><tspan x="2313.0" xml:space="preserve" y="501.42857142857144">DrillingAutonomousOrder</tspan></text><use height="20" width="20" x="2223.0" xlink:href="#OperationalExchangeSymbol" y="491.42857142857144" /></g><g class="Edge FunctionalExchange" id="_6JLB-VRYEeyyLounhgaE_g"><path class="Edge" d="M 1887.5 475.5 1887.5 495.5" style="marker-end: url(&quot;#ArrowMark_5B4040&quot;)" /><rect class="AnnotationBB" height="10" width="102" x="1835" y="474" /><text class="Annotation" dominant-baseline="middle" text-anchor="middle" x="1823.0" y="474"><tspan x="1887.0" xml:space="preserve" y="479.0">AutonomousOrder</tspan></text><use height="20" width="20" x="1816.2857142857142" xlink:href="#OperationalExchangeSymbol" y="469.0" /></g><g class="Edge FunctionalExchange" id="_6JIlwlRYEeyyLounhgaE_g"><path class="Edge" d="M 551.5 561.5 551.5 646.5 1123.5 646.5" style="marker-end: url(&quot;#ArrowMark_5B4040&quot;)" /><rect class="AnnotationBB" height="13" width="89" x="750" y="630" /><text class="Annotation" dominant-baseline="middle" text-anchor="middle" x="738.0" y="630"><tspan x="795.5" xml:space="preserve" y="636.4285714285714">SpacecraftOrder</tspan></text><use height="20" width="20" x="731.2142857142857" xlink:href="#OperationalExchangeSymbol" y="626.4285714285714" /></g><g class="Edge FunctionalExchange" id="_6JIly1RYEeyyLounhgaE_g"><path class="Edge" d="M 812.5 296.5 1112.5 296.5" style="marker-end: url(&quot;#ArrowMark_5B4040&quot;)" /><rect class="AnnotationBB" height="13" width="70" x="927" y="280" /><text class="Annotation" dominant-baseline="middle" text-anchor="middle" x="915.0" y="280"><tspan x="963.0" xml:space="preserve" y="286.42857142857144">DrillingOrder</tspan></text><use height="20" width="20" x="908.0" xlink:href="#OperationalExchangeSymbol" y="276.42857142857144" /></g><g class="Edge FunctionalExchange" id="_6JIl1FRYEeyyLounhgaE_g"><path class="Edge" d="M 1313.5 646.5 1451.5 646.5 1451.5 381.5 1647.5 381.5" style="marker-end: url(&quot;#ArrowMark_5B4040&quot;)" /><rect class="AnnotationBB" height="13" width="89" x="1407" y="481" /><text class="Annotation" dominant-baseline="middle" text-anchor="middle" x="1395.0" y="481"><tspan x="1452.5" xml:space="preserve" y="487.42857142857144">SpacecraftOrder</tspan></text><use height="20" width="20" x="1388.2142857142858" xlink:href="#OperationalExchangeSymbol" y="477.42857142857144" /></g><g class="Edge FunctionalExchange" id="_6JJMyFRYEeyyLounhgaE_g"><path class="Edge" d="M 1323.5 294.5 2182.5 290.5 2182.5 359.5" style="marker-end: url(&quot;#ArrowMark_5B4040&quot;)" /><rect class="AnnotationBB" height="13" width="73" x="1741" y="274" /><text class="Annotation" dominant-baseline="middle" text-anchor="middle" x="1729.0" y="274"><tspan x="1778.5" xml:space="preserve" y="280.42857142857144">Drilling Order</tspan></text><use height="20" width="20" x="1722.0714285714287" xlink:href="#OperationalExchangeSymbol" y="270.42857142857144" /></g></svg>