<svg baseProfile="full" class="OperationalEntityBlank" height="1520" version="1.1" viewBox="95 95 3000 1520" width="3000" xmlns="http://www.w3.org/2000/svg" xmlns:ev="http://www.w3.org/2001/xml-events" xmlns:xlink="http://www.w3.org/1999/xlink"><defs><style>.OperationalEntityBlank * { shape-rendering: geometricPrecision; }
.OperationalEntityBlank text { font-family: "Segoe UI"; font-size: 8pt; }
.OperationalEntityBlank g { cursor: pointer; }
.OperationalEntityBlank g.Edge &gt; path { fill: none; stroke: rgb(0, 0, 0); }
.OperationalEntityBlank g.Box &gt; line { stroke: #000000; }
.OperationalEntityBlank g.Box &gt; rect, .OperationalEntityBlank g.Box &gt; use { fill: transparent; stroke: #000000; stroke-width: 1; }
.OperationalEntityBlank g.Box.Annotation &gt; line { stroke: none; }
.OperationalEntityBlank g.Box.Annotation &gt; rect, .OperationalEntityBlank g.Box.Annotation &gt; use { fill: none; stroke: none; }
.OperationalEntityBlank g.Box.Constraint &gt; line { stroke: #888888; }
.OperationalEntityBlank g.Box.Constraint &gt; rect, .OperationalEntityBlank g.Box.Constraint &gt; use { fill: #FFF5B5; stroke: #888888; }
.OperationalEntityBlank g.Box.Constraint &gt; text { fill: #000000; }
.OperationalEntityBlank g.Box.Note &gt; line { stroke: #FFCC66; }
.OperationalEntityBlank g.Box.Note &gt; rect, .OperationalEntityBlank g.Box.Note &gt; use { fill: #FFFFCB; stroke: #FFCC66; }
.OperationalEntityBlank g.Box.Note &gt; text { fill: #000000; }
.OperationalEntityBlank g.Box.Requirement &gt; line { stroke: #72496E; }
.OperationalEntityBlank g.Box.Requirement &gt; rect, .OperationalEntityBlank g.Box.Requirement &gt; use { fill: #D9C4D7; stroke: #72496E; }
.OperationalEntityBlank g.Box.Requirement &gt; text { fill: #000000; }
.OperationalEntityBlank g.Box.Text &gt; line { stroke: transparent; }
.OperationalEntityBlank g.Box.Text &gt; rect, .OperationalEntityBlank g.Box.Text &gt; use { stroke: transparent; }
.OperationalEntityBlank g.Edge &gt; rect { fill: none; stroke: none; }
.OperationalEntityBlank g.Circle &gt; circle { fill: #000000; stroke: none; }
.OperationalEntityBlank g.Edge &gt; path { stroke-width: 1; }
.OperationalEntityBlank g.Edge.Connector &gt; rect { fill: none; stroke: none; }
.OperationalEntityBlank g.Circle.Connector &gt; circle { fill: #B0B0B0; stroke: none; }
.OperationalEntityBlank g.Edge.Connector &gt; path { stroke: #B0B0B0; stroke-dasharray: 1; }
.OperationalEntityBlank g.Edge.Constraint &gt; rect { fill: none; stroke: none; }
.OperationalEntityBlank g.Circle.Constraint &gt; circle { fill: #000000; stroke: none; }
.OperationalEntityBlank g.Edge.Constraint &gt; path { stroke: #000000; stroke-dasharray: 1, 3; marker-end: url(#FineArrowMark_000000); stroke-linecap: round; }
.OperationalEntityBlank g.Edge.Note &gt; rect { fill: none; stroke: none; }
.OperationalEntityBlank g.Circle.Note &gt; circle { fill: #000000; stroke: none; }
.OperationalEntityBlank g.Edge.Note &gt; path { stroke: #000000; stroke-dasharray: 1, 3; }
.OperationalEntityBlank g.Edge.RequirementRelation &gt; rect { fill: none; stroke: none; }
.OperationalEntityBlank g.Circle.RequirementRelation &gt; circle { fill: #72496E; stroke: none; }
.OperationalEntityBlank g.Edge.RequirementRelation &gt; path { stroke: #72496E; stroke-width: 2; marker-end: url(#FineArrowMark_72496E); stroke-dasharray: 5; }
.OperationalEntityBlank g.Edge.RequirementRelation &gt; text { fill: #72496E; }
.OperationalEntityBlank g.Box.Entity &gt; line { stroke: #454545; }
.OperationalEntityBlank g.Box.Entity &gt; rect, .OperationalEntityBlank g.Box.Entity &gt; use { fill: url("#.EntityFillGradient"); stroke: #454545; }
.OperationalEntityBlank g.Box.Entity &gt; text { fill: #000000; }
.OperationalEntityBlank g.Box.OperationalActivity &gt; line { stroke: #5B4040; }
.OperationalEntityBlank g.Box.OperationalActivity &gt; rect, .OperationalEntityBlank g.Box.OperationalActivity &gt; use { fill: #F7DA74; stroke: #5B4040; }
.OperationalEntityBlank g.Box.OperationalActivity &gt; text { fill: #5B4040; }
.OperationalEntityBlank g.Box.OperationalActor &gt; line { stroke: #454545; }
.OperationalEntityBlank g.Box.OperationalActor &gt; rect, .OperationalEntityBlank g.Box.OperationalActor &gt; use { fill: url("#.OperationalActorFillGradient"); stroke: #454545; }
.OperationalEntityBlank g.Box.OperationalActor &gt; text { fill: #000000; }
.OperationalEntityBlank g.Box.Role &gt; line { stroke: #72496E; }
.OperationalEntityBlank g.Box.Role &gt; rect, .OperationalEntityBlank g.Box.Role &gt; use { fill: url("#.RoleFillGradient"); stroke: #72496E; }
.OperationalEntityBlank g.Box.Role &gt; text { fill: #000000; }
.OperationalEntityBlank g.Edge.CommunicationMean &gt; rect { fill: none; stroke: none; }
.OperationalEntityBlank g.Circle.CommunicationMean &gt; circle { fill: #454545; stroke: none; }
.OperationalEntityBlank g.Edge.CommunicationMean &gt; path { marker-end: url(#ArrowMark_454545); stroke: #454545; }
.OperationalEntityBlank g.Edge.FunctionalExchange &gt; rect { fill: none; stroke: none; }
.OperationalEntityBlank g.Circle.FunctionalExchange &gt; circle { fill: #5B4040; stroke: none; }
.OperationalEntityBlank g.Edge.FunctionalExchange &gt; path { marker-end: url(#ArrowMark_5B4040); stroke: #5B4040; }
</style><symbol id="ErrorSymbol" viewBox="0 0 2.6458 2.6458"><path d="M 0,0 2.6458333,2.6458333 M 0,2.6458333 2.6458333,0" style="fill: none; stroke: red; stroke-width: 0.5;" /></symbol><symbol id="RequirementSymbol" style="stroke: none;" viewBox="0 0 50 50"><path d="M 12.806813,6.5702324 A 6.244379,5.8113241 0 0 1 6.5624342,12.381557 6.244379,5.8113241 0 0 1 0.31805515,6.5702324 6.244379,5.8113241 0 0 1 6.5624342,0.75890827 6.244379,5.8113241 0 0 1 12.806813,6.5702324 Z" style="fill: #431964" /><path d="m 4.3228658,5.8752475 h 2.9514721 q 0.2945581,0 0.5184223,-0.1413879 Q 8.0225155,5.5865806 8.1462299,5.3214783 8.2699443,5.056376 8.2758355,4.7029063 v 0 q 0,-0.3475786 -0.1237144,-0.6126808 Q 8.0284067,3.8251232 7.7986513,3.6837353 7.5747872,3.5364562 7.2743379,3.5364562 H 4.3228658 V 2.1873801 h 2.9927103 q 0.7246129,0 1.2724909,0.3122316 0.5478781,0.3122316 0.8483274,0.8836743 0.3063404,0.5714427 0.3063404,1.3196203 v 0 q 0,0.7540687 -0.3063404,1.3255114 Q 9.1359451,6.5998605 8.5821759,6.912092 8.0342978,7.2243236 7.3155761,7.2243236 H 4.3228658 Z M 3.7396407,2.1873801 H 5.1476285 V 10.759021 H 3.7396407 Z M 6.3906636,6.9592213 7.8516718,6.6882279 10.102096,10.759021 H 8.4113322 Z" style="fill:#ffffff;" /></symbol><symbol id="EntitySymbol" style="stroke: #000; stroke-width: 2;" viewBox="0 0 79 79"><linearGradient id="ls-blue" x1="0" x2="0" y1="0" y2="1"><stop offset="0.0" stop-color="#c3e4ff" stop-opacity="1" /><stop offset="1.0" stop-color="#98b0dd" stop-opacity="1" /></linearGradient><path d="M18 237h46v43H18z" style="fill: url(#ls-blue)" transform="translate(0 -218)" /><path d="M12 247h11v8H12z" style="fill: url(#ls-blue)" transform="translate(0 -218)" /><path d="M12 261h11v8H12z" style="fill: url(#ls-blue)" transform="translate(0 -218)" /><path d="m 41.658466,55.581913 q 0,1.062616 -0.693953,1.734883 -0.672267,0.672267 -1.734883,0.672267 h -9.498483 q -1.062615,0 -1.734883,-0.672267 -0.672267,-0.672267 -0.672267,-1.734883 V 26.457569 q 0,-1.062615 0.672267,-1.734882 0.672268,-0.672267 1.734883,-0.672267 h 9.498483 q 1.062616,0 1.734883,0.672267 0.693953,0.672267 0.693953,1.734882 z M 38.644107,55.321681 V 26.717802 h -8.305751 v 28.603879 z" style="fill:black;" /><path d="M 58.248283,57.989063 H 47.101662 V 24.05042 h 11.016505 v 2.667382 H 50.11602 v 12.664644 h 5.091614 l 0.09145,2.616665 -5.183068,0.09409 v 13.228481 h 8.132263 z" style="fill:black;" /></symbol><symbol id="OperationalActivitySymbol" viewBox="0 0 79 79"><linearGradient id="green" x1="0" x2="1" y1="0" y2="0"><stop offset="0.0" stop-color="#f4901d" stop-opacity="1" /><stop offset="1.0" stop-color="white" stop-opacity="1" /></linearGradient><ellipse cx="42.2" cy="32" rx="22.5" ry="15.5" style="fill: url(#green); stroke: #000; stroke-width: 2;" /><text style="font-family: &quot;Segoe UI&quot;; font-size: 12pt; font-weight: bold; fill: black; stroke: none;" text-anchor="middle" x="42.2" y="38">OA</text></symbol><symbol id="OperationalActorBoxSymbol" style="stroke: #000000; stroke-width: 2;" viewBox="-10 -10 79 79"><circle cx="6.8" cy="7.75" r="5" style="fill:none;" /><path d="m 6.723408,12.783569 0.1864956,13.042426 -6.52734189,6.042591 v 0 l 6.52734189,-6.042591 6.2009764,5.95285 -6.2942242,-6.012678 -0.092832,-6.050988 6.2026382,0.033 -12.3973765,0.02992" style="fill: none;" /></symbol><symbol id="OperationalExchangeSymbol" viewBox="0 0 40 30"><linearGradient id="OperationalExchangeSymbol-gradient" x1="0" x2="1" y1="0" y2="1"><stop offset="0.0" stop-color="#DF943C" stop-opacity="1" /><stop offset="1.0" stop-color="#FFF1E0" stop-opacity="1" /></linearGradient><linearGradient id="OperationalExchangeSymbol-gradientreverse" x1="0" x2="1" y1="0" y2="1"><stop offset="0.0" stop-color="#FFF1E0" stop-opacity="1" /><stop offset="1.0" stop-color="#DF943C" stop-opacity="1" /></linearGradient><g style="stroke:#000;stroke-width:2;"><path d="M 36.190065,5.0377724 V 24.962228 H 26.17482 V 5.0377724 Z" style="fill: url(#OperationalExchangeSymbol-gradientreverse)" /><path d="m 14.372107,10 h 12.622435 c 0.926189,0.585267 1.836022,1.274509 2.268178,5 -0.208657,2.812473 -0.954601,4.503809 -2.273297,5 H 14.296948" style="fill: #EF8D1C" /><path d="M 3.9464908,5.0048246 V 24.995175 H 10.87518 C 12.433713,24.159139 15.158267,20.291241 15.313795,15 15.498614,11.583142 14.059659,6.6240913 10.87518,5.0048246 c -2.2179509,0 -4.5908341,0 -6.9286892,0 z" style="fill: url(#OperationalExchangeSymbol-gradient)" /></g></symbol><linearGradient id=".EntityFillGradient" x1="0%" x2="0%" y1="0%" y2="100%"><stop offset="0" stop-color="#F9F8F5" /><stop offset="1" stop-color="#DDDDC8" /></linearGradient><linearGradient id=".OperationalActorFillGradient" x1="0%" x2="0%" y1="0%" y2="100%"><stop offset="0" stop-color="#F9F8F5" /><stop offset="1" stop-color="#DDDDC8" /></linearGradient><linearGradient id=".RoleFillGradient" x1="0%" x2="0%" y1="0%" y2="100%"><stop offset="0" stop-color="#FFFFFF" /><stop offset="1" stop-color="#CBAEC8" /></linearGradient><marker id="ArrowMark_5B4040" markerHeight="5.5" markerUnits="userSpaceOnUse" markerWidth="5.5" orient="auto" refX="5" refY="2.5"><path d="M 0,0 5,2.5 0,5" style="fill: #5B4040; stroke: #5B4040; stroke-width: None" /></marker></defs><rect fill="white" height="1520" stroke="none" width="3000" x="95" y="95" /><g class="Box Entity" id="_-W0roCwrEeyT0qosUy6M3w"><rect class="Entity" height="387" style="stroke-width: 1" width="761" x="556.5" y="856.5" /><text class="Entity" dominant-baseline="middle" text-anchor="middle" x="556" y="856"><tspan x="936.5" xml:space="preserve" y="867.4285714285714">Excavation System</tspan></text><use height="20" width="20" x="867.2142857142857" xlink:href="#EntitySymbol" y="857.4285714285714" /></g><g class="Box OperationalActivity" id="_F1rkgDD7EeyhCYRJNkfruA"><rect class="OperationalActivity" height="140" style="stroke-width: 1" width="280" x="948.5" y="997.5" /><text class="OperationalActivity" dominant-baseline="middle" text-anchor="middle" x="948" y="997"><tspan x="1088.0" xml:space="preserve" y="1007.0">Drill Lunar Ground</tspan></text><use height="20" width="20" x="1018.0" xlink:href="#OperationalActivitySymbol" y="997.0" /></g><g class="Box OperationalActivity" id="_F1sLkDD7EeyhCYRJNkfruA"><rect class="OperationalActivity" height="150" style="stroke-width: 1" width="200" x="628.5" y="987.5" /><text class="OperationalActivity" dominant-baseline="middle" text-anchor="middle" x="628" y="987"><tspan x="728.0" xml:space="preserve" y="998.4285714285714">Provide Unprocessed Regolith</tspan></text><use height="20" width="20" x="628.0" xlink:href="#OperationalActivitySymbol" y="988.4285714285714" /></g><g class="Box Entity" id="_-W0roywrEeyT0qosUy6M3w"><rect class="Entity" height="1401" style="stroke-width: 1" width="1570" x="1515.5" y="185.5" /><text class="Entity" dominant-baseline="middle" text-anchor="middle" x="1515" y="185"><tspan x="2300.0" xml:space="preserve" y="195.0">Lunar Lander</tspan></text><use height="20" width="20" x="2243.5714285714284" xlink:href="#EntitySymbol" y="185.0" /></g><g class="Box Entity" id="_YMrIgDGAEeyhCYRJNkfruA"><rect class="Entity" height="711" style="stroke-width: 1" width="381" x="1985.5" y="814.5" /><text class="Entity" dominant-baseline="middle" text-anchor="middle" x="1985" y="814"><tspan x="2175.5" xml:space="preserve" y="825.4285714285714">Power System</tspan></text><use height="20" width="20" x="2117.6428571428573" xlink:href="#EntitySymbol" y="815.4285714285714" /></g><g class="Box OperationalActivity" id="_gCKlcDF9EeyhCYRJNkfruA"><rect class="OperationalActivity" height="216" style="stroke-width: 1" width="237" x="2057.5" y="895.5" /><text class="OperationalActivity" dominant-baseline="middle" text-anchor="middle" x="2057" y="895"><tspan x="2175.5" xml:space="preserve" y="906.4285714285714">Produce Drilling Power</tspan></text><use height="20" width="20" x="2094.0714285714284" xlink:href="#OperationalActivitySymbol" y="896.4285714285714" /></g><g class="Box OperationalActivity" id="_OxiGozfJEeygINj2kOX-Xg"><rect class="OperationalActivity" height="151" style="stroke-width: 1" width="237" x="2057.5" y="1185.5" /><text class="OperationalActivity" dominant-baseline="middle" text-anchor="middle" x="2057" y="1185"><tspan x="2175.5" xml:space="preserve" y="1195.0">Power Travel</tspan></text><use height="20" width="20" x="2121.214285714286" xlink:href="#OperationalActivitySymbol" y="1185.0" /></g><g class="Box Entity" id="_ys2qcDJjEeyhCYRJNkfruA"><rect class="Entity" height="709" style="stroke-width: 1" width="380" x="1565.5" y="804.5" /><text class="Entity" dominant-baseline="middle" text-anchor="middle" x="1565" y="804"><tspan x="1755.0" xml:space="preserve" y="815.4285714285714">Propulsion System</tspan></text><use height="20" width="20" x="1685.7142857142858" xlink:href="#EntitySymbol" y="805.4285714285714" /></g><g class="Box OperationalActivity" id="_rDZ2QDfIEeygINj2kOX-Xg"><rect class="OperationalActivity" height="180" style="stroke-width: 1" width="200" x="1657.5" y="1265.5" /><text class="OperationalActivity" dominant-baseline="middle" text-anchor="middle" x="1657" y="1265"><tspan x="1757.0" xml:space="preserve" y="1275.0">Travel to the moon</tspan></text><use height="20" width="20" x="1686.2857142857142" xlink:href="#OperationalActivitySymbol" y="1265.0" /></g><g class="Box Entity" id="_7DNXUDfHEeygINj2kOX-Xg"><rect class="Entity" height="710" style="stroke-width: 1" width="620" x="2425.5" y="814.5" /><text class="Entity" dominant-baseline="middle" text-anchor="middle" x="2425" y="814"><tspan x="2735.0" xml:space="preserve" y="824.0">OBC</tspan></text><use height="20" width="20" x="2703.5714285714284" xlink:href="#EntitySymbol" y="814.0" /></g><g class="Box OperationalActivity" id="_w_484DJkEeyhCYRJNkfruA"><rect class="OperationalActivity" height="111" style="stroke-width: 1" width="300" x="2657.5" y="1395.5" /><text class="OperationalActivity" dominant-baseline="middle" text-anchor="middle" x="2657" y="1395"><tspan x="2807.0" xml:space="preserve" y="1406.4285714285713">Monitor Spacecraft Status</tspan></text><use height="20" width="20" x="2717.714285714286" xlink:href="#OperationalActivitySymbol" y="1396.4285714285713" /></g><g class="Box OperationalActivity" id="_w_485jJkEeyhCYRJNkfruA"><rect class="OperationalActivity" height="120" style="stroke-width: 1" width="300" x="2477.5" y="915.5" /><text class="OperationalActivity" dominant-baseline="middle" text-anchor="middle" x="2477" y="915"><tspan x="2627.0" xml:space="preserve" y="926.4285714285714">Monitor Drilling</tspan></text><use height="20" width="20" x="2564.8571428571427" xlink:href="#OperationalActivitySymbol" y="916.4285714285714" /></g><g class="Box Entity" id="_ys3RgDJjEeyhCYRJNkfruA"><rect class="Entity" height="480" style="stroke-width: 1" width="1510" x="1545.5" y="224.5" /><text class="Entity" dominant-baseline="middle" text-anchor="middle" x="1545" y="224"><tspan x="2300.0" xml:space="preserve" y="235.42857142857142">Spacecraft Communication System</tspan></text><use height="20" width="20" x="2187.1428571428573" xlink:href="#EntitySymbol" y="225.42857142857142" /></g><g class="Box OperationalActivity" id="_w_5j8TJkEeyhCYRJNkfruA"><rect class="OperationalActivity" height="148" style="stroke-width: 1" width="141" x="2117.5" y="345.5" /><text class="OperationalActivity" dominant-baseline="middle" text-anchor="middle" x="2117" y="345"><tspan x="2187.5" xml:space="preserve" y="356.42857142857144">Receive Drilling</tspan><tspan x="2187.5" xml:space="preserve" y="369.2857142857143">Control Order</tspan></text><use height="20" width="20" x="2126.785714285714" xlink:href="#OperationalActivitySymbol" y="352.85714285714283" /></g><g class="Box OperationalActivity" id="_0k9FADfIEeygINj2kOX-Xg"><rect class="OperationalActivity" height="150" style="stroke-width: 1" width="280" x="2637.5" y="265.5" /><text class="OperationalActivity" dominant-baseline="middle" text-anchor="middle" x="2637" y="265"><tspan x="2777.0" xml:space="preserve" y="275.0">Send Data to Ground</tspan></text><use height="20" width="20" x="2700.5714285714284" xlink:href="#OperationalActivitySymbol" y="265.0" /></g><g class="Box OperationalActivity" id="_EdJswDfJEeygINj2kOX-Xg"><rect class="OperationalActivity" height="150" style="stroke-width: 1" width="351" x="1597.5" y="505.5" /><text class="OperationalActivity" dominant-baseline="middle" text-anchor="middle" x="1597" y="505"><tspan x="1772.5" xml:space="preserve" y="516.4285714285714">Handle Spacecraft Control</tspan></text><use height="20" width="20" x="1682.5" xlink:href="#OperationalActivitySymbol" y="506.42857142857144" /></g><g class="Box OperationalActivity" id="_EdJswzfJEeygINj2kOX-Xg"><rect class="OperationalActivity" height="160" style="stroke-width: 1" width="151" x="1637.5" y="305.5" /><text class="OperationalActivity" dominant-baseline="middle" text-anchor="middle" x="1637" y="305"><tspan x="1712.5" xml:space="preserve" y="316.42857142857144">Receive Spacecraft</tspan><tspan x="1712.5" xml:space="preserve" y="329.2857142857143">Order</tspan></text><use height="20" width="20" x="1642.5" xlink:href="#OperationalActivitySymbol" y="312.85714285714283" /></g><g class="Box OperationalActivity" id="_LqNwYDfJEeygINj2kOX-Xg"><rect class="OperationalActivity" height="111" style="stroke-width: 1" width="361" x="2107.5" y="534.5" /><text class="OperationalActivity" dominant-baseline="middle" text-anchor="middle" x="2107" y="534"><tspan x="2287.5" xml:space="preserve" y="545.4285714285714">Handle Drilling Control</tspan></text><use height="20" width="20" x="2206.785714285714" xlink:href="#OperationalActivitySymbol" y="535.4285714285714" /></g><g class="Box OperationalActivity" id="_bhz7MDfJEeygINj2kOX-Xg"><rect class="OperationalActivity" height="150" style="stroke-width: 1" width="141" x="2307.5" y="345.5" /><text class="OperationalActivity" dominant-baseline="middle" text-anchor="middle" x="2307" y="345"><tspan x="2377.5" xml:space="preserve" y="356.42857142857144">Operate Drill</tspan><tspan x="2377.5" xml:space="preserve" y="369.2857142857143">Autonomously</tspan></text><use height="20" width="20" x="2318.214285714286" xlink:href="#OperationalActivitySymbol" y="352.85714285714283" /></g><g class="Box OperationalActivity" id="_bh2XcDfJEeygINj2kOX-Xg"><rect class="OperationalActivity" height="160" style="stroke-width: 1" width="131" x="1857.5" y="325.5" /><text class="OperationalActivity" dominant-baseline="middle" text-anchor="middle" x="1857" y="325"><tspan x="1922.5" xml:space="preserve" y="336.42857142857144">Operate Spacecraft</tspan><tspan x="1922.5" xml:space="preserve" y="349.2857142857143">Autonomously</tspan></text><use height="20" width="20" x="1855" xlink:href="#OperationalActivitySymbol" y="332.85714285714283" /></g><g class="Box Entity" id="_bxUWkCwzEeyT0qosUy6M3w"><rect class="Entity" height="320" style="stroke-width: 1" width="1210" x="105.5" y="1285.5" /><text class="Entity" dominant-baseline="middle" text-anchor="middle" x="105" y="1285"><tspan x="710.0" xml:space="preserve" y="1295.0">Lunar Environment</tspan></text><use height="20" width="20" x="638.5714285714286" xlink:href="#EntitySymbol" y="1285.0" /></g><g class="Box Entity" id="_-W0EkiwrEeyT0qosUy6M3w"><rect class="Entity" height="250" style="stroke-width: 1" width="300" x="946.5" y="1324.5" /><text class="Entity" dominant-baseline="middle" text-anchor="middle" x="946" y="1324"><tspan x="1096.0" xml:space="preserve" y="1334.0">Lunar Soil</tspan></text><use height="20" width="20" x="1049.5714285714287" xlink:href="#EntitySymbol" y="1324.0" /></g><g class="Box OperationalActivity" id="_95XkYDAtEeyluZrdaVDz3A"><rect class="OperationalActivity" height="70" style="stroke-width: 1" width="160" x="1009.5" y="1375.5" /><text class="OperationalActivity" dominant-baseline="middle" text-anchor="middle" x="1009" y="1375"><tspan x="1089.0" xml:space="preserve" y="1385.0">Provide Lunar Ground</tspan></text><use height="20" width="20" x="1009.7142857142858" xlink:href="#OperationalActivitySymbol" y="1375.0" /></g><g class="Box OperationalActivity" id="_7mAU8DZfEeygINj2kOX-Xg"><rect class="OperationalActivity" height="70" style="stroke-width: 1" width="150" x="1029.5" y="1475.5" /><text class="OperationalActivity" dominant-baseline="middle" text-anchor="middle" x="1029" y="1475"><tspan x="1104.0" xml:space="preserve" y="1485.0">Provide Shadow</tspan></text><use height="20" width="20" x="1040.4285714285713" xlink:href="#OperationalActivitySymbol" y="1475.0" /></g><g class="Box Entity" id="_y5nhICwuEeyT0qosUy6M3w"><rect class="Entity" height="180" style="stroke-width: 1" width="280" x="155.5" y="1330.5" /><text class="Entity" dominant-baseline="middle" text-anchor="middle" x="155" y="1330"><tspan x="295.0" xml:space="preserve" y="1340.0">Sun</tspan></text><use height="20" width="20" x="265.0" xlink:href="#EntitySymbol" y="1330.0" /></g><g class="Box OperationalActivity" id="_G2Re0DD7EeyhCYRJNkfruA"><rect class="OperationalActivity" height="70" style="stroke-width: 1" width="230" x="187.5" y="1391.5" /><text class="OperationalActivity" dominant-baseline="middle" text-anchor="middle" x="187" y="1391"><tspan x="302.0" xml:space="preserve" y="1402.4285714285713">Provide Sunlight</tspan></text><use height="20" width="20" x="238.42857142857144" xlink:href="#OperationalActivitySymbol" y="1392.4285714285713" /></g><g class="Box OperationalActivity" id="_KxiNwDDrEeyB69gAhEcipw"><rect class="OperationalActivity" height="220" style="stroke-width: 1" width="230" x="567.5" y="1346.5" /><text class="OperationalActivity" dominant-baseline="middle" text-anchor="middle" x="567" y="1346"><tspan x="682.0" xml:space="preserve" y="1356.0">Provide Environmental Conditions</tspan></text><use height="20" width="20" x="571.2857142857143" xlink:href="#OperationalActivitySymbol" y="1346.0" /></g><g class="Box Entity" id="_9ckkgDD6EeyhCYRJNkfruA"><rect class="Entity" height="690" style="stroke-width: 1" width="1009" x="405.5" y="105.5" /><text class="Entity" dominant-baseline="middle" text-anchor="middle" x="405" y="105"><tspan x="909.5" xml:space="preserve" y="115.0">External Control</tspan></text><use height="20" width="20" x="846.6428571428571" xlink:href="#EntitySymbol" y="105.0" /></g><g class="Box OperationalActivity" id="__Q-UYDGJEeyhCYRJNkfruA"><rect class="OperationalActivity" height="70" style="stroke-width: 1" width="160" x="1127.5" y="416.5" /><text class="OperationalActivity" dominant-baseline="middle" text-anchor="middle" x="1127" y="416"><tspan x="1207.0" xml:space="preserve" y="427.42857142857144">Receive Spacecraft Data</tspan></text><use height="20" width="20" x="1125" xlink:href="#OperationalActivitySymbol" y="417.42857142857144" /></g><g class="Box OperationalActivity" id="__Q-UYzGJEeyhCYRJNkfruA"><rect class="OperationalActivity" height="70" style="stroke-width: 1" width="191" x="1077.5" y="186.5" /><text class="OperationalActivity" dominant-baseline="middle" text-anchor="middle" x="1077" y="186"><tspan x="1172.5" xml:space="preserve" y="197.42857142857142">Receive Drilling Data</tspan></text><use height="20" width="20" x="1098.2142857142858" xlink:href="#OperationalActivitySymbol" y="187.42857142857142" /></g><g class="Box OperationalActivity" id="_cqLG4DfIEeygINj2kOX-Xg"><rect class="OperationalActivity" height="130" style="stroke-width: 1" width="309" x="487.5" y="436.5" /><text class="OperationalActivity" dominant-baseline="middle" text-anchor="middle" x="487" y="436"><tspan x="641.5" xml:space="preserve" y="447.42857142857144">Operate Spacecraft from Ground</tspan></text><use height="20" width="20" x="533.6428571428571" xlink:href="#OperationalActivitySymbol" y="437.42857142857144" /></g><g class="Box OperationalActivity" id="_cqLt8DfIEeygINj2kOX-Xg"><rect class="OperationalActivity" height="140" style="stroke-width: 1" width="320" x="497.5" y="206.5" /><text class="OperationalActivity" dominant-baseline="middle" text-anchor="middle" x="497" y="206"><tspan x="657.0" xml:space="preserve" y="217.42857142857142">Operate Drill from Ground</tspan></text><use height="20" width="20" x="566.2857142857143" xlink:href="#OperationalActivitySymbol" y="207.42857142857142" /></g><g class="Box OperationalActivity" id="_pVuA4DfSEeygINj2kOX-Xg"><rect class="OperationalActivity" height="141" style="stroke-width: 1" width="191" x="1127.5" y="616.5" /><text class="OperationalActivity" dominant-baseline="middle" text-anchor="middle" x="1127" y="616"><tspan x="1222.5" xml:space="preserve" y="627.4285714285714">Send Spacecraft Order</tspan></text><use height="20" width="20" x="1141.7857142857142" xlink:href="#OperationalActivitySymbol" y="617.4285714285714" /></g><g class="Box OperationalActivity" id="_pVun8jfSEeygINj2kOX-Xg"><rect class="OperationalActivity" height="101" style="stroke-width: 1" width="211" x="1117.5" y="266.5" /><text class="OperationalActivity" dominant-baseline="middle" text-anchor="middle" x="1117" y="266"><tspan x="1222.5" xml:space="preserve" y="277.42857142857144">Send Drilling Order</tspan></text><use height="20" width="20" x="1151.0714285714287" xlink:href="#OperationalActivitySymbol" y="267.42857142857144" /></g><g class="Edge FunctionalExchange" id="_6JH-qFRYEeyyLounhgaE_g"><path class="Edge" d="M 797.5 1440.5 1009.5 1410.5" style="marker-end: url(&quot;#ArrowMark_5B4040&quot;)" /><rect class="AnnotationBB" height="10" width="42" x="840" y="1407" /><text class="Annotation" dominant-baseline="middle" text-anchor="middle" x="828.0" y="1407"><tspan x="862.0" xml:space="preserve" y="1412.0">Ground</tspan></text><use height="20" width="20" x="821.2857142857143" xlink:href="#OperationalExchangeSymbol" y="1402.0" /></g><g class="Edge FunctionalExchange" id="_6JHXkFRYEeyyLounhgaE_g"><path class="Edge" d="M 948.5 1056.5 828.5 1047.5" style="marker-end: url(&quot;#ArrowMark_5B4040&quot;)" /><rect class="AnnotationBB" height="13" width="80" x="846" y="1009" /><text class="Annotation" dominant-baseline="middle" text-anchor="middle" x="834.0" y="1009"><tspan x="887.0" xml:space="preserve" y="1015.4285714285714">ExtractRegolith</tspan></text><use height="20" width="20" x="827.0" xlink:href="#OperationalExchangeSymbol" y="1005.4285714285714" /></g><g class="Edge FunctionalExchange" id="_6JH-sVRYEeyyLounhgaE_g"><path class="Edge" d="M 567.5 1443.5 417.5 1426.5" style="marker-end: url(&quot;#ArrowMark_5B4040&quot;)" /><rect class="AnnotationBB" height="10" width="53" x="462" y="1422" /><text class="Annotation" dominant-baseline="middle" text-anchor="middle" x="450.0" y="1422"><tspan x="489.5" xml:space="preserve" y="1427.0">Solar Flux</tspan></text><use height="20" width="20" x="443.07142857142856" xlink:href="#OperationalExchangeSymbol" y="1417.0" /></g><g class="Edge FunctionalExchange" id="_6JJM0VRYEeyyLounhgaE_g"><path class="Edge" d="M 2057.5 1011.5 1228.5 1070.5" style="marker-end: url(&quot;#ArrowMark_5B4040&quot;)" /><rect class="AnnotationBB" height="10" width="109" x="1581" y="1079" /><text class="Annotation" dominant-baseline="middle" text-anchor="middle" x="1569.0" y="1079"><tspan x="1636.5" xml:space="preserve" y="1084.0">ProvidePowerToDrill</tspan></text><use height="20" width="20" x="1562.2142857142858" xlink:href="#OperationalExchangeSymbol" y="1074.0" /></g><g class="Edge FunctionalExchange" id="_6JLCAlRYEeyyLounhgaE_g"><path class="Edge" d="M 1089.5 1375.5 1088.5 1137.5" style="marker-end: url(&quot;#ArrowMark_5B4040&quot;)" /><rect class="AnnotationBB" height="13" width="79" x="1049" y="1267" /><text class="Annotation" dominant-baseline="middle" text-anchor="middle" x="1037.0" y="1267"><tspan x="1089.5" xml:space="preserve" y="1273.4285714285713">RegolithToDrill</tspan></text><use height="20" width="20" x="1030.2142857142858" xlink:href="#OperationalExchangeSymbol" y="1263.4285714285713" /></g><g class="Edge FunctionalExchange" id="_6JH-ulRYEeyyLounhgaE_g"><path class="Edge" d="M 797.5 1474.5 1029.5 1511.5" style="marker-end: url(&quot;#ArrowMark_5B4040&quot;)" /><rect class="AnnotationBB" height="10" width="43" x="891" y="1500" /><text class="Annotation" dominant-baseline="middle" text-anchor="middle" x="879.0" y="1500"><tspan x="913.5" xml:space="preserve" y="1505.0">Shadow</tspan></text><use height="20" width="20" x="872.0714285714286" xlink:href="#OperationalExchangeSymbol" y="1495.0" /></g><g class="Edge FunctionalExchange" id="_6JIlsFRYEeyyLounhgaE_g"><path class="Edge" d="M 1127.5 458.5 796.5 485.5" style="marker-end: url(&quot;#ArrowMark_5B4040&quot;)" /><rect class="AnnotationBB" height="13" width="82" x="449" y="433" /><text class="Annotation" dominant-baseline="middle" text-anchor="middle" x="437.0" y="433"><tspan x="491.0" xml:space="preserve" y="439.42857142857144">SpacecraftData</tspan></text><use height="20" width="20" x="430.2857142857143" xlink:href="#OperationalExchangeSymbol" y="429.42857142857144" /></g><g class="Edge FunctionalExchange" id="_6JIluVRYEeyyLounhgaE_g"><path class="Edge" d="M 1077.5 230.5 817.5 254.5" style="marker-end: url(&quot;#ArrowMark_5B4040&quot;)" /><rect class="AnnotationBB" height="13" width="63" x="850" y="208" /><text class="Annotation" dominant-baseline="middle" text-anchor="middle" x="838.0" y="208"><tspan x="882.5" xml:space="preserve" y="214.42857142857142">DrillingData</tspan></text><use height="20" width="20" x="831.0714285714286" xlink:href="#OperationalExchangeSymbol" y="204.42857142857142" /></g><g class="Edge FunctionalExchange" id="_6JHXmVRYEeyyLounhgaE_g"><path class="Edge" d="M 1228.5 1067.5 2551.5 1067.5 2577.5 1035.5" style="marker-end: url(&quot;#ArrowMark_5B4040&quot;)" /><rect class="AnnotationBB" height="13" width="63" x="1914" y="1051" /><text class="Annotation" dominant-baseline="middle" text-anchor="middle" x="1902.0" y="1051"><tspan x="1946.5" xml:space="preserve" y="1057.4285714285713">DrillingData</tspan></text><use height="20" width="20" x="1895.0714285714287" xlink:href="#OperationalExchangeSymbol" y="1047.4285714285713" /></g><g class="Edge FunctionalExchange" id="_6JJM41RYEeyyLounhgaE_g"><path class="Edge" d="M 1857.5 1365.5 2657.5 1446.5" style="marker-end: url(&quot;#ArrowMark_5B4040&quot;)" /><rect class="AnnotationBB" height="13" width="82" x="2198" y="1407" /><text class="Annotation" dominant-baseline="middle" text-anchor="middle" x="2186.0" y="1407"><tspan x="2240.0" xml:space="preserve" y="1413.4285714285713">SpacecraftData</tspan></text><use height="20" width="20" x="2179.285714285714" xlink:href="#OperationalExchangeSymbol" y="1403.4285714285713" /></g><g class="Edge FunctionalExchange" id="_6JJz2FRYEeyyLounhgaE_g"><path class="Edge" d="M 2806.5 1395.5 2784.5 415.5" style="marker-end: url(&quot;#ArrowMark_5B4040&quot;)" /><rect class="AnnotationBB" height="13" width="82" x="2823" y="911" /><text class="Annotation" dominant-baseline="middle" text-anchor="middle" x="2811.0" y="911"><tspan x="2865.0" xml:space="preserve" y="917.4285714285714">SpacecraftData</tspan></text><use height="20" width="20" x="2804.285714285714" xlink:href="#OperationalExchangeSymbol" y="907.4285714285714" /></g><g class="Edge FunctionalExchange" id="_6JJz4VRYEeyyLounhgaE_g"><path class="Edge" d="M 2642.5 915.5 2764.5 415.5" style="marker-end: url(&quot;#ArrowMark_5B4040&quot;)" /><rect class="AnnotationBB" height="13" width="63" x="2645" y="661" /><text class="Annotation" dominant-baseline="middle" text-anchor="middle" x="2633.0" y="661"><tspan x="2677.5" xml:space="preserve" y="667.4285714285714">DrillingData</tspan></text><use height="20" width="20" x="2626.0714285714284" xlink:href="#OperationalExchangeSymbol" y="657.4285714285714" /></g><g class="Edge FunctionalExchange" id="_6JJz81RYEeyyLounhgaE_g"><path class="Edge" d="M 2637.5 336.5 1467.5 300.5 1467.5 450.5 1287.5 451.5" style="marker-end: url(&quot;#ArrowMark_5B4040&quot;)" /><rect class="AnnotationBB" height="13" width="82" x="1896" y="284" /><text class="Annotation" dominant-baseline="middle" text-anchor="middle" x="1884.0" y="284"><tspan x="1938.0" xml:space="preserve" y="290.42857142857144">SpacecraftData</tspan></text><use height="20" width="20" x="1877.2857142857142" xlink:href="#OperationalExchangeSymbol" y="280.42857142857144" /></g><g class="Edge FunctionalExchange" id="_6JKa5FRYEeyyLounhgaE_g"><path class="Edge" d="M 2703.5 265.5 2652.5 214.5 1268.5 221.5" style="marker-end: url(&quot;#ArrowMark_5B4040&quot;)" /><rect class="AnnotationBB" height="13" width="63" x="1954" y="200" /><text class="Annotation" dominant-baseline="middle" text-anchor="middle" x="1942.0" y="200"><tspan x="1986.5" xml:space="preserve" y="206.42857142857142">DrillingData</tspan></text><use height="20" width="20" x="1935.0714285714287" xlink:href="#OperationalExchangeSymbol" y="196.42857142857142" /></g><g class="Edge FunctionalExchange" id="_6JKa7VRYEeyyLounhgaE_g"><path class="Edge" d="M 1771.5 655.5 1757.5 1265.5" style="marker-end: url(&quot;#ArrowMark_5B4040&quot;)" /><rect class="AnnotationBB" height="13" width="108" x="1707" y="955" /><text class="Annotation" dominant-baseline="middle" text-anchor="middle" x="1695.0" y="955"><tspan x="1762.0" xml:space="preserve" y="961.4285714285714">OperateSpaceTravel</tspan></text><use height="20" width="20" x="1688.4285714285713" xlink:href="#OperationalExchangeSymbol" y="951.4285714285714" /></g><g class="Edge FunctionalExchange" id="_6JKa9lRYEeyyLounhgaE_g"><path class="Edge" d="M 1734.5 465.5 1745.5 505.5" style="marker-end: url(&quot;#ArrowMark_5B4040&quot;)" /><rect class="AnnotationBB" height="10" width="88" x="1694" y="475" /><text class="Annotation" dominant-baseline="middle" text-anchor="middle" x="1682.0" y="475"><tspan x="1739.0" xml:space="preserve" y="480.0">SCGroundOrder</tspan></text><use height="20" width="20" x="1675.4285714285713" xlink:href="#OperationalExchangeSymbol" y="470.0" /></g><g class="Edge FunctionalExchange" id="_6JJz6lRYEeyyLounhgaE_g"><path class="Edge" d="M 2229.5 493.5 2252.5 534.5" style="marker-end: url(&quot;#ArrowMark_5B4040&quot;)" /><rect class="AnnotationBB" height="13" width="112" x="2200" y="503" /><text class="Annotation" dominant-baseline="middle" text-anchor="middle" x="2188.0" y="503"><tspan x="2257.0" xml:space="preserve" y="509.42857142857144">DrillingGroundOrder</tspan></text><use height="20" width="20" x="2181.285714285714" xlink:href="#OperationalExchangeSymbol" y="499.42857142857144" /></g><g class="Edge FunctionalExchange" id="_6JKa_1RYEeyyLounhgaE_g"><path class="Edge" d="M 2283.5 645.5 2272.5 765.5 1456.5 774.5 1456.5 1066.5 1228.5 1067.5" style="marker-end: url(&quot;#ArrowMark_5B4040&quot;)" /><rect class="AnnotationBB" height="13" width="70" x="1711" y="754" /><text class="Annotation" dominant-baseline="middle" text-anchor="middle" x="1699.0" y="754"><tspan x="1747.0" xml:space="preserve" y="760.4285714285714">DrillingOrder</tspan></text><use height="20" width="20" x="1692.0" xlink:href="#OperationalExchangeSymbol" y="750.4285714285714" /></g><g class="Edge FunctionalExchange" id="_6JJM2lRYEeyyLounhgaE_g"><path class="Edge" d="M 2057.5 1290.5 1857.5 1341.5" style="marker-end: url(&quot;#ArrowMark_5B4040&quot;)" /><rect class="AnnotationBB" height="13" width="86" x="1906" y="1308" /><text class="Annotation" dominant-baseline="middle" text-anchor="middle" x="1894.0" y="1308"><tspan x="1950.0" xml:space="preserve" y="1314.4285714285713">Traveling Power</tspan></text><use height="20" width="20" x="1887.142857142857" xlink:href="#OperationalExchangeSymbol" y="1304.4285714285713" /></g><g class="Edge FunctionalExchange" id="_6JLB8FRYEeyyLounhgaE_g"><path class="Edge" d="M 2334.5 495.5 2311.5 534.5" style="marker-end: url(&quot;#ArrowMark_5B4040&quot;)" /><rect class="AnnotationBB" height="13" width="140" x="2252" y="505" /><text class="Annotation" dominant-baseline="middle" text-anchor="middle" x="2240.0" y="505"><tspan x="2323.0" xml:space="preserve" y="511.42857142857144">DrillingAutonomousOrder</tspan></text><use height="20" width="20" x="2233.0" xlink:href="#OperationalExchangeSymbol" y="501.42857142857144" /></g><g class="Edge FunctionalExchange" id="_6JLB-VRYEeyyLounhgaE_g"><path class="Edge" d="M 1881.5 485.5 1871.5 505.5" style="marker-end: url(&quot;#ArrowMark_5B4040&quot;)" /><rect class="AnnotationBB" height="10" width="102" x="1845" y="484" /><text class="Annotation" dominant-baseline="middle" text-anchor="middle" x="1833.0" y="484"><tspan x="1897.0" xml:space="preserve" y="489.0">AutonomousOrder</tspan></text><use height="20" width="20" x="1826.2857142857142" xlink:href="#OperationalExchangeSymbol" y="479.0" /></g><g class="Edge FunctionalExchange" id="_6JIlwlRYEeyyLounhgaE_g"><path class="Edge" d="M 605.5 566.5 556.5 651.5 1127.5 681.5" style="marker-end: url(&quot;#ArrowMark_5B4040&quot;)" /><rect class="AnnotationBB" height="13" width="89" x="755" y="635" /><text class="Annotation" dominant-baseline="middle" text-anchor="middle" x="743.0" y="635"><tspan x="800.5" xml:space="preserve" y="641.4285714285714">SpacecraftOrder</tspan></text><use height="20" width="20" x="736.2142857142857" xlink:href="#OperationalExchangeSymbol" y="631.4285714285714" /></g><g class="Edge FunctionalExchange" id="_6JIly1RYEeyyLounhgaE_g"><path class="Edge" d="M 817.5 289.5 1117.5 312.5" style="marker-end: url(&quot;#ArrowMark_5B4040&quot;)" /><rect class="AnnotationBB" height="13" width="70" x="932" y="285" /><text class="Annotation" dominant-baseline="middle" text-anchor="middle" x="920.0" y="285"><tspan x="968.0" xml:space="preserve" y="291.42857142857144">DrillingOrder</tspan></text><use height="20" width="20" x="913.0" xlink:href="#OperationalExchangeSymbol" y="281.42857142857144" /></g><g class="Edge FunctionalExchange" id="_6JIl1FRYEeyyLounhgaE_g"><path class="Edge" d="M 1318.5 672.5 1456.5 651.5 1456.5 386.5 1637.5 385.5" style="marker-end: url(&quot;#ArrowMark_5B4040&quot;)" /><rect class="AnnotationBB" height="13" width="89" x="1412" y="486" /><text class="Annotation" dominant-baseline="middle" text-anchor="middle" x="1400.0" y="486"><tspan x="1457.5" xml:space="preserve" y="492.42857142857144">SpacecraftOrder</tspan></text><use height="20" width="20" x="1393.2142857142858" xlink:href="#OperationalExchangeSymbol" y="482.42857142857144" /></g><g class="Edge FunctionalExchange" id="_6JJMyFRYEeyyLounhgaE_g"><path class="Edge" d="M 1328.5 314.5 2187.5 295.5 2187.5 345.5" style="marker-end: url(&quot;#ArrowMark_5B4040&quot;)" /><rect class="AnnotationBB" height="13" width="73" x="1746" y="279" /><text class="Annotation" dominant-baseline="middle" text-anchor="middle" x="1734.0" y="279"><tspan x="1783.5" xml:space="preserve" y="285.42857142857144">Drilling Order</tspan></text><use height="20" width="20" x="1727.0714285714287" xlink:href="#OperationalExchangeSymbol" y="275.42857142857144" /></g></svg>