<svg baseProfile="full" class="LogicalComponentBreakdown" height="411" version="1.1" viewBox="47 7 5341 411" width="5341" xmlns="http://www.w3.org/2000/svg" xmlns:ev="http://www.w3.org/2001/xml-events" xmlns:xlink="http://www.w3.org/1999/xlink"><defs><style>.LogicalComponentBreakdown * { shape-rendering: geometricPrecision; }
.LogicalComponentBreakdown text { font-family: "Segoe UI"; font-size: 8pt; }
.LogicalComponentBreakdown g { cursor: pointer; }
.LogicalComponentBreakdown g.Edge &gt; path { fill: none; stroke: rgb(0, 0, 0); }
.LogicalComponentBreakdown g.Box &gt; line { stroke: #000000; }
.LogicalComponentBreakdown g.Box &gt; rect, .LogicalComponentBreakdown g.Box &gt; use { fill: transparent; stroke: #000000; stroke-width: 1; }
.LogicalComponentBreakdown g.Box.Annotation &gt; line { stroke: none; }
.LogicalComponentBreakdown g.Box.Annotation &gt; rect, .LogicalComponentBreakdown g.Box.Annotation &gt; use { fill: none; stroke: none; }
.LogicalComponentBreakdown g.Box.Constraint &gt; line { stroke: #888888; }
.LogicalComponentBreakdown g.Box.Constraint &gt; rect, .LogicalComponentBreakdown g.Box.Constraint &gt; use { fill: #FFF5B5; stroke: #888888; }
.LogicalComponentBreakdown g.Box.Constraint &gt; text { fill: #000000; }
.LogicalComponentBreakdown g.Box.Note &gt; line { stroke: #FFCC66; }
.LogicalComponentBreakdown g.Box.Note &gt; rect, .LogicalComponentBreakdown g.Box.Note &gt; use { fill: #FFFFCB; stroke: #FFCC66; }
.LogicalComponentBreakdown g.Box.Note &gt; text { fill: #000000; }
.LogicalComponentBreakdown g.Box.Requirement &gt; line { stroke: #72496E; }
.LogicalComponentBreakdown g.Box.Requirement &gt; rect, .LogicalComponentBreakdown g.Box.Requirement &gt; use { fill: #D9C4D7; stroke: #72496E; }
.LogicalComponentBreakdown g.Box.Requirement &gt; text { fill: #000000; }
.LogicalComponentBreakdown g.Box.Text &gt; line { stroke: transparent; }
.LogicalComponentBreakdown g.Box.Text &gt; rect, .LogicalComponentBreakdown g.Box.Text &gt; use { stroke: transparent; }
.LogicalComponentBreakdown g.Edge &gt; rect { fill: none; stroke: none; }
.LogicalComponentBreakdown g.Circle &gt; circle { fill: #000000; stroke: none; }
.LogicalComponentBreakdown g.Edge &gt; path { stroke-width: 1; }
.LogicalComponentBreakdown g.Edge.Connector &gt; rect { fill: none; stroke: none; }
.LogicalComponentBreakdown g.Circle.Connector &gt; circle { fill: #B0B0B0; stroke: none; }
.LogicalComponentBreakdown g.Edge.Connector &gt; path { stroke: #B0B0B0; stroke-dasharray: 1; }
.LogicalComponentBreakdown g.Edge.Constraint &gt; rect { fill: none; stroke: none; }
.LogicalComponentBreakdown g.Circle.Constraint &gt; circle { fill: #000000; stroke: none; }
.LogicalComponentBreakdown g.Edge.Constraint &gt; path { stroke: #000000; stroke-dasharray: 1, 3; marker-end: url(#FineArrowMark_000000); stroke-linecap: round; }
.LogicalComponentBreakdown g.Edge.Note &gt; rect { fill: none; stroke: none; }
.LogicalComponentBreakdown g.Circle.Note &gt; circle { fill: #000000; stroke: none; }
.LogicalComponentBreakdown g.Edge.Note &gt; path { stroke: #000000; stroke-dasharray: 1, 3; }
.LogicalComponentBreakdown g.Edge.RequirementRelation &gt; rect { fill: none; stroke: none; }
.LogicalComponentBreakdown g.Circle.RequirementRelation &gt; circle { fill: #72496E; stroke: none; }
.LogicalComponentBreakdown g.Edge.RequirementRelation &gt; path { stroke: #72496E; stroke-width: 2; marker-end: url(#FineArrowMark_72496E); stroke-dasharray: 5; }
.LogicalComponentBreakdown g.Edge.RequirementRelation &gt; text { fill: #72496E; }
</style><symbol id="ErrorSymbol" viewBox="0 0 2.6458 2.6458"><path d="M 0,0 2.6458333,2.6458333 M 0,2.6458333 2.6458333,0" style="fill: none; stroke: red; stroke-width: 0.5;" /></symbol><symbol id="RequirementSymbol" style="stroke: none;" viewBox="0 0 50 50"><path d="M 12.806813,6.5702324 A 6.244379,5.8113241 0 0 1 6.5624342,12.381557 6.244379,5.8113241 0 0 1 0.31805515,6.5702324 6.244379,5.8113241 0 0 1 6.5624342,0.75890827 6.244379,5.8113241 0 0 1 12.806813,6.5702324 Z" style="fill: #431964" /><path d="m 4.3228658,5.8752475 h 2.9514721 q 0.2945581,0 0.5184223,-0.1413879 Q 8.0225155,5.5865806 8.1462299,5.3214783 8.2699443,5.056376 8.2758355,4.7029063 v 0 q 0,-0.3475786 -0.1237144,-0.6126808 Q 8.0284067,3.8251232 7.7986513,3.6837353 7.5747872,3.5364562 7.2743379,3.5364562 H 4.3228658 V 2.1873801 h 2.9927103 q 0.7246129,0 1.2724909,0.3122316 0.5478781,0.3122316 0.8483274,0.8836743 0.3063404,0.5714427 0.3063404,1.3196203 v 0 q 0,0.7540687 -0.3063404,1.3255114 Q 9.1359451,6.5998605 8.5821759,6.912092 8.0342978,7.2243236 7.3155761,7.2243236 H 4.3228658 Z M 3.7396407,2.1873801 H 5.1476285 V 10.759021 H 3.7396407 Z M 6.3906636,6.9592213 7.8516718,6.6882279 10.102096,10.759021 H 8.4113322 Z" style="fill:#ffffff;" /></symbol></defs><rect fill="white" height="411" stroke="none" width="5341" x="47" y="7" /><g class="Box LogicalComponent" id="_T1ZocF2BEey4sobpfmazJQ"><rect class="LogicalComponent" height="70" style="fill: #96B1DA; stroke: #4A4A97; stroke-width: 1" width="211" x="767.5" y="17.5" /><text class="LogicalComponent" dominant-baseline="middle" text-anchor="start" x="767" y="17"><tspan x="794.6428571428571" xml:space="preserve" y="45.57142857142857">Process Control and Monitoring -</tspan><tspan x="794.6428571428571" xml:space="preserve" y="58.42857142857143">Logical System</tspan></text><use height="20" width="20" x="772.6428571428571" xlink:href="#LogicalComponentSymbol" y="42.0" /></g><g class="Box LogicalComponent" id="_T1bdoV2BEey4sobpfmazJQ"><rect class="LogicalComponent" height="70" style="fill: #96B1DA; stroke: #4A4A97; stroke-width: 1" width="211" x="1907.5" y="37.5" /><text class="LogicalComponent" dominant-baseline="middle" text-anchor="start" x="1907" y="37"><tspan x="1939.642857142857" xml:space="preserve" y="72.0">Oxygen Storage Logical System</tspan></text><use height="20" width="20" x="1917.642857142857" xlink:href="#LogicalComponentSymbol" y="62.0" /></g><g class="Box LogicalComponent" id="_T1cEsV2BEey4sobpfmazJQ"><rect class="LogicalComponent" height="70" style="fill: #96B1DA; stroke: #4A4A97; stroke-width: 1" width="211" x="2407.5" y="37.5" /><text class="LogicalComponent" dominant-baseline="middle" text-anchor="start" x="2407" y="37"><tspan x="2446.785714285714" xml:space="preserve" y="72.0">Regolith Inlet Logical System</tspan></text><use height="20" width="20" x="2424.785714285714" xlink:href="#LogicalComponentSymbol" y="62.0" /></g><g class="Box LogicalComponent" id="_T1cEtF2BEey4sobpfmazJQ"><rect class="LogicalComponent" height="70" style="fill: #96B1DA; stroke: #4A4A97; stroke-width: 1" width="211" x="3177.5" y="37.5" /><text class="LogicalComponent" dominant-baseline="middle" text-anchor="start" x="3177" y="37"><tspan x="3243.9285714285716" xml:space="preserve" y="72.0">External Structure</tspan></text><use height="20" width="20" x="3221.9285714285716" xlink:href="#LogicalComponentSymbol" y="62.0" /></g><g class="Box LogicalComponent" id="_T1crwV2BEey4sobpfmazJQ"><rect class="LogicalComponent" height="70" style="fill: #96B1DA; stroke: #4A4A97; stroke-width: 1" width="211" x="4607.5" y="17.5" /><text class="LogicalComponent" dominant-baseline="middle" text-anchor="start" x="4607" y="17"><tspan x="4642.5" xml:space="preserve" y="45.57142857142857">Regolith Pyrolysis and Oxygen</tspan><tspan x="4642.5" xml:space="preserve" y="58.42857142857143">Recovery Logical System</tspan></text><use height="20" width="20" x="4620.5" xlink:href="#LogicalComponentSymbol" y="42.0" /></g><g class="Box LogicalComponent" id="_T1crxF2BEey4sobpfmazJQ"><rect class="LogicalComponent" height="70" style="fill: #96B1DA; stroke: #4A4A97; stroke-width: 1" width="211" x="57.5" y="167.5" /><text class="LogicalComponent" dominant-baseline="middle" text-anchor="start" x="57" y="167"><tspan x="89.64285714285714" xml:space="preserve" y="201.99999999999997">Decisionmaking Logical System</tspan></text><use height="20" width="20" x="67.64285714285714" xlink:href="#LogicalComponentSymbol" y="191.99999999999997" /></g><g class="Box LogicalComponent" id="_T1dS0V2BEey4sobpfmazJQ"><rect class="LogicalComponent" height="70" style="fill: #96B1DA; stroke: #4A4A97; stroke-width: 1" width="211" x="627.5" y="167.5" /><text class="LogicalComponent" dominant-baseline="middle" text-anchor="start" x="627" y="167"><tspan x="692.5" xml:space="preserve" y="201.99999999999997">Control Subsystem</tspan></text><use height="20" width="20" x="670.5" xlink:href="#LogicalComponentSymbol" y="191.99999999999997" /></g><g class="Box LogicalComponent" id="_T1dS1F2BEey4sobpfmazJQ"><rect class="LogicalComponent" height="70" style="fill: #96B1DA; stroke: #4A4A97; stroke-width: 1" width="211" x="317.5" y="167.5" /><text class="LogicalComponent" dominant-baseline="middle" text-anchor="start" x="317" y="167"><tspan x="383.2142857142857" xml:space="preserve" y="201.99999999999997">Logical Power Unit</tspan></text><use height="20" width="20" x="361.2142857142857" xlink:href="#LogicalComponentSymbol" y="191.99999999999997" /></g><g class="Box LogicalComponent" id="_T1d54F2BEey4sobpfmazJQ"><rect class="LogicalComponent" height="70" style="fill: #96B1DA; stroke: #4A4A97; stroke-width: 1" width="211" x="1447.5" y="167.5" /><text class="LogicalComponent" dominant-baseline="middle" text-anchor="start" x="1447" y="167"><tspan x="1502.5" xml:space="preserve" y="201.99999999999997">Monitoring Subsystem</tspan></text><use height="20" width="20" x="1480.5" xlink:href="#LogicalComponentSymbol" y="191.99999999999997" /></g><g class="Box LogicalComponent" id="_T1d5412BEey4sobpfmazJQ"><rect class="LogicalComponent" height="70" style="fill: #96B1DA; stroke: #4A4A97; stroke-width: 1" width="211" x="2177.5" y="167.5" /><text class="LogicalComponent" dominant-baseline="middle" text-anchor="start" x="2177" y="167"><tspan x="2255.3571428571427" xml:space="preserve" y="201.99999999999997">Sifting System</tspan></text><use height="20" width="20" x="2233.3571428571427" xlink:href="#LogicalComponentSymbol" y="191.99999999999997" /></g><g class="Box LogicalComponent" id="_T1fIAV2BEey4sobpfmazJQ"><rect class="LogicalComponent" height="70" style="fill: #96B1DA; stroke: #4A4A97; stroke-width: 1" width="211" x="2637.5" y="167.5" /><text class="LogicalComponent" dominant-baseline="middle" text-anchor="start" x="2637" y="167"><tspan x="2661.0714285714284" xml:space="preserve" y="195.57142857142856">Regolith Powder Transportation</tspan><tspan x="2661.0714285714284" xml:space="preserve" y="208.42857142857142">System to Vapourisation Chamber</tspan></text><use height="20" width="20" x="2639.0714285714284" xlink:href="#LogicalComponentSymbol" y="192.0" /></g><g class="Box LogicalComponent" id="_T1gWIV2BEey4sobpfmazJQ"><rect class="LogicalComponent" height="70" style="fill: #96B1DA; stroke: #4A4A97; stroke-width: 1" width="211" x="2947.5" y="167.5" /><text class="LogicalComponent" dominant-baseline="middle" text-anchor="start" x="2947" y="167"><tspan x="3018.214285714286" xml:space="preserve" y="202.0">Lander Interface</tspan></text><use height="20" width="20" x="2996.214285714286" xlink:href="#LogicalComponentSymbol" y="192.0" /></g><g class="Box LogicalComponent" id="_T1gWJF2BEey4sobpfmazJQ"><rect class="LogicalComponent" height="70" style="fill: #96B1DA; stroke: #4A4A97; stroke-width: 1" width="211" x="3407.5" y="167.5" /><text class="LogicalComponent" dominant-baseline="middle" text-anchor="start" x="3407" y="167"><tspan x="3463.214285714286" xml:space="preserve" y="201.99999999999997">Waste Storage System</tspan></text><use height="20" width="20" x="3441.214285714286" xlink:href="#LogicalComponentSymbol" y="191.99999999999997" /></g><g class="Box LogicalComponent" id="_T1gWJ12BEey4sobpfmazJQ"><rect class="LogicalComponent" height="70" style="fill: #96B1DA; stroke: #4A4A97; stroke-width: 1" width="211" x="3927.5" y="167.5" /><text class="LogicalComponent" dominant-baseline="middle" text-anchor="start" x="3927" y="167"><tspan x="3955.3571428571427" xml:space="preserve" y="201.99999999999997">Vapourisation Logical Subsystem</tspan></text><use height="20" width="20" x="3933.3571428571427" xlink:href="#LogicalComponentSymbol" y="191.99999999999997" /></g><g class="Box LogicalComponent" id="_T1g9Ml2BEey4sobpfmazJQ"><rect class="LogicalComponent" height="70" style="fill: #96B1DA; stroke: #4A4A97; stroke-width: 1" width="211" x="4637.5" y="167.5" /><text class="LogicalComponent" dominant-baseline="middle" text-anchor="start" x="4637" y="167"><tspan x="4674.642857142857" xml:space="preserve" y="201.99999999999997">Condensation Logical System</tspan></text><use height="20" width="20" x="4652.642857142857" xlink:href="#LogicalComponentSymbol" y="191.99999999999997" /></g><g class="Box LogicalComponent" id="_T1g9NV2BEey4sobpfmazJQ"><rect class="LogicalComponent" height="70" style="fill: #96B1DA; stroke: #4A4A97; stroke-width: 1" width="211" x="5117.5" y="167.5" /><text class="LogicalComponent" dominant-baseline="middle" text-anchor="start" x="5117" y="167"><tspan x="5146.071428571428" xml:space="preserve" y="201.99999999999997">Oxygen Recovery Logical System</tspan></text><use height="20" width="20" x="5124.071428571428" xlink:href="#LogicalComponentSymbol" y="191.99999999999997" /></g><g class="Box LogicalComponent" id="_T1g9OF2BEey4sobpfmazJQ"><rect class="LogicalComponent" height="111" style="fill: #96B1DA; stroke: #4A4A97; stroke-width: 1" width="110" x="427.5" y="297.5" /><text class="LogicalComponent" dominant-baseline="middle" text-anchor="start" x="427" y="297"><tspan x="454.85714285714283" xml:space="preserve" y="346.07142857142856">Vapourisation</tspan><tspan x="454.85714285714283" xml:space="preserve" y="358.9285714285714">Controller</tspan></text><use height="20" width="20" x="432.85714285714283" xlink:href="#LogicalComponentSymbol" y="342.49999999999994" /></g><g class="Box LogicalComponent" id="_T1g9O12BEey4sobpfmazJQ"><rect class="LogicalComponent" height="111" style="fill: #96B1DA; stroke: #4A4A97; stroke-width: 1" width="110" x="567.5" y="297.5" /><text class="LogicalComponent" dominant-baseline="middle" text-anchor="start" x="567" y="297"><tspan x="594.8571428571429" xml:space="preserve" y="347.5">Condensation</tspan><tspan x="594.8571428571429" xml:space="preserve" y="357.5">Controller</tspan></text><use height="20" width="20" x="572.8571428571429" xlink:href="#LogicalComponentSymbol" y="342.5" /></g><g class="Box LogicalComponent" id="_T1hkQl2BEey4sobpfmazJQ"><rect class="LogicalComponent" height="111" style="fill: #96B1DA; stroke: #4A4A97; stroke-width: 1" width="110" x="707.5" y="297.5" /><text class="LogicalComponent" dominant-baseline="middle" text-anchor="start" x="707" y="297"><tspan x="738.4285714285714" xml:space="preserve" y="346.07142857142856">Oxygen Trap</tspan><tspan x="738.4285714285714" xml:space="preserve" y="358.9285714285714">Controller</tspan></text><use height="20" width="20" x="716.4285714285714" xlink:href="#LogicalComponentSymbol" y="342.49999999999994" /></g><g class="Box LogicalComponent" id="_T1hkRV2BEey4sobpfmazJQ"><rect class="LogicalComponent" height="111" style="fill: #96B1DA; stroke: #4A4A97; stroke-width: 1" width="110" x="837.5" y="297.5" /><text class="LogicalComponent" dominant-baseline="middle" text-anchor="start" x="837" y="297"><tspan x="874.8571428571429" xml:space="preserve" y="346.07142857142856">Storage</tspan><tspan x="874.8571428571429" xml:space="preserve" y="358.9285714285714">Controller</tspan></text><use height="20" width="20" x="852.8571428571429" xlink:href="#LogicalComponentSymbol" y="342.49999999999994" /></g><g class="Box LogicalComponent" id="_T1hkSF2BEey4sobpfmazJQ"><rect class="LogicalComponent" height="111" style="fill: #96B1DA; stroke: #4A4A97; stroke-width: 1" width="110" x="977.5" y="297.5" /><text class="LogicalComponent" dominant-baseline="middle" text-anchor="start" x="977" y="297"><tspan x="1002.0" xml:space="preserve" y="346.07142857142856">Regolith Intake</tspan><tspan x="1002.0" xml:space="preserve" y="358.9285714285714">Controller</tspan></text><use height="20" width="20" x="980.0" xlink:href="#LogicalComponentSymbol" y="342.49999999999994" /></g><g class="Box LogicalComponent" id="_T1hkS12BEey4sobpfmazJQ"><rect class="LogicalComponent" height="110" style="fill: #96B1DA; stroke: #4A4A97; stroke-width: 1" width="100" x="1117.5" y="297.5" /><text class="LogicalComponent" dominant-baseline="middle" text-anchor="start" x="1117" y="297"><tspan x="1147.0" xml:space="preserve" y="337.7142857142857">External</tspan><tspan x="1147.0" xml:space="preserve" y="350.57142857142856">Monitoring</tspan><tspan x="1147.0" xml:space="preserve" y="363.4285714285714">System</tspan></text><use height="20" width="20" x="1125.0" xlink:href="#LogicalComponentSymbol" y="342.0" /></g><g class="Box LogicalComponent" id="_T1iLUl2BEey4sobpfmazJQ"><rect class="LogicalComponent" height="110" style="fill: #96B1DA; stroke: #4A4A97; stroke-width: 1" width="100" x="1227.5" y="298.5" /><text class="LogicalComponent" dominant-baseline="middle" text-anchor="start" x="1227" y="298"><tspan x="1250.5714285714287" xml:space="preserve" y="340.14285714285717">Regolith Feed</tspan><tspan x="1250.5714285714287" xml:space="preserve" y="353.0">Monitoring</tspan><tspan x="1250.5714285714287" xml:space="preserve" y="365.85714285714283">System</tspan></text><use height="20" width="20" x="1228.5714285714287" xlink:href="#LogicalComponentSymbol" y="343.0" /></g><g class="Box LogicalComponent" id="_T1iLVV2BEey4sobpfmazJQ"><rect class="LogicalComponent" height="110" style="fill: #96B1DA; stroke: #4A4A97; stroke-width: 1" width="109" x="1339.5" y="297.5" /><text class="LogicalComponent" dominant-baseline="middle" text-anchor="start" x="1339" y="297"><tspan x="1366.357142857143" xml:space="preserve" y="345.57142857142856">Vapourisation</tspan><tspan x="1366.357142857143" xml:space="preserve" y="358.4285714285714">Monitoring</tspan></text><use height="20" width="20" x="1344.357142857143" xlink:href="#LogicalComponentSymbol" y="341.99999999999994" /></g><g class="Box LogicalComponent" id="_T1iLWF2BEey4sobpfmazJQ"><rect class="LogicalComponent" height="110" style="fill: #96B1DA; stroke: #4A4A97; stroke-width: 1" width="120" x="1477.5" y="297.5" /><text class="LogicalComponent" dominant-baseline="middle" text-anchor="start" x="1477" y="297"><tspan x="1509.857142857143" xml:space="preserve" y="344.1428571428571">Condensation</tspan><tspan x="1509.857142857143" xml:space="preserve" y="356.99999999999994">Monitoring</tspan></text><use height="20" width="20" x="1487.857142857143" xlink:href="#LogicalComponentSymbol" y="341.99999999999994" /></g><g class="Box LogicalComponent" id="_T1iLW12BEey4sobpfmazJQ"><rect class="LogicalComponent" height="110" style="fill: #96B1DA; stroke: #4A4A97; stroke-width: 1" width="100" x="1617.5" y="297.5" /><text class="LogicalComponent" dominant-baseline="middle" text-anchor="start" x="1617" y="297"><tspan x="1643.4285714285713" xml:space="preserve" y="332.7142857142857">Oxygen Trap</tspan><tspan x="1643.4285714285713" xml:space="preserve" y="345.57142857142856">and</tspan><tspan x="1643.4285714285713" xml:space="preserve" y="358.4285714285714">Purification</tspan><tspan x="1643.4285714285713" xml:space="preserve" y="371.2857142857142">Monitoring</tspan></text><use height="20" width="20" x="1621.4285714285713" xlink:href="#LogicalComponentSymbol" y="342.0" /></g><g class="Box LogicalComponent" id="_T1iyYl2BEey4sobpfmazJQ"><rect class="LogicalComponent" height="110" style="fill: #96B1DA; stroke: #4A4A97; stroke-width: 1" width="100" x="1737.5" y="298.5" /><text class="LogicalComponent" dominant-baseline="middle" text-anchor="start" x="1737" y="298"><tspan x="1767.0" xml:space="preserve" y="333.7142857142857">Oxygen</tspan><tspan x="1767.0" xml:space="preserve" y="346.57142857142856">Storage</tspan><tspan x="1767.0" xml:space="preserve" y="359.4285714285714">Monitoring</tspan><tspan x="1767.0" xml:space="preserve" y="372.2857142857142">System</tspan></text><use height="20" width="20" x="1745.0" xlink:href="#LogicalComponentSymbol" y="343.0" /></g><g class="Box LogicalComponent" id="_T1iyZV2BEey4sobpfmazJQ"><rect class="LogicalComponent" height="110" style="fill: #96B1DA; stroke: #4A4A97; stroke-width: 1" width="100" x="1857.5" y="298.5" /><text class="LogicalComponent" dominant-baseline="middle" text-anchor="start" x="1857" y="298"><tspan x="1887.0" xml:space="preserve" y="333.7142857142857">Monitoring</tspan><tspan x="1887.0" xml:space="preserve" y="346.57142857142856">Data</tspan><tspan x="1887.0" xml:space="preserve" y="359.4285714285714">Handling</tspan><tspan x="1887.0" xml:space="preserve" y="372.2857142857142">System</tspan></text><use height="20" width="20" x="1865.0" xlink:href="#LogicalComponentSymbol" y="343.0" /></g><g class="Box LogicalComponent" id="_T1iyaF2BEey4sobpfmazJQ"><rect class="LogicalComponent" height="91" style="fill: #96B1DA; stroke: #4A4A97; stroke-width: 1" width="120" x="3707.5" y="297.5" /><text class="LogicalComponent" dominant-baseline="middle" text-anchor="start" x="3707" y="297"><tspan x="3739.8571428571427" xml:space="preserve" y="336.07142857142856">Vapourisation</tspan><tspan x="3739.8571428571427" xml:space="preserve" y="348.9285714285714">Chamber</tspan></text><use height="20" width="20" x="3717.8571428571427" xlink:href="#LogicalComponentSymbol" y="332.49999999999994" /></g><g class="Box LogicalComponent" id="_T1iya12BEey4sobpfmazJQ"><rect class="LogicalComponent" height="91" style="fill: #96B1DA; stroke: #4A4A97; stroke-width: 1" width="120" x="3847.5" y="297.5" /><text class="LogicalComponent" dominant-baseline="middle" text-anchor="start" x="3847" y="297"><tspan x="3877.0" xml:space="preserve" y="323.2142857142857">Vapourisation</tspan><tspan x="3877.0" xml:space="preserve" y="336.07142857142856">Waste</tspan><tspan x="3877.0" xml:space="preserve" y="348.9285714285714">Transportation</tspan><tspan x="3877.0" xml:space="preserve" y="361.7857142857142">System</tspan></text><use height="20" width="20" x="3855.0" xlink:href="#LogicalComponentSymbol" y="332.5" /></g><g class="Box LogicalComponent" id="_T1jZcl2BEey4sobpfmazJQ"><rect class="LogicalComponent" height="91" style="fill: #96B1DA; stroke: #4A4A97; stroke-width: 1" width="120" x="3987.5" y="297.5" /><text class="LogicalComponent" dominant-baseline="middle" text-anchor="start" x="3987" y="297"><tspan x="4010.5714285714284" xml:space="preserve" y="329.64285714285717">Vapourisation</tspan><tspan x="4010.5714285714284" xml:space="preserve" y="342.5">Chamber Cooling</tspan><tspan x="4010.5714285714284" xml:space="preserve" y="355.35714285714283">System</tspan></text><use height="20" width="20" x="3988.5714285714284" xlink:href="#LogicalComponentSymbol" y="332.5" /></g><g class="Box LogicalComponent" id="_T1jZdV2BEey4sobpfmazJQ"><rect class="LogicalComponent" height="91" style="fill: #96B1DA; stroke: #4A4A97; stroke-width: 1" width="120" x="4127.5" y="297.5" /><text class="LogicalComponent" dominant-baseline="middle" text-anchor="start" x="4127" y="297"><tspan x="4152.0" xml:space="preserve" y="328.2142857142857">Solar</tspan><tspan x="4152.0" xml:space="preserve" y="341.07142857142856">Concentrator for</tspan><tspan x="4152.0" xml:space="preserve" y="353.9285714285714">Vapourisation</tspan></text><use height="20" width="20" x="4130.0" xlink:href="#LogicalComponentSymbol" y="332.5" /></g><g class="Box LogicalComponent" id="_T1jZeF2BEey4sobpfmazJQ"><rect class="LogicalComponent" height="91" style="fill: #96B1DA; stroke: #4A4A97; stroke-width: 1" width="120" x="4267.5" y="297.5" /><text class="LogicalComponent" dominant-baseline="middle" text-anchor="start" x="4267" y="297"><tspan x="4289.142857142857" xml:space="preserve" y="329.64285714285717">Vapourisation</tspan><tspan x="4289.142857142857" xml:space="preserve" y="342.5">Chamber Vacuum</tspan><tspan x="4289.142857142857" xml:space="preserve" y="355.35714285714283">Provider</tspan></text><use height="20" width="20" x="4267.142857142857" xlink:href="#LogicalComponentSymbol" y="332.5" /></g><g class="Box LogicalComponent" id="_T1kAgF2BEey4sobpfmazJQ"><rect class="LogicalComponent" height="91" style="fill: #96B1DA; stroke: #4A4A97; stroke-width: 1" width="110" x="4427.5" y="297.5" /><text class="LogicalComponent" dominant-baseline="middle" text-anchor="start" x="4427" y="297"><tspan x="4454.857142857143" xml:space="preserve" y="337.5">Condensation</tspan><tspan x="4454.857142857143" xml:space="preserve" y="347.5">Chamber</tspan></text><use height="20" width="20" x="4432.857142857143" xlink:href="#LogicalComponentSymbol" y="332.5" /></g><g class="Box LogicalComponent" id="_T1kAg12BEey4sobpfmazJQ"><rect class="LogicalComponent" height="91" style="fill: #96B1DA; stroke: #4A4A97; stroke-width: 1" width="110" x="4557.5" y="297.5" /><text class="LogicalComponent" dominant-baseline="middle" text-anchor="start" x="4557" y="297"><tspan x="4592.0" xml:space="preserve" y="342.5">Cold plates</tspan></text><use height="20" width="20" x="4570.0" xlink:href="#LogicalComponentSymbol" y="332.5" /></g><g class="Box LogicalComponent" id="_T1knkl2BEey4sobpfmazJQ"><rect class="LogicalComponent" height="91" style="fill: #96B1DA; stroke: #4A4A97; stroke-width: 1" width="110" x="4697.5" y="297.5" /><text class="LogicalComponent" dominant-baseline="middle" text-anchor="start" x="4697" y="297"><tspan x="4724.857142857143" xml:space="preserve" y="327.5">Condensation</tspan><tspan x="4724.857142857143" xml:space="preserve" y="337.5">Chamber</tspan><tspan x="4724.857142857143" xml:space="preserve" y="347.5">Vacuum</tspan><tspan x="4724.857142857143" xml:space="preserve" y="357.5">Provider</tspan></text><use height="20" width="20" x="4702.857142857143" xlink:href="#LogicalComponentSymbol" y="332.5" /></g><g class="Box LogicalComponent" id="_T1knlV2BEey4sobpfmazJQ"><rect class="LogicalComponent" height="91" style="fill: #96B1DA; stroke: #4A4A97; stroke-width: 1" width="110" x="4827.5" y="297.5" /><text class="LogicalComponent" dominant-baseline="middle" text-anchor="start" x="4827" y="297"><tspan x="4852.0" xml:space="preserve" y="321.7857142857143">Condensation</tspan><tspan x="4852.0" xml:space="preserve" y="334.6428571428571">Waste</tspan><tspan x="4852.0" xml:space="preserve" y="347.49999999999994">Transportation</tspan><tspan x="4852.0" xml:space="preserve" y="360.3571428571428">System</tspan></text><use height="20" width="20" x="4830.0" xlink:href="#LogicalComponentSymbol" y="332.5" /></g><g class="Box LogicalComponent" id="_T1knmF2BEey4sobpfmazJQ"><rect class="LogicalComponent" height="91" style="fill: #96B1DA; stroke: #4A4A97; stroke-width: 1" width="110" x="4957.5" y="297.5" /><text class="LogicalComponent" dominant-baseline="middle" text-anchor="start" x="4957" y="297"><tspan x="4981.285714285715" xml:space="preserve" y="328.2142857142857">Condensation</tspan><tspan x="4981.285714285715" xml:space="preserve" y="341.07142857142856">Chamber</tspan><tspan x="4981.285714285715" xml:space="preserve" y="353.9285714285714">Cooling System</tspan></text><use height="20" width="20" x="4959.285714285715" xlink:href="#LogicalComponentSymbol" y="332.5" /></g><g class="Box LogicalComponent" id="_T1lOoV2BEey4sobpfmazJQ"><rect class="LogicalComponent" height="91" style="fill: #96B1DA; stroke: #4A4A97; stroke-width: 1" width="120" x="5107.5" y="297.5" /><text class="LogicalComponent" dominant-baseline="middle" text-anchor="start" x="5107" y="297"><tspan x="5143.428571428572" xml:space="preserve" y="336.07142857142856">Oxygen Trap</tspan><tspan x="5143.428571428572" xml:space="preserve" y="348.9285714285714">System</tspan></text><use height="20" width="20" x="5121.428571428572" xlink:href="#LogicalComponentSymbol" y="332.49999999999994" /></g><g class="Box LogicalComponent" id="_T1lOpF2BEey4sobpfmazJQ"><rect class="LogicalComponent" height="91" style="fill: #96B1DA; stroke: #4A4A97; stroke-width: 1" width="111" x="5257.5" y="297.5" /><text class="LogicalComponent" dominant-baseline="middle" text-anchor="start" x="5257" y="297"><tspan x="5291.785714285715" xml:space="preserve" y="329.64285714285717">Oxygen</tspan><tspan x="5291.785714285715" xml:space="preserve" y="342.5">Purification</tspan><tspan x="5291.785714285715" xml:space="preserve" y="355.35714285714283">System</tspan></text><use height="20" width="20" x="5269.785714285715" xlink:href="#LogicalComponentSymbol" y="332.5" /></g><g class="Edge LogicalComponent" id="_T1l1sF2BEey4sobpfmazJQ"><path class="Edge" d="M 91.5 167.5 91.5 123.5 873.5 123.5 873.5 87.5" /><rect class="AnnotationBB" height="13" width="258" x="719" y="107" /><text class="Annotation" dominant-baseline="middle" text-anchor="middle" x="707.0" y="107"><tspan x="849.0" xml:space="preserve" y="113.42857142857143">Process Control and Monitoring - Logical System</tspan></text><use height="20" width="20" x="700.4285714285714" xlink:href="#LogicalComponentSymbol" y="103.42857142857143" /></g><g class="Edge LogicalComponent" id="_T1mcxF2BEey4sobpfmazJQ"><path class="Edge" d="M 727.5 167.5 727.5 123.5 873.5 123.5 873.5 87.5" /><rect class="AnnotationBB" height="13" width="258" x="671" y="107" /><text class="Annotation" dominant-baseline="middle" text-anchor="middle" x="659.0" y="107"><tspan x="801.0" xml:space="preserve" y="113.42857142857143">Process Control and Monitoring - Logical System</tspan></text><use height="20" width="20" x="652.4285714285714" xlink:href="#LogicalComponentSymbol" y="103.42857142857143" /></g><g class="Edge LogicalComponent" id="_T1nD1F2BEey4sobpfmazJQ"><path class="Edge" d="M 351.5 167.5 351.5 123.5 873.5 123.5 873.5 87.5" /><rect class="AnnotationBB" height="13" width="258" x="436" y="127" /><text class="Annotation" dominant-baseline="middle" text-anchor="middle" x="424.0" y="127"><tspan x="566.0" xml:space="preserve" y="133.42857142857142">Process Control and Monitoring - Logical System</tspan></text><use height="20" width="20" x="417.42857142857144" xlink:href="#LogicalComponentSymbol" y="123.42857142857143" /></g><g class="Edge LogicalComponent" id="_T1nD2V2BEey4sobpfmazJQ"><path class="Edge" d="M 1481.5 167.5 1481.5 123.5 873.5 123.5 873.5 87.5" /><rect class="AnnotationBB" height="13" width="258" x="1056" y="127" /><text class="Annotation" dominant-baseline="middle" text-anchor="middle" x="1044.0" y="127"><tspan x="1186.0" xml:space="preserve" y="133.42857142857142">Process Control and Monitoring - Logical System</tspan></text><use height="20" width="20" x="1037.4285714285713" xlink:href="#LogicalComponentSymbol" y="123.42857142857143" /></g><g class="Edge LogicalComponent" id="_T1nD3l2BEey4sobpfmazJQ"><path class="Edge" d="M 2211.5 167.5 2211.5 123.5 693.5 123.5 693.5 107.5" /><rect class="AnnotationBB" height="13" width="152" x="1390" y="127" /><text class="Annotation" dominant-baseline="middle" text-anchor="middle" x="1378.0" y="127"><tspan x="1467.0" xml:space="preserve" y="133.42857142857142">Regolith Inlet Logical System</tspan></text><use height="20" width="20" x="1371.2857142857142" xlink:href="#LogicalComponentSymbol" y="123.42857142857143" /></g><g class="Edge LogicalComponent" id="_T1nq4F2BEey4sobpfmazJQ"><path class="Edge" d="M 2671.5 167.5 2671.5 123.5 693.5 123.5 693.5 107.5" /><rect class="AnnotationBB" height="13" width="152" x="1620" y="127" /><text class="Annotation" dominant-baseline="middle" text-anchor="middle" x="1608.0" y="127"><tspan x="1697.0" xml:space="preserve" y="133.42857142857142">Regolith Inlet Logical System</tspan></text><use height="20" width="20" x="1601.2857142857142" xlink:href="#LogicalComponentSymbol" y="123.42857142857143" /></g><g class="Edge LogicalComponent" id="_T1nq5V2BEey4sobpfmazJQ"><path class="Edge" d="M 2981.5 167.5 2981.5 123.5 1462.5 123.5 1462.5 107.5" /><rect class="AnnotationBB" height="10" width="98" x="2187" y="128" /><text class="Annotation" dominant-baseline="middle" text-anchor="middle" x="2175.0" y="128"><tspan x="2237.0" xml:space="preserve" y="133.0">External Structure</tspan></text><use height="20" width="20" x="2168.4285714285716" xlink:href="#LogicalComponentSymbol" y="123.0" /></g><g class="Edge LogicalComponent" id="_T1nq6l2BEey4sobpfmazJQ"><path class="Edge" d="M 3441.5 167.5 3441.5 123.5 1462.5 123.5 1462.5 107.5" /><rect class="AnnotationBB" height="10" width="98" x="2417" y="128" /><text class="Annotation" dominant-baseline="middle" text-anchor="middle" x="2405.0" y="128"><tspan x="2467.0" xml:space="preserve" y="133.0">External Structure</tspan></text><use height="20" width="20" x="2398.4285714285716" xlink:href="#LogicalComponentSymbol" y="123.0" /></g><g class="Edge LogicalComponent" id="_T1nq712BEey4sobpfmazJQ"><path class="Edge" d="M 3961.5 167.5 3961.5 123.5 4712.5 123.5 4712.5 87.5" /><rect class="AnnotationBB" height="13" width="292" x="4242" y="107" /><text class="Annotation" dominant-baseline="middle" text-anchor="middle" x="4230.0" y="107"><tspan x="4389.0" xml:space="preserve" y="113.42857142857143">Regolith Pyrolysis and Oxygen Recovery Logical System</tspan></text><use height="20" width="20" x="4223.285714285715" xlink:href="#LogicalComponentSymbol" y="103.42857142857143" /></g><g class="Edge LogicalComponent" id="_T1oR8F2BEey4sobpfmazJQ"><path class="Edge" d="M 4671.5 167.5 4671.5 123.5 4712.5 123.5 4712.5 87.5" /><rect class="AnnotationBB" height="13" width="292" x="4564" y="107" /><text class="Annotation" dominant-baseline="middle" text-anchor="middle" x="4552.0" y="107"><tspan x="4711.0" xml:space="preserve" y="113.42857142857143">Regolith Pyrolysis and Oxygen Recovery Logical System</tspan></text><use height="20" width="20" x="4545.285714285715" xlink:href="#LogicalComponentSymbol" y="103.42857142857143" /></g><g class="Edge LogicalComponent" id="_T1oR9V2BEey4sobpfmazJQ"><path class="Edge" d="M 5151.5 167.5 5151.5 123.5 4712.5 123.5 4712.5 87.5" /><rect class="AnnotationBB" height="13" width="292" x="4833" y="127" /><text class="Annotation" dominant-baseline="middle" text-anchor="middle" x="4821.0" y="127"><tspan x="4980.0" xml:space="preserve" y="133.42857142857142">Regolith Pyrolysis and Oxygen Recovery Logical System</tspan></text><use height="20" width="20" x="4814.285714285715" xlink:href="#LogicalComponentSymbol" y="123.42857142857143" /></g><g class="Edge LogicalComponent" id="_T1oR-l2BEey4sobpfmazJQ"><path class="Edge" d="M 482.5 297.5 482.5 288.5 733.5 288.5 733.5 237.5" /><rect class="AnnotationBB" height="13" width="100" x="557" y="271" /><text class="Annotation" dominant-baseline="middle" text-anchor="middle" x="545.0" y="271"><tspan x="608.0" xml:space="preserve" y="277.42857142857144">Control Subsystem</tspan></text><use height="20" width="20" x="538.0" xlink:href="#LogicalComponentSymbol" y="267.42857142857144" /></g><g class="Edge LogicalComponent" id="_T1o5AF2BEey4sobpfmazJQ"><path class="Edge" d="M 568.5 297.5 568.5 254.5 894.5 254.5 894.5 237.5" /><rect class="AnnotationBB" height="13" width="100" x="708" y="238" /><text class="Annotation" dominant-baseline="middle" text-anchor="middle" x="696.0" y="238"><tspan x="759.0" xml:space="preserve" y="244.42857142857142">Control Subsystem</tspan></text><use height="20" width="20" x="689.0" xlink:href="#LogicalComponentSymbol" y="234.42857142857142" /></g><g class="Edge LogicalComponent" id="_T1qHIF2BEey4sobpfmazJQ"><path class="Edge" d="M 762.5 297.5 762.5 288.5 733.5 288.5 733.5 237.5" /><rect class="AnnotationBB" height="13" width="100" x="697" y="291" /><text class="Annotation" dominant-baseline="middle" text-anchor="middle" x="685.0" y="291"><tspan x="748.0" xml:space="preserve" y="297.42857142857144">Control Subsystem</tspan></text><use height="20" width="20" x="678.0" xlink:href="#LogicalComponentSymbol" y="287.42857142857144" /></g><g class="Edge LogicalComponent" id="_T1rVQF2BEey4sobpfmazJQ"><path class="Edge" d="M 838.5 297.5 838.5 254.5 733.5 254.5 733.5 237.5" /><rect class="AnnotationBB" height="13" width="100" x="730" y="258" /><text class="Annotation" dominant-baseline="middle" text-anchor="middle" x="718.0" y="258"><tspan x="781.0" xml:space="preserve" y="264.42857142857144">Control Subsystem</tspan></text><use height="20" width="20" x="711.0" xlink:href="#LogicalComponentSymbol" y="254.42857142857142" /></g><g class="Edge LogicalComponent" id="_T1rVRV2BEey4sobpfmazJQ"><path class="Edge" d="M 978.5 297.5 978.5 254.5 733.5 254.5 733.5 237.5" /><rect class="AnnotationBB" height="13" width="100" x="903" y="258" /><text class="Annotation" dominant-baseline="middle" text-anchor="middle" x="891.0" y="258"><tspan x="954.0" xml:space="preserve" y="264.42857142857144">Control Subsystem</tspan></text><use height="20" width="20" x="884.0" xlink:href="#LogicalComponentSymbol" y="254.42857142857142" /></g><g class="Edge LogicalComponent" id="_T1rVSl2BEey4sobpfmazJQ"><path class="Edge" d="M 1152.5 297.5 1152.5 255.5 1553.5 255.5 1553.5 237.5" /><rect class="AnnotationBB" height="13" width="120" x="1352" y="238" /><text class="Annotation" dominant-baseline="middle" text-anchor="middle" x="1340.0" y="238"><tspan x="1413.0" xml:space="preserve" y="244.42857142857142">Monitoring Subsystem</tspan></text><use height="20" width="20" x="1333.0" xlink:href="#LogicalComponentSymbol" y="234.42857142857142" /></g><g class="Edge LogicalComponent" id="_T1r8VF2BEey4sobpfmazJQ"><path class="Edge" d="M 1262.5 298.5 1262.5 255.5 1553.5 255.5 1553.5 237.5" /><rect class="AnnotationBB" height="13" width="120" x="1416" y="238" /><text class="Annotation" dominant-baseline="middle" text-anchor="middle" x="1404.0" y="238"><tspan x="1477.0" xml:space="preserve" y="244.42857142857142">Monitoring Subsystem</tspan></text><use height="20" width="20" x="1397.0" xlink:href="#LogicalComponentSymbol" y="234.42857142857142" /></g><g class="Edge LogicalComponent" id="_T1r8WV2BEey4sobpfmazJQ"><path class="Edge" d="M 1382.5 297.5 1382.5 255.5 1552.5 255.5 1552.5 237.5" /><rect class="AnnotationBB" height="13" width="120" x="1463" y="238" /><text class="Annotation" dominant-baseline="middle" text-anchor="middle" x="1451.0" y="238"><tspan x="1524.0" xml:space="preserve" y="244.42857142857142">Monitoring Subsystem</tspan></text><use height="20" width="20" x="1444.0" xlink:href="#LogicalComponentSymbol" y="234.42857142857142" /></g><g class="Edge LogicalComponent" id="_T1r8Xl2BEey4sobpfmazJQ"><path class="Edge" d="M 1532.5 297.5 1532.5 255.5 1553.5 255.5 1553.5 237.5" /><rect class="AnnotationBB" height="13" width="120" x="1491" y="238" /><text class="Annotation" dominant-baseline="middle" text-anchor="middle" x="1479.0" y="238"><tspan x="1552.0" xml:space="preserve" y="244.42857142857142">Monitoring Subsystem</tspan></text><use height="20" width="20" x="1472.0" xlink:href="#LogicalComponentSymbol" y="234.42857142857142" /></g><g class="Edge LogicalComponent" id="_T1sjZF2BEey4sobpfmazJQ"><path class="Edge" d="M 1652.5 297.5 1652.5 255.5 1553.5 255.5 1553.5 237.5" /><rect class="AnnotationBB" height="13" width="120" x="1510" y="258" /><text class="Annotation" dominant-baseline="middle" text-anchor="middle" x="1498.0" y="258"><tspan x="1571.0" xml:space="preserve" y="264.42857142857144">Monitoring Subsystem</tspan></text><use height="20" width="20" x="1491.0" xlink:href="#LogicalComponentSymbol" y="254.42857142857142" /></g><g class="Edge LogicalComponent" id="_T1sjaV2BEey4sobpfmazJQ"><path class="Edge" d="M 1772.5 298.5 1772.5 255.5 1553.5 255.5 1553.5 237.5" /><rect class="AnnotationBB" height="13" width="120" x="1606" y="258" /><text class="Annotation" dominant-baseline="middle" text-anchor="middle" x="1594.0" y="258"><tspan x="1667.0" xml:space="preserve" y="264.42857142857144">Monitoring Subsystem</tspan></text><use height="20" width="20" x="1587.0" xlink:href="#LogicalComponentSymbol" y="254.42857142857142" /></g><g class="Edge LogicalComponent" id="_T1sjbl2BEey4sobpfmazJQ"><path class="Edge" d="M 1892.5 298.5 1892.5 255.5 1553.5 255.5 1553.5 237.5" /><rect class="AnnotationBB" height="13" width="120" x="1670" y="258" /><text class="Annotation" dominant-baseline="middle" text-anchor="middle" x="1658.0" y="258"><tspan x="1731.0" xml:space="preserve" y="264.42857142857144">Monitoring Subsystem</tspan></text><use height="20" width="20" x="1651.0" xlink:href="#LogicalComponentSymbol" y="254.42857142857142" /></g><g class="Edge LogicalComponent" id="_T1tKdF2BEey4sobpfmazJQ"><path class="Edge" d="M 3742.5 297.5 3742.5 255.5 4033.5 255.5 4033.5 237.5" /><rect class="AnnotationBB" height="13" width="175" x="3907" y="238" /><text class="Annotation" dominant-baseline="middle" text-anchor="middle" x="3895.0" y="238"><tspan x="3995.5" xml:space="preserve" y="244.42857142857142">Vapourisation Logical Subsystem</tspan></text><use height="20" width="20" x="3888.3571428571427" xlink:href="#LogicalComponentSymbol" y="234.42857142857142" /></g><g class="Edge LogicalComponent" id="_T1txgF2BEey4sobpfmazJQ"><path class="Edge" d="M 3882.5 297.5 3882.5 255.5 4033.5 255.5 4033.5 237.5" /><rect class="AnnotationBB" height="13" width="175" x="3882" y="238" /><text class="Annotation" dominant-baseline="middle" text-anchor="middle" x="3870.0" y="238"><tspan x="3970.5" xml:space="preserve" y="244.42857142857142">Vapourisation Logical Subsystem</tspan></text><use height="20" width="20" x="3863.3571428571427" xlink:href="#LogicalComponentSymbol" y="234.42857142857142" /></g><g class="Edge LogicalComponent" id="_T1txhV2BEey4sobpfmazJQ"><path class="Edge" d="M 4022.5 297.5 4022.5 255.5 4033.5 255.5 4033.5 237.5" /><rect class="AnnotationBB" height="13" width="175" x="3942" y="238" /><text class="Annotation" dominant-baseline="middle" text-anchor="middle" x="3930.0" y="238"><tspan x="4030.5" xml:space="preserve" y="244.42857142857142">Vapourisation Logical Subsystem</tspan></text><use height="20" width="20" x="3923.3571428571427" xlink:href="#LogicalComponentSymbol" y="234.42857142857142" /></g><g class="Edge LogicalComponent" id="_T1uYkF2BEey4sobpfmazJQ"><path class="Edge" d="M 4162.5 297.5 4162.5 255.5 4033.5 255.5 4033.5 237.5" /><rect class="AnnotationBB" height="13" width="175" x="4020" y="258" /><text class="Annotation" dominant-baseline="middle" text-anchor="middle" x="4008.0" y="258"><tspan x="4108.5" xml:space="preserve" y="264.42857142857144">Vapourisation Logical Subsystem</tspan></text><use height="20" width="20" x="4001.3571428571427" xlink:href="#LogicalComponentSymbol" y="254.42857142857142" /></g><g class="Edge LogicalComponent" id="_T1uYlV2BEey4sobpfmazJQ"><path class="Edge" d="M 4302.5 297.5 4302.5 255.5 4033.5 255.5 4033.5 237.5" /><rect class="AnnotationBB" height="13" width="175" x="4200" y="258" /><text class="Annotation" dominant-baseline="middle" text-anchor="middle" x="4188.0" y="258"><tspan x="4288.5" xml:space="preserve" y="264.42857142857144">Vapourisation Logical Subsystem</tspan></text><use height="20" width="20" x="4181.357142857143" xlink:href="#LogicalComponentSymbol" y="254.42857142857142" /></g><g class="Edge LogicalComponent" id="_T1u_oF2BEey4sobpfmazJQ"><path class="Edge" d="M 4462.5 297.5 4462.5 255.5 4743.5 255.5 4743.5 237.5" /><rect class="AnnotationBB" height="13" width="156" x="4589" y="238" /><text class="Annotation" dominant-baseline="middle" text-anchor="middle" x="4577.0" y="238"><tspan x="4668.0" xml:space="preserve" y="244.42857142857142">Condensation Logical System</tspan></text><use height="20" width="20" x="4570.142857142857" xlink:href="#LogicalComponentSymbol" y="234.42857142857142" /></g><g class="Edge LogicalComponent" id="_T1u_pV2BEey4sobpfmazJQ"><path class="Edge" d="M 4592.5 297.5 4592.5 255.5 4743.5 255.5 4743.5 237.5" /><rect class="AnnotationBB" height="13" width="156" x="4643" y="238" /><text class="Annotation" dominant-baseline="middle" text-anchor="middle" x="4631.0" y="238"><tspan x="4722.0" xml:space="preserve" y="244.42857142857142">Condensation Logical System</tspan></text><use height="20" width="20" x="4624.142857142857" xlink:href="#LogicalComponentSymbol" y="234.42857142857142" /></g><g class="Edge LogicalComponent" id="_T1u_ql2BEey4sobpfmazJQ"><path class="Edge" d="M 4732.5 297.5 4732.5 255.5 4743.5 255.5 4743.5 237.5" /><rect class="AnnotationBB" height="13" width="156" x="4664" y="238" /><text class="Annotation" dominant-baseline="middle" text-anchor="middle" x="4652.0" y="238"><tspan x="4743.0" xml:space="preserve" y="244.42857142857142">Condensation Logical System</tspan></text><use height="20" width="20" x="4645.142857142857" xlink:href="#LogicalComponentSymbol" y="234.42857142857142" /></g><g class="Edge LogicalComponent" id="_T1vmtF2BEey4sobpfmazJQ"><path class="Edge" d="M 4862.5 297.5 4862.5 255.5 4743.5 255.5 4743.5 237.5" /><rect class="AnnotationBB" height="13" width="156" x="4734" y="258" /><text class="Annotation" dominant-baseline="middle" text-anchor="middle" x="4722.0" y="258"><tspan x="4813.0" xml:space="preserve" y="264.42857142857144">Condensation Logical System</tspan></text><use height="20" width="20" x="4715.142857142857" xlink:href="#LogicalComponentSymbol" y="254.42857142857142" /></g><g class="Edge LogicalComponent" id="_T1wNwF2BEey4sobpfmazJQ"><path class="Edge" d="M 4992.5 297.5 4992.5 255.5 4743.5 255.5 4743.5 237.5" /><rect class="AnnotationBB" height="13" width="156" x="4885" y="258" /><text class="Annotation" dominant-baseline="middle" text-anchor="middle" x="4873.0" y="258"><tspan x="4964.0" xml:space="preserve" y="264.42857142857144">Condensation Logical System</tspan></text><use height="20" width="20" x="4866.142857142857" xlink:href="#LogicalComponentSymbol" y="254.42857142857142" /></g><g class="Edge LogicalComponent" id="_T1wNxV2BEey4sobpfmazJQ"><path class="Edge" d="M 5142.5 297.5 5142.5 254.5 5223.5 254.5 5223.5 237.5" /><rect class="AnnotationBB" height="13" width="173" x="5126" y="237" /><text class="Annotation" dominant-baseline="middle" text-anchor="middle" x="5114.0" y="237"><tspan x="5213.5" xml:space="preserve" y="243.42857142857142">Oxygen Recovery Logical System</tspan></text><use height="20" width="20" x="5107.071428571428" xlink:href="#LogicalComponentSymbol" y="233.42857142857142" /></g><g class="Edge LogicalComponent" id="_T1wNyl2BEey4sobpfmazJQ"><path class="Edge" d="M 5291.5 297.5 5291.5 254.5 5222.5 254.5 5222.5 237.5" /><rect class="AnnotationBB" height="13" width="173" x="5205" y="258" /><text class="Annotation" dominant-baseline="middle" text-anchor="middle" x="5193.0" y="258"><tspan x="5292.5" xml:space="preserve" y="264.42857142857144">Oxygen Recovery Logical System</tspan></text><use height="20" width="20" x="5186.071428571428" xlink:href="#LogicalComponentSymbol" y="254.42857142857142" /></g></svg>