<svg baseProfile="full" class="PhysicalComponentBreakdown" height="350" version="1.1" viewBox="47 27 1561 350" width="1561" xmlns="http://www.w3.org/2000/svg" xmlns:ev="http://www.w3.org/2001/xml-events" xmlns:xlink="http://www.w3.org/1999/xlink"><defs><style>.PhysicalComponentBreakdown * { shape-rendering: geometricPrecision; }
.PhysicalComponentBreakdown text { font-family: "Segoe UI"; font-size: 8pt; }
.PhysicalComponentBreakdown g { cursor: pointer; }
.PhysicalComponentBreakdown g.Edge &gt; path { fill: none; stroke: rgb(0, 0, 0); }
.PhysicalComponentBreakdown g.Box &gt; line { stroke: #000000; }
.PhysicalComponentBreakdown g.Box &gt; rect, .PhysicalComponentBreakdown g.Box &gt; use { fill: transparent; stroke: #000000; stroke-width: 1; }
.PhysicalComponentBreakdown g.Box.Annotation &gt; line { stroke: none; }
.PhysicalComponentBreakdown g.Box.Annotation &gt; rect, .PhysicalComponentBreakdown g.Box.Annotation &gt; use { fill: none; stroke: none; }
.PhysicalComponentBreakdown g.Box.Constraint &gt; line { stroke: #888888; }
.PhysicalComponentBreakdown g.Box.Constraint &gt; rect, .PhysicalComponentBreakdown g.Box.Constraint &gt; use { fill: #FFF5B5; stroke: #888888; }
.PhysicalComponentBreakdown g.Box.Constraint &gt; text { fill: #000000; }
.PhysicalComponentBreakdown g.Box.Note &gt; line { stroke: #FFCC66; }
.PhysicalComponentBreakdown g.Box.Note &gt; rect, .PhysicalComponentBreakdown g.Box.Note &gt; use { fill: #FFFFCB; stroke: #FFCC66; }
.PhysicalComponentBreakdown g.Box.Note &gt; text { fill: #000000; }
.PhysicalComponentBreakdown g.Box.Requirement &gt; line { stroke: #72496E; }
.PhysicalComponentBreakdown g.Box.Requirement &gt; rect, .PhysicalComponentBreakdown g.Box.Requirement &gt; use { fill: #D9C4D7; stroke: #72496E; }
.PhysicalComponentBreakdown g.Box.Requirement &gt; text { fill: #000000; }
.PhysicalComponentBreakdown g.Box.Text &gt; line { stroke: transparent; }
.PhysicalComponentBreakdown g.Box.Text &gt; rect, .PhysicalComponentBreakdown g.Box.Text &gt; use { stroke: transparent; }
.PhysicalComponentBreakdown g.Edge &gt; rect { fill: none; stroke: none; }
.PhysicalComponentBreakdown g.Circle &gt; circle { fill: #000000; stroke: none; }
.PhysicalComponentBreakdown g.Edge &gt; path { stroke-width: 1; }
.PhysicalComponentBreakdown g.Edge.Connector &gt; rect { fill: none; stroke: none; }
.PhysicalComponentBreakdown g.Circle.Connector &gt; circle { fill: #B0B0B0; stroke: none; }
.PhysicalComponentBreakdown g.Edge.Connector &gt; path { stroke: #B0B0B0; stroke-dasharray: 1; }
.PhysicalComponentBreakdown g.Edge.Constraint &gt; rect { fill: none; stroke: none; }
.PhysicalComponentBreakdown g.Circle.Constraint &gt; circle { fill: #000000; stroke: none; }
.PhysicalComponentBreakdown g.Edge.Constraint &gt; path { stroke: #000000; stroke-dasharray: 1, 3; marker-end: url(#FineArrowMark_000000); stroke-linecap: round; }
.PhysicalComponentBreakdown g.Edge.Note &gt; rect { fill: none; stroke: none; }
.PhysicalComponentBreakdown g.Circle.Note &gt; circle { fill: #000000; stroke: none; }
.PhysicalComponentBreakdown g.Edge.Note &gt; path { stroke: #000000; stroke-dasharray: 1, 3; }
.PhysicalComponentBreakdown g.Edge.RequirementRelation &gt; rect { fill: none; stroke: none; }
.PhysicalComponentBreakdown g.Circle.RequirementRelation &gt; circle { fill: #72496E; stroke: none; }
.PhysicalComponentBreakdown g.Edge.RequirementRelation &gt; path { stroke: #72496E; stroke-width: 2; marker-end: url(#FineArrowMark_72496E); stroke-dasharray: 5; }
.PhysicalComponentBreakdown g.Edge.RequirementRelation &gt; text { fill: #72496E; }
</style><symbol id="ErrorSymbol" viewBox="0 0 2.6458 2.6458"><path d="M 0,0 2.6458333,2.6458333 M 0,2.6458333 2.6458333,0" style="fill: none; stroke: red; stroke-width: 0.5;" /></symbol><symbol id="RequirementSymbol" style="stroke: none;" viewBox="0 0 50 50"><path d="M 12.806813,6.5702324 A 6.244379,5.8113241 0 0 1 6.5624342,12.381557 6.244379,5.8113241 0 0 1 0.31805515,6.5702324 6.244379,5.8113241 0 0 1 6.5624342,0.75890827 6.244379,5.8113241 0 0 1 12.806813,6.5702324 Z" style="fill: #431964" /><path d="m 4.3228658,5.8752475 h 2.9514721 q 0.2945581,0 0.5184223,-0.1413879 Q 8.0225155,5.5865806 8.1462299,5.3214783 8.2699443,5.056376 8.2758355,4.7029063 v 0 q 0,-0.3475786 -0.1237144,-0.6126808 Q 8.0284067,3.8251232 7.7986513,3.6837353 7.5747872,3.5364562 7.2743379,3.5364562 H 4.3228658 V 2.1873801 h 2.9927103 q 0.7246129,0 1.2724909,0.3122316 0.5478781,0.3122316 0.8483274,0.8836743 0.3063404,0.5714427 0.3063404,1.3196203 v 0 q 0,0.7540687 -0.3063404,1.3255114 Q 9.1359451,6.5998605 8.5821759,6.912092 8.0342978,7.2243236 7.3155761,7.2243236 H 4.3228658 Z M 3.7396407,2.1873801 H 5.1476285 V 10.759021 H 3.7396407 Z M 6.3906636,6.9592213 7.8516718,6.6882279 10.102096,10.759021 H 8.4113322 Z" style="fill:#ffffff;" /></symbol></defs><rect fill="white" height="350" stroke="none" width="1561" x="47" y="27" /><g class="Box PhysicalComponent" id="_aJQBYH-JEeyzaLkoFCOuvA"><rect class="PhysicalComponent" height="70" style="fill: #FFFCB7; stroke: #7B694F; stroke-width: 1" width="121" x="57.5" y="167.5" /><text class="PhysicalComponent" dominant-baseline="middle" text-anchor="middle" x="57" y="167"><tspan x="117.5" xml:space="preserve" y="178.42857142857142">Inlet Hopper</tspan></text></g><g class="Box PhysicalComponent" id="_aJQocX-JEeyzaLkoFCOuvA"><rect class="PhysicalComponent" height="70" style="fill: #FFFCB7; stroke: #7B694F; stroke-width: 1" width="121" x="517.5" y="167.5" /><text class="PhysicalComponent" dominant-baseline="middle" text-anchor="middle" x="517" y="167"><tspan x="577.5" xml:space="preserve" y="178.42857142857142">Shaking Sieve</tspan></text></g><g class="Box PhysicalComponent" id="_aJQodH-JEeyzaLkoFCOuvA"><rect class="PhysicalComponent" height="70" style="fill: #FFFCB7; stroke: #7B694F; stroke-width: 1" width="121" x="1237.5" y="167.5" /><text class="PhysicalComponent" dominant-baseline="middle" text-anchor="middle" x="1237" y="167"><tspan x="1297.5" xml:space="preserve" y="178.42857142857142">Regolilth Transfer</tspan><tspan x="1297.5" xml:space="preserve" y="191.28571428571428">System</tspan></text></g><g class="Box PhysicalComponent" id="_aJQod3-JEeyzaLkoFCOuvA"><rect class="PhysicalComponent" height="70" style="fill: #FFFCB7; stroke: #7B694F; stroke-width: 1" width="121" x="237.5" y="297.5" /><text class="PhysicalComponent" dominant-baseline="middle" text-anchor="middle" x="237" y="297"><tspan x="297.5" xml:space="preserve" y="308.42857142857144">Shaking Motor</tspan></text></g><g class="Box PhysicalComponent" id="_aJQoen-JEeyzaLkoFCOuvA"><rect class="PhysicalComponent" height="70" style="fill: #FFFCB7; stroke: #7B694F; stroke-width: 1" width="121" x="377.5" y="297.5" /><text class="PhysicalComponent" dominant-baseline="middle" text-anchor="middle" x="377" y="297"><tspan x="437.5" xml:space="preserve" y="307.0">Metallic Sieves</tspan></text></g><g class="Box PhysicalComponent" id="_aJQofX-JEeyzaLkoFCOuvA"><rect class="PhysicalComponent" height="70" style="fill: #FFFCB7; stroke: #7B694F; stroke-width: 1" width="121" x="587.5" y="297.5" /><text class="PhysicalComponent" dominant-baseline="middle" text-anchor="middle" x="587" y="297"><tspan x="647.5" xml:space="preserve" y="308.42857142857144">Regolith Outlet</tspan></text></g><g class="Box PhysicalComponent" id="_aJRPgH-JEeyzaLkoFCOuvA"><rect class="PhysicalComponent" height="70" style="fill: #FFFCB7; stroke: #7B694F; stroke-width: 1" width="121" x="787.5" y="167.5" /><text class="PhysicalComponent" dominant-baseline="middle" text-anchor="middle" x="787" y="167"><tspan x="847.5" xml:space="preserve" y="178.42857142857142">Regolith Powder</tspan><tspan x="847.5" xml:space="preserve" y="191.28571428571428">Hopper</tspan></text></g><g class="Box PhysicalComponent" id="_aJRPg3-JEeyzaLkoFCOuvA"><rect class="PhysicalComponent" height="70" style="fill: #FFFCB7; stroke: #7B694F; stroke-width: 1" width="121" x="1027.5" y="297.5" /><text class="PhysicalComponent" dominant-baseline="middle" text-anchor="middle" x="1027" y="297"><tspan x="1087.5" xml:space="preserve" y="308.42857142857144">Regolith Transfer</tspan><tspan x="1087.5" xml:space="preserve" y="321.2857142857143">System Electrical</tspan><tspan x="1087.5" xml:space="preserve" y="334.1428571428571">Engine</tspan></text></g><g class="Box PhysicalComponent" id="_aJRPhn-JEeyzaLkoFCOuvA"><rect class="PhysicalComponent" height="70" style="fill: #FFFCB7; stroke: #7B694F; stroke-width: 1" width="121" x="1167.5" y="297.5" /><text class="PhysicalComponent" dominant-baseline="middle" text-anchor="middle" x="1167" y="297"><tspan x="1227.5" xml:space="preserve" y="307.0">Chamber Inlet Seal</tspan></text></g><g class="Box PhysicalComponent" id="_aJR2kn-JEeyzaLkoFCOuvA"><rect class="PhysicalComponent" height="70" style="fill: #FFFCB7; stroke: #7B694F; stroke-width: 1" width="121" x="1327.5" y="297.5" /><text class="PhysicalComponent" dominant-baseline="middle" text-anchor="middle" x="1327" y="297"><tspan x="1387.5" xml:space="preserve" y="308.42857142857144">Vaporisation Waste</tspan><tspan x="1387.5" xml:space="preserve" y="321.2857142857143">Outlet</tspan></text></g><g class="Box PhysicalComponent" id="_aJR2lX-JEeyzaLkoFCOuvA"><rect class="PhysicalComponent" height="70" style="fill: #FFFCB7; stroke: #7B694F; stroke-width: 1" width="121" x="1477.5" y="297.5" /><text class="PhysicalComponent" dominant-baseline="middle" text-anchor="middle" x="1477" y="297"><tspan x="1537.5" xml:space="preserve" y="308.42857142857144">Regolith Crucible</tspan></text></g><g class="Box PhysicalComponent" id="_aJR2mH-JEeyzaLkoFCOuvA"><rect class="PhysicalComponent" height="70" style="fill: #FFFCB7; stroke: #7B694F; stroke-width: 1" width="121" x="517.5" y="37.5" /><text class="PhysicalComponent" dominant-baseline="middle" text-anchor="middle" x="517" y="37"><tspan x="577.5" xml:space="preserve" y="48.42857142857143">Regolith Inlet System</tspan></text></g><g class="Edge PhysicalComponent" id="_aJSdoH-JEeyzaLkoFCOuvA"><path class="Edge" d="M 92.5 167.5 92.5 127.5 552.5 127.5 552.5 37.5" /><rect class="AnnotationBB" height="13" width="112" x="262" y="111" /><text class="Annotation" dominant-baseline="middle" text-anchor="middle" x="262" y="111"><tspan x="318.0" xml:space="preserve" y="117.42857142857143">Regolith Inlet System</tspan></text></g><g class="Edge PhysicalComponent" id="_aJSdpX-JEeyzaLkoFCOuvA"><path class="Edge" d="M 552.5 167.5 552.5 127.5 552.5 127.5 552.5 37.5" /><rect class="AnnotationBB" height="13" width="112" x="486" y="125" /><text class="Annotation" dominant-baseline="middle" text-anchor="middle" x="486" y="125"><tspan x="542.0" xml:space="preserve" y="131.42857142857142">Regolith Inlet System</tspan></text></g><g class="Edge PhysicalComponent" id="_aJSdqn-JEeyzaLkoFCOuvA"><path class="Edge" d="M 1272.5 167.5 1272.5 127.5 552.5 127.5 552.5 37.5" /><rect class="AnnotationBB" height="13" width="112" x="896" y="131" /><text class="Annotation" dominant-baseline="middle" text-anchor="middle" x="896" y="131"><tspan x="952.0" xml:space="preserve" y="137.42857142857142">Regolith Inlet System</tspan></text></g><g class="Edge PhysicalComponent" id="_aJSdr3-JEeyzaLkoFCOuvA"><path class="Edge" d="M 272.5 297.5 272.5 253.5 427.5 253.5 427.5 237.5" /><rect class="AnnotationBB" height="13" width="73" x="299" y="237" /><text class="Annotation" dominant-baseline="middle" text-anchor="middle" x="299" y="237"><tspan x="335.5" xml:space="preserve" y="243.42857142857142">Shaking Sieve</tspan></text></g><g class="Edge PhysicalComponent" id="_aJSdtH-JEeyzaLkoFCOuvA"><path class="Edge" d="M 412.5 297.5 412.5 253.5 427.5 253.5 427.5 237.5" /><rect class="AnnotationBB" height="13" width="73" x="366" y="253" /><text class="Annotation" dominant-baseline="middle" text-anchor="middle" x="366" y="253"><tspan x="402.5" xml:space="preserve" y="259.42857142857144">Shaking Sieve</tspan></text></g><g class="Edge PhysicalComponent" id="_aJSduX-JEeyzaLkoFCOuvA"><path class="Edge" d="M 622.5 297.5 622.5 253.5 577.5 253.5 577.5 237.5" /><rect class="AnnotationBB" height="13" width="73" x="568" y="257" /><text class="Annotation" dominant-baseline="middle" text-anchor="middle" x="568" y="257"><tspan x="604.5" xml:space="preserve" y="263.42857142857144">Shaking Sieve</tspan></text></g><g class="Edge PhysicalComponent" id="_aJTEtH-JEeyzaLkoFCOuvA"><path class="Edge" d="M 1062.5 297.5 1062.5 253.5 1297.5 253.5 1297.5 237.5" /><rect class="AnnotationBB" height="13" width="136" x="1133" y="237" /><text class="Annotation" dominant-baseline="middle" text-anchor="middle" x="1133" y="237"><tspan x="1201.0" xml:space="preserve" y="243.42857142857142">Regolilth Transfer System</tspan></text></g><g class="Edge PhysicalComponent" id="_aJTEuX-JEeyzaLkoFCOuvA"><path class="Edge" d="M 1202.5 297.5 1202.5 253.5 1297.5 253.5 1297.5 237.5" /><rect class="AnnotationBB" height="13" width="136" x="1203" y="237" /><text class="Annotation" dominant-baseline="middle" text-anchor="middle" x="1203" y="237"><tspan x="1271.0" xml:space="preserve" y="243.42857142857142">Regolilth Transfer System</tspan></text></g><g class="Edge PhysicalComponent" id="_aJTEvn-JEeyzaLkoFCOuvA"><path class="Edge" d="M 1362.5 297.5 1362.5 253.5 1297.5 253.5 1297.5 237.5" /><rect class="AnnotationBB" height="13" width="136" x="1295" y="257" /><text class="Annotation" dominant-baseline="middle" text-anchor="middle" x="1295" y="257"><tspan x="1363.0" xml:space="preserve" y="263.42857142857144">Regolilth Transfer System</tspan></text></g><g class="Edge PhysicalComponent" id="_aJTEw3-JEeyzaLkoFCOuvA"><path class="Edge" d="M 1512.5 297.5 1512.5 253.5 1297.5 253.5 1297.5 237.5" /><rect class="AnnotationBB" height="13" width="136" x="1441" y="257" /><text class="Annotation" dominant-baseline="middle" text-anchor="middle" x="1441" y="257"><tspan x="1509.0" xml:space="preserve" y="263.42857142857144">Regolilth Transfer System</tspan></text></g><g class="Edge PhysicalComponent" id="_iLYzJIN_EeyW5Z4lGdGgCA"><path class="Edge" d="M 848.5 237.5 578.5 237.5" /><rect class="AnnotationBB" height="13" width="73" x="676" y="206" /><text class="Annotation" dominant-baseline="middle" text-anchor="middle" x="676" y="206"><tspan x="712.5" xml:space="preserve" y="212.42857142857142">Shaking Sieve</tspan></text></g></svg>