<svg baseProfile="full" class="PhysicalComponentBreakdown" height="1540" version="1.1" viewBox="-3 -1192 4140 1540" width="4140" xmlns="http://www.w3.org/2000/svg" xmlns:ev="http://www.w3.org/2001/xml-events" xmlns:xlink="http://www.w3.org/1999/xlink"><defs><style>.PhysicalComponentBreakdown * { shape-rendering: geometricPrecision; }
.PhysicalComponentBreakdown text { font-family: "Segoe UI"; font-size: 8pt; }
.PhysicalComponentBreakdown g { cursor: pointer; }
.PhysicalComponentBreakdown g.Edge &gt; path { fill: none; stroke: rgb(0, 0, 0); }
.PhysicalComponentBreakdown g.Box &gt; line { stroke: #000000; }
.PhysicalComponentBreakdown g.Box &gt; rect, .PhysicalComponentBreakdown g.Box &gt; use { fill: transparent; stroke: #000000; stroke-width: 1; }
.PhysicalComponentBreakdown g.Box.Annotation &gt; line { stroke: none; }
.PhysicalComponentBreakdown g.Box.Annotation &gt; rect, .PhysicalComponentBreakdown g.Box.Annotation &gt; use { fill: none; stroke: none; }
.PhysicalComponentBreakdown g.Box.Constraint &gt; line { stroke: #888888; }
.PhysicalComponentBreakdown g.Box.Constraint &gt; rect, .PhysicalComponentBreakdown g.Box.Constraint &gt; use { fill: #FFF5B5; stroke: #888888; }
.PhysicalComponentBreakdown g.Box.Constraint &gt; text { fill: #000000; }
.PhysicalComponentBreakdown g.Box.Note &gt; line { stroke: #FFCC66; }
.PhysicalComponentBreakdown g.Box.Note &gt; rect, .PhysicalComponentBreakdown g.Box.Note &gt; use { fill: #FFFFCB; stroke: #FFCC66; }
.PhysicalComponentBreakdown g.Box.Note &gt; text { fill: #000000; }
.PhysicalComponentBreakdown g.Box.Requirement &gt; line { stroke: #72496E; }
.PhysicalComponentBreakdown g.Box.Requirement &gt; rect, .PhysicalComponentBreakdown g.Box.Requirement &gt; use { fill: #D9C4D7; stroke: #72496E; }
.PhysicalComponentBreakdown g.Box.Requirement &gt; text { fill: #000000; }
.PhysicalComponentBreakdown g.Box.Text &gt; line { stroke: transparent; }
.PhysicalComponentBreakdown g.Box.Text &gt; rect, .PhysicalComponentBreakdown g.Box.Text &gt; use { stroke: transparent; }
.PhysicalComponentBreakdown g.Edge &gt; rect { fill: none; stroke: none; }
.PhysicalComponentBreakdown g.Circle &gt; circle { fill: #000000; stroke: none; }
.PhysicalComponentBreakdown g.Edge &gt; path { stroke-width: 1; }
.PhysicalComponentBreakdown g.Edge.Connector &gt; rect { fill: none; stroke: none; }
.PhysicalComponentBreakdown g.Circle.Connector &gt; circle { fill: #B0B0B0; stroke: none; }
.PhysicalComponentBreakdown g.Edge.Connector &gt; path { stroke: #B0B0B0; stroke-dasharray: 1; }
.PhysicalComponentBreakdown g.Edge.Constraint &gt; rect { fill: none; stroke: none; }
.PhysicalComponentBreakdown g.Circle.Constraint &gt; circle { fill: #000000; stroke: none; }
.PhysicalComponentBreakdown g.Edge.Constraint &gt; path { stroke: #000000; stroke-dasharray: 1, 3; marker-end: url(#FineArrowMark_000000); stroke-linecap: round; }
.PhysicalComponentBreakdown g.Edge.Note &gt; rect { fill: none; stroke: none; }
.PhysicalComponentBreakdown g.Circle.Note &gt; circle { fill: #000000; stroke: none; }
.PhysicalComponentBreakdown g.Edge.Note &gt; path { stroke: #000000; stroke-dasharray: 1, 3; }
.PhysicalComponentBreakdown g.Edge.RequirementRelation &gt; rect { fill: none; stroke: none; }
.PhysicalComponentBreakdown g.Circle.RequirementRelation &gt; circle { fill: #72496E; stroke: none; }
.PhysicalComponentBreakdown g.Edge.RequirementRelation &gt; path { stroke: #72496E; stroke-width: 2; marker-end: url(#FineArrowMark_72496E); stroke-dasharray: 5; }
.PhysicalComponentBreakdown g.Edge.RequirementRelation &gt; text { fill: #72496E; }
</style><symbol id="ErrorSymbol" viewBox="0 0 2.6458 2.6458"><path d="M 0,0 2.6458333,2.6458333 M 0,2.6458333 2.6458333,0" style="fill: none; stroke: red; stroke-width: 0.5;" /></symbol><symbol id="RequirementSymbol" style="stroke: none;" viewBox="0 0 50 50"><path d="M 12.806813,6.5702324 A 6.244379,5.8113241 0 0 1 6.5624342,12.381557 6.244379,5.8113241 0 0 1 0.31805515,6.5702324 6.244379,5.8113241 0 0 1 6.5624342,0.75890827 6.244379,5.8113241 0 0 1 12.806813,6.5702324 Z" style="fill: #431964" /><path d="m 4.3228658,5.8752475 h 2.9514721 q 0.2945581,0 0.5184223,-0.1413879 Q 8.0225155,5.5865806 8.1462299,5.3214783 8.2699443,5.056376 8.2758355,4.7029063 v 0 q 0,-0.3475786 -0.1237144,-0.6126808 Q 8.0284067,3.8251232 7.7986513,3.6837353 7.5747872,3.5364562 7.2743379,3.5364562 H 4.3228658 V 2.1873801 h 2.9927103 q 0.7246129,0 1.2724909,0.3122316 0.5478781,0.3122316 0.8483274,0.8836743 0.3063404,0.5714427 0.3063404,1.3196203 v 0 q 0,0.7540687 -0.3063404,1.3255114 Q 9.1359451,6.5998605 8.5821759,6.912092 8.0342978,7.2243236 7.3155761,7.2243236 H 4.3228658 Z M 3.7396407,2.1873801 H 5.1476285 V 10.759021 H 3.7396407 Z M 6.3906636,6.9592213 7.8516718,6.6882279 10.102096,10.759021 H 8.4113322 Z" style="fill:#ffffff;" /></symbol></defs><rect fill="white" height="1540" stroke="none" width="4140" x="-3" y="-1192" /><g class="Box PhysicalComponent" id="_4vs2IGMVEeyJe5RJAqWmKw"><rect class="PhysicalComponent" height="70" style="fill: #FFFCB7; stroke: #7B694F; stroke-width: 1" width="191" x="2147.5" y="-321.5" /><text class="PhysicalComponent" dominant-baseline="middle" text-anchor="middle" x="2147" y="-322"><tspan x="2242.5" xml:space="preserve" y="-310.57142857142856">Monitoring System</tspan></text></g><g class="Box PhysicalComponent" id="_4vvSYGMVEeyJe5RJAqWmKw"><rect class="PhysicalComponent" height="70" style="fill: #FFFCB7; stroke: #7B694F; stroke-width: 1" width="251" x="2797.5" y="-311.5" /><text class="PhysicalComponent" dominant-baseline="middle" text-anchor="middle" x="2797" y="-312"><tspan x="2922.5" xml:space="preserve" y="-302.0">Microcontroller</tspan></text></g><g class="Box PhysicalComponent" id="_4vv5c2MVEeyJe5RJAqWmKw"><rect class="PhysicalComponent" height="70" style="fill: #FFFCB7; stroke: #7B694F; stroke-width: 1" width="181" x="187.5" y="7.5" /><text class="PhysicalComponent" dominant-baseline="middle" text-anchor="middle" x="187" y="7"><tspan x="277.5" xml:space="preserve" y="18.42857142857143">Regolith Feed Monitoring System</tspan></text></g><g class="Box PhysicalComponent" id="_4vv5dmMVEeyJe5RJAqWmKw"><rect class="PhysicalComponent" height="70" style="fill: #FFFCB7; stroke: #7B694F; stroke-width: 1" width="151" x="1716.5" y="-141.5" /><text class="PhysicalComponent" dominant-baseline="middle" text-anchor="middle" x="1716" y="-142"><tspan x="1791.5" xml:space="preserve" y="-130.57142857142858">Process Monitoring</tspan></text></g><g class="Box PhysicalComponent" id="_4vwggmMVEeyJe5RJAqWmKw"><rect class="PhysicalComponent" height="70" style="fill: #FFFCB7; stroke: #7B694F; stroke-width: 1" width="161" x="697.5" y="7.5" /><text class="PhysicalComponent" dominant-baseline="middle" text-anchor="middle" x="697" y="7"><tspan x="777.5" xml:space="preserve" y="18.42857142857143">Oxygen Storage Monitoring</tspan></text></g><g class="Box PhysicalComponent" id="_4vwghWMVEeyJe5RJAqWmKw"><rect class="PhysicalComponent" height="70" style="fill: #FFFCB7; stroke: #7B694F; stroke-width: 1" width="130" x="1127.5" y="137.5" /><text class="PhysicalComponent" dominant-baseline="middle" text-anchor="middle" x="1127" y="137"><tspan x="1192.0" xml:space="preserve" y="148.42857142857142">Vapourisation</tspan><tspan x="1192.0" xml:space="preserve" y="161.28571428571428">Monitoring</tspan></text></g><g class="Box PhysicalComponent" id="_4vwgiGMVEeyJe5RJAqWmKw"><rect class="PhysicalComponent" height="70" style="fill: #FFFCB7; stroke: #7B694F; stroke-width: 1" width="110" x="1757.5" y="137.5" /><text class="PhysicalComponent" dominant-baseline="middle" text-anchor="middle" x="1757" y="137"><tspan x="1812.0" xml:space="preserve" y="147.0">Condensation</tspan><tspan x="1812.0" xml:space="preserve" y="159.85714285714286">Monitoring</tspan></text></g><g class="Box PhysicalComponent" id="_4vxHkWMVEeyJe5RJAqWmKw"><rect class="PhysicalComponent" height="70" style="fill: #FFFCB7; stroke: #7B694F; stroke-width: 1" width="110" x="2357.5" y="137.5" /><text class="PhysicalComponent" dominant-baseline="middle" text-anchor="middle" x="2357" y="137"><tspan x="2412.0" xml:space="preserve" y="148.42857142857142">Oxygen Recovery</tspan><tspan x="2412.0" xml:space="preserve" y="161.28571428571428">Monitoring</tspan></text></g><g class="Box PhysicalComponent" id="_4vxHlGMVEeyJe5RJAqWmKw"><rect class="PhysicalComponent" height="70" style="fill: #FFFCB7; stroke: #7B694F; stroke-width: 1" width="371" x="2297.5" y="-471.5" /><text class="PhysicalComponent" dominant-baseline="middle" text-anchor="middle" x="2297" y="-472"><tspan x="2482.5" xml:space="preserve" y="-460.57142857142856">Process Monitoring and Control</tspan></text></g><g class="Box PhysicalComponent" id="_GNnXWWMXEeyJe5RJAqWmKw"><rect class="PhysicalComponent" height="70" style="fill: #FFFCB7; stroke: #7B694F; stroke-width: 1" width="70" x="2987.5" y="-91.5" /><text class="PhysicalComponent" dominant-baseline="middle" text-anchor="middle" x="2987" y="-92"><tspan x="3022.0" xml:space="preserve" y="-82.0">Microcontrol</tspan><tspan x="3022.0" xml:space="preserve" y="-69.14285714285714">ler Power</tspan><tspan x="3022.0" xml:space="preserve" y="-56.28571428571428">Managemen</tspan><tspan x="3022.0" xml:space="preserve" y="-43.428571428571416">t Unit</tspan></text></g><g class="Box PhysicalComponent" id="_MuLhVGMXEeyJe5RJAqWmKw"><rect class="PhysicalComponent" height="70" style="fill: #FFFCB7; stroke: #7B694F; stroke-width: 1" width="70" x="3097.5" y="-91.5" /><text class="PhysicalComponent" dominant-baseline="middle" text-anchor="middle" x="3097" y="-92"><tspan x="3132.0" xml:space="preserve" y="-82.0">Microcontrol</tspan><tspan x="3132.0" xml:space="preserve" y="-69.14285714285714">ler Input</tspan><tspan x="3132.0" xml:space="preserve" y="-56.28571428571428">Interface</tspan></text></g><g class="Box PhysicalComponent" id="_YN33x2MXEeyJe5RJAqWmKw"><rect class="PhysicalComponent" height="70" style="fill: #FFFCB7; stroke: #7B694F; stroke-width: 1" width="70" x="2887.5" y="-91.5" /><text class="PhysicalComponent" dominant-baseline="middle" text-anchor="middle" x="2887" y="-92"><tspan x="2922.0" xml:space="preserve" y="-82.0">Microcontrol</tspan><tspan x="2922.0" xml:space="preserve" y="-69.14285714285714">ler Memory</tspan></text></g><g class="Box PhysicalComponent" id="_eTB4MmMXEeyJe5RJAqWmKw"><rect class="PhysicalComponent" height="70" style="fill: #FFFCB7; stroke: #7B694F; stroke-width: 1" width="70" x="2777.5" y="-91.5" /><text class="PhysicalComponent" dominant-baseline="middle" text-anchor="middle" x="2777" y="-92"><tspan x="2812.0" xml:space="preserve" y="-82.0">Microcontrol</tspan><tspan x="2812.0" xml:space="preserve" y="-69.14285714285714">ler Central</tspan><tspan x="2812.0" xml:space="preserve" y="-56.28571428571428">Processing</tspan><tspan x="2812.0" xml:space="preserve" y="-43.428571428571416">Unit</tspan></text></g><g class="Box PhysicalComponent" id="_oYOmjGMXEeyJe5RJAqWmKw"><rect class="PhysicalComponent" height="70" style="fill: #FFFCB7; stroke: #7B694F; stroke-width: 1" width="70" x="2667.5" y="-91.5" /><text class="PhysicalComponent" dominant-baseline="middle" text-anchor="middle" x="2667" y="-92"><tspan x="2702.0" xml:space="preserve" y="-82.0">Microcontrol</tspan><tspan x="2702.0" xml:space="preserve" y="-69.14285714285714">ler Output</tspan><tspan x="2702.0" xml:space="preserve" y="-56.28571428571428">Interface</tspan></text></g><g class="Box PhysicalComponent" id="_5gmMBWMzEeyJe5RJAqWmKw"><rect class="PhysicalComponent" height="70" style="fill: #FFFCB7; stroke: #7B694F; stroke-width: 1" width="70" x="7.5" y="137.5" /><text class="PhysicalComponent" dominant-baseline="middle" text-anchor="middle" x="7" y="137"><tspan x="42.0" xml:space="preserve" y="148.42857142857142">Thermocoup</tspan><tspan x="42.0" xml:space="preserve" y="161.28571428571428">les on</tspan><tspan x="42.0" xml:space="preserve" y="174.14285714285714">external</tspan><tspan x="42.0" xml:space="preserve" y="187.0">cover</tspan></text></g><g class="Box PhysicalComponent" id="_ECQz-GM0EeyJe5RJAqWmKw"><rect class="PhysicalComponent" height="70" style="fill: #FFFCB7; stroke: #7B694F; stroke-width: 1" width="70" x="97.5" y="137.5" /><text class="PhysicalComponent" dominant-baseline="middle" text-anchor="middle" x="97" y="137"><tspan x="132.0" xml:space="preserve" y="147.0">Pressure</tspan><tspan x="132.0" xml:space="preserve" y="159.85714285714286">Gauge</tspan></text></g><g class="Box PhysicalComponent" id="_JYKhqGM0EeyJe5RJAqWmKw"><rect class="PhysicalComponent" height="70" style="fill: #FFFCB7; stroke: #7B694F; stroke-width: 1" width="70" x="937.5" y="267.5" /><text class="PhysicalComponent" dominant-baseline="middle" text-anchor="middle" x="937" y="267"><tspan x="972.0" xml:space="preserve" y="277.0">Solar</tspan><tspan x="972.0" xml:space="preserve" y="288.42857142857144">pyranomete</tspan><tspan x="972.0" xml:space="preserve" y="299.8571428571429">r</tspan></text></g><g class="Box PhysicalComponent" id="_PIUiXGM0EeyJe5RJAqWmKw"><rect class="PhysicalComponent" height="70" style="fill: #FFFCB7; stroke: #7B694F; stroke-width: 1" width="70" x="387.5" y="137.5" /><text class="PhysicalComponent" dominant-baseline="middle" text-anchor="middle" x="387" y="137"><tspan x="422.0" xml:space="preserve" y="148.42857142857142">Weighing</tspan><tspan x="422.0" xml:space="preserve" y="161.28571428571428">Scale</tspan></text></g><g class="Box PhysicalComponent" id="_bg8E7mM0EeyJe5RJAqWmKw"><rect class="PhysicalComponent" height="70" style="fill: #FFFCB7; stroke: #7B694F; stroke-width: 1" width="70" x="477.5" y="137.5" /><text class="PhysicalComponent" dominant-baseline="middle" text-anchor="middle" x="477" y="137"><tspan x="512.0" xml:space="preserve" y="147.0">RAMAN/LIBS</tspan><tspan x="512.0" xml:space="preserve" y="159.85714285714286">Spectromete</tspan><tspan x="512.0" xml:space="preserve" y="172.71428571428572">r Regolith</tspan></text></g><g class="Box PhysicalComponent" id="_pea2-GM1EeyJe5RJAqWmKw"><rect class="PhysicalComponent" height="70" style="fill: #FFFCB7; stroke: #7B694F; stroke-width: 1" width="70" x="1037.5" y="267.5" /><text class="PhysicalComponent" dominant-baseline="middle" text-anchor="middle" x="1037" y="267"><tspan x="1072.0" xml:space="preserve" y="278.42857142857144">Vaporisation</tspan><tspan x="1072.0" xml:space="preserve" y="291.2857142857143">Gas Analyser</tspan></text></g><g class="Box PhysicalComponent" id="_1SMnDWM1EeyJe5RJAqWmKw"><rect class="PhysicalComponent" height="70" style="fill: #FFFCB7; stroke: #7B694F; stroke-width: 1" width="70" x="1127.5" y="267.5" /><text class="PhysicalComponent" dominant-baseline="middle" text-anchor="middle" x="1127" y="267"><tspan x="1162.0" xml:space="preserve" y="278.42857142857144">Vaporisation</tspan><tspan x="1162.0" xml:space="preserve" y="291.2857142857143">Pressure</tspan><tspan x="1162.0" xml:space="preserve" y="304.1428571428571">Gauge</tspan></text></g><g class="Box PhysicalComponent" id="_81sNtGM1EeyJe5RJAqWmKw"><rect class="PhysicalComponent" height="70" style="fill: #FFFCB7; stroke: #7B694F; stroke-width: 1" width="70" x="1277.5" y="267.5" /><text class="PhysicalComponent" dominant-baseline="middle" text-anchor="middle" x="1277" y="267"><tspan x="1312.0" xml:space="preserve" y="278.42857142857144">Thermocoup</tspan><tspan x="1312.0" xml:space="preserve" y="291.2857142857143">le</tspan><tspan x="1312.0" xml:space="preserve" y="304.1428571428571">Vaporisaiton</tspan><tspan x="1312.0" xml:space="preserve" y="316.99999999999994">Chamber</tspan></text></g><g class="Box PhysicalComponent" id="_Mmga9GM2EeyJe5RJAqWmKw"><rect class="PhysicalComponent" height="70" style="fill: #FFFCB7; stroke: #7B694F; stroke-width: 1" width="70" x="1367.5" y="267.5" /><text class="PhysicalComponent" dominant-baseline="middle" text-anchor="middle" x="1367" y="267"><tspan x="1402.0" xml:space="preserve" y="277.0">IR Camera -</tspan><tspan x="1402.0" xml:space="preserve" y="289.85714285714283">Vapourisatio</tspan><tspan x="1402.0" xml:space="preserve" y="302.71428571428567">n Regolith</tspan><tspan x="1402.0" xml:space="preserve" y="315.5714285714285">Temperature</tspan><tspan x="1402.0" xml:space="preserve" y="328.42857142857133">Sensor</tspan></text></g><g class="Box PhysicalComponent" id="_JhcnImM5EeyJe5RJAqWmKw"><rect class="PhysicalComponent" height="70" style="fill: #FFFCB7; stroke: #7B694F; stroke-width: 1" width="110" x="1497.5" y="267.5" /><text class="PhysicalComponent" dominant-baseline="middle" text-anchor="middle" x="1497" y="267"><tspan x="1552.0" xml:space="preserve" y="277.0">Condensation</tspan><tspan x="1552.0" xml:space="preserve" y="289.85714285714283">Pressure Gauge</tspan></text></g><g class="Box PhysicalComponent" id="_t-40qWM5EeyJe5RJAqWmKw"><rect class="PhysicalComponent" height="70" style="fill: #FFFCB7; stroke: #7B694F; stroke-width: 1" width="110" x="1627.5" y="267.5" /><text class="PhysicalComponent" dominant-baseline="middle" text-anchor="middle" x="1627" y="267"><tspan x="1682.0" xml:space="preserve" y="278.42857142857144">Quartz Crystal</tspan><tspan x="1682.0" xml:space="preserve" y="291.2857142857143">Microbalance - QCM</tspan></text></g><g class="Box PhysicalComponent" id="_2ubXnWM5EeyJe5RJAqWmKw"><rect class="PhysicalComponent" height="70" style="fill: #FFFCB7; stroke: #7B694F; stroke-width: 1" width="110" x="1927.5" y="267.5" /><text class="PhysicalComponent" dominant-baseline="middle" text-anchor="middle" x="1927" y="267"><tspan x="1982.0" xml:space="preserve" y="277.0">Condensation</tspan><tspan x="1982.0" xml:space="preserve" y="287.0">Chamber IR Camera</tspan></text></g><g class="Box PhysicalComponent" id="_9jt0gGM5EeyJe5RJAqWmKw"><rect class="PhysicalComponent" height="70" style="fill: #FFFCB7; stroke: #7B694F; stroke-width: 1" width="110" x="2057.5" y="267.5" /><text class="PhysicalComponent" dominant-baseline="middle" text-anchor="middle" x="2057" y="267"><tspan x="2112.0" xml:space="preserve" y="277.0">Condensation</tspan><tspan x="2112.0" xml:space="preserve" y="289.85714285714283">Chamber</tspan><tspan x="2112.0" xml:space="preserve" y="302.71428571428567">Thermocouple</tspan></text></g><g class="Box PhysicalComponent" id="_cJXIFWM6EeyJe5RJAqWmKw"><rect class="PhysicalComponent" height="70" style="fill: #FFFCB7; stroke: #7B694F; stroke-width: 1" width="110" x="2227.5" y="267.5" /><text class="PhysicalComponent" dominant-baseline="middle" text-anchor="middle" x="2227" y="267"><tspan x="2282.0" xml:space="preserve" y="278.42857142857144">Oxygen Recovered</tspan><tspan x="2282.0" xml:space="preserve" y="291.2857142857143">Analyser</tspan></text></g><g class="Box PhysicalComponent" id="_gE04JmM6EeyJe5RJAqWmKw"><rect class="PhysicalComponent" height="70" style="fill: #FFFCB7; stroke: #7B694F; stroke-width: 1" width="110" x="2357.5" y="267.5" /><text class="PhysicalComponent" dominant-baseline="middle" text-anchor="middle" x="2357" y="267"><tspan x="2412.0" xml:space="preserve" y="278.42857142857144">Oxygen Recovery</tspan><tspan x="2412.0" xml:space="preserve" y="291.2857142857143">Pressure Gauge</tspan></text></g><g class="Box PhysicalComponent" id="_uF3w6GM6EeyJe5RJAqWmKw"><rect class="PhysicalComponent" height="70" style="fill: #FFFCB7; stroke: #7B694F; stroke-width: 1" width="70" x="607.5" y="137.5" /><text class="PhysicalComponent" dominant-baseline="middle" text-anchor="middle" x="607" y="137"><tspan x="642.0" xml:space="preserve" y="148.42857142857142">Storage</tspan><tspan x="642.0" xml:space="preserve" y="161.28571428571428">Thermocoup</tspan><tspan x="642.0" xml:space="preserve" y="174.14285714285714">le</tspan></text></g><g class="Box PhysicalComponent" id="_zSSLZGM6EeyJe5RJAqWmKw"><rect class="PhysicalComponent" height="70" style="fill: #FFFCB7; stroke: #7B694F; stroke-width: 1" width="70" x="737.5" y="137.5" /><text class="PhysicalComponent" dominant-baseline="middle" text-anchor="middle" x="737" y="137"><tspan x="772.0" xml:space="preserve" y="148.42857142857142">Storage</tspan><tspan x="772.0" xml:space="preserve" y="161.28571428571428">Pressure</tspan><tspan x="772.0" xml:space="preserve" y="174.14285714285714">Gauge</tspan></text></g><g class="Box PhysicalComponent" id="_vFhfE3LoEeyvtYR01Qc1ow"><rect class="PhysicalComponent" height="70" style="fill: #FFFCB7; stroke: #7B694F; stroke-width: 1" width="110" x="2487.5" y="267.5" /><text class="PhysicalComponent" dominant-baseline="middle" text-anchor="middle" x="2487" y="267"><tspan x="2542.0" xml:space="preserve" y="278.42857142857144">Cryliquefaction</tspan><tspan x="2542.0" xml:space="preserve" y="291.2857142857143">Thermocouple</tspan></text></g><g class="Box PhysicalComponent" id="_44oPuoQyEeyUTcNEtRJUeg"><rect class="PhysicalComponent" height="70" style="fill: #FFFCB7; stroke: #7B694F; stroke-width: 1" width="70" x="2377.5" y="-201.5" /><text class="PhysicalComponent" dominant-baseline="middle" text-anchor="middle" x="2377" y="-202"><tspan x="2412.0" xml:space="preserve" y="-192.0">RAMAN/LIBS</tspan><tspan x="2412.0" xml:space="preserve" y="-179.14285714285714">Spectromete</tspan><tspan x="2412.0" xml:space="preserve" y="-166.28571428571428">r</tspan><tspan x="2412.0" xml:space="preserve" y="-153.42857142857142">Condensatio</tspan><tspan x="2412.0" xml:space="preserve" y="-140.57142857142856">n</tspan></text></g><g class="Edge PhysicalComponent" id="_4vxuoGMVEeyJe5RJAqWmKw"><path class="Edge" d="M 2182.5 -321.5 2182.5 -351.5 2427.5 -351.5 2427.5 -401.5" /><rect class="AnnotationBB" height="13" width="169" x="2453" y="-333" /><text class="Annotation" dominant-baseline="middle" text-anchor="middle" x="2453" y="-333"><tspan x="2537.5" xml:space="preserve" y="-326.57142857142856">Process Monitoring and Control</tspan></text></g><g class="Edge PhysicalComponent" id="_4vyVsGMVEeyJe5RJAqWmKw"><path class="Edge" d="M 2832.5 -311.5 2832.5 -351.5 2427.5 -351.5 2427.5 -401.5" /><rect class="AnnotationBB" height="13" width="169" x="2465" y="-369" /><text class="Annotation" dominant-baseline="middle" text-anchor="middle" x="2465" y="-369"><tspan x="2549.5" xml:space="preserve" y="-362.57142857142856">Process Monitoring and Control</tspan></text></g><g class="Edge PhysicalComponent" id="_4vyVumMVEeyJe5RJAqWmKw"><path class="Edge" d="M 222.5 7.5 222.5 -201.5 2337.5 -201.5 2337.5 -321.5" /><rect class="AnnotationBB" height="13" width="100" x="1071" y="-219" /><text class="Annotation" dominant-baseline="middle" text-anchor="middle" x="1071" y="-219"><tspan x="1121.0" xml:space="preserve" y="-212.57142857142858">Monitoring System</tspan></text></g><g class="Edge PhysicalComponent" id="_4vy8wGMVEeyJe5RJAqWmKw"><path class="Edge" d="M 1751.5 -141.5 1751.5 -201.5 2337.5 -201.5 2337.5 -321.5" /><rect class="AnnotationBB" height="13" width="100" x="2230" y="-268" /><text class="Annotation" dominant-baseline="middle" text-anchor="middle" x="2230" y="-268"><tspan x="2280.0" xml:space="preserve" y="-261.57142857142856">Monitoring System</tspan></text></g><g class="Edge PhysicalComponent" id="_4vy8xWMVEeyJe5RJAqWmKw"><path class="Edge" d="M 732.5 7.5 732.5 -201.5 2227.5 -201.5 2227.5 -251.5" /><rect class="AnnotationBB" height="13" width="100" x="1658" y="-219" /><text class="Annotation" dominant-baseline="middle" text-anchor="middle" x="1658" y="-219"><tspan x="1708.0" xml:space="preserve" y="-212.57142857142858">Monitoring System</tspan></text></g><g class="Edge PhysicalComponent" id="_4vy8ymMVEeyJe5RJAqWmKw"><path class="Edge" d="M 1222.5 137.5 1222.5 67.5 1751.5 67.5 1751.5 -71.5" /><rect class="AnnotationBB" height="13" width="105" x="1289" y="51" /><text class="Annotation" dominant-baseline="middle" text-anchor="middle" x="1289" y="51"><tspan x="1341.5" xml:space="preserve" y="57.42857142857143">Process Monitoring</tspan></text></g><g class="Edge PhysicalComponent" id="_4vy8z2MVEeyJe5RJAqWmKw"><path class="Edge" d="M 1832.5 137.5 1832.5 67.5 1751.5 67.5 1751.5 -71.5" /><rect class="AnnotationBB" height="13" width="105" x="1863" y="40" /><text class="Annotation" dominant-baseline="middle" text-anchor="middle" x="1863" y="40"><tspan x="1915.5" xml:space="preserve" y="46.42857142857143">Process Monitoring</tspan></text></g><g class="Edge PhysicalComponent" id="_4vzj1GMVEeyJe5RJAqWmKw"><path class="Edge" d="M 2432.5 137.5 2432.5 67.5 1791.5 67.5 1791.5 -71.5" /><rect class="AnnotationBB" height="13" width="105" x="2209" y="50" /><text class="Annotation" dominant-baseline="middle" text-anchor="middle" x="2209" y="50"><tspan x="2261.5" xml:space="preserve" y="56.42857142857143">Process Monitoring</tspan></text></g><g class="Edge PhysicalComponent" id="_GNn-gmMXEeyJe5RJAqWmKw"><path class="Edge" d="M 3022.5 -91.5 3022.5 -225.5 2922.5 -225.5 2922.5 -241.5" /><rect class="AnnotationBB" height="10" width="83" x="2991" y="-203" /><text class="Annotation" dominant-baseline="middle" text-anchor="middle" x="2991" y="-203"><tspan x="3032.5" xml:space="preserve" y="-198.0">Microcontroller</tspan></text></g><g class="Edge PhysicalComponent" id="_MuMIhGMXEeyJe5RJAqWmKw"><path class="Edge" d="M 3132.5 -91.5 3132.5 -225.5 2922.5 -225.5 2922.5 -241.5" /><rect class="AnnotationBB" height="10" width="83" x="3097" y="-241" /><text class="Annotation" dominant-baseline="middle" text-anchor="middle" x="3097" y="-241"><tspan x="3138.5" xml:space="preserve" y="-236.0">Microcontroller</tspan></text></g><g class="Edge PhysicalComponent" id="_YN4e_GMXEeyJe5RJAqWmKw"><path class="Edge" d="M 2922.5 -91.5 2922.5 -225.5 2922.5 -225.5 2922.5 -241.5" /><rect class="AnnotationBB" height="10" width="83" x="2871" y="-1182" /><text class="Annotation" dominant-baseline="middle" text-anchor="middle" x="2871" y="-1182"><tspan x="2912.5" xml:space="preserve" y="-1177.0">Microcontroller</tspan></text></g><g class="Edge PhysicalComponent" id="_eTCfYGMXEeyJe5RJAqWmKw"><path class="Edge" d="M 2812.5 -91.5 2812.5 -225.5 2922.5 -225.5 2922.5 -241.5" /><rect class="AnnotationBB" height="10" width="83" x="2761" y="-212" /><text class="Annotation" dominant-baseline="middle" text-anchor="middle" x="2761" y="-212"><tspan x="2802.5" xml:space="preserve" y="-207.0">Microcontroller</tspan></text></g><g class="Edge PhysicalComponent" id="_oYPNwGMXEeyJe5RJAqWmKw"><path class="Edge" d="M 2702.5 -91.5 2702.5 -225.5 2922.5 -225.5 2922.5 -241.5" /><rect class="AnnotationBB" height="10" width="83" x="2645" y="-241" /><text class="Annotation" dominant-baseline="middle" text-anchor="middle" x="2645" y="-241"><tspan x="2686.5" xml:space="preserve" y="-236.0">Microcontroller</tspan></text></g><g class="Edge PhysicalComponent" id="_PIVJomM0EeyJe5RJAqWmKw"><path class="Edge" d="M 422.5 137.5 422.5 -65.5 367.5 -65.5 367.5 77.5" /><rect class="AnnotationBB" height="13" width="176" x="324" y="-6" /><text class="Annotation" dominant-baseline="middle" text-anchor="middle" x="324" y="-6"><tspan x="412.0" xml:space="preserve" y="0.4285714285714288">Regolith Feed Monitoring System</tspan></text></g><g class="Edge PhysicalComponent" id="_bg9S8GM0EeyJe5RJAqWmKw"><path class="Edge" d="M 512.5 137.5 512.5 -65.5 367.5 -65.5 367.5 77.5" /><rect class="AnnotationBB" height="13" width="176" x="414" y="-51" /><text class="Annotation" dominant-baseline="middle" text-anchor="middle" x="414" y="-51"><tspan x="502.0" xml:space="preserve" y="-44.57142857142857">Regolith Feed Monitoring System</tspan></text></g><g class="Edge PhysicalComponent" id="_pecFQGM1EeyJe5RJAqWmKw"><path class="Edge" d="M 1072.5 267.5 1072.5 63.5 642.5 63.5 642.5 207.5" /><rect class="AnnotationBB" height="13" width="138" x="882" y="67" /><text class="Annotation" dominant-baseline="middle" text-anchor="middle" x="882" y="67"><tspan x="951.0" xml:space="preserve" y="73.42857142857143">Vapourisation Monitoring</tspan></text></g><g class="Edge PhysicalComponent" id="_1SNOUGM1EeyJe5RJAqWmKw"><path class="Edge" d="M 1162.5 267.5 1162.5 63.5 642.5 63.5 642.5 207.5" /><rect class="AnnotationBB" height="13" width="138" x="927" y="67" /><text class="Annotation" dominant-baseline="middle" text-anchor="middle" x="927" y="67"><tspan x="996.0" xml:space="preserve" y="73.42857142857143">Vapourisation Monitoring</tspan></text></g><g class="Edge PhysicalComponent" id="_81s09GM1EeyJe5RJAqWmKw"><path class="Edge" d="M 1312.5 267.5 1312.5 63.5 642.5 63.5 642.5 207.5" /><rect class="AnnotationBB" height="13" width="138" x="1002" y="67" /><text class="Annotation" dominant-baseline="middle" text-anchor="middle" x="1002" y="67"><tspan x="1071.0" xml:space="preserve" y="73.42857142857143">Vapourisation Monitoring</tspan></text></g><g class="Edge PhysicalComponent" id="_MmhCUGM2EeyJe5RJAqWmKw"><path class="Edge" d="M 1402.5 267.5 1402.5 63.5 642.5 63.5 642.5 207.5" /><rect class="AnnotationBB" height="13" width="138" x="1047" y="67" /><text class="Annotation" dominant-baseline="middle" text-anchor="middle" x="1047" y="67"><tspan x="1116.0" xml:space="preserve" y="73.42857142857143">Vapourisation Monitoring</tspan></text></g><g class="Edge PhysicalComponent" id="_JhdOZGM5EeyJe5RJAqWmKw"><path class="Edge" d="M 1572.5 267.5 1572.5 63.5 1162.5 63.5 1162.5 207.5" /><rect class="AnnotationBB" height="13" width="138" x="1392" y="67" /><text class="Annotation" dominant-baseline="middle" text-anchor="middle" x="1392" y="67"><tspan x="1461.0" xml:space="preserve" y="73.42857142857143">Condensation Monitoring</tspan></text></g><g class="Edge PhysicalComponent" id="_t-6p3GM5EeyJe5RJAqWmKw"><path class="Edge" d="M 1702.5 267.5 1702.5 63.5 1202.5 63.5 1202.5 207.5" /><rect class="AnnotationBB" height="13" width="138" x="1477" y="67" /><text class="Annotation" dominant-baseline="middle" text-anchor="middle" x="1477" y="67"><tspan x="1546.0" xml:space="preserve" y="73.42857142857143">Condensation Monitoring</tspan></text></g><g class="Edge PhysicalComponent" id="_2ub_BGM5EeyJe5RJAqWmKw"><path class="Edge" d="M 2002.5 267.5 2002.5 63.5 1242.5 63.5 1242.5 207.5" /><rect class="AnnotationBB" height="13" width="138" x="1647" y="67" /><text class="Annotation" dominant-baseline="middle" text-anchor="middle" x="1647" y="67"><tspan x="1716.0" xml:space="preserve" y="73.42857142857143">Condensation Monitoring</tspan></text></g><g class="Edge PhysicalComponent" id="_9jub2GM5EeyJe5RJAqWmKw"><path class="Edge" d="M 2132.5 267.5 2132.5 63.5 1282.5 63.5 1282.5 207.5" /><rect class="AnnotationBB" height="13" width="138" x="1732" y="67" /><text class="Annotation" dominant-baseline="middle" text-anchor="middle" x="1732" y="67"><tspan x="1801.0" xml:space="preserve" y="73.42857142857143">Condensation Monitoring</tspan></text></g><g class="Edge PhysicalComponent" id="_cJYWfmM6EeyJe5RJAqWmKw"><path class="Edge" d="M 2302.5 267.5 2302.5 63.5 1722.5 63.5 1722.5 207.5" /><rect class="AnnotationBB" height="13" width="155" x="2029" y="67" /><text class="Annotation" dominant-baseline="middle" text-anchor="middle" x="2029" y="67"><tspan x="2106.5" xml:space="preserve" y="73.42857142857143">Oxygen Recovery Monitoring</tspan></text></g><g class="Edge PhysicalComponent" id="_gE2GXGM6EeyJe5RJAqWmKw"><path class="Edge" d="M 2432.5 267.5 2432.5 63.5 1762.5 63.5 1762.5 207.5" /><rect class="AnnotationBB" height="13" width="155" x="2114" y="67" /><text class="Annotation" dominant-baseline="middle" text-anchor="middle" x="2114" y="67"><tspan x="2191.5" xml:space="preserve" y="73.42857142857143">Oxygen Recovery Monitoring</tspan></text></g><g class="Edge PhysicalComponent" id="_uF5mNGM6EeyJe5RJAqWmKw"><path class="Edge" d="M 642.5 137.5 642.5 -65.5 2127.5 -65.5 2127.5 77.5" /><rect class="AnnotationBB" height="13" width="148" x="1217" y="-83" /><text class="Annotation" dominant-baseline="middle" text-anchor="middle" x="1217" y="-83"><tspan x="1291.0" xml:space="preserve" y="-76.57142857142857">Oxygen Storage Monitoring</tspan></text></g><g class="Edge PhysicalComponent" id="_zSTZhmM6EeyJe5RJAqWmKw"><path class="Edge" d="M 772.5 137.5 772.5 93.5 777.5 93.5 777.5 77.5" /><rect class="AnnotationBB" height="13" width="148" x="700" y="96" /><text class="Annotation" dominant-baseline="middle" text-anchor="middle" x="700" y="96"><tspan x="774.0" xml:space="preserve" y="102.42857142857143">Oxygen Storage Monitoring</tspan></text></g><g class="Edge PhysicalComponent" id="_vFzzAnLoEeyvtYR01Qc1ow"><path class="Edge" d="M 2562.5 267.5 2562.5 63.5 1802.5 63.5 1802.5 207.5" /><rect class="AnnotationBB" height="13" width="155" x="2199" y="67" /><text class="Annotation" dominant-baseline="middle" text-anchor="middle" x="2199" y="67"><tspan x="2276.5" xml:space="preserve" y="73.42857142857143">Oxygen Recovery Monitoring</tspan></text></g><g class="Edge PhysicalComponent" id="_vF1oIHLoEeyvtYR01Qc1ow"><path class="Edge" d="M 42.5 137.5 42.5 -65.5 367.5 -65.5 367.5 77.5" /><rect class="AnnotationBB" height="13" width="176" x="23" y="-83" /><text class="Annotation" dominant-baseline="middle" text-anchor="middle" x="23" y="-83"><tspan x="111.0" xml:space="preserve" y="-76.57142857142857">Regolith Feed Monitoring System</tspan></text></g><g class="Edge PhysicalComponent" id="_vF22QnLoEeyvtYR01Qc1ow"><path class="Edge" d="M 132.5 137.5 132.5 -65.5 367.5 -65.5 367.5 77.5" /><rect class="AnnotationBB" height="13" width="176" x="68" y="-83" /><text class="Annotation" dominant-baseline="middle" text-anchor="middle" x="68" y="-83"><tspan x="156.0" xml:space="preserve" y="-76.57142857142857">Regolith Feed Monitoring System</tspan></text></g><g class="Edge PhysicalComponent" id="_vF4EYHLoEeyvtYR01Qc1ow"><path class="Edge" d="M 972.5 267.5 972.5 223.5 1192.5 223.5 1192.5 207.5" /><rect class="AnnotationBB" height="13" width="138" x="1001" y="207" /><text class="Annotation" dominant-baseline="middle" text-anchor="middle" x="1001" y="207"><tspan x="1070.0" xml:space="preserve" y="213.42857142857142">Vapourisation Monitoring</tspan></text></g><g class="Edge PhysicalComponent" id="_44peSoQyEeyUTcNEtRJUeg"><path class="Edge" d="M 2447.5 -131.5 4127.5 137.5" /><rect class="AnnotationBB" height="13" width="138" x="3219" y="-120" /><text class="Annotation" dominant-baseline="middle" text-anchor="middle" x="3219" y="-120"><tspan x="3288.0" xml:space="preserve" y="-113.57142857142857">Condensation Monitoring</tspan></text></g></svg>