<svg baseProfile="full" class="PhysicalComponentBreakdown" height="480" version="1.1" viewBox="87 27 2891 480" width="2891" xmlns="http://www.w3.org/2000/svg" xmlns:ev="http://www.w3.org/2001/xml-events" xmlns:xlink="http://www.w3.org/1999/xlink"><defs><style>.PhysicalComponentBreakdown * { shape-rendering: geometricPrecision; }
.PhysicalComponentBreakdown text { font-family: "Segoe UI"; font-size: 8pt; }
.PhysicalComponentBreakdown g { cursor: pointer; }
.PhysicalComponentBreakdown g.Edge &gt; path { fill: none; stroke: rgb(0, 0, 0); }
.PhysicalComponentBreakdown g.Box &gt; line { stroke: #000000; }
.PhysicalComponentBreakdown g.Box &gt; rect, .PhysicalComponentBreakdown g.Box &gt; use { fill: transparent; stroke: #000000; stroke-width: 1; }
.PhysicalComponentBreakdown g.Box.Annotation &gt; line { stroke: none; }
.PhysicalComponentBreakdown g.Box.Annotation &gt; rect, .PhysicalComponentBreakdown g.Box.Annotation &gt; use { fill: none; stroke: none; }
.PhysicalComponentBreakdown g.Box.Constraint &gt; line { stroke: #888888; }
.PhysicalComponentBreakdown g.Box.Constraint &gt; rect, .PhysicalComponentBreakdown g.Box.Constraint &gt; use { fill: #FFF5B5; stroke: #888888; }
.PhysicalComponentBreakdown g.Box.Constraint &gt; text { fill: #000000; }
.PhysicalComponentBreakdown g.Box.Note &gt; line { stroke: #FFCC66; }
.PhysicalComponentBreakdown g.Box.Note &gt; rect, .PhysicalComponentBreakdown g.Box.Note &gt; use { fill: #FFFFCB; stroke: #FFCC66; }
.PhysicalComponentBreakdown g.Box.Note &gt; text { fill: #000000; }
.PhysicalComponentBreakdown g.Box.Requirement &gt; line { stroke: #72496E; }
.PhysicalComponentBreakdown g.Box.Requirement &gt; rect, .PhysicalComponentBreakdown g.Box.Requirement &gt; use { fill: #D9C4D7; stroke: #72496E; }
.PhysicalComponentBreakdown g.Box.Requirement &gt; text { fill: #000000; }
.PhysicalComponentBreakdown g.Box.Text &gt; line { stroke: transparent; }
.PhysicalComponentBreakdown g.Box.Text &gt; rect, .PhysicalComponentBreakdown g.Box.Text &gt; use { stroke: transparent; }
.PhysicalComponentBreakdown g.Edge &gt; rect { fill: none; stroke: none; }
.PhysicalComponentBreakdown g.Circle &gt; circle { fill: #000000; stroke: none; }
.PhysicalComponentBreakdown g.Edge &gt; path { stroke-width: 1; }
.PhysicalComponentBreakdown g.Edge.Connector &gt; rect { fill: none; stroke: none; }
.PhysicalComponentBreakdown g.Circle.Connector &gt; circle { fill: #B0B0B0; stroke: none; }
.PhysicalComponentBreakdown g.Edge.Connector &gt; path { stroke: #B0B0B0; stroke-dasharray: 1; }
.PhysicalComponentBreakdown g.Edge.Constraint &gt; rect { fill: none; stroke: none; }
.PhysicalComponentBreakdown g.Circle.Constraint &gt; circle { fill: #000000; stroke: none; }
.PhysicalComponentBreakdown g.Edge.Constraint &gt; path { stroke: #000000; stroke-dasharray: 1, 3; marker-end: url(#FineArrowMark_000000); stroke-linecap: round; }
.PhysicalComponentBreakdown g.Edge.Note &gt; rect { fill: none; stroke: none; }
.PhysicalComponentBreakdown g.Circle.Note &gt; circle { fill: #000000; stroke: none; }
.PhysicalComponentBreakdown g.Edge.Note &gt; path { stroke: #000000; stroke-dasharray: 1, 3; }
.PhysicalComponentBreakdown g.Edge.RequirementRelation &gt; rect { fill: none; stroke: none; }
.PhysicalComponentBreakdown g.Circle.RequirementRelation &gt; circle { fill: #72496E; stroke: none; }
.PhysicalComponentBreakdown g.Edge.RequirementRelation &gt; path { stroke: #72496E; stroke-width: 2; marker-end: url(#FineArrowMark_72496E); stroke-dasharray: 5; }
.PhysicalComponentBreakdown g.Edge.RequirementRelation &gt; text { fill: #72496E; }
</style><symbol id="ErrorSymbol" viewBox="0 0 2.6458 2.6458"><path d="M 0,0 2.6458333,2.6458333 M 0,2.6458333 2.6458333,0" style="fill: none; stroke: red; stroke-width: 0.5;" /></symbol><symbol id="RequirementSymbol" style="stroke: none;" viewBox="0 0 50 50"><path d="M 12.806813,6.5702324 A 6.244379,5.8113241 0 0 1 6.5624342,12.381557 6.244379,5.8113241 0 0 1 0.31805515,6.5702324 6.244379,5.8113241 0 0 1 6.5624342,0.75890827 6.244379,5.8113241 0 0 1 12.806813,6.5702324 Z" style="fill: #431964" /><path d="m 4.3228658,5.8752475 h 2.9514721 q 0.2945581,0 0.5184223,-0.1413879 Q 8.0225155,5.5865806 8.1462299,5.3214783 8.2699443,5.056376 8.2758355,4.7029063 v 0 q 0,-0.3475786 -0.1237144,-0.6126808 Q 8.0284067,3.8251232 7.7986513,3.6837353 7.5747872,3.5364562 7.2743379,3.5364562 H 4.3228658 V 2.1873801 h 2.9927103 q 0.7246129,0 1.2724909,0.3122316 0.5478781,0.3122316 0.8483274,0.8836743 0.3063404,0.5714427 0.3063404,1.3196203 v 0 q 0,0.7540687 -0.3063404,1.3255114 Q 9.1359451,6.5998605 8.5821759,6.912092 8.0342978,7.2243236 7.3155761,7.2243236 H 4.3228658 Z M 3.7396407,2.1873801 H 5.1476285 V 10.759021 H 3.7396407 Z M 6.3906636,6.9592213 7.8516718,6.6882279 10.102096,10.759021 H 8.4113322 Z" style="fill:#ffffff;" /></symbol></defs><rect fill="white" height="480" stroke="none" width="2891" x="87" y="27" /><g class="Box PhysicalComponent" id="__NKvEJfqEeymfMCyhvLdiA"><rect class="PhysicalComponent" height="70" style="fill: #FFFCB7; stroke: #7B694F; stroke-width: 1" width="131" x="247.5" y="167.5" /><text class="PhysicalComponent" dominant-baseline="middle" text-anchor="middle" x="247" y="167"><tspan x="312.5" xml:space="preserve" y="177.0">Solar Concentrator</tspan></text></g><g class="Box PhysicalComponent" id="__NKvE5fqEeymfMCyhvLdiA"><rect class="PhysicalComponent" height="70" style="fill: #FFFCB7; stroke: #7B694F; stroke-width: 1" width="131" x="587.5" y="167.5" /><text class="PhysicalComponent" dominant-baseline="middle" text-anchor="middle" x="587" y="167"><tspan x="652.5" xml:space="preserve" y="177.0">Chamber Walls</tspan></text></g><g class="Box PhysicalComponent" id="__NKvFpfqEeymfMCyhvLdiA"><rect class="PhysicalComponent" height="70" style="fill: #FFFCB7; stroke: #7B694F; stroke-width: 1" width="131" x="737.5" y="167.5" /><text class="PhysicalComponent" dominant-baseline="middle" text-anchor="middle" x="737" y="167"><tspan x="802.5" xml:space="preserve" y="178.42857142857142">Quartz Window</tspan></text></g><g class="Box PhysicalComponent" id="__NLWIpfqEeymfMCyhvLdiA"><rect class="PhysicalComponent" height="70" style="fill: #FFFCB7; stroke: #7B694F; stroke-width: 1" width="131" x="1277.5" y="167.5" /><text class="PhysicalComponent" dominant-baseline="middle" text-anchor="middle" x="1277" y="167"><tspan x="1342.5" xml:space="preserve" y="178.42857142857142">Cold plates subsystem</tspan></text></g><g class="Box PhysicalComponent" id="__NLWJZfqEeymfMCyhvLdiA"><rect class="PhysicalComponent" height="70" style="fill: #FFFCB7; stroke: #7B694F; stroke-width: 1" width="131" x="2527.5" y="167.5" /><text class="PhysicalComponent" dominant-baseline="middle" text-anchor="middle" x="2527" y="167"><tspan x="2592.5" xml:space="preserve" y="178.42857142857142">Vaporisation and</tspan><tspan x="2592.5" xml:space="preserve" y="191.28571428571428">Condensation Thermal</tspan><tspan x="2592.5" xml:space="preserve" y="204.14285714285714">Control System</tspan></text></g><g class="Box PhysicalComponent" id="__NLWKJfqEeymfMCyhvLdiA"><rect class="PhysicalComponent" height="70" style="fill: #FFFCB7; stroke: #7B694F; stroke-width: 1" width="131" x="97.5" y="297.5" /><text class="PhysicalComponent" dominant-baseline="middle" text-anchor="middle" x="97" y="297"><tspan x="162.5" xml:space="preserve" y="307.0">Solar Concentrator Lens</tspan></text></g><g class="Box PhysicalComponent" id="__NLWK5fqEeymfMCyhvLdiA"><rect class="PhysicalComponent" height="70" style="fill: #FFFCB7; stroke: #7B694F; stroke-width: 1" width="131" x="247.5" y="297.5" /><text class="PhysicalComponent" dominant-baseline="middle" text-anchor="middle" x="247" y="297"><tspan x="312.5" xml:space="preserve" y="307.0">Solar Concentrator</tspan><tspan x="312.5" xml:space="preserve" y="317.0">Control Mechanism</tspan></text></g><g class="Box PhysicalComponent" id="__NLWLpfqEeymfMCyhvLdiA"><rect class="PhysicalComponent" height="70" style="fill: #FFFCB7; stroke: #7B694F; stroke-width: 1" width="131" x="397.5" y="297.5" /><text class="PhysicalComponent" dominant-baseline="middle" text-anchor="middle" x="397" y="297"><tspan x="462.5" xml:space="preserve" y="307.0">Solar Mirror</tspan></text></g><g class="Box PhysicalComponent" id="__NL9MJfqEeymfMCyhvLdiA"><rect class="PhysicalComponent" height="70" style="fill: #FFFCB7; stroke: #7B694F; stroke-width: 1" width="131" x="927.5" y="297.5" /><text class="PhysicalComponent" dominant-baseline="middle" text-anchor="middle" x="927" y="297"><tspan x="992.5" xml:space="preserve" y="307.0">Cold Plate Surface</tspan></text></g><g class="Box PhysicalComponent" id="__NL9M5fqEeymfMCyhvLdiA"><rect class="PhysicalComponent" height="70" style="fill: #FFFCB7; stroke: #7B694F; stroke-width: 1" width="131" x="1277.5" y="297.5" /><text class="PhysicalComponent" dominant-baseline="middle" text-anchor="middle" x="1277" y="297"><tspan x="1342.5" xml:space="preserve" y="308.42857142857144">Scrapping Device</tspan></text></g><g class="Box PhysicalComponent" id="__NL9NpfqEeymfMCyhvLdiA"><rect class="PhysicalComponent" height="70" style="fill: #FFFCB7; stroke: #7B694F; stroke-width: 1" width="131" x="1807.5" y="297.5" /><text class="PhysicalComponent" dominant-baseline="middle" text-anchor="middle" x="1807" y="297"><tspan x="1872.5" xml:space="preserve" y="307.0">Condensation Waste</tspan><tspan x="1872.5" xml:space="preserve" y="319.85714285714283">Storage</tspan></text></g><g class="Box PhysicalComponent" id="__NL9OZfqEeymfMCyhvLdiA"><rect class="PhysicalComponent" height="70" style="fill: #FFFCB7; stroke: #7B694F; stroke-width: 1" width="131" x="2227.5" y="297.5" /><text class="PhysicalComponent" dominant-baseline="middle" text-anchor="middle" x="2227" y="297"><tspan x="2292.5" xml:space="preserve" y="307.0">Hot Radiator</tspan></text></g><g class="Box PhysicalComponent" id="__NL9PJfqEeymfMCyhvLdiA"><rect class="PhysicalComponent" height="70" style="fill: #FFFCB7; stroke: #7B694F; stroke-width: 1" width="131" x="2377.5" y="297.5" /><text class="PhysicalComponent" dominant-baseline="middle" text-anchor="middle" x="2377" y="297"><tspan x="2442.5" xml:space="preserve" y="308.42857142857144">Cold Plates Cooling</tspan><tspan x="2442.5" xml:space="preserve" y="321.2857142857143">System</tspan></text></g><g class="Box PhysicalComponent" id="__NL9P5fqEeymfMCyhvLdiA"><rect class="PhysicalComponent" height="70" style="fill: #FFFCB7; stroke: #7B694F; stroke-width: 1" width="131" x="2527.5" y="297.5" /><text class="PhysicalComponent" dominant-baseline="middle" text-anchor="middle" x="2527" y="297"><tspan x="2592.5" xml:space="preserve" y="308.42857142857144">Heat Exchanger</tspan></text></g><g class="Box PhysicalComponent" id="__NMkQJfqEeymfMCyhvLdiA"><rect class="PhysicalComponent" height="70" style="fill: #FFFCB7; stroke: #7B694F; stroke-width: 1" width="131" x="2687.5" y="297.5" /><text class="PhysicalComponent" dominant-baseline="middle" text-anchor="middle" x="2687" y="297"><tspan x="2752.5" xml:space="preserve" y="308.42857142857144">Sunlight Heat Shield</tspan><tspan x="2752.5" xml:space="preserve" y="321.2857142857143">Regolith Process</tspan></text></g><g class="Box PhysicalComponent" id="__NMkQ5fqEeymfMCyhvLdiA"><rect class="PhysicalComponent" height="70" style="fill: #FFFCB7; stroke: #7B694F; stroke-width: 1" width="131" x="2837.5" y="297.5" /><text class="PhysicalComponent" dominant-baseline="middle" text-anchor="middle" x="2837" y="297"><tspan x="2902.5" xml:space="preserve" y="308.42857142857144">Chamber Cooling</tspan><tspan x="2902.5" xml:space="preserve" y="321.2857142857143">System</tspan></text></g><g class="Box PhysicalComponent" id="__NMkRpfqEeymfMCyhvLdiA"><rect class="PhysicalComponent" height="70" style="fill: #FFFCB7; stroke: #7B694F; stroke-width: 1" width="131" x="1127.5" y="427.5" /><text class="PhysicalComponent" dominant-baseline="middle" text-anchor="middle" x="1127" y="427"><tspan x="1192.5" xml:space="preserve" y="438.42857142857144">Scrapping Head</tspan></text></g><g class="Box PhysicalComponent" id="__NMkSZfqEeymfMCyhvLdiA"><rect class="PhysicalComponent" height="70" style="fill: #FFFCB7; stroke: #7B694F; stroke-width: 1" width="131" x="1427.5" y="427.5" /><text class="PhysicalComponent" dominant-baseline="middle" text-anchor="middle" x="1427" y="427"><tspan x="1492.5" xml:space="preserve" y="438.42857142857144">Scraping Motor</tspan></text></g><g class="Box PhysicalComponent" id="__NMkTJfqEeymfMCyhvLdiA"><rect class="PhysicalComponent" height="70" style="fill: #FFFCB7; stroke: #7B694F; stroke-width: 1" width="131" x="1657.5" y="427.5" /><text class="PhysicalComponent" dominant-baseline="middle" text-anchor="middle" x="1657" y="427"><tspan x="1722.5" xml:space="preserve" y="437.0">Metalic Waste bucket</tspan></text></g><g class="Box PhysicalComponent" id="__NMkT5fqEeymfMCyhvLdiA"><rect class="PhysicalComponent" height="70" style="fill: #FFFCB7; stroke: #7B694F; stroke-width: 1" width="131" x="1957.5" y="427.5" /><text class="PhysicalComponent" dominant-baseline="middle" text-anchor="middle" x="1957" y="427"><tspan x="2022.5" xml:space="preserve" y="438.42857142857144">Metalic waste transport</tspan><tspan x="2022.5" xml:space="preserve" y="451.2857142857143">tube</tspan></text></g><g class="Box PhysicalComponent" id="__NMkUpfqEeymfMCyhvLdiA"><rect class="PhysicalComponent" height="70" style="fill: #FFFCB7; stroke: #7B694F; stroke-width: 1" width="131" x="737.5" y="37.5" /><text class="PhysicalComponent" dominant-baseline="middle" text-anchor="middle" x="737" y="37"><tspan x="802.5" xml:space="preserve" y="48.42857142857143">Vaporisation and</tspan><tspan x="802.5" xml:space="preserve" y="61.28571428571429">Condensation System</tspan></text></g><g class="Edge PhysicalComponent" id="__NNLUpfqEeymfMCyhvLdiA"><path class="Edge" d="M 282.5 167.5 282.5 123.5 862.5 123.5 862.5 107.5" /><rect class="AnnotationBB" height="13" width="209" x="454" y="107" /><text class="Annotation" dominant-baseline="middle" text-anchor="middle" x="454" y="107"><tspan x="558.5" xml:space="preserve" y="113.42857142857143">Vaporisation and Condensation System</tspan></text></g><g class="Edge PhysicalComponent" id="__NNLV5fqEeymfMCyhvLdiA"><path class="Edge" d="M 622.5 167.5 622.5 123.5 982.5 123.5 982.5 107.5" /><rect class="AnnotationBB" height="13" width="209" x="684" y="107" /><text class="Annotation" dominant-baseline="middle" text-anchor="middle" x="684" y="107"><tspan x="788.5" xml:space="preserve" y="113.42857142857143">Vaporisation and Condensation System</tspan></text></g><g class="Edge PhysicalComponent" id="__NNyYJfqEeymfMCyhvLdiA"><path class="Edge" d="M 772.5 167.5 772.5 123.5 1042.5 123.5 1042.5 107.5" /><rect class="AnnotationBB" height="13" width="209" x="789" y="107" /><text class="Annotation" dominant-baseline="middle" text-anchor="middle" x="789" y="107"><tspan x="893.5" xml:space="preserve" y="113.42857142857143">Vaporisation and Condensation System</tspan></text></g><g class="Edge PhysicalComponent" id="__NNyZZfqEeymfMCyhvLdiA"><path class="Edge" d="M 1312.5 167.5 1312.5 123.5 1232.5 123.5 1232.5 107.5" /><rect class="AnnotationBB" height="13" width="209" x="1182" y="127" /><text class="Annotation" dominant-baseline="middle" text-anchor="middle" x="1182" y="127"><tspan x="1286.5" xml:space="preserve" y="133.42857142857142">Vaporisation and Condensation System</tspan></text></g><g class="Edge PhysicalComponent" id="__NNyapfqEeymfMCyhvLdiA"><path class="Edge" d="M 2562.5 167.5 2562.5 123.5 1652.5 123.5 1652.5 107.5" /><rect class="AnnotationBB" height="13" width="209" x="2017" y="127" /><text class="Annotation" dominant-baseline="middle" text-anchor="middle" x="2017" y="127"><tspan x="2121.5" xml:space="preserve" y="133.42857142857142">Vaporisation and Condensation System</tspan></text></g><g class="Edge PhysicalComponent" id="__NNyb5fqEeymfMCyhvLdiA"><path class="Edge" d="M 132.5 297.5 132.5 253.5 252.5 253.5 252.5 237.5" /><rect class="AnnotationBB" height="10" width="102" x="127" y="238" /><text class="Annotation" dominant-baseline="middle" text-anchor="middle" x="127" y="238"><tspan x="178.0" xml:space="preserve" y="243.0">Solar Concentrator</tspan></text></g><g class="Edge PhysicalComponent" id="__NNydJfqEeymfMCyhvLdiA"><path class="Edge" d="M 282.5 297.5 282.5 253.5 252.5 253.5 252.5 237.5" /><rect class="AnnotationBB" height="10" width="102" x="230" y="258" /><text class="Annotation" dominant-baseline="middle" text-anchor="middle" x="230" y="258"><tspan x="281.0" xml:space="preserve" y="263.0">Solar Concentrator</tspan></text></g><g class="Edge PhysicalComponent" id="__NNyeZfqEeymfMCyhvLdiA"><path class="Edge" d="M 432.5 297.5 432.5 253.5 252.5 253.5 252.5 237.5" /><rect class="AnnotationBB" height="10" width="102" x="305" y="258" /><text class="Annotation" dominant-baseline="middle" text-anchor="middle" x="305" y="258"><tspan x="356.0" xml:space="preserve" y="263.0">Solar Concentrator</tspan></text></g><g class="Edge PhysicalComponent" id="__NNyfpfqEeymfMCyhvLdiA"><path class="Edge" d="M 962.5 297.5 962.5 253.5 912.5 253.5 912.5 237.5" /><rect class="AnnotationBB" height="13" width="119" x="892" y="257" /><text class="Annotation" dominant-baseline="middle" text-anchor="middle" x="892" y="257"><tspan x="951.5" xml:space="preserve" y="263.42857142857144">Cold plates subsystem</tspan></text></g><g class="Edge PhysicalComponent" id="__NOZdJfqEeymfMCyhvLdiA"><path class="Edge" d="M 1312.5 297.5 1312.5 253.5 912.5 253.5 912.5 237.5" /><rect class="AnnotationBB" height="13" width="119" x="1067" y="257" /><text class="Annotation" dominant-baseline="middle" text-anchor="middle" x="1067" y="257"><tspan x="1126.5" xml:space="preserve" y="263.42857142857144">Cold plates subsystem</tspan></text></g><g class="Edge PhysicalComponent" id="__NOZeZfqEeymfMCyhvLdiA"><path class="Edge" d="M 1842.5 297.5 1842.5 253.5 912.5 253.5 912.5 237.5" /><rect class="AnnotationBB" height="13" width="119" x="1332" y="257" /><text class="Annotation" dominant-baseline="middle" text-anchor="middle" x="1332" y="257"><tspan x="1391.5" xml:space="preserve" y="263.42857142857144">Cold plates subsystem</tspan></text></g><g class="Edge PhysicalComponent" id="__NOZfpfqEeymfMCyhvLdiA"><path class="Edge" d="M 2262.5 297.5 2262.5 253.5 1742.5 253.5 1742.5 237.5" /><rect class="AnnotationBB" height="13" width="299" x="1867" y="257" /><text class="Annotation" dominant-baseline="middle" text-anchor="middle" x="1867" y="257"><tspan x="2016.5" xml:space="preserve" y="263.42857142857144">Vaporisation and Condensation Thermal Control System</tspan></text></g><g class="Edge PhysicalComponent" id="__NOZg5fqEeymfMCyhvLdiA"><path class="Edge" d="M 2412.5 297.5 2412.5 253.5 1742.5 253.5 1742.5 237.5" /><rect class="AnnotationBB" height="13" width="299" x="1942" y="257" /><text class="Annotation" dominant-baseline="middle" text-anchor="middle" x="1942" y="257"><tspan x="2091.5" xml:space="preserve" y="263.42857142857144">Vaporisation and Condensation Thermal Control System</tspan></text></g><g class="Edge PhysicalComponent" id="__NOZiJfqEeymfMCyhvLdiA"><path class="Edge" d="M 2562.5 297.5 2562.5 253.5 1742.5 253.5 1742.5 237.5" /><rect class="AnnotationBB" height="13" width="299" x="2017" y="257" /><text class="Annotation" dominant-baseline="middle" text-anchor="middle" x="2017" y="257"><tspan x="2166.5" xml:space="preserve" y="263.42857142857144">Vaporisation and Condensation Thermal Control System</tspan></text></g><g class="Edge PhysicalComponent" id="__NOZjZfqEeymfMCyhvLdiA"><path class="Edge" d="M 2722.5 297.5 2722.5 253.5 1742.5 253.5 1742.5 237.5" /><rect class="AnnotationBB" height="13" width="299" x="2097" y="257" /><text class="Annotation" dominant-baseline="middle" text-anchor="middle" x="2097" y="257"><tspan x="2246.5" xml:space="preserve" y="263.42857142857144">Vaporisation and Condensation Thermal Control System</tspan></text></g><g class="Edge PhysicalComponent" id="__NPAgpfqEeymfMCyhvLdiA"><path class="Edge" d="M 2872.5 297.5 2872.5 253.5 1742.5 253.5 1742.5 237.5" /><rect class="AnnotationBB" height="13" width="299" x="2172" y="257" /><text class="Annotation" dominant-baseline="middle" text-anchor="middle" x="2172" y="257"><tspan x="2321.5" xml:space="preserve" y="263.42857142857144">Vaporisation and Condensation Thermal Control System</tspan></text></g><g class="Edge PhysicalComponent" id="__NPAh5fqEeymfMCyhvLdiA"><path class="Edge" d="M 1162.5 427.5 1162.5 383.5 912.5 383.5 912.5 367.5" /><rect class="AnnotationBB" height="13" width="92" x="1005" y="387" /><text class="Annotation" dominant-baseline="middle" text-anchor="middle" x="1005" y="387"><tspan x="1051.0" xml:space="preserve" y="393.42857142857144">Scrapping Device</tspan></text></g><g class="Edge PhysicalComponent" id="__NPAjJfqEeymfMCyhvLdiA"><path class="Edge" d="M 1462.5 427.5 1462.5 383.5 912.5 383.5 912.5 367.5" /><rect class="AnnotationBB" height="13" width="92" x="1155" y="387" /><text class="Annotation" dominant-baseline="middle" text-anchor="middle" x="1155" y="387"><tspan x="1201.0" xml:space="preserve" y="393.42857142857144">Scrapping Device</tspan></text></g><g class="Edge PhysicalComponent" id="__NPAkZfqEeymfMCyhvLdiA"><path class="Edge" d="M 1692.5 427.5 1692.5 383.5 1262.5 383.5 1262.5 367.5" /><rect class="AnnotationBB" height="13" width="155" x="1414" y="387" /><text class="Annotation" dominant-baseline="middle" text-anchor="middle" x="1414" y="387"><tspan x="1491.5" xml:space="preserve" y="393.42857142857144">Condensation Waste Storage</tspan></text></g><g class="Edge PhysicalComponent" id="__NPAlpfqEeymfMCyhvLdiA"><path class="Edge" d="M 1992.5 427.5 1992.5 383.5 1262.5 383.5 1262.5 367.5" /><rect class="AnnotationBB" height="13" width="155" x="1564" y="387" /><text class="Annotation" dominant-baseline="middle" text-anchor="middle" x="1564" y="387"><tspan x="1641.5" xml:space="preserve" y="393.42857142857144">Condensation Waste Storage</tspan></text></g></svg>