<svg baseProfile="full" class="PhysicalComponentBreakdown" height="350" version="1.1" viewBox="47 27 1571 350" width="1571" xmlns="http://www.w3.org/2000/svg" xmlns:ev="http://www.w3.org/2001/xml-events" xmlns:xlink="http://www.w3.org/1999/xlink"><defs><style>.PhysicalComponentBreakdown * { shape-rendering: geometricPrecision; }
.PhysicalComponentBreakdown text { font-family: "Segoe UI"; font-size: 8pt; }
.PhysicalComponentBreakdown g { cursor: pointer; }
.PhysicalComponentBreakdown g.Edge &gt; path { fill: none; stroke: rgb(0, 0, 0); }
.PhysicalComponentBreakdown g.Box &gt; line { stroke: #000000; }
.PhysicalComponentBreakdown g.Box &gt; rect, .PhysicalComponentBreakdown g.Box &gt; use { fill: transparent; stroke: #000000; stroke-width: 1; }
.PhysicalComponentBreakdown g.Box.Annotation &gt; line { stroke: none; }
.PhysicalComponentBreakdown g.Box.Annotation &gt; rect, .PhysicalComponentBreakdown g.Box.Annotation &gt; use { fill: none; stroke: none; }
.PhysicalComponentBreakdown g.Box.Constraint &gt; line { stroke: #888888; }
.PhysicalComponentBreakdown g.Box.Constraint &gt; rect, .PhysicalComponentBreakdown g.Box.Constraint &gt; use { fill: #FFF5B5; stroke: #888888; }
.PhysicalComponentBreakdown g.Box.Constraint &gt; text { fill: #000000; }
.PhysicalComponentBreakdown g.Box.Note &gt; line { stroke: #FFCC66; }
.PhysicalComponentBreakdown g.Box.Note &gt; rect, .PhysicalComponentBreakdown g.Box.Note &gt; use { fill: #FFFFCB; stroke: #FFCC66; }
.PhysicalComponentBreakdown g.Box.Note &gt; text { fill: #000000; }
.PhysicalComponentBreakdown g.Box.Requirement &gt; line { stroke: #72496E; }
.PhysicalComponentBreakdown g.Box.Requirement &gt; rect, .PhysicalComponentBreakdown g.Box.Requirement &gt; use { fill: #D9C4D7; stroke: #72496E; }
.PhysicalComponentBreakdown g.Box.Requirement &gt; text { fill: #000000; }
.PhysicalComponentBreakdown g.Box.Text &gt; line { stroke: transparent; }
.PhysicalComponentBreakdown g.Box.Text &gt; rect, .PhysicalComponentBreakdown g.Box.Text &gt; use { stroke: transparent; }
.PhysicalComponentBreakdown g.Edge &gt; rect { fill: none; stroke: none; }
.PhysicalComponentBreakdown g.Circle &gt; circle { fill: #000000; stroke: none; }
.PhysicalComponentBreakdown g.Edge &gt; path { stroke-width: 1; }
.PhysicalComponentBreakdown g.Edge.Connector &gt; rect { fill: none; stroke: none; }
.PhysicalComponentBreakdown g.Circle.Connector &gt; circle { fill: #B0B0B0; stroke: none; }
.PhysicalComponentBreakdown g.Edge.Connector &gt; path { stroke: #B0B0B0; stroke-dasharray: 1; }
.PhysicalComponentBreakdown g.Edge.Constraint &gt; rect { fill: none; stroke: none; }
.PhysicalComponentBreakdown g.Circle.Constraint &gt; circle { fill: #000000; stroke: none; }
.PhysicalComponentBreakdown g.Edge.Constraint &gt; path { stroke: #000000; stroke-dasharray: 1, 3; marker-end: url(#FineArrowMark_000000); stroke-linecap: round; }
.PhysicalComponentBreakdown g.Edge.Note &gt; rect { fill: none; stroke: none; }
.PhysicalComponentBreakdown g.Circle.Note &gt; circle { fill: #000000; stroke: none; }
.PhysicalComponentBreakdown g.Edge.Note &gt; path { stroke: #000000; stroke-dasharray: 1, 3; }
.PhysicalComponentBreakdown g.Edge.RequirementRelation &gt; rect { fill: none; stroke: none; }
.PhysicalComponentBreakdown g.Circle.RequirementRelation &gt; circle { fill: #72496E; stroke: none; }
.PhysicalComponentBreakdown g.Edge.RequirementRelation &gt; path { stroke: #72496E; stroke-width: 2; marker-end: url(#FineArrowMark_72496E); stroke-dasharray: 5; }
.PhysicalComponentBreakdown g.Edge.RequirementRelation &gt; text { fill: #72496E; }
</style><symbol id="ErrorSymbol" viewBox="0 0 2.6458 2.6458"><path d="M 0,0 2.6458333,2.6458333 M 0,2.6458333 2.6458333,0" style="fill: none; stroke: red; stroke-width: 0.5;" /></symbol><symbol id="RequirementSymbol" style="stroke: none;" viewBox="0 0 50 50"><path d="M 12.806813,6.5702324 A 6.244379,5.8113241 0 0 1 6.5624342,12.381557 6.244379,5.8113241 0 0 1 0.31805515,6.5702324 6.244379,5.8113241 0 0 1 6.5624342,0.75890827 6.244379,5.8113241 0 0 1 12.806813,6.5702324 Z" style="fill: #431964" /><path d="m 4.3228658,5.8752475 h 2.9514721 q 0.2945581,0 0.5184223,-0.1413879 Q 8.0225155,5.5865806 8.1462299,5.3214783 8.2699443,5.056376 8.2758355,4.7029063 v 0 q 0,-0.3475786 -0.1237144,-0.6126808 Q 8.0284067,3.8251232 7.7986513,3.6837353 7.5747872,3.5364562 7.2743379,3.5364562 H 4.3228658 V 2.1873801 h 2.9927103 q 0.7246129,0 1.2724909,0.3122316 0.5478781,0.3122316 0.8483274,0.8836743 0.3063404,0.5714427 0.3063404,1.3196203 v 0 q 0,0.7540687 -0.3063404,1.3255114 Q 9.1359451,6.5998605 8.5821759,6.912092 8.0342978,7.2243236 7.3155761,7.2243236 H 4.3228658 Z M 3.7396407,2.1873801 H 5.1476285 V 10.759021 H 3.7396407 Z M 6.3906636,6.9592213 7.8516718,6.6882279 10.102096,10.759021 H 8.4113322 Z" style="fill:#ffffff;" /></symbol></defs><rect fill="white" height="350" stroke="none" width="1571" x="47" y="27" /><g class="Box PhysicalComponent" id="_Ih0KQ5frEeymfMCyhvLdiA"><rect class="PhysicalComponent" height="70" style="fill: #FFFCB7; stroke: #7B694F; stroke-width: 1" width="141" x="57.5" y="167.5" /><text class="PhysicalComponent" dominant-baseline="middle" text-anchor="middle" x="57" y="167"><tspan x="127.5" xml:space="preserve" y="178.42857142857142">Filtration System</tspan></text></g><g class="Box PhysicalComponent" id="_Ih0xUJfrEeymfMCyhvLdiA"><rect class="PhysicalComponent" height="70" style="fill: #FFFCB7; stroke: #7B694F; stroke-width: 1" width="141" x="217.5" y="167.5" /><text class="PhysicalComponent" dominant-baseline="middle" text-anchor="middle" x="217" y="167"><tspan x="287.5" xml:space="preserve" y="178.42857142857142">Cryogenic compressor</tspan></text></g><g class="Box PhysicalComponent" id="_Ih0xU5frEeymfMCyhvLdiA"><rect class="PhysicalComponent" height="70" style="fill: #FFFCB7; stroke: #7B694F; stroke-width: 1" width="141" x="737.5" y="167.5" /><text class="PhysicalComponent" dominant-baseline="middle" text-anchor="middle" x="737" y="167"><tspan x="807.5" xml:space="preserve" y="178.42857142857142">Oxygen Storage System</tspan></text></g><g class="Box PhysicalComponent" id="_Ih0xVpfrEeymfMCyhvLdiA"><rect class="PhysicalComponent" height="70" style="fill: #FFFCB7; stroke: #7B694F; stroke-width: 1" width="141" x="1307.5" y="167.5" /><text class="PhysicalComponent" dominant-baseline="middle" text-anchor="middle" x="1307" y="167"><tspan x="1377.5" xml:space="preserve" y="178.42857142857142">Oxygen Recovery Thermal</tspan><tspan x="1377.5" xml:space="preserve" y="191.28571428571428">Control System</tspan></text></g><g class="Box PhysicalComponent" id="_Ih0xWZfrEeymfMCyhvLdiA"><rect class="PhysicalComponent" height="70" style="fill: #FFFCB7; stroke: #7B694F; stroke-width: 1" width="141" x="577.5" y="297.5" /><text class="PhysicalComponent" dominant-baseline="middle" text-anchor="middle" x="577" y="297"><tspan x="647.5" xml:space="preserve" y="308.42857142857144">Emergency Exit Valve</tspan></text></g><g class="Box PhysicalComponent" id="_Ih0xXJfrEeymfMCyhvLdiA"><rect class="PhysicalComponent" height="70" style="fill: #FFFCB7; stroke: #7B694F; stroke-width: 1" width="141" x="907.5" y="297.5" /><text class="PhysicalComponent" dominant-baseline="middle" text-anchor="middle" x="907" y="297"><tspan x="977.5" xml:space="preserve" y="308.42857142857144">Storage Tank</tspan></text></g><g class="Box PhysicalComponent" id="_Ih0xX5frEeymfMCyhvLdiA"><rect class="PhysicalComponent" height="70" style="fill: #FFFCB7; stroke: #7B694F; stroke-width: 1" width="141" x="1147.5" y="297.5" /><text class="PhysicalComponent" dominant-baseline="middle" text-anchor="middle" x="1147" y="297"><tspan x="1217.5" xml:space="preserve" y="307.0">Cold Radiator</tspan></text></g><g class="Box PhysicalComponent" id="_Ih1YYZfrEeymfMCyhvLdiA"><rect class="PhysicalComponent" height="70" style="fill: #FFFCB7; stroke: #7B694F; stroke-width: 1" width="141" x="1307.5" y="297.5" /><text class="PhysicalComponent" dominant-baseline="middle" text-anchor="middle" x="1307" y="297"><tspan x="1377.5" xml:space="preserve" y="308.42857142857144">Oxygen Recovery Heat</tspan><tspan x="1377.5" xml:space="preserve" y="321.2857142857143">Transfer System</tspan></text></g><g class="Box PhysicalComponent" id="_Ih1YZJfrEeymfMCyhvLdiA"><rect class="PhysicalComponent" height="70" style="fill: #FFFCB7; stroke: #7B694F; stroke-width: 1" width="141" x="1467.5" y="297.5" /><text class="PhysicalComponent" dominant-baseline="middle" text-anchor="middle" x="1467" y="297"><tspan x="1537.5" xml:space="preserve" y="308.42857142857144">Sunlight Heat Shield</tspan><tspan x="1537.5" xml:space="preserve" y="321.2857142857143">Oxygen Recovery</tspan></text></g><g class="Box PhysicalComponent" id="_Ih1YZ5frEeymfMCyhvLdiA"><rect class="PhysicalComponent" height="70" style="fill: #FFFCB7; stroke: #7B694F; stroke-width: 1" width="141" x="377.5" y="37.5" /><text class="PhysicalComponent" dominant-baseline="middle" text-anchor="middle" x="377" y="37"><tspan x="447.5" xml:space="preserve" y="48.42857142857143">Oxygen Recovery System</tspan></text></g><g class="Edge PhysicalComponent" id="_Ih1_cJfrEeymfMCyhvLdiA"><path class="Edge" d="M 92.5 167.5 92.5 123.5 447.5 123.5 447.5 107.5" /><rect class="AnnotationBB" height="13" width="133" x="189" y="107" /><text class="Annotation" dominant-baseline="middle" text-anchor="middle" x="189" y="107"><tspan x="255.5" xml:space="preserve" y="113.42857142857143">Oxygen Recovery System</tspan></text></g><g class="Edge PhysicalComponent" id="_Ih2mgJfrEeymfMCyhvLdiA"><path class="Edge" d="M 252.5 167.5 252.5 123.5 517.5 123.5 517.5 107.5" /><rect class="AnnotationBB" height="13" width="133" x="304" y="107" /><text class="Annotation" dominant-baseline="middle" text-anchor="middle" x="304" y="107"><tspan x="370.5" xml:space="preserve" y="113.42857142857143">Oxygen Recovery System</tspan></text></g><g class="Edge PhysicalComponent" id="_Ih3NlJfrEeymfMCyhvLdiA"><path class="Edge" d="M 772.5 167.5 772.5 123.5 727.5 123.5 727.5 107.5" /><rect class="AnnotationBB" height="13" width="133" x="697" y="127" /><text class="Annotation" dominant-baseline="middle" text-anchor="middle" x="697" y="127"><tspan x="763.5" xml:space="preserve" y="133.42857142857142">Oxygen Recovery System</tspan></text></g><g class="Edge PhysicalComponent" id="_Ih30pJfrEeymfMCyhvLdiA"><path class="Edge" d="M 1342.5 167.5 1342.5 123.5 947.5 123.5 947.5 107.5" /><rect class="AnnotationBB" height="13" width="133" x="1092" y="127" /><text class="Annotation" dominant-baseline="middle" text-anchor="middle" x="1092" y="127"><tspan x="1158.5" xml:space="preserve" y="133.42857142857142">Oxygen Recovery System</tspan></text></g><g class="Edge PhysicalComponent" id="_Ih30qZfrEeymfMCyhvLdiA"><path class="Edge" d="M 612.5 297.5 612.5 253.5 527.5 253.5 527.5 237.5" /><rect class="AnnotationBB" height="13" width="126" x="521" y="257" /><text class="Annotation" dominant-baseline="middle" text-anchor="middle" x="521" y="257"><tspan x="584.0" xml:space="preserve" y="263.42857142857144">Oxygen Storage System</tspan></text></g><g class="Edge PhysicalComponent" id="_Ih4bsJfrEeymfMCyhvLdiA"><path class="Edge" d="M 942.5 297.5 942.5 253.5 527.5 253.5 527.5 237.5" /><rect class="AnnotationBB" height="13" width="126" x="686" y="257" /><text class="Annotation" dominant-baseline="middle" text-anchor="middle" x="686" y="257"><tspan x="749.0" xml:space="preserve" y="263.42857142857144">Oxygen Storage System</tspan></text></g><g class="Edge PhysicalComponent" id="_Ih4btZfrEeymfMCyhvLdiA"><path class="Edge" d="M 1182.5 297.5 1182.5 253.5 877.5 253.5 877.5 237.5" /><rect class="AnnotationBB" height="13" width="223" x="932" y="257" /><text class="Annotation" dominant-baseline="middle" text-anchor="middle" x="932" y="257"><tspan x="1043.5" xml:space="preserve" y="263.42857142857144">Oxygen Recovery Thermal Control System</tspan></text></g><g class="Edge PhysicalComponent" id="_Ih4bupfrEeymfMCyhvLdiA"><path class="Edge" d="M 1342.5 297.5 1342.5 253.5 877.5 253.5 877.5 237.5" /><rect class="AnnotationBB" height="13" width="223" x="1012" y="257" /><text class="Annotation" dominant-baseline="middle" text-anchor="middle" x="1012" y="257"><tspan x="1123.5" xml:space="preserve" y="263.42857142857144">Oxygen Recovery Thermal Control System</tspan></text></g><g class="Edge PhysicalComponent" id="_Ih4bv5frEeymfMCyhvLdiA"><path class="Edge" d="M 1502.5 297.5 1502.5 253.5 877.5 253.5 877.5 237.5" /><rect class="AnnotationBB" height="13" width="223" x="1092" y="257" /><text class="Annotation" dominant-baseline="middle" text-anchor="middle" x="1092" y="257"><tspan x="1203.5" xml:space="preserve" y="263.42857142857144">Oxygen Recovery Thermal Control System</tspan></text></g></svg>