<svg baseProfile="full" class="PhysicalArchitectureBlank" height="1231" version="1.1" viewBox="80 160 1966 1231" width="1966" xmlns="http://www.w3.org/2000/svg" xmlns:ev="http://www.w3.org/2001/xml-events" xmlns:xlink="http://www.w3.org/1999/xlink"><defs><style>.PhysicalArchitectureBlank * { shape-rendering: geometricPrecision; }
.PhysicalArchitectureBlank text { font-family: "Segoe UI"; font-size: 8pt; }
.PhysicalArchitectureBlank g { cursor: pointer; }
.PhysicalArchitectureBlank g.Edge &gt; path { fill: none; stroke: rgb(0, 0, 0); }
.PhysicalArchitectureBlank g.Box &gt; line { stroke: #000000; }
.PhysicalArchitectureBlank g.Box &gt; rect, .PhysicalArchitectureBlank g.Box &gt; use { fill: transparent; stroke: #000000; stroke-width: 1; }
.PhysicalArchitectureBlank g.Box.Annotation &gt; line { stroke: none; }
.PhysicalArchitectureBlank g.Box.Annotation &gt; rect, .PhysicalArchitectureBlank g.Box.Annotation &gt; use { fill: none; stroke: none; }
.PhysicalArchitectureBlank g.Box.Constraint &gt; line { stroke: #888888; }
.PhysicalArchitectureBlank g.Box.Constraint &gt; rect, .PhysicalArchitectureBlank g.Box.Constraint &gt; use { fill: #FFF5B5; stroke: #888888; }
.PhysicalArchitectureBlank g.Box.Constraint &gt; text { fill: #000000; }
.PhysicalArchitectureBlank g.Box.Note &gt; line { stroke: #FFCC66; }
.PhysicalArchitectureBlank g.Box.Note &gt; rect, .PhysicalArchitectureBlank g.Box.Note &gt; use { fill: #FFFFCB; stroke: #FFCC66; }
.PhysicalArchitectureBlank g.Box.Note &gt; text { fill: #000000; }
.PhysicalArchitectureBlank g.Box.Requirement &gt; line { stroke: #72496E; }
.PhysicalArchitectureBlank g.Box.Requirement &gt; rect, .PhysicalArchitectureBlank g.Box.Requirement &gt; use { fill: #D9C4D7; stroke: #72496E; }
.PhysicalArchitectureBlank g.Box.Requirement &gt; text { fill: #000000; }
.PhysicalArchitectureBlank g.Box.Text &gt; line { stroke: transparent; }
.PhysicalArchitectureBlank g.Box.Text &gt; rect, .PhysicalArchitectureBlank g.Box.Text &gt; use { stroke: transparent; }
.PhysicalArchitectureBlank g.Edge &gt; rect { fill: none; stroke: none; }
.PhysicalArchitectureBlank g.Circle &gt; circle { fill: #000000; stroke: none; }
.PhysicalArchitectureBlank g.Edge &gt; path { stroke-width: 1; }
.PhysicalArchitectureBlank g.Edge.Connector &gt; rect { fill: none; stroke: none; }
.PhysicalArchitectureBlank g.Circle.Connector &gt; circle { fill: #B0B0B0; stroke: none; }
.PhysicalArchitectureBlank g.Edge.Connector &gt; path { stroke: #B0B0B0; stroke-dasharray: 1; }
.PhysicalArchitectureBlank g.Edge.Constraint &gt; rect { fill: none; stroke: none; }
.PhysicalArchitectureBlank g.Circle.Constraint &gt; circle { fill: #000000; stroke: none; }
.PhysicalArchitectureBlank g.Edge.Constraint &gt; path { stroke: #000000; stroke-dasharray: 1, 3; marker-end: url(#FineArrowMark_000000); stroke-linecap: round; }
.PhysicalArchitectureBlank g.Edge.Note &gt; rect { fill: none; stroke: none; }
.PhysicalArchitectureBlank g.Circle.Note &gt; circle { fill: #000000; stroke: none; }
.PhysicalArchitectureBlank g.Edge.Note &gt; path { stroke: #000000; stroke-dasharray: 1, 3; }
.PhysicalArchitectureBlank g.Edge.RequirementRelation &gt; rect { fill: none; stroke: none; }
.PhysicalArchitectureBlank g.Circle.RequirementRelation &gt; circle { fill: #72496E; stroke: none; }
.PhysicalArchitectureBlank g.Edge.RequirementRelation &gt; path { stroke: #72496E; stroke-width: 2; marker-end: url(#FineArrowMark_72496E); stroke-dasharray: 5; }
.PhysicalArchitectureBlank g.Edge.RequirementRelation &gt; text { fill: #72496E; }
.PhysicalArchitectureBlank g.Box.CP_IN &gt; line { stroke: #000000; }
.PhysicalArchitectureBlank g.Box.CP_IN &gt; rect, .PhysicalArchitectureBlank g.Box.CP_IN &gt; use { fill: #FFFFFF; stroke: #000000; }
.PhysicalArchitectureBlank g.Box.CP_OUT &gt; line { stroke: #000000; }
.PhysicalArchitectureBlank g.Box.CP_OUT &gt; rect, .PhysicalArchitectureBlank g.Box.CP_OUT &gt; use { fill: #FFFFFF; stroke: #000000; }
.PhysicalArchitectureBlank g.Box.CP_INOUT &gt; line { stroke: #000000; }
.PhysicalArchitectureBlank g.Box.CP_INOUT &gt; rect, .PhysicalArchitectureBlank g.Box.CP_INOUT &gt; use { fill: #FFFFFF; stroke: #000000; }
.PhysicalArchitectureBlank g.Box.FIP &gt; rect, .PhysicalArchitectureBlank g.Box.FIP &gt; use { fill: #E08503; stroke-width: 0; }
.PhysicalArchitectureBlank g.Box.FOP &gt; rect, .PhysicalArchitectureBlank g.Box.FOP &gt; use { fill: #095C2E; stroke-width: 0; }
.PhysicalArchitectureBlank g.Box.PP &gt; line { stroke: #7B694F; }
.PhysicalArchitectureBlank g.Box.PP &gt; rect, .PhysicalArchitectureBlank g.Box.PP &gt; use { fill: #FFF477; stroke: #7B694F; }
.PhysicalArchitectureBlank g.Box.PhysicalComponent &gt; line { stroke: #7B694F; }
.PhysicalArchitectureBlank g.Box.PhysicalComponent &gt; rect, .PhysicalArchitectureBlank g.Box.PhysicalComponent &gt; use { fill: url("#.PhysicalComponentFillGradient"); stroke: #7B694F; }
.PhysicalArchitectureBlank g.Box.PhysicalComponent &gt; text { fill: #000000; }
.PhysicalArchitectureBlank g.Box.PhysicalFunction &gt; line { stroke: #095C2E; }
.PhysicalArchitectureBlank g.Box.PhysicalFunction &gt; rect, .PhysicalArchitectureBlank g.Box.PhysicalFunction &gt; use { fill: #C5FFA6; stroke: #095C2E; }
.PhysicalArchitectureBlank g.Edge.ComponentExchange &gt; rect { fill: none; stroke: none; }
.PhysicalArchitectureBlank g.Circle.ComponentExchange &gt; circle { fill: #4A4A97; stroke: none; }
.PhysicalArchitectureBlank g.Edge.ComponentExchange &gt; path { stroke: #4A4A97; stroke-width: 2; }
.PhysicalArchitectureBlank g.Edge.ComponentExchange &gt; text { fill: #4A4A97; }
.PhysicalArchitectureBlank g.Edge.FunctionalExchange &gt; rect { fill: none; stroke: none; }
.PhysicalArchitectureBlank g.Circle.FunctionalExchange &gt; circle { fill: #095C2E; stroke: none; }
.PhysicalArchitectureBlank g.Edge.FunctionalExchange &gt; path { stroke: #095C2E; stroke-width: 2; }
.PhysicalArchitectureBlank g.Edge.FunctionalExchange &gt; text { fill: #095C2E; }
.PhysicalArchitectureBlank g.Edge.PhysicalLink &gt; rect { fill: none; stroke: none; }
.PhysicalArchitectureBlank g.Circle.PhysicalLink &gt; circle { fill: #EF2929; stroke: none; }
.PhysicalArchitectureBlank g.Edge.PhysicalLink &gt; path { stroke: #EF2929; stroke-width: 2; }
.PhysicalArchitectureBlank g.Edge.PhysicalLink &gt; text { fill: #EF2929; }
</style><symbol id="ErrorSymbol" viewBox="0 0 2.6458 2.6458"><path d="M 0,0 2.6458333,2.6458333 M 0,2.6458333 2.6458333,0" style="fill: none; stroke: red; stroke-width: 0.5;" /></symbol><symbol id="RequirementSymbol" style="stroke: none;" viewBox="0 0 50 50"><path d="M 12.806813,6.5702324 A 6.244379,5.8113241 0 0 1 6.5624342,12.381557 6.244379,5.8113241 0 0 1 0.31805515,6.5702324 6.244379,5.8113241 0 0 1 6.5624342,0.75890827 6.244379,5.8113241 0 0 1 12.806813,6.5702324 Z" style="fill: #431964" /><path d="m 4.3228658,5.8752475 h 2.9514721 q 0.2945581,0 0.5184223,-0.1413879 Q 8.0225155,5.5865806 8.1462299,5.3214783 8.2699443,5.056376 8.2758355,4.7029063 v 0 q 0,-0.3475786 -0.1237144,-0.6126808 Q 8.0284067,3.8251232 7.7986513,3.6837353 7.5747872,3.5364562 7.2743379,3.5364562 H 4.3228658 V 2.1873801 h 2.9927103 q 0.7246129,0 1.2724909,0.3122316 0.5478781,0.3122316 0.8483274,0.8836743 0.3063404,0.5714427 0.3063404,1.3196203 v 0 q 0,0.7540687 -0.3063404,1.3255114 Q 9.1359451,6.5998605 8.5821759,6.912092 8.0342978,7.2243236 7.3155761,7.2243236 H 4.3228658 Z M 3.7396407,2.1873801 H 5.1476285 V 10.759021 H 3.7396407 Z M 6.3906636,6.9592213 7.8516718,6.6882279 10.102096,10.759021 H 8.4113322 Z" style="fill:#ffffff;" /></symbol><symbol id="PhysicalLinkSymbol" viewBox="0 0 40 30"><linearGradient id="PhysicalLinkSymbol-gradient" x1="0" x2="1" y1="0" y2="1"><stop offset="0.0" stop-color="#DFDF00" stop-opacity="1" /><stop offset="1.0" stop-color="#E8E809" stop-opacity="1" /></linearGradient><linearGradient id="PhysicalLinkSymbol-gradientreverse" x1="0" x2="1" y1="0" y2="1"><stop offset="0.0" stop-color="#E8E809" stop-opacity="1" /><stop offset="1.0" stop-color="#DFDF00" stop-opacity="1" /></linearGradient><g style="stroke:#000;stroke-width:2;"><path d="M 36.190065,5.0377724 V 24.962228 H 26.17482 V 5.0377724 Z" style="fill: url(#PhysicalLinkSymbol-gradientreverse)" /><path d="m 14.372107,10 h 12.622435 c 0.926189,0.585267 1.836022,1.274509 2.268178,5 -0.208657,2.812473 -0.954601,4.503809 -2.273297,5 H 14.296948" style="fill: #F60A0A" /><path d="M 3.9464908,5.0048246 V 24.995175 H 10.87518 C 12.433713,24.159139 15.158267,20.291241 15.313795,15 15.498614,11.583142 14.059659,6.6240913 10.87518,5.0048246 c -2.2179509,0 -4.5908341,0 -6.9286892,0 z" style="fill: url(#PhysicalLinkSymbol-gradient)" /></g></symbol><symbol id="ComponentExchangeSymbol" viewBox="0 0 40 30"><linearGradient id="ComponentExchangeSymbol-gradient" x1="0" x2="1" y1="0" y2="1"><stop offset="0.0" stop-color="#8FA5B6" stop-opacity="1" /><stop offset="1.0" stop-color="#E0E9F3" stop-opacity="1" /></linearGradient><linearGradient id="ComponentExchangeSymbol-gradientreverse" x1="0" x2="1" y1="0" y2="1"><stop offset="0.0" stop-color="#E0E9F3" stop-opacity="1" /><stop offset="1.0" stop-color="#8FA5B6" stop-opacity="1" /></linearGradient><g style="stroke:#000;stroke-width:2;"><path d="M 36.190065,5.0377724 V 24.962228 H 26.17482 V 5.0377724 Z" style="fill: url(#ComponentExchangeSymbol-gradientreverse)" /><path d="m 14.372107,10 h 12.622435 c 0.926189,0.585267 1.836022,1.274509 2.268178,5 -0.208657,2.812473 -0.954601,4.503809 -2.273297,5 H 14.296948" style="fill: #A3BCD0" /><path d="M 3.9464908,5.0048246 V 24.995175 H 10.87518 C 12.433713,24.159139 15.158267,20.291241 15.313795,15 15.498614,11.583142 14.059659,6.6240913 10.87518,5.0048246 c -2.2179509,0 -4.5908341,0 -6.9286892,0 z" style="fill: url(#ComponentExchangeSymbol-gradient)" /></g></symbol><symbol id="ComponentPortSymbol" viewBox="0 0 10 10"><path d="M0 0h10v10H0z" /><path d="M 2,2 5,7 8,2" /></symbol><symbol id="PortSymbol" viewBox="0 0 10 10"><path d="M0 0h10v10H0z" /><path d="M5 1L1 9h8z" fill="#fff" /></symbol><linearGradient id=".PhysicalComponentFillGradient" x1="0%" x2="0%" y1="0%" y2="100%"><stop offset="0" stop-color="#FFFFDC" /><stop offset="1" stop-color="#FFFCB7" /></linearGradient><linearGradient id="CustomGradient_C3E6FF_96B1DA" x1="0" x2="0" y1="0" y2="1"><stop offset="0.0" stop-color="#C3E6FF" stop-opacity="1" /><stop offset="1.0" stop-color="#96B1DA" stop-opacity="1" /></linearGradient></defs><rect fill="white" height="1231" stroke="none" width="1966" x="80" y="160" /><g class="Box PhysicalComponent" id="_YeXDUJfnEeymfMCyhvLdiA"><rect class="PhysicalComponent" height="1211" style="stroke-width: 1" width="1946" x="90.5" y="170.5" /><text class="PhysicalComponent" dominant-baseline="middle" text-anchor="middle" x="90" y="170"><tspan x="1063.0" xml:space="preserve" y="181.42857142857142">Oxygen Recovery System</tspan></text></g><g class="Box PhysicalComponent" id="_YeXDU5fnEeymfMCyhvLdiA"><rect class="PhysicalComponent" height="741" style="stroke-width: 1" width="441" x="120.5" y="254.5" /><text class="PhysicalComponent" dominant-baseline="middle" text-anchor="middle" x="120" y="254"><tspan x="340.5" xml:space="preserve" y="265.42857142857144">Filtration System</tspan></text></g><g class="Box PhysicalComponent" id="_eZBD4JfnEeymfMCyhvLdiA"><rect class="PhysicalComponent" height="541" style="fill: url(&quot;#CustomGradient_C3E6FF_96B1DA&quot;); stroke: #4A4A97; stroke-width: 1" width="391" x="135.5" y="298.5" /><text class="PhysicalComponent" dominant-baseline="middle" text-anchor="middle" x="135" y="298"><tspan x="330.5" xml:space="preserve" y="309.42857142857144">Oxygen Permeable - Dust Filter</tspan></text></g><g class="Box PhysicalFunction" id="_d-3CAJfoEeymfMCyhvLdiA"><rect class="PhysicalFunction" height="161" style="stroke-width: 1" width="311" x="165.5" y="467.5" /><text class="PhysicalFunction" dominant-baseline="middle" style="fill: #095C2E" text-anchor="middle" x="165" y="467"><tspan x="320.5" xml:space="preserve" y="547.5">Filter Remaining Gas</tspan></text><use height="20" width="20" x="245.5" xlink:href="#PhysicalFunctionSymbol" y="537.5" /></g><g class="Box FIP" id="_d-8hmpfoEeymfMCyhvLdiA"><use class="FIP" height="10" transform="rotate(0 271.5 625.5)" width="10" x="266.5" xlink:href="#PortSymbol" y="620.5" /></g><g class="Box FIP" id="_d-8hnpfoEeymfMCyhvLdiA"><use class="FIP" height="10" transform="rotate(-180 261.5 470.5)" width="10" x="256.5" xlink:href="#PortSymbol" y="465.5" /></g><g class="Box FOP" id="_d-9IoZfoEeymfMCyhvLdiA"><use class="FOP" height="10" transform="rotate(0 371.5 470.5)" width="10" x="366.5" xlink:href="#PortSymbol" y="465.5" /></g><g class="Box FOP" id="_d-9IpZfoEeymfMCyhvLdiA"><use class="FOP" height="10" transform="rotate(90 473.5 543.5)" width="10" x="468.5" xlink:href="#PortSymbol" y="538.5" /></g><g class="Box PhysicalFunction" id="_d-3CA5foEeymfMCyhvLdiA"><rect class="PhysicalFunction" height="90" style="stroke-width: 1" width="280" x="185.5" y="697.5" /><text class="PhysicalFunction" dominant-baseline="middle" style="fill: #095C2E" text-anchor="middle" x="185" y="697"><tspan x="325.0" xml:space="preserve" y="742.0">Mitigate Oxygen Contamination with Dust</tspan></text><use height="20" width="20" x="193.57142857142856" xlink:href="#PhysicalFunctionSymbol" y="732.0" /></g><g class="Box FOP" id="_d-9IqZfoEeymfMCyhvLdiA"><use class="FOP" height="10" transform="rotate(0 266.5 700.5)" width="10" x="261.5" xlink:href="#PortSymbol" y="695.5" /></g><g class="Box PhysicalComponent" id="_YeXqYZfnEeymfMCyhvLdiA"><rect class="PhysicalComponent" height="741" style="stroke-width: 1" width="546" x="580.5" y="254.5" /><text class="PhysicalComponent" dominant-baseline="middle" text-anchor="middle" x="580" y="254"><tspan x="853.0" xml:space="preserve" y="265.42857142857144">Cryogenic compressor</tspan></text></g><g class="Box PhysicalComponent" id="_fq6JkJfnEeymfMCyhvLdiA"><rect class="PhysicalComponent" height="69" style="fill: url(&quot;#CustomGradient_C3E6FF_96B1DA&quot;); stroke: #4A4A97; stroke-width: 1" width="213" x="875.5" y="528.5" /><text class="PhysicalComponent" dominant-baseline="middle" text-anchor="middle" x="875" y="528"><tspan x="981.5" xml:space="preserve" y="539.4285714285714">Process Pressure Regulation System</tspan></text></g><g class="Box PhysicalComponent" id="_fq7XsJfnEeymfMCyhvLdiA"><rect class="PhysicalComponent" height="411" style="fill: url(&quot;#CustomGradient_C3E6FF_96B1DA&quot;); stroke: #4A4A97; stroke-width: 1" width="501" x="585.5" y="288.5" /><text class="PhysicalComponent" dominant-baseline="middle" text-anchor="middle" x="585" y="288"><tspan x="835.5" xml:space="preserve" y="299.42857142857144">Oxygen Recovery Compressor</tspan></text></g><g class="Box PhysicalFunction" id="_Xcb20JfoEeymfMCyhvLdiA"><rect class="PhysicalFunction" height="51" style="stroke-width: 1" width="211" x="605.5" y="327.5" /><text class="PhysicalFunction" dominant-baseline="middle" style="fill: #095C2E" text-anchor="middle" x="605" y="327"><tspan x="710.5" xml:space="preserve" y="346.0714285714286">Convert Electricity into pressurized</tspan><tspan x="710.5" xml:space="preserve" y="358.92857142857144">Oxygen</tspan></text><use height="20" width="20" x="603" xlink:href="#PhysicalFunctionSymbol" y="342.5" /></g><g class="Box FIP" id="_XclAxpfoEeymfMCyhvLdiA"><use class="FIP" height="10" transform="rotate(-180 751.5 330.5)" width="10" x="746.5" xlink:href="#PortSymbol" y="325.5" /></g><g class="Box FOP" id="_XclAypfoEeymfMCyhvLdiA"><use class="FOP" height="10" transform="rotate(180 746.5 375.5)" width="10" x="741.5" xlink:href="#PortSymbol" y="370.5" /></g><g class="Box PhysicalFunction" id="_Xccd4pfoEeymfMCyhvLdiA"><rect class="PhysicalFunction" height="101" style="stroke-width: 1" width="461" x="605.5" y="577.5" /><text class="PhysicalFunction" dominant-baseline="middle" style="fill: #095C2E" text-anchor="middle" x="605" y="577"><tspan x="835.5" xml:space="preserve" y="627.5">Compress Gas</tspan></text><use height="20" width="20" x="776.9285714285714" xlink:href="#PhysicalFunctionSymbol" y="617.5" /></g><g class="Box FIP" id="_Xcln0pfoEeymfMCyhvLdiA"><use class="FIP" height="10" transform="rotate(-180 751.5 580.5)" width="10" x="746.5" xlink:href="#PortSymbol" y="575.5" /></g><g class="Box FIP" id="_Xcln1pfoEeymfMCyhvLdiA"><use class="FIP" height="10" transform="rotate(90 608.5 653.5)" width="10" x="603.5" xlink:href="#PortSymbol" y="648.5" /></g><g class="Box FOP" id="_Xcln2pfoEeymfMCyhvLdiA"><use class="FOP" height="10" transform="rotate(0 711.5 580.5)" width="10" x="706.5" xlink:href="#PortSymbol" y="575.5" /></g><g class="Box FOP" id="_XcmO4pfoEeymfMCyhvLdiA"><use class="FOP" height="10" transform="rotate(180 706.5 675.5)" width="10" x="701.5" xlink:href="#PortSymbol" y="670.5" /></g><g class="Box PhysicalFunction" id="_XcdE8JfoEeymfMCyhvLdiA"><rect class="PhysicalFunction" height="51" style="stroke-width: 1" width="191" x="845.5" y="417.5" /><text class="PhysicalFunction" dominant-baseline="middle" style="fill: #095C2E" text-anchor="middle" x="845" y="417"><tspan x="940.5" xml:space="preserve" y="437.5">Maintain Condensation</tspan><tspan x="940.5" xml:space="preserve" y="447.5">Pressure</tspan></text><use height="20" width="20" x="858.3571428571429" xlink:href="#PhysicalFunctionSymbol" y="432.5" /></g><g class="Box FOP" id="_XcmO5pfoEeymfMCyhvLdiA"><use class="FOP" height="10" transform="rotate(270 848.5 443.5)" width="10" x="843.5" xlink:href="#PortSymbol" y="438.5" /></g><g class="Box PhysicalFunction" id="_XcdE85foEeymfMCyhvLdiA"><rect class="PhysicalFunction" height="51" style="stroke-width: 1" width="189" x="865.5" y="317.5" /><text class="PhysicalFunction" dominant-baseline="middle" style="fill: #095C2E" text-anchor="middle" x="865" y="317"><tspan x="959.5" xml:space="preserve" y="336.0714285714286">Maintain Vapourisation</tspan><tspan x="959.5" xml:space="preserve" y="348.92857142857144">Pressure</tspan></text><use height="20" width="20" x="877.3571428571429" xlink:href="#PhysicalFunctionSymbol" y="332.5" /></g><g class="Box FOP" id="_XcmO6pfoEeymfMCyhvLdiA"><use class="FOP" height="10" transform="rotate(180 949.5 365.5)" width="10" x="944.5" xlink:href="#PortSymbol" y="360.5" /></g><g class="Box PhysicalFunction" id="_XcdE9pfoEeymfMCyhvLdiA"><rect class="PhysicalFunction" height="61" style="stroke-width: 1" width="209" x="845.5" y="507.5" /><text class="PhysicalFunction" dominant-baseline="middle" style="fill: #095C2E" text-anchor="middle" x="845" y="507"><tspan x="949.5" xml:space="preserve" y="537.5">Maintain Storage Pressure</tspan></text><use height="20" width="20" x="858.7857142857143" xlink:href="#PhysicalFunctionSymbol" y="527.5" /></g><g class="Box FOP" id="_Xcm18pfoEeymfMCyhvLdiA"><use class="FOP" height="10" transform="rotate(90 1051.5 543.5)" width="10" x="1046.5" xlink:href="#PortSymbol" y="538.5" /></g><g class="Box PhysicalComponent" id="_fq7Xs5fnEeymfMCyhvLdiA"><rect class="PhysicalComponent" height="151" style="fill: url(&quot;#CustomGradient_C3E6FF_96B1DA&quot;); stroke: #4A4A97; stroke-width: 1" width="499" x="585.5" y="718.5" /><text class="PhysicalComponent" dominant-baseline="middle" text-anchor="middle" x="585" y="718"><tspan x="834.5" xml:space="preserve" y="729.4285714285714">Cryogenic cooler</tspan></text></g><g class="Box PhysicalFunction" id="_b5ClAJfoEeymfMCyhvLdiA"><rect class="PhysicalFunction" height="101" style="stroke-width: 1" width="441" x="615.5" y="747.5" /><text class="PhysicalFunction" dominant-baseline="middle" style="fill: #095C2E" text-anchor="middle" x="615" y="747"><tspan x="835.5" xml:space="preserve" y="797.5">Cool oxygen to liquidification temperature</tspan></text><use height="20" width="20" x="702.6428571428571" xlink:href="#PhysicalFunctionSymbol" y="787.5" /></g><g class="Box FIP" id="_b5IEmJfoEeymfMCyhvLdiA"><use class="FIP" height="10" transform="rotate(-180 711.5 750.5)" width="10" x="706.5" xlink:href="#PortSymbol" y="745.5" /></g><g class="Box FIP" id="_b5IEnJfoEeymfMCyhvLdiA"><use class="FIP" height="10" transform="rotate(-180 661.5 750.5)" width="10" x="656.5" xlink:href="#PortSymbol" y="745.5" /></g><g class="Box FOP" id="_b5IEoJfoEeymfMCyhvLdiA"><use class="FOP" height="10" transform="rotate(90 1053.5 813.5)" width="10" x="1048.5" xlink:href="#PortSymbol" y="808.5" /></g><g class="Box FOP" id="_b5IropfoEeymfMCyhvLdiA"><use class="FOP" height="10" transform="rotate(180 706.5 845.5)" width="10" x="701.5" xlink:href="#PortSymbol" y="840.5" /></g><g class="Box PhysicalComponent" id="_plO0MGGuEeyJ3eS83iqQLw"><rect class="PhysicalComponent" height="741" style="stroke-width: 1" width="850" x="1141.5" y="254.5" /><text class="PhysicalComponent" dominant-baseline="middle" text-anchor="middle" x="1141" y="254"><tspan x="1566.0" xml:space="preserve" y="265.42857142857144">Oxygen Storage System</tspan></text></g><g class="Box PhysicalComponent" id="_t9q94G1QEeyGAcBgdGuPdQ"><rect class="PhysicalComponent" height="161" style="stroke-width: 1" width="729" x="1155.5" y="798.5" /><text class="PhysicalComponent" dominant-baseline="middle" text-anchor="middle" x="1155" y="798"><tspan x="1519.5" xml:space="preserve" y="809.4285714285714">Emergency Exit Valve</tspan></text></g><g class="Box PhysicalComponent" id="_2HgB8GGuEeyJ3eS83iqQLw"><rect class="PhysicalComponent" height="109" style="fill: url(&quot;#CustomGradient_C3E6FF_96B1DA&quot;); stroke: #4A4A97; stroke-width: 1" width="611" x="1190.5" y="832.5" /><text class="PhysicalComponent" dominant-baseline="middle" text-anchor="middle" x="1190" y="832"><tspan x="1495.5" xml:space="preserve" y="843.4285714285714">Emergency Valve</tspan></text></g><g class="Box PhysicalFunction" id="_hkwEsGGwEeyJ3eS83iqQLw"><rect class="PhysicalFunction" height="71" style="stroke-width: 1" width="241" x="1220.5" y="861.5" /><text class="PhysicalFunction" dominant-baseline="middle" style="fill: #095C2E" text-anchor="middle" x="1220" y="861"><tspan x="1340.5" xml:space="preserve" y="896.5">Vent Tank in case of emergency</tspan></text><use height="20" width="20" x="1235.5" xlink:href="#PhysicalFunctionSymbol" y="886.5" /></g><g class="Box FIP" id="_kS2CpGGwEeyJ3eS83iqQLw"><use class="FIP" height="10" transform="rotate(-180 1331.5 864.5)" width="10" x="1326.5" xlink:href="#PortSymbol" y="859.5" /></g><g class="Box PhysicalComponent" id="_zlN1MG1QEeyGAcBgdGuPdQ"><rect class="PhysicalComponent" height="469" style="stroke-width: 1" width="729" x="1155.5" y="308.5" /><text class="PhysicalComponent" dominant-baseline="middle" text-anchor="middle" x="1155" y="308"><tspan x="1519.5" xml:space="preserve" y="319.42857142857144">Storage Tank</tspan></text></g><g class="Box PhysicalComponent" id="_r7Q3cGGuEeyJ3eS83iqQLw"><rect class="PhysicalComponent" height="411" style="fill: url(&quot;#CustomGradient_C3E6FF_96B1DA&quot;); stroke: #4A4A97; stroke-width: 1" width="661" x="1180.5" y="332.5" /><text class="PhysicalComponent" dominant-baseline="middle" text-anchor="middle" x="1180" y="332"><tspan x="1510.5" xml:space="preserve" y="343.42857142857144">Storage Tank</tspan></text></g><g class="Box PhysicalFunction" id="__FNuYGGvEeyJ3eS83iqQLw"><rect class="PhysicalFunction" height="341" style="stroke-width: 1" width="591" x="1220.5" y="371.5" /><text class="PhysicalFunction" dominant-baseline="middle" style="fill: #095C2E" text-anchor="middle" x="1220" y="371"><tspan x="1515.5" xml:space="preserve" y="541.5">Store Pure Oxygen</tspan></text><use height="20" width="20" x="1445.5" xlink:href="#PhysicalFunctionSymbol" y="531.5" /></g><g class="Box FIP" id="__FRY1mGvEeyJ3eS83iqQLw"><use class="FIP" height="10" transform="rotate(0 1701.5 709.5)" width="10" x="1696.5" xlink:href="#PortSymbol" y="704.5" /></g><g class="Box FIP" id="__FR_02GvEeyJ3eS83iqQLw"><use class="FIP" height="10" transform="rotate(90 1223.5 543.5)" width="10" x="1218.5" xlink:href="#PortSymbol" y="538.5" /></g><g class="Box FIP" id="__FR_12GvEeyJ3eS83iqQLw"><use class="FIP" height="10" transform="rotate(90 1223.5 687.5)" width="10" x="1218.5" xlink:href="#PortSymbol" y="682.5" /></g><g class="Box FOP" id="__FR_22GvEeyJ3eS83iqQLw"><use class="FOP" height="10" transform="rotate(0 1371.5 374.5)" width="10" x="1366.5" xlink:href="#PortSymbol" y="369.5" /></g><g class="Box FOP" id="__FR_32GvEeyJ3eS83iqQLw"><use class="FOP" height="10" transform="rotate(0 1326.5 374.5)" width="10" x="1321.5" xlink:href="#PortSymbol" y="369.5" /></g><g class="Box FOP" id="_kS2CoGGwEeyJ3eS83iqQLw"><use class="FOP" height="10" transform="rotate(180 1326.5 709.5)" width="10" x="1321.5" xlink:href="#PortSymbol" y="704.5" /></g><g class="Box PhysicalComponent" id="_YeXqZJfnEeymfMCyhvLdiA"><rect class="PhysicalComponent" height="301" style="stroke-width: 1" width="1901" x="100.5" y="1054.5" /><text class="PhysicalComponent" dominant-baseline="middle" text-anchor="middle" x="100" y="1054"><tspan x="1050.5" xml:space="preserve" y="1065.4285714285713">Oxygen Recovery Thermal Control System</tspan></text></g><g class="Box PhysicalComponent" id="_YeaGoJfnEeymfMCyhvLdiA"><rect class="PhysicalComponent" height="238" style="stroke-width: 1" width="511" x="1375.5" y="1078.5" /><text class="PhysicalComponent" dominant-baseline="middle" text-anchor="middle" x="1375" y="1078"><tspan x="1630.5" xml:space="preserve" y="1089.4285714285713">Sunlight Heat Shield Oxygen Recovery</tspan></text></g><g class="Box PhysicalComponent" id="_kvxKkJfnEeymfMCyhvLdiA"><rect class="PhysicalComponent" height="139" style="fill: url(&quot;#CustomGradient_C3E6FF_96B1DA&quot;); stroke: #4A4A97; stroke-width: 1" width="460" x="1400.5" y="1143.5" /><text class="PhysicalComponent" dominant-baseline="middle" text-anchor="middle" x="1400" y="1143"><tspan x="1630.0" xml:space="preserve" y="1154.4285714285713">Sunlight Heat Shield 2</tspan></text></g><g class="Box PhysicalFunction" id="_Zg5o8JfoEeymfMCyhvLdiA"><rect class="PhysicalFunction" height="50" style="stroke-width: 1" width="291" x="1465.5" y="1172.5" /><text class="PhysicalFunction" dominant-baseline="middle" style="fill: #095C2E" text-anchor="middle" x="1465" y="1172"><tspan x="1610.5" xml:space="preserve" y="1197.0">Protect Recovery System from sun heat</tspan></text><use height="20" width="20" x="1485.5" xlink:href="#PhysicalFunctionSymbol" y="1187.0" /></g><g class="Box FIP" id="_ZhA9tZfoEeymfMCyhvLdiA"><use class="FIP" height="10" transform="rotate(0 1565.5 1219.5)" width="10" x="1560.5" xlink:href="#PortSymbol" y="1214.5" /></g><g class="Box CP_IN" id="_kvxxoZfnEeymfMCyhvLdiA"><use class="CP_IN" height="10" transform="rotate(180 1525.5 1279.5)" width="10" x="1520.5" xlink:href="#ComponentPortSymbol" y="1274.5" /></g><g class="Box PhysicalComponent" id="_YeYRcJfnEeymfMCyhvLdiA"><rect class="PhysicalComponent" height="239" style="stroke-width: 1" width="431" x="145.5" y="1078.5" /><text class="PhysicalComponent" dominant-baseline="middle" text-anchor="middle" x="145" y="1078"><tspan x="360.5" xml:space="preserve" y="1088.0">Cold Radiator</tspan></text></g><g class="Box PhysicalComponent" id="_hliDMJfnEeymfMCyhvLdiA"><rect class="PhysicalComponent" height="139" style="fill: url(&quot;#CustomGradient_C3E6FF_96B1DA&quot;); stroke: #4A4A97; stroke-width: 1" width="341" x="190.5" y="1122.5" /><text class="PhysicalComponent" dominant-baseline="middle" text-anchor="middle" x="190" y="1122"><tspan x="360.5" xml:space="preserve" y="1132.0">Radiator</tspan></text></g><g class="Box PhysicalFunction" id="_e1a2kJfoEeymfMCyhvLdiA"><rect class="PhysicalFunction" height="61" style="stroke-width: 1" width="241" x="230.5" y="1161.5" /><text class="PhysicalFunction" dominant-baseline="middle" style="fill: #095C2E" text-anchor="middle" x="230" y="1161"><tspan x="350.5" xml:space="preserve" y="1185.0714285714284">Remove Heat from Oxygen Recovery to</tspan><tspan x="350.5" xml:space="preserve" y="1197.9285714285713">environment</tspan></text><use height="20" width="20" x="228" xlink:href="#PhysicalFunctionSymbol" y="1181.5" /></g><g class="Box FIP" id="_e1iLWpfoEeymfMCyhvLdiA"><use class="FIP" height="10" transform="rotate(-90 468.5 1197.5)" width="10" x="463.5" xlink:href="#PortSymbol" y="1192.5" /></g><g class="Box PhysicalComponent" id="_YeYRc5fnEeymfMCyhvLdiA"><rect class="PhysicalComponent" height="238" style="stroke-width: 1" width="761" x="595.5" y="1078.5" /><text class="PhysicalComponent" dominant-baseline="middle" text-anchor="middle" x="595" y="1078"><tspan x="975.5" xml:space="preserve" y="1089.4285714285713">Oxygen Recovery Heat Transfer System</tspan></text></g><g class="Box PhysicalComponent" id="_goucsJfnEeymfMCyhvLdiA"><rect class="PhysicalComponent" height="161" style="fill: url(&quot;#CustomGradient_C3E6FF_96B1DA&quot;); stroke: #4A4A97; stroke-width: 1" width="719" x="610.5" y="1122.5" /><text class="PhysicalComponent" dominant-baseline="middle" text-anchor="middle" x="610" y="1122"><tspan x="969.5" xml:space="preserve" y="1133.4285714285713">Oxygen Recovery Heat Transfer System</tspan></text></g><g class="Box PhysicalFunction" id="_av8O8JfoEeymfMCyhvLdiA"><rect class="PhysicalFunction" height="91" style="stroke-width: 1" width="301" x="640.5" y="1161.5" /><text class="PhysicalFunction" dominant-baseline="middle" style="fill: #095C2E" text-anchor="middle" x="640" y="1161"><tspan x="790.5" xml:space="preserve" y="1206.5">Transfer Heat from CryoCompressor to Radiator</tspan></text><use height="20" width="20" x="641.9285714285714" xlink:href="#PhysicalFunctionSymbol" y="1196.5" /></g><g class="Box FIP" id="_awDjvpfoEeymfMCyhvLdiA"><use class="FIP" height="10" transform="rotate(-180 711.5 1164.5)" width="10" x="706.5" xlink:href="#PortSymbol" y="1159.5" /></g><g class="Box FOP" id="_awEKwZfoEeymfMCyhvLdiA"><use class="FOP" height="10" transform="rotate(270 643.5 1197.5)" width="10" x="638.5" xlink:href="#PortSymbol" y="1192.5" /></g><g class="Box PhysicalFunction" id="_av-rMJfoEeymfMCyhvLdiA"><rect class="PhysicalFunction" height="91" style="stroke-width: 1" width="331" x="980.5" y="1171.5" /><text class="PhysicalFunction" dominant-baseline="middle" style="fill: #095C2E" text-anchor="middle" x="980" y="1171"><tspan x="1145.5" xml:space="preserve" y="1216.5">Transfer Heat in Storage to Radiator</tspan></text><use height="20" width="20" x="1029.0714285714287" xlink:href="#PhysicalFunctionSymbol" y="1206.5" /></g><g class="Box FOP" id="_awEKxZfoEeymfMCyhvLdiA"><use class="FOP" height="10" transform="rotate(0 1066.5 1174.5)" width="10" x="1061.5" xlink:href="#PortSymbol" y="1169.5" /></g><g class="Edge FunctionalExchange" id="_kS2ps2GwEeyJ3eS83iqQLw"><path class="Edge" d="M 1321.5 709.5 1326.5 864.5" /><rect class="AnnotationBB" height="13" width="82" x="1289" y="776" /><text class="Annotation" dominant-baseline="middle" text-anchor="middle" x="1277.0" y="776"><tspan x="1331.0" xml:space="preserve" y="782.4285714285714">VentingOxygen</tspan></text><use height="20" width="20" x="1270.2857142857142" xlink:href="#FunctionalExchangeSymbol" y="772.4285714285714" /></g><g class="Edge FunctionalExchange" id="_Xcp5RJfoEeymfMCyhvLdiA"><path class="Edge" d="M 741.5 375.5 746.5 580.5" /><rect class="AnnotationBB" height="10" width="189" x="657" y="433" /><text class="Annotation" dominant-baseline="middle" text-anchor="middle" x="645.0" y="433"><tspan x="752.5" xml:space="preserve" y="438.0">PowerGasTransferOutofCondenser</tspan></text><use height="20" width="20" x="638.2142857142857" xlink:href="#FunctionalExchangeSymbol" y="428.0" /></g><g class="Edge FunctionalExchange" id="_Xcp5TZfoEeymfMCyhvLdiA"><path class="Edge" d="M 1046.5 543.5 1218.5 543.5" /><rect class="AnnotationBB" height="13" width="89" x="1095" y="534" /><text class="Annotation" dominant-baseline="middle" text-anchor="middle" x="1083.0" y="534"><tspan x="1140.5" xml:space="preserve" y="540.4285714285714">StoragePressure</tspan></text><use height="20" width="20" x="1076.2142857142858" xlink:href="#FunctionalExchangeSymbol" y="530.4285714285714" /></g><g class="Edge FIPAllocation" id="_ZhBkwZfoEeymfMCyhvLdiA"><path class="Edge" d="M 1520.5 1279.5 1560.5 1219.5" style="stroke: #E08503; stroke-dasharray: 5; stroke-width: 2" /><rect class="AnnotationBB" height="0" width="0" x="1536" y="1244" /><text class="Annotation" dominant-baseline="middle" text-anchor="middle" x="1536" y="1244"><tspan x="1536.0" xml:space="preserve" y="1244.0" /></text></g><g class="Edge FunctionalExchange" id="_awEx6JfoEeymfMCyhvLdiA"><path class="Edge" d="M 1061.5 1174.5 1066.5 1001.5 1701.5 1001.5 1696.5 709.5" /><rect class="AnnotationBB" height="13" width="112" x="1472" y="958" /><text class="Annotation" dominant-baseline="middle" text-anchor="middle" x="1460.0" y="958"><tspan x="1529.0" xml:space="preserve" y="964.4285714285714">StorageTemperature</tspan></text><use height="20" width="20" x="1453.2857142857142" xlink:href="#FunctionalExchangeSymbol" y="954.4285714285714" /></g><g class="Edge FunctionalExchange" id="_b5LH7JfoEeymfMCyhvLdiA"><path class="Edge" d="M 701.5 675.5 706.5 750.5" /><rect class="AnnotationBB" height="13" width="128" x="649" y="691" /><text class="Annotation" dominant-baseline="middle" text-anchor="middle" x="637.0" y="691"><tspan x="714.0" xml:space="preserve" y="697.4285714285714">CompressedOxygenGas</tspan></text><use height="20" width="20" x="630.4285714285714" xlink:href="#FunctionalExchangeSymbol" y="687.4285714285714" /></g><g class="Edge FunctionalExchange" id="_b5LH9ZfoEeymfMCyhvLdiA"><path class="Edge" d="M 701.5 845.5 706.5 1164.5" /><rect class="AnnotationBB" height="13" width="143" x="643" y="998" /><text class="Annotation" dominant-baseline="middle" text-anchor="middle" x="631.0" y="998"><tspan x="715.5" xml:space="preserve" y="1004.4285714285714">HeatFromOxygenRecovery</tspan></text><use height="20" width="20" x="624.0714285714286" xlink:href="#FunctionalExchangeSymbol" y="994.4285714285714" /></g><g class="Edge FunctionalExchange" id="_d_AzFJfoEeymfMCyhvLdiA"><path class="Edge" d="M 468.5 543.5 545.5 543.5 545.5 653.5 603.5 653.5" /><rect class="AnnotationBB" height="13" width="99" x="436" y="527" /><text class="Annotation" dominant-baseline="middle" text-anchor="middle" x="424.0" y="527"><tspan x="486.5" xml:space="preserve" y="533.4285714285714">Pressurize Oxygen</tspan></text><use height="20" width="20" x="417.2142857142857" xlink:href="#FunctionalExchangeSymbol" y="523.4285714285714" /></g><g class="Edge FunctionalExchange" id="_d_AzHZfoEeymfMCyhvLdiA"><path class="Edge" d="M 261.5 700.5 266.5 625.5" /><rect class="AnnotationBB" height="13" width="188" x="173" y="650" /><text class="Annotation" dominant-baseline="middle" text-anchor="middle" x="161.0" y="650"><tspan x="268.0" xml:space="preserve" y="656.4285714285714">RemoveDustFromProducedOxygen</tspan></text><use height="20" width="20" x="154.42857142857144" xlink:href="#FunctionalExchangeSymbol" y="646.4285714285714" /></g><g class="Edge FunctionalExchange" id="_e1kApJfoEeymfMCyhvLdiA"><path class="Edge" d="M 638.5 1197.5 463.5 1197.5" /><rect class="AnnotationBB" height="10" width="60" x="524" y="1197" /><text class="Annotation" dominant-baseline="middle" text-anchor="middle" x="512.0" y="1197"><tspan x="555.0" xml:space="preserve" y="1202.0">OxRecHeat</tspan></text><use height="20" width="20" x="505.0" xlink:href="#FunctionalExchangeSymbol" y="1192.0" /></g></svg>