<svg baseProfile="full" class="PhysicalArchitectureBlank" height="841" version="1.1" viewBox="100 -29 1539 841" width="1539" xmlns="http://www.w3.org/2000/svg" xmlns:ev="http://www.w3.org/2001/xml-events" xmlns:xlink="http://www.w3.org/1999/xlink"><defs><style>.PhysicalArchitectureBlank * { shape-rendering: geometricPrecision; }
.PhysicalArchitectureBlank text { font-family: "Segoe UI"; font-size: 8pt; }
.PhysicalArchitectureBlank g { cursor: pointer; }
.PhysicalArchitectureBlank g.Edge &gt; path { fill: none; stroke: rgb(0, 0, 0); }
.PhysicalArchitectureBlank g.Box &gt; line { stroke: #000000; }
.PhysicalArchitectureBlank g.Box &gt; rect, .PhysicalArchitectureBlank g.Box &gt; use { fill: transparent; stroke: #000000; stroke-width: 1; }
.PhysicalArchitectureBlank g.Box.Annotation &gt; line { stroke: none; }
.PhysicalArchitectureBlank g.Box.Annotation &gt; rect, .PhysicalArchitectureBlank g.Box.Annotation &gt; use { fill: none; stroke: none; }
.PhysicalArchitectureBlank g.Box.Constraint &gt; line { stroke: #888888; }
.PhysicalArchitectureBlank g.Box.Constraint &gt; rect, .PhysicalArchitectureBlank g.Box.Constraint &gt; use { fill: #FFF5B5; stroke: #888888; }
.PhysicalArchitectureBlank g.Box.Constraint &gt; text { fill: #000000; }
.PhysicalArchitectureBlank g.Box.Note &gt; line { stroke: #FFCC66; }
.PhysicalArchitectureBlank g.Box.Note &gt; rect, .PhysicalArchitectureBlank g.Box.Note &gt; use { fill: #FFFFCB; stroke: #FFCC66; }
.PhysicalArchitectureBlank g.Box.Note &gt; text { fill: #000000; }
.PhysicalArchitectureBlank g.Box.Requirement &gt; line { stroke: #72496E; }
.PhysicalArchitectureBlank g.Box.Requirement &gt; rect, .PhysicalArchitectureBlank g.Box.Requirement &gt; use { fill: #D9C4D7; stroke: #72496E; }
.PhysicalArchitectureBlank g.Box.Requirement &gt; text { fill: #000000; }
.PhysicalArchitectureBlank g.Box.Text &gt; line { stroke: transparent; }
.PhysicalArchitectureBlank g.Box.Text &gt; rect, .PhysicalArchitectureBlank g.Box.Text &gt; use { stroke: transparent; }
.PhysicalArchitectureBlank g.Edge &gt; rect { fill: none; stroke: none; }
.PhysicalArchitectureBlank g.Circle &gt; circle { fill: #000000; stroke: none; }
.PhysicalArchitectureBlank g.Edge &gt; path { stroke-width: 1; }
.PhysicalArchitectureBlank g.Edge.Connector &gt; rect { fill: none; stroke: none; }
.PhysicalArchitectureBlank g.Circle.Connector &gt; circle { fill: #B0B0B0; stroke: none; }
.PhysicalArchitectureBlank g.Edge.Connector &gt; path { stroke: #B0B0B0; stroke-dasharray: 1; }
.PhysicalArchitectureBlank g.Edge.Constraint &gt; rect { fill: none; stroke: none; }
.PhysicalArchitectureBlank g.Circle.Constraint &gt; circle { fill: #000000; stroke: none; }
.PhysicalArchitectureBlank g.Edge.Constraint &gt; path { stroke: #000000; stroke-dasharray: 1, 3; marker-end: url(#FineArrowMark_000000); stroke-linecap: round; }
.PhysicalArchitectureBlank g.Edge.Note &gt; rect { fill: none; stroke: none; }
.PhysicalArchitectureBlank g.Circle.Note &gt; circle { fill: #000000; stroke: none; }
.PhysicalArchitectureBlank g.Edge.Note &gt; path { stroke: #000000; stroke-dasharray: 1, 3; }
.PhysicalArchitectureBlank g.Edge.RequirementRelation &gt; rect { fill: none; stroke: none; }
.PhysicalArchitectureBlank g.Circle.RequirementRelation &gt; circle { fill: #72496E; stroke: none; }
.PhysicalArchitectureBlank g.Edge.RequirementRelation &gt; path { stroke: #72496E; stroke-width: 2; marker-end: url(#FineArrowMark_72496E); stroke-dasharray: 5; }
.PhysicalArchitectureBlank g.Edge.RequirementRelation &gt; text { fill: #72496E; }
.PhysicalArchitectureBlank g.Box.CP_IN &gt; line { stroke: #000000; }
.PhysicalArchitectureBlank g.Box.CP_IN &gt; rect, .PhysicalArchitectureBlank g.Box.CP_IN &gt; use { fill: #FFFFFF; stroke: #000000; }
.PhysicalArchitectureBlank g.Box.CP_OUT &gt; line { stroke: #000000; }
.PhysicalArchitectureBlank g.Box.CP_OUT &gt; rect, .PhysicalArchitectureBlank g.Box.CP_OUT &gt; use { fill: #FFFFFF; stroke: #000000; }
.PhysicalArchitectureBlank g.Box.CP_INOUT &gt; line { stroke: #000000; }
.PhysicalArchitectureBlank g.Box.CP_INOUT &gt; rect, .PhysicalArchitectureBlank g.Box.CP_INOUT &gt; use { fill: #FFFFFF; stroke: #000000; }
.PhysicalArchitectureBlank g.Box.PP &gt; line { stroke: #7B694F; }
.PhysicalArchitectureBlank g.Box.PP &gt; rect, .PhysicalArchitectureBlank g.Box.PP &gt; use { fill: #FFF477; stroke: #7B694F; }
.PhysicalArchitectureBlank g.Box.PhysicalComponent &gt; line { stroke: #7B694F; }
.PhysicalArchitectureBlank g.Box.PhysicalComponent &gt; rect, .PhysicalArchitectureBlank g.Box.PhysicalComponent &gt; use { fill: url("#.PhysicalComponentFillGradient"); stroke: #7B694F; }
.PhysicalArchitectureBlank g.Box.PhysicalComponent &gt; text { fill: #000000; }
.PhysicalArchitectureBlank g.Edge.PhysicalLink &gt; rect { fill: none; stroke: none; }
.PhysicalArchitectureBlank g.Circle.PhysicalLink &gt; circle { fill: #EF2929; stroke: none; }
.PhysicalArchitectureBlank g.Edge.PhysicalLink &gt; path { stroke: #EF2929; stroke-width: 2; }
.PhysicalArchitectureBlank g.Edge.PhysicalLink &gt; text { fill: #EF2929; }
</style><symbol id="ErrorSymbol" viewBox="0 0 2.6458 2.6458"><path d="M 0,0 2.6458333,2.6458333 M 0,2.6458333 2.6458333,0" style="fill: none; stroke: red; stroke-width: 0.5;" /></symbol><symbol id="RequirementSymbol" style="stroke: none;" viewBox="0 0 50 50"><path d="M 12.806813,6.5702324 A 6.244379,5.8113241 0 0 1 6.5624342,12.381557 6.244379,5.8113241 0 0 1 0.31805515,6.5702324 6.244379,5.8113241 0 0 1 6.5624342,0.75890827 6.244379,5.8113241 0 0 1 12.806813,6.5702324 Z" style="fill: #431964" /><path d="m 4.3228658,5.8752475 h 2.9514721 q 0.2945581,0 0.5184223,-0.1413879 Q 8.0225155,5.5865806 8.1462299,5.3214783 8.2699443,5.056376 8.2758355,4.7029063 v 0 q 0,-0.3475786 -0.1237144,-0.6126808 Q 8.0284067,3.8251232 7.7986513,3.6837353 7.5747872,3.5364562 7.2743379,3.5364562 H 4.3228658 V 2.1873801 h 2.9927103 q 0.7246129,0 1.2724909,0.3122316 0.5478781,0.3122316 0.8483274,0.8836743 0.3063404,0.5714427 0.3063404,1.3196203 v 0 q 0,0.7540687 -0.3063404,1.3255114 Q 9.1359451,6.5998605 8.5821759,6.912092 8.0342978,7.2243236 7.3155761,7.2243236 H 4.3228658 Z M 3.7396407,2.1873801 H 5.1476285 V 10.759021 H 3.7396407 Z M 6.3906636,6.9592213 7.8516718,6.6882279 10.102096,10.759021 H 8.4113322 Z" style="fill:#ffffff;" /></symbol><symbol id="PhysicalLinkSymbol" viewBox="0 0 40 30"><linearGradient id="PhysicalLinkSymbol-gradient" x1="0" x2="1" y1="0" y2="1"><stop offset="0.0" stop-color="#DFDF00" stop-opacity="1" /><stop offset="1.0" stop-color="#E8E809" stop-opacity="1" /></linearGradient><linearGradient id="PhysicalLinkSymbol-gradientreverse" x1="0" x2="1" y1="0" y2="1"><stop offset="0.0" stop-color="#E8E809" stop-opacity="1" /><stop offset="1.0" stop-color="#DFDF00" stop-opacity="1" /></linearGradient><g style="stroke:#000;stroke-width:2;"><path d="M 36.190065,5.0377724 V 24.962228 H 26.17482 V 5.0377724 Z" style="fill: url(#PhysicalLinkSymbol-gradientreverse)" /><path d="m 14.372107,10 h 12.622435 c 0.926189,0.585267 1.836022,1.274509 2.268178,5 -0.208657,2.812473 -0.954601,4.503809 -2.273297,5 H 14.296948" style="fill: #F60A0A" /><path d="M 3.9464908,5.0048246 V 24.995175 H 10.87518 C 12.433713,24.159139 15.158267,20.291241 15.313795,15 15.498614,11.583142 14.059659,6.6240913 10.87518,5.0048246 c -2.2179509,0 -4.5908341,0 -6.9286892,0 z" style="fill: url(#PhysicalLinkSymbol-gradient)" /></g></symbol><symbol id="ComponentExchangeSymbol" viewBox="0 0 40 30"><linearGradient id="ComponentExchangeSymbol-gradient" x1="0" x2="1" y1="0" y2="1"><stop offset="0.0" stop-color="#8FA5B6" stop-opacity="1" /><stop offset="1.0" stop-color="#E0E9F3" stop-opacity="1" /></linearGradient><linearGradient id="ComponentExchangeSymbol-gradientreverse" x1="0" x2="1" y1="0" y2="1"><stop offset="0.0" stop-color="#E0E9F3" stop-opacity="1" /><stop offset="1.0" stop-color="#8FA5B6" stop-opacity="1" /></linearGradient><g style="stroke:#000;stroke-width:2;"><path d="M 36.190065,5.0377724 V 24.962228 H 26.17482 V 5.0377724 Z" style="fill: url(#ComponentExchangeSymbol-gradientreverse)" /><path d="m 14.372107,10 h 12.622435 c 0.926189,0.585267 1.836022,1.274509 2.268178,5 -0.208657,2.812473 -0.954601,4.503809 -2.273297,5 H 14.296948" style="fill: #A3BCD0" /><path d="M 3.9464908,5.0048246 V 24.995175 H 10.87518 C 12.433713,24.159139 15.158267,20.291241 15.313795,15 15.498614,11.583142 14.059659,6.6240913 10.87518,5.0048246 c -2.2179509,0 -4.5908341,0 -6.9286892,0 z" style="fill: url(#ComponentExchangeSymbol-gradient)" /></g></symbol><symbol id="ComponentPortSymbol" viewBox="0 0 10 10"><path d="M0 0h10v10H0z" /><path d="M 2,2 5,7 8,2" /></symbol><symbol id="PortSymbol" viewBox="0 0 10 10"><path d="M0 0h10v10H0z" /><path d="M5 1L1 9h8z" fill="#fff" /></symbol><linearGradient id=".PhysicalComponentFillGradient" x1="0%" x2="0%" y1="0%" y2="100%"><stop offset="0" stop-color="#FFFFDC" /><stop offset="1" stop-color="#FFFCB7" /></linearGradient><linearGradient id="CustomGradient_C3E6FF_96B1DA" x1="0" x2="0" y1="0" y2="1"><stop offset="0.0" stop-color="#C3E6FF" stop-opacity="1" /><stop offset="1.0" stop-color="#96B1DA" stop-opacity="1" /></linearGradient></defs><rect fill="white" height="841" stroke="none" width="1539" x="100" y="-29" /><g class="Box PhysicalComponent" id="_plO0MGGuEeyJ3eS83iqQLw"><rect class="PhysicalComponent" height="821" style="stroke-width: 1" width="1519" x="110.5" y="-18.5" /><text class="PhysicalComponent" dominant-baseline="middle" text-anchor="middle" x="110" y="-19"><tspan x="869.5" xml:space="preserve" y="-7.571428571428571">Oxygen Storage System</tspan></text></g><g class="Box PhysicalComponent" id="_t9q94G1QEeyGAcBgdGuPdQ"><rect class="PhysicalComponent" height="161" style="stroke-width: 1" width="329" x="215.5" y="524.5" /><text class="PhysicalComponent" dominant-baseline="middle" text-anchor="middle" x="215" y="524"><tspan x="379.5" xml:space="preserve" y="535.4285714285714">Emergency Exit Valve</tspan></text></g><g class="Box PhysicalComponent" id="_2HgB8GGuEeyJ3eS83iqQLw"><rect class="PhysicalComponent" height="101" style="fill: url(&quot;#CustomGradient_C3E6FF_96B1DA&quot;); stroke: #4A4A97; stroke-width: 1" width="261" x="250.5" y="558.5" /><text class="PhysicalComponent" dominant-baseline="middle" text-anchor="middle" x="250" y="558"><tspan x="380.5" xml:space="preserve" y="569.4285714285714">Emergency Valve</tspan></text></g><g class="Box PhysicalFunction" id="_hkwEsGGwEeyJ3eS83iqQLw"><rect class="PhysicalFunction" height="51" style="fill: #C5FFA6; stroke: #095C2E; stroke-width: 1" width="201" x="280.5" y="587.5" /><text class="PhysicalFunction" dominant-baseline="middle" style="fill: #095C2E" text-anchor="middle" x="280" y="587"><tspan x="380.5" xml:space="preserve" y="612.5">Vent Tank in case of emergency</tspan></text></g><g class="Box FIP"><use class="FIP" height="10" transform="rotate(-90 478.5 623.5)" width="10" x="473.5" xlink:href="#PortSymbol" y="618.5" /></g><g class="Box PhysicalComponent" id="_zlN1MG1QEeyGAcBgdGuPdQ"><rect class="PhysicalComponent" height="269" style="stroke-width: 1" width="729" x="785.5" y="234.5" /><text class="PhysicalComponent" dominant-baseline="middle" text-anchor="middle" x="785" y="234"><tspan x="1149.5" xml:space="preserve" y="245.42857142857142">Storage Tank</tspan></text></g><g class="Box PhysicalComponent" id="_r7Q3cGGuEeyJ3eS83iqQLw"><rect class="PhysicalComponent" height="201" style="fill: url(&quot;#CustomGradient_C3E6FF_96B1DA&quot;); stroke: #4A4A97; stroke-width: 1" width="611" x="850.5" y="278.5" /><text class="PhysicalComponent" dominant-baseline="middle" text-anchor="middle" x="850" y="278"><tspan x="1155.5" xml:space="preserve" y="289.42857142857144">Storage Tank</tspan></text></g><g class="Box PhysicalFunction" id="__FNuYGGvEeyJ3eS83iqQLw"><rect class="PhysicalFunction" height="101" style="fill: #C5FFA6; stroke: #095C2E; stroke-width: 1" width="361" x="980.5" y="347.5" /><text class="PhysicalFunction" dominant-baseline="middle" style="fill: #095C2E" text-anchor="middle" x="980" y="347"><tspan x="1160.5" xml:space="preserve" y="397.5">Store Pure Oxygen</tspan></text></g><g class="Box FIP"><use class="FIP" height="10" transform="rotate(-180 1036.5 350.5)" width="10" x="1031.5" xlink:href="#PortSymbol" y="345.5" /></g><g class="Box FIP"><use class="FIP" height="10" transform="rotate(0 1046.5 445.5)" width="10" x="1041.5" xlink:href="#PortSymbol" y="440.5" /></g><g class="Box FIP"><use class="FIP" height="10" transform="rotate(90 983.5 367.5)" width="10" x="978.5" xlink:href="#PortSymbol" y="362.5" /></g><g class="Box FOP"><use class="FOP" height="10" transform="rotate(0 1206.5 350.5)" width="10" x="1201.5" xlink:href="#PortSymbol" y="345.5" /></g><g class="Box FOP"><use class="FOP" height="10" transform="rotate(0 1066.5 350.5)" width="10" x="1061.5" xlink:href="#PortSymbol" y="345.5" /></g><g class="Box FOP"><use class="FOP" height="10" transform="rotate(270 983.5 433.5)" width="10" x="978.5" xlink:href="#PortSymbol" y="428.5" /></g><g class="Box PhysicalComponent" id="_eQQX4G1SEeyGAcBgdGuPdQ"><rect class="PhysicalComponent" height="181" style="stroke-width: 1" width="741" x="785.5" y="24.5" /><text class="PhysicalComponent" dominant-baseline="middle" text-anchor="middle" x="785" y="24"><tspan x="1155.5" xml:space="preserve" y="35.42857142857143">Storage Thermal Control System</tspan></text></g><g class="Box PhysicalComponent" id="_zTwH8GGuEeyJ3eS83iqQLw"><rect class="PhysicalComponent" height="141" style="fill: url(&quot;#CustomGradient_C3E6FF_96B1DA&quot;); stroke: #4A4A97; stroke-width: 1" width="621" x="830.5" y="48.5" /><text class="PhysicalComponent" dominant-baseline="middle" text-anchor="middle" x="830" y="48"><tspan x="1140.5" xml:space="preserve" y="59.42857142857143">Storage Thermal Control System</tspan></text></g><g class="Box PhysicalFunction" id="__FOVeWGvEeyJ3eS83iqQLw"><rect class="PhysicalFunction" height="91" style="fill: #C5FFA6; stroke: #095C2E; stroke-width: 1" width="271" x="1160.5" y="82.5" /><text class="PhysicalFunction" dominant-baseline="middle" style="fill: #095C2E" text-anchor="middle" x="1160" y="82"><tspan x="1295.5" xml:space="preserve" y="121.07142857142857">Convert Electricity into Heating or Cooling for</tspan><tspan x="1295.5" xml:space="preserve" y="133.92857142857142">Storage</tspan></text></g><g class="Box FIP"><use class="FIP" height="10" transform="rotate(-90 1428.5 133.5)" width="10" x="1423.5" xlink:href="#PortSymbol" y="128.5" /></g><g class="Box FOP"><use class="FOP" height="10" transform="rotate(270 1163.5 114.5)" width="10" x="1158.5" xlink:href="#PortSymbol" y="109.5" /></g><g class="Box PhysicalFunction" id="__FOVcGGvEeyJ3eS83iqQLw"><rect class="PhysicalFunction" height="91" style="fill: #C5FFA6; stroke: #095C2E; stroke-width: 1" width="191" x="890.5" y="82.5" /><text class="PhysicalFunction" dominant-baseline="middle" style="fill: #095C2E" text-anchor="middle" x="890" y="82"><tspan x="985.5" xml:space="preserve" y="127.5">Provide Storage Temperature</tspan></text></g><g class="Box FIP"><use class="FIP" height="10" transform="rotate(-90 1078.5 114.5)" width="10" x="1073.5" xlink:href="#PortSymbol" y="109.5" /></g><g class="Box FOP"><use class="FOP" height="10" transform="rotate(180 1036.5 170.5)" width="10" x="1031.5" xlink:href="#PortSymbol" y="165.5" /></g><g class="Box PhysicalComponent" id="_hpEGwG1SEeyGAcBgdGuPdQ"><rect class="PhysicalComponent" height="219" style="stroke-width: 1" width="729" x="785.5" y="544.5" /><text class="PhysicalComponent" dominant-baseline="middle" text-anchor="middle" x="785" y="544"><tspan x="1149.5" xml:space="preserve" y="555.4285714285714">Storage Pressure Control System</tspan></text></g><g class="Box PhysicalComponent" id="__nxWMG1SEeyGAcBgdGuPdQ"><rect class="PhysicalComponent" height="159" style="fill: url(&quot;#CustomGradient_C3E6FF_96B1DA&quot;); stroke: #4A4A97; stroke-width: 1" width="661" x="800.5" y="578.5" /><text class="PhysicalComponent" dominant-baseline="middle" text-anchor="middle" x="800" y="578"><tspan x="1130.5" xml:space="preserve" y="589.4285714285714">Storage Pressure Control System</tspan></text></g><g class="Box PhysicalFunction" id="__FOVc2GvEeyJ3eS83iqQLw"><rect class="PhysicalFunction" height="91" style="fill: #C5FFA6; stroke: #095C2E; stroke-width: 1" width="191" x="930.5" y="617.5" /><text class="PhysicalFunction" dominant-baseline="middle" style="fill: #095C2E" text-anchor="middle" x="930" y="617"><tspan x="1025.5" xml:space="preserve" y="662.5">Provide Storage Pressure</tspan></text></g><g class="Box FIP"><use class="FIP" height="10" transform="rotate(-90 1118.5 673.5)" width="10" x="1113.5" xlink:href="#PortSymbol" y="668.5" /></g><g class="Box FOP"><use class="FOP" height="10" transform="rotate(0 1046.5 620.5)" width="10" x="1041.5" xlink:href="#PortSymbol" y="615.5" /></g><g class="Box PhysicalFunction" id="__FO8gWGvEeyJ3eS83iqQLw"><rect class="PhysicalFunction" height="91" style="fill: #C5FFA6; stroke: #095C2E; stroke-width: 1" width="271" x="1170.5" y="617.5" /><text class="PhysicalFunction" dominant-baseline="middle" style="fill: #095C2E" text-anchor="middle" x="1170" y="617"><tspan x="1305.5" xml:space="preserve" y="662.5">Convert Electricity to Pressure for Storage</tspan></text></g><g class="Box FIP"><use class="FIP" height="10" transform="rotate(-90 1438.5 673.5)" width="10" x="1433.5" xlink:href="#PortSymbol" y="668.5" /></g><g class="Box FOP"><use class="FOP" height="10" transform="rotate(270 1173.5 673.5)" width="10" x="1168.5" xlink:href="#PortSymbol" y="668.5" /></g><g class="Box PhysicalComponent" id="_oTLOUG1SEeyGAcBgdGuPdQ"><rect class="PhysicalComponent" height="239" style="stroke-width: 1" width="591" x="155.5" y="224.5" /><text class="PhysicalComponent" dominant-baseline="middle" text-anchor="middle" x="155" y="224"><tspan x="450.5" xml:space="preserve" y="235.42857142857142">Storage Inlet System</tspan></text></g><g class="Box PhysicalComponent" id="_vTCjcG1SEeyGAcBgdGuPdQ"><rect class="PhysicalComponent" height="199" style="stroke-width: 1" width="269" x="180.5" y="247.5" /><text class="PhysicalComponent" dominant-baseline="middle" text-anchor="middle" x="180" y="247"><tspan x="314.5" xml:space="preserve" y="257.0">Valve Electrical Motor</tspan></text></g><g class="Box PhysicalComponent" id="_qLYtIG1SEeyGAcBgdGuPdQ"><rect class="PhysicalComponent" height="159" style="fill: url(&quot;#CustomGradient_C3E6FF_96B1DA&quot;); stroke: #4A4A97; stroke-width: 1" width="249" x="185.5" y="271.5" /><text class="PhysicalComponent" dominant-baseline="middle" text-anchor="middle" x="185" y="271"><tspan x="309.5" xml:space="preserve" y="282.42857142857144">Storage Inlet Valve Motor</tspan></text></g><g class="Box PhysicalFunction" id="__FO8hGGvEeyJ3eS83iqQLw"><rect class="PhysicalFunction" height="81" style="fill: #C5FFA6; stroke: #095C2E; stroke-width: 1" width="221" x="195.5" y="321.5" /><text class="PhysicalFunction" dominant-baseline="middle" style="fill: #095C2E" text-anchor="middle" x="195" y="321"><tspan x="305.5" xml:space="preserve" y="355.0714285714286">Convert Electricity into Gas Transfer to</tspan><tspan x="305.5" xml:space="preserve" y="367.92857142857144">Storage</tspan></text></g><g class="Box FIP"><use class="FIP" height="10" transform="rotate(90 198.5 349.5)" width="10" x="193.5" xlink:href="#PortSymbol" y="344.5" /></g><g class="Box FOP"><use class="FOP" height="10" transform="rotate(90 413.5 347.5)" width="10" x="408.5" xlink:href="#PortSymbol" y="342.5" /></g><g class="Box PhysicalComponent" id="_xM95gG1SEeyGAcBgdGuPdQ"><rect class="PhysicalComponent" height="197" style="stroke-width: 1" width="261" x="460.5" y="248.5" /><text class="PhysicalComponent" dominant-baseline="middle" text-anchor="middle" x="460" y="248"><tspan x="590.5" xml:space="preserve" y="258.0">Inlet Valve</tspan></text></g><g class="Box PhysicalComponent" id="_4wCCUG1SEeyGAcBgdGuPdQ"><rect class="PhysicalComponent" height="159" style="fill: url(&quot;#CustomGradient_C3E6FF_96B1DA&quot;); stroke: #4A4A97; stroke-width: 1" width="239" x="465.5" y="272.5" /><text class="PhysicalComponent" dominant-baseline="middle" text-anchor="middle" x="465" y="272"><tspan x="584.5" xml:space="preserve" y="282.0">Inlet Valve</tspan></text></g><g class="Box PhysicalFunction" id="__FOVdmGvEeyJ3eS83iqQLw"><rect class="PhysicalFunction" height="111" style="fill: #C5FFA6; stroke: #095C2E; stroke-width: 1" width="211" x="475.5" y="301.5" /><text class="PhysicalFunction" dominant-baseline="middle" style="fill: #095C2E" text-anchor="middle" x="475" y="301"><tspan x="580.5" xml:space="preserve" y="350.07142857142856">Transfer Oxygen from Purification to</tspan><tspan x="580.5" xml:space="preserve" y="362.9285714285714">Storage</tspan></text></g><g class="Box FIP"><use class="FIP" height="10" transform="rotate(90 478.5 329.5)" width="10" x="473.5" xlink:href="#PortSymbol" y="324.5" /></g><g class="Box FIP"><use class="FIP" height="10" transform="rotate(90 478.5 347.5)" width="10" x="473.5" xlink:href="#PortSymbol" y="342.5" /></g><g class="Box FOP"><use class="FOP" height="10" transform="rotate(90 683.5 367.5)" width="10" x="678.5" xlink:href="#PortSymbol" y="362.5" /></g><g class="Edge FunctionalExchange" id="_kS2ps2GwEeyJ3eS83iqQLw"><path class="Edge" d="M 978.5 433.5 483.5 623.5" style="stroke: #095C2E" /><rect class="AnnotationBB" height="13" width="82" x="629" y="535" /><text class="Annotation" dominant-baseline="middle" text-anchor="middle" x="617.0" y="535"><tspan x="671.0" xml:space="preserve" y="541.4285714285714">VentingOxygen</tspan></text><use height="20" width="20" x="610.2857142857143" xlink:href="#FunctionalExchangeSymbol" y="531.4285714285714" /></g><g class="Edge FunctionalExchange" id="__FVDMmGvEeyJ3eS83iqQLw"><path class="Edge" d="M 688.5 367.5 978.5 367.5" style="stroke: #095C2E" /><rect class="AnnotationBB" height="13" width="66" x="778" y="359" /><text class="Annotation" dominant-baseline="middle" text-anchor="middle" x="766.0" y="359"><tspan x="812.0" xml:space="preserve" y="365.42857142857144">PureOxygen</tspan></text><use height="20" width="20" x="759.1428571428571" xlink:href="#FunctionalExchangeSymbol" y="355.42857142857144" /></g><g class="Edge FunctionalExchange" id="__FVqQmGvEeyJ3eS83iqQLw"><path class="Edge" d="M 418.5 347.5 473.5 347.5" style="stroke: #095C2E" /><rect class="AnnotationBB" height="13" width="166" x="453" y="351" /><text class="Annotation" dominant-baseline="middle" text-anchor="middle" x="441.0" y="351"><tspan x="537.0" xml:space="preserve" y="357.42857142857144">PowerForOxTransferToStorage</tspan></text><use height="20" width="20" x="434.1428571428571" xlink:href="#FunctionalExchangeSymbol" y="347.42857142857144" /></g><g class="Edge FunctionalExchange" id="__FVDKWGvEeyJ3eS83iqQLw"><path class="Edge" d="M 1046.5 615.5 1046.5 450.5" style="stroke: #095C2E" /><rect class="AnnotationBB" height="13" width="89" x="1001" y="515" /><text class="Annotation" dominant-baseline="middle" text-anchor="middle" x="989.0" y="515"><tspan x="1046.5" xml:space="preserve" y="521.4285714285714">StoragePressure</tspan></text><use height="20" width="20" x="982.2142857142857" xlink:href="#FunctionalExchangeSymbol" y="511.42857142857144" /></g><g class="Edge FunctionalExchange" id="__FVqOWGvEeyJ3eS83iqQLw"><path class="Edge" d="M 1168.5 673.5 1123.5 673.5" style="stroke: #095C2E" /><rect class="AnnotationBB" height="13" width="89" x="1113" y="665" /><text class="Annotation" dominant-baseline="middle" text-anchor="middle" x="1101.0" y="665"><tspan x="1158.5" xml:space="preserve" y="671.4285714285714">StoragePressure</tspan></text><use height="20" width="20" x="1094.2142857142858" xlink:href="#FunctionalExchangeSymbol" y="661.4285714285714" /></g><g class="Edge FunctionalExchange" id="__FVDIGGvEeyJ3eS83iqQLw"><path class="Edge" d="M 1036.5 175.5 1036.5 345.5" style="stroke: #095C2E" /><rect class="AnnotationBB" height="13" width="112" x="973" y="230" /><text class="Annotation" dominant-baseline="middle" text-anchor="middle" x="961.0" y="230"><tspan x="1030.0" xml:space="preserve" y="236.42857142857142">StorageTemperature</tspan></text><use height="20" width="20" x="954.2857142857143" xlink:href="#FunctionalExchangeSymbol" y="226.42857142857142" /></g><g class="Edge FunctionalExchange" id="__FVqMGGvEeyJ3eS83iqQLw"><path class="Edge" d="M 1158.5 114.5 1083.5 114.5" style="stroke: #095C2E" /><rect class="AnnotationBB" height="13" width="103" x="1067" y="100" /><text class="Annotation" dominant-baseline="middle" text-anchor="middle" x="1055.0" y="100"><tspan x="1119.5" xml:space="preserve" y="106.42857142857143">HeatorCoolStorage</tspan></text><use height="20" width="20" x="1048.0714285714287" xlink:href="#FunctionalExchangeSymbol" y="96.42857142857143" /></g></svg>