<svg baseProfile="full" class="PhysicalArchitectureBlank" height="761" version="1.1" viewBox="30 10 1651 761" width="1651" xmlns="http://www.w3.org/2000/svg" xmlns:ev="http://www.w3.org/2001/xml-events" xmlns:xlink="http://www.w3.org/1999/xlink"><defs><style>.PhysicalArchitectureBlank * { shape-rendering: geometricPrecision; }
.PhysicalArchitectureBlank text { font-family: "Segoe UI"; font-size: 8pt; }
.PhysicalArchitectureBlank g { cursor: pointer; }
.PhysicalArchitectureBlank g.Edge &gt; path { fill: none; stroke: rgb(0, 0, 0); }
.PhysicalArchitectureBlank g.Box &gt; line { stroke: #000000; }
.PhysicalArchitectureBlank g.Box &gt; rect, .PhysicalArchitectureBlank g.Box &gt; use { fill: transparent; stroke: #000000; stroke-width: 1; }
.PhysicalArchitectureBlank g.Box.Annotation &gt; line { stroke: none; }
.PhysicalArchitectureBlank g.Box.Annotation &gt; rect, .PhysicalArchitectureBlank g.Box.Annotation &gt; use { fill: none; stroke: none; }
.PhysicalArchitectureBlank g.Box.Constraint &gt; line { stroke: #888888; }
.PhysicalArchitectureBlank g.Box.Constraint &gt; rect, .PhysicalArchitectureBlank g.Box.Constraint &gt; use { fill: #FFF5B5; stroke: #888888; }
.PhysicalArchitectureBlank g.Box.Constraint &gt; text { fill: #000000; }
.PhysicalArchitectureBlank g.Box.Note &gt; line { stroke: #FFCC66; }
.PhysicalArchitectureBlank g.Box.Note &gt; rect, .PhysicalArchitectureBlank g.Box.Note &gt; use { fill: #FFFFCB; stroke: #FFCC66; }
.PhysicalArchitectureBlank g.Box.Note &gt; text { fill: #000000; }
.PhysicalArchitectureBlank g.Box.Requirement &gt; line { stroke: #72496E; }
.PhysicalArchitectureBlank g.Box.Requirement &gt; rect, .PhysicalArchitectureBlank g.Box.Requirement &gt; use { fill: #D9C4D7; stroke: #72496E; }
.PhysicalArchitectureBlank g.Box.Requirement &gt; text { fill: #000000; }
.PhysicalArchitectureBlank g.Box.Text &gt; line { stroke: transparent; }
.PhysicalArchitectureBlank g.Box.Text &gt; rect, .PhysicalArchitectureBlank g.Box.Text &gt; use { stroke: transparent; }
.PhysicalArchitectureBlank g.Edge &gt; rect { fill: none; stroke: none; }
.PhysicalArchitectureBlank g.Circle &gt; circle { fill: #000000; stroke: none; }
.PhysicalArchitectureBlank g.Edge &gt; path { stroke-width: 1; }
.PhysicalArchitectureBlank g.Edge.Connector &gt; rect { fill: none; stroke: none; }
.PhysicalArchitectureBlank g.Circle.Connector &gt; circle { fill: #B0B0B0; stroke: none; }
.PhysicalArchitectureBlank g.Edge.Connector &gt; path { stroke: #B0B0B0; stroke-dasharray: 1; }
.PhysicalArchitectureBlank g.Edge.Constraint &gt; rect { fill: none; stroke: none; }
.PhysicalArchitectureBlank g.Circle.Constraint &gt; circle { fill: #000000; stroke: none; }
.PhysicalArchitectureBlank g.Edge.Constraint &gt; path { stroke: #000000; stroke-dasharray: 1, 3; marker-end: url(#FineArrowMark_000000); stroke-linecap: round; }
.PhysicalArchitectureBlank g.Edge.Note &gt; rect { fill: none; stroke: none; }
.PhysicalArchitectureBlank g.Circle.Note &gt; circle { fill: #000000; stroke: none; }
.PhysicalArchitectureBlank g.Edge.Note &gt; path { stroke: #000000; stroke-dasharray: 1, 3; }
.PhysicalArchitectureBlank g.Edge.RequirementRelation &gt; rect { fill: none; stroke: none; }
.PhysicalArchitectureBlank g.Circle.RequirementRelation &gt; circle { fill: #72496E; stroke: none; }
.PhysicalArchitectureBlank g.Edge.RequirementRelation &gt; path { stroke: #72496E; stroke-width: 2; marker-end: url(#FineArrowMark_72496E); stroke-dasharray: 5; }
.PhysicalArchitectureBlank g.Edge.RequirementRelation &gt; text { fill: #72496E; }
.PhysicalArchitectureBlank g.Box.CP_IN &gt; line { stroke: #000000; }
.PhysicalArchitectureBlank g.Box.CP_IN &gt; rect, .PhysicalArchitectureBlank g.Box.CP_IN &gt; use { fill: #FFFFFF; stroke: #000000; }
.PhysicalArchitectureBlank g.Box.CP_OUT &gt; line { stroke: #000000; }
.PhysicalArchitectureBlank g.Box.CP_OUT &gt; rect, .PhysicalArchitectureBlank g.Box.CP_OUT &gt; use { fill: #FFFFFF; stroke: #000000; }
.PhysicalArchitectureBlank g.Box.CP_INOUT &gt; line { stroke: #000000; }
.PhysicalArchitectureBlank g.Box.CP_INOUT &gt; rect, .PhysicalArchitectureBlank g.Box.CP_INOUT &gt; use { fill: #FFFFFF; stroke: #000000; }
.PhysicalArchitectureBlank g.Box.PP &gt; line { stroke: #7B694F; }
.PhysicalArchitectureBlank g.Box.PP &gt; rect, .PhysicalArchitectureBlank g.Box.PP &gt; use { fill: #FFF477; stroke: #7B694F; }
.PhysicalArchitectureBlank g.Box.PhysicalComponent &gt; line { stroke: #7B694F; }
.PhysicalArchitectureBlank g.Box.PhysicalComponent &gt; rect, .PhysicalArchitectureBlank g.Box.PhysicalComponent &gt; use { fill: url("#.PhysicalComponentFillGradient"); stroke: #7B694F; }
.PhysicalArchitectureBlank g.Box.PhysicalComponent &gt; text { fill: #000000; }
.PhysicalArchitectureBlank g.Edge.PhysicalLink &gt; rect { fill: none; stroke: none; }
.PhysicalArchitectureBlank g.Circle.PhysicalLink &gt; circle { fill: #EF2929; stroke: none; }
.PhysicalArchitectureBlank g.Edge.PhysicalLink &gt; path { stroke: #EF2929; stroke-width: 2; }
.PhysicalArchitectureBlank g.Edge.PhysicalLink &gt; text { fill: #EF2929; }
</style><symbol id="ErrorSymbol" viewBox="0 0 2.6458 2.6458"><path d="M 0,0 2.6458333,2.6458333 M 0,2.6458333 2.6458333,0" style="fill: none; stroke: red; stroke-width: 0.5;" /></symbol><symbol id="RequirementSymbol" style="stroke: none;" viewBox="0 0 50 50"><path d="M 12.806813,6.5702324 A 6.244379,5.8113241 0 0 1 6.5624342,12.381557 6.244379,5.8113241 0 0 1 0.31805515,6.5702324 6.244379,5.8113241 0 0 1 6.5624342,0.75890827 6.244379,5.8113241 0 0 1 12.806813,6.5702324 Z" style="fill: #431964" /><path d="m 4.3228658,5.8752475 h 2.9514721 q 0.2945581,0 0.5184223,-0.1413879 Q 8.0225155,5.5865806 8.1462299,5.3214783 8.2699443,5.056376 8.2758355,4.7029063 v 0 q 0,-0.3475786 -0.1237144,-0.6126808 Q 8.0284067,3.8251232 7.7986513,3.6837353 7.5747872,3.5364562 7.2743379,3.5364562 H 4.3228658 V 2.1873801 h 2.9927103 q 0.7246129,0 1.2724909,0.3122316 0.5478781,0.3122316 0.8483274,0.8836743 0.3063404,0.5714427 0.3063404,1.3196203 v 0 q 0,0.7540687 -0.3063404,1.3255114 Q 9.1359451,6.5998605 8.5821759,6.912092 8.0342978,7.2243236 7.3155761,7.2243236 H 4.3228658 Z M 3.7396407,2.1873801 H 5.1476285 V 10.759021 H 3.7396407 Z M 6.3906636,6.9592213 7.8516718,6.6882279 10.102096,10.759021 H 8.4113322 Z" style="fill:#ffffff;" /></symbol><symbol id="PhysicalLinkSymbol" viewBox="0 0 40 30"><linearGradient id="PhysicalLinkSymbol-gradient" x1="0" x2="1" y1="0" y2="1"><stop offset="0.0" stop-color="#DFDF00" stop-opacity="1" /><stop offset="1.0" stop-color="#E8E809" stop-opacity="1" /></linearGradient><linearGradient id="PhysicalLinkSymbol-gradientreverse" x1="0" x2="1" y1="0" y2="1"><stop offset="0.0" stop-color="#E8E809" stop-opacity="1" /><stop offset="1.0" stop-color="#DFDF00" stop-opacity="1" /></linearGradient><g style="stroke:#000;stroke-width:2;"><path d="M 36.190065,5.0377724 V 24.962228 H 26.17482 V 5.0377724 Z" style="fill: url(#PhysicalLinkSymbol-gradientreverse)" /><path d="m 14.372107,10 h 12.622435 c 0.926189,0.585267 1.836022,1.274509 2.268178,5 -0.208657,2.812473 -0.954601,4.503809 -2.273297,5 H 14.296948" style="fill: #F60A0A" /><path d="M 3.9464908,5.0048246 V 24.995175 H 10.87518 C 12.433713,24.159139 15.158267,20.291241 15.313795,15 15.498614,11.583142 14.059659,6.6240913 10.87518,5.0048246 c -2.2179509,0 -4.5908341,0 -6.9286892,0 z" style="fill: url(#PhysicalLinkSymbol-gradient)" /></g></symbol><symbol id="ComponentExchangeSymbol" viewBox="0 0 40 30"><linearGradient id="ComponentExchangeSymbol-gradient" x1="0" x2="1" y1="0" y2="1"><stop offset="0.0" stop-color="#8FA5B6" stop-opacity="1" /><stop offset="1.0" stop-color="#E0E9F3" stop-opacity="1" /></linearGradient><linearGradient id="ComponentExchangeSymbol-gradientreverse" x1="0" x2="1" y1="0" y2="1"><stop offset="0.0" stop-color="#E0E9F3" stop-opacity="1" /><stop offset="1.0" stop-color="#8FA5B6" stop-opacity="1" /></linearGradient><g style="stroke:#000;stroke-width:2;"><path d="M 36.190065,5.0377724 V 24.962228 H 26.17482 V 5.0377724 Z" style="fill: url(#ComponentExchangeSymbol-gradientreverse)" /><path d="m 14.372107,10 h 12.622435 c 0.926189,0.585267 1.836022,1.274509 2.268178,5 -0.208657,2.812473 -0.954601,4.503809 -2.273297,5 H 14.296948" style="fill: #A3BCD0" /><path d="M 3.9464908,5.0048246 V 24.995175 H 10.87518 C 12.433713,24.159139 15.158267,20.291241 15.313795,15 15.498614,11.583142 14.059659,6.6240913 10.87518,5.0048246 c -2.2179509,0 -4.5908341,0 -6.9286892,0 z" style="fill: url(#ComponentExchangeSymbol-gradient)" /></g></symbol><symbol id="ComponentPortSymbol" viewBox="0 0 10 10"><path d="M0 0h10v10H0z" /><path d="M 2,2 5,7 8,2" /></symbol><symbol id="PortSymbol" viewBox="0 0 10 10"><path d="M0 0h10v10H0z" /><path d="M5 1L1 9h8z" fill="#fff" /></symbol><linearGradient id=".PhysicalComponentFillGradient" x1="0%" x2="0%" y1="0%" y2="100%"><stop offset="0" stop-color="#FFFFDC" /><stop offset="1" stop-color="#FFFCB7" /></linearGradient><linearGradient id="CustomGradient_C3E6FF_96B1DA" x1="0" x2="0" y1="0" y2="1"><stop offset="0.0" stop-color="#C3E6FF" stop-opacity="1" /><stop offset="1.0" stop-color="#96B1DA" stop-opacity="1" /></linearGradient><linearGradient id="CustomGradient_DAFDFF_C6E6FF" x1="0" x2="0" y1="0" y2="1"><stop offset="0.0" stop-color="#DAFDFF" stop-opacity="1" /><stop offset="1.0" stop-color="#C6E6FF" stop-opacity="1" /></linearGradient></defs><rect fill="white" height="761" stroke="none" width="1651" x="30" y="10" /><g class="Box PhysicalComponent" id="_LQAP4GPXEey9ycqoyTpVSQ"><rect class="PhysicalComponent" height="741" style="stroke-width: 1" width="951" x="360.5" y="20.5" /><text class="PhysicalComponent" dominant-baseline="middle" text-anchor="middle" x="360" y="20"><tspan x="835.5" xml:space="preserve" y="31.42857142857143">Regolith Inlet System</tspan></text></g><g class="Box PhysicalComponent" id="_kaQR0GPXEey9ycqoyTpVSQ"><rect class="PhysicalComponent" height="161" style="stroke-width: 1" width="321" x="395.5" y="64.5" /><text class="PhysicalComponent" dominant-baseline="middle" text-anchor="middle" x="395" y="64"><tspan x="555.5" xml:space="preserve" y="75.42857142857143">Scoop Interface</tspan></text></g><g class="Box PhysicalComponent" id="_6VRXoGPXEey9ycqoyTpVSQ"><rect class="PhysicalComponent" height="89" style="fill: url(&quot;#CustomGradient_C3E6FF_96B1DA&quot;); stroke: #4A4A97; stroke-width: 1" width="239" x="420.5" y="102.5" /><text class="PhysicalComponent" dominant-baseline="middle" text-anchor="middle" x="420" y="102"><tspan x="539.5" xml:space="preserve" y="113.42857142857143">Hopper</tspan></text></g><g class="Box PhysicalFunction" id="_xDuo4GPZEey9ycqoyTpVSQ"><rect class="PhysicalFunction" height="50" style="fill: #C5FFA6; stroke: #095C2E; stroke-width: 1" width="191" x="450.5" y="127.5" /><text class="PhysicalFunction" dominant-baseline="middle" style="fill: #095C2E" text-anchor="middle" x="450" y="127"><tspan x="545.5" xml:space="preserve" y="151.99999999999997">Store Unprocessed Regolith</tspan></text></g><g class="Box FIP"><use class="FIP" height="10" transform="rotate(90 453.5 149.5)" width="10" x="448.5" xlink:href="#PortSymbol" y="144.5" /></g><g class="Box FOP"><use class="FOP" height="10" transform="rotate(180 516.5 174.5)" width="10" x="511.5" xlink:href="#PortSymbol" y="169.5" /></g><g class="Box CP_IN"><use class="CP_IN" height="10" transform="rotate(270 423.5 154.5)" width="10" x="418.5" xlink:href="#ComponentPortSymbol" y="149.5" /></g><g class="Box PhysicalComponent" id="_ovaUMGPXEey9ycqoyTpVSQ"><rect class="PhysicalComponent" height="361" style="stroke-width: 1" width="451" x="395.5" y="254.5" /><text class="PhysicalComponent" dominant-baseline="middle" text-anchor="middle" x="395" y="254"><tspan x="620.5" xml:space="preserve" y="265.42857142857144">Shaking Sieve</tspan></text></g><g class="Box PhysicalComponent" id="_p3FcAGPZEey9ycqoyTpVSQ"><rect class="PhysicalComponent" height="171" style="fill: url(&quot;#CustomGradient_C3E6FF_96B1DA&quot;); stroke: #4A4A97; stroke-width: 1" width="161" x="420.5" y="287.5" /><text class="PhysicalComponent" dominant-baseline="middle" text-anchor="middle" x="420" y="287"><tspan x="500.5" xml:space="preserve" y="297.0">Sieve</tspan></text></g><g class="Box PhysicalFunction" id="_xDvP8GPZEey9ycqoyTpVSQ"><rect class="PhysicalFunction" height="101" style="fill: #C5FFA6; stroke: #095C2E; stroke-width: 1" width="111" x="440.5" y="327.5" /><text class="PhysicalFunction" dominant-baseline="middle" style="fill: #095C2E" text-anchor="middle" x="440" y="327"><tspan x="495.5" xml:space="preserve" y="371.07142857142856">Sift Unprocessed</tspan><tspan x="495.5" xml:space="preserve" y="383.9285714285714">Regolith</tspan></text></g><g class="Box FIP"><use class="FIP" height="10" transform="rotate(-180 486.5 330.5)" width="10" x="481.5" xlink:href="#PortSymbol" y="325.5" /></g><g class="Box FOP"><use class="FOP" height="10" transform="rotate(90 548.5 413.5)" width="10" x="543.5" xlink:href="#PortSymbol" y="408.5" /></g><g class="Box FOP"><use class="FOP" height="10" transform="rotate(180 506.5 425.5)" width="10" x="501.5" xlink:href="#PortSymbol" y="420.5" /></g><g class="Box FIP"><use class="FIP" height="10" transform="rotate(-90 548.5 349.5)" width="10" x="543.5" xlink:href="#PortSymbol" y="344.5" /></g><g class="Box CP_OUT"><use class="CP_OUT" height="10" transform="rotate(90 423.5 313.5)" width="10" x="418.5" xlink:href="#ComponentPortSymbol" y="308.5" /></g><g class="Box PhysicalComponent" id="_jnhF8GPaEey9ycqoyTpVSQ"><rect class="PhysicalComponent" height="141" style="fill: url(&quot;#CustomGradient_C3E6FF_96B1DA&quot;); stroke: #4A4A97; stroke-width: 1" width="159" x="650.5" y="288.5" /><text class="PhysicalComponent" dominant-baseline="middle" text-anchor="middle" x="650" y="288"><tspan x="729.5" xml:space="preserve" y="299.42857142857144">Shaking Motor</tspan></text></g><g class="Box PhysicalFunction" id="_xDv3AGPZEey9ycqoyTpVSQ"><rect class="PhysicalFunction" height="91" style="fill: #C5FFA6; stroke: #095C2E; stroke-width: 1" width="116" x="672.5" y="327.5" /><text class="PhysicalFunction" dominant-baseline="middle" style="fill: #095C2E" text-anchor="middle" x="672" y="327"><tspan x="730.0" xml:space="preserve" y="366.07142857142856">Convert Electricity</tspan><tspan x="730.0" xml:space="preserve" y="378.9285714285714">into Sifting Power</tspan></text></g><g class="Box FIP"><use class="FIP" height="10" transform="rotate(90 675.5 351.5)" width="10" x="670.5" xlink:href="#PortSymbol" y="346.5" /></g><g class="Box FOP"><use class="FOP" height="10" transform="rotate(270 675.5 349.5)" width="10" x="670.5" xlink:href="#PortSymbol" y="344.5" /></g><g class="Box PhysicalComponent" id="_muYwQGPaEey9ycqoyTpVSQ"><rect class="PhysicalComponent" height="99" style="fill: url(&quot;#CustomGradient_C3E6FF_96B1DA&quot;); stroke: #4A4A97; stroke-width: 1" width="159" x="421.5" y="488.5" /><text class="PhysicalComponent" dominant-baseline="middle" text-anchor="middle" x="421" y="488"><tspan x="500.5" xml:space="preserve" y="498.0">Rocks Outlet Channel</tspan></text></g><g class="Box PhysicalFunction" id="_xDvP82PZEey9ycqoyTpVSQ"><rect class="PhysicalFunction" height="50" style="fill: #C5FFA6; stroke: #095C2E; stroke-width: 1" width="111" x="441.5" y="527.5" /><text class="PhysicalFunction" dominant-baseline="middle" style="fill: #095C2E" text-anchor="middle" x="441" y="527"><tspan x="496.5" xml:space="preserve" y="552.0">Remove Large Rocks</tspan></text></g><g class="Box FIP"><use class="FIP" height="10" transform="rotate(-180 467.5 530.5)" width="10" x="462.5" xlink:href="#PortSymbol" y="525.5" /></g><g class="Box FOP"><use class="FOP" height="10" transform="rotate(180 460.5 574.5)" width="10" x="455.5" xlink:href="#PortSymbol" y="569.5" /></g><g class="Box PhysicalComponent" id="_sUVMcGPXEey9ycqoyTpVSQ"><rect class="PhysicalComponent" height="641" style="stroke-width: 1" width="401" x="865.5" y="74.5" /><text class="PhysicalComponent" dominant-baseline="middle" text-anchor="middle" x="865" y="74"><tspan x="1065.5" xml:space="preserve" y="85.42857142857143">Regolilth Transfer To Process</tspan></text></g><g class="Box PhysicalComponent" id="_dBy2gGPXEey9ycqoyTpVSQ"><rect class="PhysicalComponent" height="161" style="fill: url(&quot;#CustomGradient_C3E6FF_96B1DA&quot;); stroke: #4A4A97; stroke-width: 1" width="291" x="920.5" y="518.5" /><text class="PhysicalComponent" dominant-baseline="middle" text-anchor="middle" x="920" y="518"><tspan x="1065.5" xml:space="preserve" y="529.4285714285714">Regolith Powder Transportation System to</tspan><tspan x="1065.5" xml:space="preserve" y="542.2857142857143">Vapourisation Chamber</tspan></text></g><g class="Box PhysicalFunction" id="_L5-5oGPaEey9ycqoyTpVSQ"><rect class="PhysicalFunction" height="80" style="fill: #C5FFA6; stroke: #095C2E; stroke-width: 1" width="221" x="950.5" y="567.5" /><text class="PhysicalFunction" dominant-baseline="middle" style="fill: #095C2E" text-anchor="middle" x="950" y="567"><tspan x="1060.5" xml:space="preserve" y="600.5714285714286">Transfer Regolith Powder to</tspan><tspan x="1060.5" xml:space="preserve" y="613.4285714285714">vapourisation using gravity</tspan></text></g><g class="Box FIP"><use class="FIP" height="10" transform="rotate(-180 976.5 570.5)" width="10" x="971.5" xlink:href="#PortSymbol" y="565.5" /></g><g class="Box FIP"><use class="FIP" height="10" transform="rotate(-180 1156.5 570.5)" width="10" x="1151.5" xlink:href="#PortSymbol" y="565.5" /></g><g class="Box FOP"><use class="FOP" height="10" transform="rotate(0 1106.5 570.5)" width="10" x="1101.5" xlink:href="#PortSymbol" y="565.5" /></g><g class="Box FOP"><use class="FOP" height="10" transform="rotate(0 1126.5 570.5)" width="10" x="1121.5" xlink:href="#PortSymbol" y="565.5" /></g><g class="Box PhysicalComponent" id="_GTXZ8GPbEey9ycqoyTpVSQ"><rect class="PhysicalComponent" height="109" style="fill: url(&quot;#CustomGradient_C3E6FF_96B1DA&quot;); stroke: #4A4A97; stroke-width: 1" width="201" x="890.5" y="368.5" /><text class="PhysicalComponent" dominant-baseline="middle" text-anchor="middle" x="890" y="368"><tspan x="990.5" xml:space="preserve" y="379.42857142857144">Regolith Container</tspan></text></g><g class="Box PhysicalFunction" id="_L5_gsGPaEey9ycqoyTpVSQ"><rect class="PhysicalFunction" height="50" style="fill: #C5FFA6; stroke: #095C2E; stroke-width: 1" width="131" x="920.5" y="397.5" /><text class="PhysicalFunction" dominant-baseline="middle" style="fill: #095C2E" text-anchor="middle" x="920" y="397"><tspan x="985.5" xml:space="preserve" y="422.0">Store Regolith Powder</tspan></text></g><g class="Box FIP"><use class="FIP" height="10" transform="rotate(90 923.5 413.5)" width="10" x="918.5" xlink:href="#PortSymbol" y="408.5" /></g><g class="Box FOP"><use class="FOP" height="10" transform="rotate(0 986.5 400.5)" width="10" x="981.5" xlink:href="#PortSymbol" y="395.5" /></g><g class="Box FOP"><use class="FOP" height="10" transform="rotate(180 976.5 444.5)" width="10" x="971.5" xlink:href="#PortSymbol" y="439.5" /></g><g class="Box FOP"><use class="FOP" height="10" transform="rotate(0 1016.5 400.5)" width="10" x="1011.5" xlink:href="#PortSymbol" y="395.5" /></g><g class="Box PhysicalComponent" id="_M9vAMGPbEey9ycqoyTpVSQ"><rect class="PhysicalComponent" height="130" style="fill: url(&quot;#CustomGradient_C3E6FF_96B1DA&quot;); stroke: #4A4A97; stroke-width: 1" width="359" x="890.5" y="108.5" /><text class="PhysicalComponent" dominant-baseline="middle" text-anchor="middle" x="890" y="108"><tspan x="1069.5" xml:space="preserve" y="119.42857142857143">Hatch Engine</tspan></text></g><g class="Box PhysicalFunction" id="_L5_gs2PaEey9ycqoyTpVSQ"><rect class="PhysicalFunction" height="84" style="fill: #C5FFA6; stroke: #095C2E; stroke-width: 1" width="281" x="930.5" y="144.5" /><text class="PhysicalFunction" dominant-baseline="middle" style="fill: #095C2E" text-anchor="middle" x="930" y="144"><tspan x="1070.5" xml:space="preserve" y="179.57142857142856">Convert Electricity to control Regolith powder</tspan><tspan x="1070.5" xml:space="preserve" y="192.42857142857142">transfer</tspan></text></g><g class="Box FIP"><use class="FIP" height="10" transform="rotate(-180 951.5 147.5)" width="10" x="946.5" xlink:href="#PortSymbol" y="142.5" /></g><g class="Box FOP"><use class="FOP" height="10" transform="rotate(180 1156.5 225.5)" width="10" x="1151.5" xlink:href="#PortSymbol" y="220.5" /></g><g class="Box PhysicalComponent" id="_WuMxgGPXEey9ycqoyTpVSQ"><rect class="PhysicalComponent" height="191" style="stroke-width: 1" width="311" x="1360.5" y="540.5" /><text class="PhysicalComponent" dominant-baseline="middle" text-anchor="middle" x="1360" y="540"><tspan x="1515.5" xml:space="preserve" y="550.0">Chamber Inlet Seal</tspan></text></g><g class="Box PhysicalComponent" id="_06l60GPbEey9ycqoyTpVSQ"><rect class="PhysicalComponent" height="131" style="fill: url(&quot;#CustomGradient_C3E6FF_96B1DA&quot;); stroke: #4A4A97; stroke-width: 1" width="271" x="1375.5" y="574.5" /><text class="PhysicalComponent" dominant-baseline="middle" text-anchor="middle" x="1375" y="574"><tspan x="1510.5" xml:space="preserve" y="585.4285714285714">Chamber Regolith Inlet Seal</tspan></text></g><g class="Box PhysicalFunction" id="_6ICQEGPbEey9ycqoyTpVSQ"><rect class="PhysicalFunction" height="61" style="fill: #C5FFA6; stroke: #095C2E; stroke-width: 1" width="211" x="1405.5" y="613.5" /><text class="PhysicalFunction" dominant-baseline="middle" style="fill: #095C2E" text-anchor="middle" x="1405" y="613"><tspan x="1510.5" xml:space="preserve" y="637.0714285714286">Seal Vaporisation Chamber from Lunar</tspan><tspan x="1510.5" xml:space="preserve" y="649.9285714285714">Atmosphere</tspan></text></g><g class="Box PhysicalActor" id="_txvTsGPZEey9ycqoyTpVSQ"><rect class="PhysicalActor" height="171" style="fill: url(&quot;#CustomGradient_DAFDFF_C6E6FF&quot;); stroke: #4A4A97; stroke-width: 1" width="281" x="40.5" y="100.5" /><text class="PhysicalActor" dominant-baseline="middle" text-anchor="middle" x="40" y="100"><tspan x="180.5" xml:space="preserve" y="111.42857142857143">Excavation System</tspan></text></g><g class="Box PhysicalFunction" id="_5lYg4GPZEey9ycqoyTpVSQ"><rect class="PhysicalFunction" height="50" style="fill: #C5FFA6; stroke: #095C2E; stroke-width: 1" width="190" x="91.5" y="199.5" /><text class="PhysicalFunction" dominant-baseline="middle" style="fill: #095C2E" text-anchor="middle" x="91" y="199"><tspan x="186.0" xml:space="preserve" y="223.99999999999997">Drill Regolith</tspan></text></g><g class="Box FIP"><use class="FIP" height="10" transform="rotate(0 106.5 246.5)" width="10" x="101.5" xlink:href="#PortSymbol" y="241.5" /></g><g class="Box FIP"><use class="FIP" height="10" transform="rotate(0 126.5 246.5)" width="10" x="121.5" xlink:href="#PortSymbol" y="241.5" /></g><g class="Box FIP"><use class="FIP" height="10" transform="rotate(0 146.5 246.5)" width="10" x="141.5" xlink:href="#PortSymbol" y="241.5" /></g><g class="Box FOP"><use class="FOP" height="10" transform="rotate(0 206.5 202.5)" width="10" x="201.5" xlink:href="#PortSymbol" y="197.5" /></g><g class="Box FOP"><use class="FOP" height="10" transform="rotate(180 246.5 246.5)" width="10" x="241.5" xlink:href="#PortSymbol" y="241.5" /></g><g class="Box PhysicalFunction" id="_5lZH8mPZEey9ycqoyTpVSQ"><rect class="PhysicalFunction" height="50" style="fill: #C5FFA6; stroke: #095C2E; stroke-width: 1" width="191" x="80.5" y="129.5" /><text class="PhysicalFunction" dominant-baseline="middle" style="fill: #095C2E" text-anchor="middle" x="80" y="129"><tspan x="175.5" xml:space="preserve" y="153.99999999999997">Provide Unprocessed Regolith</tspan></text></g><g class="Box FIP"><use class="FIP" height="10" transform="rotate(0 206.5 176.5)" width="10" x="201.5" xlink:href="#PortSymbol" y="171.5" /></g><g class="Box FOP"><use class="FOP" height="10" transform="rotate(90 268.5 155.5)" width="10" x="263.5" xlink:href="#PortSymbol" y="150.5" /></g><g class="Box CP_IN"><use class="CP_IN" height="10" transform="rotate(180 106.5 268.5)" width="10" x="101.5" xlink:href="#ComponentPortSymbol" y="263.5" /></g><g class="Box CP_IN"><use class="CP_IN" height="10" transform="rotate(180 146.5 268.5)" width="10" x="141.5" xlink:href="#ComponentPortSymbol" y="263.5" /></g><g class="Box CP_OUT"><use class="CP_OUT" height="10" transform="rotate(0 246.5 268.5)" width="10" x="241.5" xlink:href="#ComponentPortSymbol" y="263.5" /></g><g class="Box CP_IN"><use class="CP_IN" height="10" transform="rotate(180 126.5 268.5)" width="10" x="121.5" xlink:href="#ComponentPortSymbol" y="263.5" /></g><g class="Box CP_OUT"><use class="CP_OUT" height="10" transform="rotate(-90 318.5 154.5)" width="10" x="313.5" xlink:href="#ComponentPortSymbol" y="149.5" /></g><g class="Edge ComponentExchange" id="_tx4drmPZEey9ycqoyTpVSQ"><path class="Edge" d="M 323.5 154.5 418.5 154.5" style="stroke: #4A4A97" /><rect class="AnnotationBB" height="13" width="115" x="311" y="141" /><text class="Annotation" dominant-baseline="middle" text-anchor="middle" x="299.0" y="141"><tspan x="369.5" xml:space="preserve" y="147.42857142857142">UnprocessedRegolith</tspan></text><use height="20" width="20" x="292.35714285714283" xlink:href="#ComponentExchangeSymbol" y="137.42857142857142" /></g><g class="Edge FIPAllocation" id="_5liR6GPZEey9ycqoyTpVSQ"><path class="Edge" d="M 106.5 263.5 106.5 251.5" style="stroke: #E08503; stroke-dasharray: 5; stroke-width: 2" /><rect class="AnnotationBB" height="0" width="0" x="112" y="257" /><text class="Annotation" dominant-baseline="middle" text-anchor="middle" x="112" y="257"><tspan x="112.0" xml:space="preserve" y="257.0" /></text></g><g class="Edge FIPAllocation" id="_5li48mPZEey9ycqoyTpVSQ"><path class="Edge" d="M 146.5 263.5 146.5 251.5" style="stroke: #E08503; stroke-dasharray: 5; stroke-width: 2" /><rect class="AnnotationBB" height="0" width="0" x="147" y="255" /><text class="Annotation" dominant-baseline="middle" text-anchor="middle" x="147" y="255"><tspan x="147.0" xml:space="preserve" y="255.0" /></text></g><g class="Edge FOPAllocation" id="_5li492PZEey9ycqoyTpVSQ"><path class="Edge" d="M 246.5 263.5 246.5 251.5" style="stroke: #274C72; stroke-dasharray: 5; stroke-width: 2" /><rect class="AnnotationBB" height="0" width="0" x="242" y="250" /><text class="Annotation" dominant-baseline="middle" text-anchor="middle" x="242" y="250"><tspan x="242.0" xml:space="preserve" y="250.0" /></text></g><g class="Edge FIPAllocation" id="_5li4_GPZEey9ycqoyTpVSQ"><path class="Edge" d="M 126.5 263.5 126.5 251.5" style="stroke: #E08503; stroke-dasharray: 5; stroke-width: 2" /><rect class="AnnotationBB" height="0" width="0" x="124" y="255" /><text class="Annotation" dominant-baseline="middle" text-anchor="middle" x="124" y="255"><tspan x="124.0" xml:space="preserve" y="255.0" /></text></g><g class="Edge FunctionalExchange" id="_5ljgGGPZEey9ycqoyTpVSQ"><path class="Edge" d="M 206.5 197.5 206.5 181.5" style="stroke: #095C2E" /><rect class="AnnotationBB" height="13" width="80" x="164" y="179" /><text class="Annotation" dominant-baseline="middle" text-anchor="middle" x="152.0" y="179"><tspan x="205.0" xml:space="preserve" y="185.42857142857142">ExtractRegolith</tspan></text><use height="20" width="20" x="145.0" xlink:href="#FunctionalExchangeSymbol" y="175.42857142857142" /></g><g class="Edge FOPAllocation" id="_9N11aGPZEey9ycqoyTpVSQ"><path class="Edge" d="M 313.5 154.5 273.5 155.5" style="stroke: #274C72; stroke-dasharray: 5; stroke-width: 2" /><rect class="AnnotationBB" height="0" width="0" x="254" y="164" /><text class="Annotation" dominant-baseline="middle" text-anchor="middle" x="254" y="164"><tspan x="254.0" xml:space="preserve" y="164.0" /></text></g><g class="Edge FIPAllocation" id="_9N11bWPZEey9ycqoyTpVSQ"><path class="Edge" d="M 428.5 154.5 448.5 149.5" style="stroke: #E08503; stroke-dasharray: 5; stroke-width: 2" /><rect class="AnnotationBB" height="0" width="0" x="440" y="142" /><text class="Annotation" dominant-baseline="middle" text-anchor="middle" x="440" y="142"><tspan x="440.0" xml:space="preserve" y="142.0" /></text></g><g class="Edge FunctionalExchange" id="_xD0vgGPZEey9ycqoyTpVSQ"><path class="Edge" d="M 516.5 179.5 486.5 325.5" style="stroke: #095C2E" /><rect class="AnnotationBB" height="13" width="115" x="441" y="243" /><text class="Annotation" dominant-baseline="middle" text-anchor="middle" x="429.0" y="243"><tspan x="499.5" xml:space="preserve" y="249.42857142857142">UnprocessedRegolith</tspan></text><use height="20" width="20" x="422.35714285714283" xlink:href="#FunctionalExchangeSymbol" y="239.42857142857142" /></g><g class="Edge FunctionalExchange" id="_xD0viWPZEey9ycqoyTpVSQ"><path class="Edge" d="M 506.5 430.5 467.5 525.5" style="stroke: #095C2E" /><rect class="AnnotationBB" height="13" width="65" x="448" y="481" /><text class="Annotation" dominant-baseline="middle" text-anchor="middle" x="436.0" y="481"><tspan x="481.5" xml:space="preserve" y="487.42857142857144">Large Rocks</tspan></text><use height="20" width="20" x="429.35714285714283" xlink:href="#FunctionalExchangeSymbol" y="477.42857142857144" /></g><g class="Edge FunctionalExchange" id="_xD0vkmPZEey9ycqoyTpVSQ"><path class="Edge" d="M 670.5 349.5 553.5 349.5" style="stroke: #095C2E" /><rect class="AnnotationBB" height="13" width="129" x="559" y="344" /><text class="Annotation" dominant-baseline="middle" text-anchor="middle" x="547.0" y="344"><tspan x="624.5" xml:space="preserve" y="350.42857142857144">PowerForRegolithSifting</tspan></text><use height="20" width="20" x="540.2142857142857" xlink:href="#FunctionalExchangeSymbol" y="340.42857142857144" /></g><g class="Edge FunctionalExchange" id="_L6GOgGPaEey9ycqoyTpVSQ"><path class="Edge" d="M 553.5 413.5 918.5 413.5" style="stroke: #095C2E" /><rect class="AnnotationBB" height="13" width="120" x="679" y="394" /><text class="Annotation" dominant-baseline="middle" text-anchor="middle" x="667.0" y="394"><tspan x="740.0" xml:space="preserve" y="400.42857142857144">StoredRegolithPowder</tspan></text><use height="20" width="20" x="660.0" xlink:href="#FunctionalExchangeSymbol" y="390.42857142857144" /></g><g class="Edge FunctionalExchange" id="_L6GOiWPaEey9ycqoyTpVSQ"><path class="Edge" d="M 976.5 449.5 976.5 565.5" style="stroke: #095C2E" /><rect class="AnnotationBB" height="13" width="120" x="913" y="500" /><text class="Annotation" dominant-baseline="middle" text-anchor="middle" x="901.0" y="500"><tspan x="974.0" xml:space="preserve" y="506.42857142857144">StoredRegolithPowder</tspan></text><use height="20" width="20" x="894.0" xlink:href="#FunctionalExchangeSymbol" y="496.42857142857144" /></g><g class="Edge FunctionalExchange" id="_L6GOkmPaEey9ycqoyTpVSQ"><path class="Edge" d="M 1156.5 230.5 1156.5 565.5" style="stroke: #095C2E" /><rect class="AnnotationBB" height="13" width="156" x="1077" y="356" /><text class="Annotation" dominant-baseline="middle" text-anchor="middle" x="1065.0" y="356"><tspan x="1156.0" xml:space="preserve" y="362.42857142857144">PowerforRegPowderTransfer</tspan></text><use height="20" width="20" x="1058.142857142857" xlink:href="#FunctionalExchangeSymbol" y="352.42857142857144" /></g></svg>