<svg baseProfile="full" class="PhysicalArchitectureBlank" height="1231" version="1.1" viewBox="85 165 1966 1231" width="1966" xmlns="http://www.w3.org/2000/svg" xmlns:ev="http://www.w3.org/2001/xml-events" xmlns:xlink="http://www.w3.org/1999/xlink"><defs><style>.PhysicalArchitectureBlank * { shape-rendering: geometricPrecision; }
.PhysicalArchitectureBlank text { font-family: "Segoe UI"; font-size: 8pt; }
.PhysicalArchitectureBlank g { cursor: pointer; }
.PhysicalArchitectureBlank g.Edge &gt; path { fill: none; stroke: rgb(0, 0, 0); }
.PhysicalArchitectureBlank g.Box &gt; line { stroke: #000000; }
.PhysicalArchitectureBlank g.Box &gt; rect, .PhysicalArchitectureBlank g.Box &gt; use { fill: transparent; stroke: #000000; stroke-width: 1; }
.PhysicalArchitectureBlank g.Box.Annotation &gt; line { stroke: none; }
.PhysicalArchitectureBlank g.Box.Annotation &gt; rect, .PhysicalArchitectureBlank g.Box.Annotation &gt; use { fill: none; stroke: none; }
.PhysicalArchitectureBlank g.Box.Constraint &gt; line { stroke: #888888; }
.PhysicalArchitectureBlank g.Box.Constraint &gt; rect, .PhysicalArchitectureBlank g.Box.Constraint &gt; use { fill: #FFF5B5; stroke: #888888; }
.PhysicalArchitectureBlank g.Box.Constraint &gt; text { fill: #000000; }
.PhysicalArchitectureBlank g.Box.Note &gt; line { stroke: #FFCC66; }
.PhysicalArchitectureBlank g.Box.Note &gt; rect, .PhysicalArchitectureBlank g.Box.Note &gt; use { fill: #FFFFCB; stroke: #FFCC66; }
.PhysicalArchitectureBlank g.Box.Note &gt; text { fill: #000000; }
.PhysicalArchitectureBlank g.Box.Requirement &gt; line { stroke: #72496E; }
.PhysicalArchitectureBlank g.Box.Requirement &gt; rect, .PhysicalArchitectureBlank g.Box.Requirement &gt; use { fill: #D9C4D7; stroke: #72496E; }
.PhysicalArchitectureBlank g.Box.Requirement &gt; text { fill: #000000; }
.PhysicalArchitectureBlank g.Box.Text &gt; line { stroke: transparent; }
.PhysicalArchitectureBlank g.Box.Text &gt; rect, .PhysicalArchitectureBlank g.Box.Text &gt; use { stroke: transparent; }
.PhysicalArchitectureBlank g.Edge &gt; rect { fill: none; stroke: none; }
.PhysicalArchitectureBlank g.Circle &gt; circle { fill: #000000; stroke: none; }
.PhysicalArchitectureBlank g.Edge &gt; path { stroke-width: 1; }
.PhysicalArchitectureBlank g.Edge.Connector &gt; rect { fill: none; stroke: none; }
.PhysicalArchitectureBlank g.Circle.Connector &gt; circle { fill: #B0B0B0; stroke: none; }
.PhysicalArchitectureBlank g.Edge.Connector &gt; path { stroke: #B0B0B0; stroke-dasharray: 1; }
.PhysicalArchitectureBlank g.Edge.Constraint &gt; rect { fill: none; stroke: none; }
.PhysicalArchitectureBlank g.Circle.Constraint &gt; circle { fill: #000000; stroke: none; }
.PhysicalArchitectureBlank g.Edge.Constraint &gt; path { stroke: #000000; stroke-dasharray: 1, 3; marker-end: url(#FineArrowMark_000000); stroke-linecap: round; }
.PhysicalArchitectureBlank g.Edge.Note &gt; rect { fill: none; stroke: none; }
.PhysicalArchitectureBlank g.Circle.Note &gt; circle { fill: #000000; stroke: none; }
.PhysicalArchitectureBlank g.Edge.Note &gt; path { stroke: #000000; stroke-dasharray: 1, 3; }
.PhysicalArchitectureBlank g.Edge.RequirementRelation &gt; rect { fill: none; stroke: none; }
.PhysicalArchitectureBlank g.Circle.RequirementRelation &gt; circle { fill: #72496E; stroke: none; }
.PhysicalArchitectureBlank g.Edge.RequirementRelation &gt; path { stroke: #72496E; stroke-width: 2; marker-end: url(#FineArrowMark_72496E); stroke-dasharray: 5; }
.PhysicalArchitectureBlank g.Edge.RequirementRelation &gt; text { fill: #72496E; }
.PhysicalArchitectureBlank g.Box.CP_IN &gt; line { stroke: #000000; }
.PhysicalArchitectureBlank g.Box.CP_IN &gt; rect, .PhysicalArchitectureBlank g.Box.CP_IN &gt; use { fill: #FFFFFF; stroke: #000000; }
.PhysicalArchitectureBlank g.Box.CP_OUT &gt; line { stroke: #000000; }
.PhysicalArchitectureBlank g.Box.CP_OUT &gt; rect, .PhysicalArchitectureBlank g.Box.CP_OUT &gt; use { fill: #FFFFFF; stroke: #000000; }
.PhysicalArchitectureBlank g.Box.CP_INOUT &gt; line { stroke: #000000; }
.PhysicalArchitectureBlank g.Box.CP_INOUT &gt; rect, .PhysicalArchitectureBlank g.Box.CP_INOUT &gt; use { fill: #FFFFFF; stroke: #000000; }
.PhysicalArchitectureBlank g.Box.FIP &gt; rect, .PhysicalArchitectureBlank g.Box.FIP &gt; use { fill: #E08503; stroke-width: 0; }
.PhysicalArchitectureBlank g.Box.FOP &gt; rect, .PhysicalArchitectureBlank g.Box.FOP &gt; use { fill: #095C2E; stroke-width: 0; }
.PhysicalArchitectureBlank g.Box.PP &gt; line { stroke: #7B694F; }
.PhysicalArchitectureBlank g.Box.PP &gt; rect, .PhysicalArchitectureBlank g.Box.PP &gt; use { fill: #FFF477; stroke: #7B694F; }
.PhysicalArchitectureBlank g.Box.PhysicalComponent &gt; line { stroke: #7B694F; }
.PhysicalArchitectureBlank g.Box.PhysicalComponent &gt; rect, .PhysicalArchitectureBlank g.Box.PhysicalComponent &gt; use { fill: url("#.PhysicalComponentFillGradient"); stroke: #7B694F; }
.PhysicalArchitectureBlank g.Box.PhysicalComponent &gt; text { fill: #000000; }
.PhysicalArchitectureBlank g.Box.PhysicalFunction &gt; line { stroke: #095C2E; }
.PhysicalArchitectureBlank g.Box.PhysicalFunction &gt; rect, .PhysicalArchitectureBlank g.Box.PhysicalFunction &gt; use { fill: #C5FFA6; stroke: #095C2E; }
.PhysicalArchitectureBlank g.Edge.ComponentExchange &gt; rect { fill: none; stroke: none; }
.PhysicalArchitectureBlank g.Circle.ComponentExchange &gt; circle { fill: #4A4A97; stroke: none; }
.PhysicalArchitectureBlank g.Edge.ComponentExchange &gt; path { stroke: #4A4A97; stroke-width: 2; }
.PhysicalArchitectureBlank g.Edge.ComponentExchange &gt; text { fill: #4A4A97; }
.PhysicalArchitectureBlank g.Edge.FunctionalExchange &gt; rect { fill: none; stroke: none; }
.PhysicalArchitectureBlank g.Circle.FunctionalExchange &gt; circle { fill: #095C2E; stroke: none; }
.PhysicalArchitectureBlank g.Edge.FunctionalExchange &gt; path { stroke: #095C2E; stroke-width: 2; }
.PhysicalArchitectureBlank g.Edge.FunctionalExchange &gt; text { fill: #095C2E; }
.PhysicalArchitectureBlank g.Edge.PhysicalLink &gt; rect { fill: none; stroke: none; }
.PhysicalArchitectureBlank g.Circle.PhysicalLink &gt; circle { fill: #EF2929; stroke: none; }
.PhysicalArchitectureBlank g.Edge.PhysicalLink &gt; path { stroke: #EF2929; stroke-width: 2; }
.PhysicalArchitectureBlank g.Edge.PhysicalLink &gt; text { fill: #EF2929; }
</style><symbol id="ErrorSymbol" viewBox="0 0 2.6458 2.6458"><path d="M 0,0 2.6458333,2.6458333 M 0,2.6458333 2.6458333,0" style="fill: none; stroke: red; stroke-width: 0.5;" /></symbol><symbol id="RequirementSymbol" style="stroke: none;" viewBox="0 0 50 50"><path d="M 12.806813,6.5702324 A 6.244379,5.8113241 0 0 1 6.5624342,12.381557 6.244379,5.8113241 0 0 1 0.31805515,6.5702324 6.244379,5.8113241 0 0 1 6.5624342,0.75890827 6.244379,5.8113241 0 0 1 12.806813,6.5702324 Z" style="fill: #431964" /><path d="m 4.3228658,5.8752475 h 2.9514721 q 0.2945581,0 0.5184223,-0.1413879 Q 8.0225155,5.5865806 8.1462299,5.3214783 8.2699443,5.056376 8.2758355,4.7029063 v 0 q 0,-0.3475786 -0.1237144,-0.6126808 Q 8.0284067,3.8251232 7.7986513,3.6837353 7.5747872,3.5364562 7.2743379,3.5364562 H 4.3228658 V 2.1873801 h 2.9927103 q 0.7246129,0 1.2724909,0.3122316 0.5478781,0.3122316 0.8483274,0.8836743 0.3063404,0.5714427 0.3063404,1.3196203 v 0 q 0,0.7540687 -0.3063404,1.3255114 Q 9.1359451,6.5998605 8.5821759,6.912092 8.0342978,7.2243236 7.3155761,7.2243236 H 4.3228658 Z M 3.7396407,2.1873801 H 5.1476285 V 10.759021 H 3.7396407 Z M 6.3906636,6.9592213 7.8516718,6.6882279 10.102096,10.759021 H 8.4113322 Z" style="fill:#ffffff;" /></symbol><symbol id="PhysicalLinkSymbol" viewBox="0 0 40 30"><linearGradient id="PhysicalLinkSymbol-gradient" x1="0" x2="1" y1="0" y2="1"><stop offset="0.0" stop-color="#DFDF00" stop-opacity="1" /><stop offset="1.0" stop-color="#E8E809" stop-opacity="1" /></linearGradient><linearGradient id="PhysicalLinkSymbol-gradientreverse" x1="0" x2="1" y1="0" y2="1"><stop offset="0.0" stop-color="#E8E809" stop-opacity="1" /><stop offset="1.0" stop-color="#DFDF00" stop-opacity="1" /></linearGradient><g style="stroke:#000;stroke-width:2;"><path d="M 36.190065,5.0377724 V 24.962228 H 26.17482 V 5.0377724 Z" style="fill: url(#PhysicalLinkSymbol-gradientreverse)" /><path d="m 14.372107,10 h 12.622435 c 0.926189,0.585267 1.836022,1.274509 2.268178,5 -0.208657,2.812473 -0.954601,4.503809 -2.273297,5 H 14.296948" style="fill: #F60A0A" /><path d="M 3.9464908,5.0048246 V 24.995175 H 10.87518 C 12.433713,24.159139 15.158267,20.291241 15.313795,15 15.498614,11.583142 14.059659,6.6240913 10.87518,5.0048246 c -2.2179509,0 -4.5908341,0 -6.9286892,0 z" style="fill: url(#PhysicalLinkSymbol-gradient)" /></g></symbol><symbol id="ComponentExchangeSymbol" viewBox="0 0 40 30"><linearGradient id="ComponentExchangeSymbol-gradient" x1="0" x2="1" y1="0" y2="1"><stop offset="0.0" stop-color="#8FA5B6" stop-opacity="1" /><stop offset="1.0" stop-color="#E0E9F3" stop-opacity="1" /></linearGradient><linearGradient id="ComponentExchangeSymbol-gradientreverse" x1="0" x2="1" y1="0" y2="1"><stop offset="0.0" stop-color="#E0E9F3" stop-opacity="1" /><stop offset="1.0" stop-color="#8FA5B6" stop-opacity="1" /></linearGradient><g style="stroke:#000;stroke-width:2;"><path d="M 36.190065,5.0377724 V 24.962228 H 26.17482 V 5.0377724 Z" style="fill: url(#ComponentExchangeSymbol-gradientreverse)" /><path d="m 14.372107,10 h 12.622435 c 0.926189,0.585267 1.836022,1.274509 2.268178,5 -0.208657,2.812473 -0.954601,4.503809 -2.273297,5 H 14.296948" style="fill: #A3BCD0" /><path d="M 3.9464908,5.0048246 V 24.995175 H 10.87518 C 12.433713,24.159139 15.158267,20.291241 15.313795,15 15.498614,11.583142 14.059659,6.6240913 10.87518,5.0048246 c -2.2179509,0 -4.5908341,0 -6.9286892,0 z" style="fill: url(#ComponentExchangeSymbol-gradient)" /></g></symbol><symbol id="ComponentPortSymbol" viewBox="0 0 10 10"><path d="M0 0h10v10H0z" /><path d="M 2,2 5,7 8,2" /></symbol><symbol id="PortSymbol" viewBox="0 0 10 10"><path d="M0 0h10v10H0z" /><path d="M5 1L1 9h8z" fill="#fff" /></symbol><linearGradient id=".PhysicalComponentFillGradient" x1="0%" x2="0%" y1="0%" y2="100%"><stop offset="0" stop-color="#FFFFDC" /><stop offset="1" stop-color="#FFFCB7" /></linearGradient><linearGradient id="CustomGradient_C3E6FF_96B1DA" x1="0" x2="0" y1="0" y2="1"><stop offset="0.0" stop-color="#C3E6FF" stop-opacity="1" /><stop offset="1.0" stop-color="#96B1DA" stop-opacity="1" /></linearGradient></defs><rect fill="white" height="1231" stroke="none" width="1966" x="85" y="165" /><g class="Box PhysicalComponent" id="_YeXDUJfnEeymfMCyhvLdiA"><rect class="PhysicalComponent" height="1211" style="stroke-width: 1" width="1946" x="95.5" y="175.5" /><text class="PhysicalComponent" dominant-baseline="middle" text-anchor="middle" x="95" y="175"><tspan x="1068.0" xml:space="preserve" y="186.42857142857142">Oxygen Recovery System</tspan></text></g><g class="Box PhysicalComponent" id="_YeXDU5fnEeymfMCyhvLdiA"><rect class="PhysicalComponent" height="741" style="stroke-width: 1" width="441" x="130.5" y="264.5" /><text class="PhysicalComponent" dominant-baseline="middle" text-anchor="middle" x="130" y="264"><tspan x="350.5" xml:space="preserve" y="275.42857142857144">Filtration System</tspan></text></g><g class="Box PhysicalComponent" id="_eZBD4JfnEeymfMCyhvLdiA"><rect class="PhysicalComponent" height="541" style="fill: url(&quot;#CustomGradient_C3E6FF_96B1DA&quot;); stroke: #4A4A97; stroke-width: 1" width="391" x="150.5" y="313.5" /><text class="PhysicalComponent" dominant-baseline="middle" text-anchor="middle" x="150" y="313"><tspan x="345.5" xml:space="preserve" y="324.42857142857144">Oxygen Permeable - Dust Filter</tspan></text></g><g class="Box PhysicalFunction" id="_d-3CAJfoEeymfMCyhvLdiA"><rect class="PhysicalFunction" height="161" style="stroke-width: 1" width="311" x="180.5" y="482.5" /><text class="PhysicalFunction" dominant-baseline="middle" style="fill: #095C2E" text-anchor="middle" x="180" y="482"><tspan x="335.5" xml:space="preserve" y="562.5">Filter Remaining Gas</tspan></text><use height="20" width="20" x="260.5" xlink:href="#PhysicalFunctionSymbol" y="552.5" /></g><g class="Box FIP" id="_d-8hmpfoEeymfMCyhvLdiA"><use class="FIP" height="10" transform="rotate(0 287.5 640.5)" width="10" x="282.5" xlink:href="#PortSymbol" y="635.5" /></g><g class="Box FIP" id="_d-8hnpfoEeymfMCyhvLdiA"><use class="FIP" height="10" transform="rotate(-180 275.5 485.5)" width="10" x="270.5" xlink:href="#PortSymbol" y="480.5" /></g><g class="Box FOP" id="_d-9IoZfoEeymfMCyhvLdiA"><use class="FOP" height="10" transform="rotate(0 387.5 485.5)" width="10" x="382.5" xlink:href="#PortSymbol" y="480.5" /></g><g class="Box FOP" id="_d-9IpZfoEeymfMCyhvLdiA"><use class="FOP" height="10" transform="rotate(90 488.5 558.5)" width="10" x="483.5" xlink:href="#PortSymbol" y="553.5" /></g><g class="Box PhysicalFunction" id="_d-3CA5foEeymfMCyhvLdiA"><rect class="PhysicalFunction" height="90" style="stroke-width: 1" width="280" x="200.5" y="712.5" /><text class="PhysicalFunction" dominant-baseline="middle" style="fill: #095C2E" text-anchor="middle" x="200" y="712"><tspan x="340.0" xml:space="preserve" y="757.0">Mitigate Oxygen Contamination with Dust</tspan></text><use height="20" width="20" x="208.57142857142856" xlink:href="#PhysicalFunctionSymbol" y="747.0" /></g><g class="Box FOP" id="_d-9IqZfoEeymfMCyhvLdiA"><use class="FOP" height="10" transform="rotate(0 285.5 715.5)" width="10" x="280.5" xlink:href="#PortSymbol" y="710.5" /></g><g class="Box PhysicalComponent" id="_YeXqYZfnEeymfMCyhvLdiA"><rect class="PhysicalComponent" height="741" style="stroke-width: 1" width="546" x="590.5" y="264.5" /><text class="PhysicalComponent" dominant-baseline="middle" text-anchor="middle" x="590" y="264"><tspan x="863.0" xml:space="preserve" y="275.42857142857144">Cryogenic compressor</tspan></text></g><g class="Box PhysicalComponent" id="_fq6JkJfnEeymfMCyhvLdiA"><rect class="PhysicalComponent" height="69" style="fill: url(&quot;#CustomGradient_C3E6FF_96B1DA&quot;); stroke: #4A4A97; stroke-width: 1" width="213" x="890.5" y="543.5" /><text class="PhysicalComponent" dominant-baseline="middle" text-anchor="middle" x="890" y="543"><tspan x="996.5" xml:space="preserve" y="554.4285714285714">Process Pressure Regulation System</tspan></text></g><g class="Box PhysicalComponent" id="_fq7XsJfnEeymfMCyhvLdiA"><rect class="PhysicalComponent" height="411" style="fill: url(&quot;#CustomGradient_C3E6FF_96B1DA&quot;); stroke: #4A4A97; stroke-width: 1" width="501" x="600.5" y="303.5" /><text class="PhysicalComponent" dominant-baseline="middle" text-anchor="middle" x="600" y="303"><tspan x="850.5" xml:space="preserve" y="314.42857142857144">Oxygen Recovery Compressor</tspan></text></g><g class="Box PhysicalFunction" id="_Xcb20JfoEeymfMCyhvLdiA"><rect class="PhysicalFunction" height="51" style="stroke-width: 1" width="211" x="620.5" y="342.5" /><text class="PhysicalFunction" dominant-baseline="middle" style="fill: #095C2E" text-anchor="middle" x="620" y="342"><tspan x="725.5" xml:space="preserve" y="361.0714285714286">Convert Electricity into pressurized</tspan><tspan x="725.5" xml:space="preserve" y="373.92857142857144">Oxygen</tspan></text><use height="20" width="20" x="618" xlink:href="#PhysicalFunctionSymbol" y="357.5" /></g><g class="Box FIP" id="_XclAxpfoEeymfMCyhvLdiA"><use class="FIP" height="10" transform="rotate(-180 768.5 345.5)" width="10" x="763.5" xlink:href="#PortSymbol" y="340.5" /></g><g class="Box FOP" id="_XclAypfoEeymfMCyhvLdiA"><use class="FOP" height="10" transform="rotate(180 764.5 390.5)" width="10" x="759.5" xlink:href="#PortSymbol" y="385.5" /></g><g class="Box PhysicalFunction" id="_Xccd4pfoEeymfMCyhvLdiA"><rect class="PhysicalFunction" height="101" style="stroke-width: 1" width="461" x="620.5" y="592.5" /><text class="PhysicalFunction" dominant-baseline="middle" style="fill: #095C2E" text-anchor="middle" x="620" y="592"><tspan x="850.5" xml:space="preserve" y="642.5">Compress Gas</tspan></text><use height="20" width="20" x="791.9285714285714" xlink:href="#PhysicalFunctionSymbol" y="632.5" /></g><g class="Box FIP" id="_Xcln0pfoEeymfMCyhvLdiA"><use class="FIP" height="10" transform="rotate(-180 764.5 595.5)" width="10" x="759.5" xlink:href="#PortSymbol" y="590.5" /></g><g class="Box FIP" id="_Xcln1pfoEeymfMCyhvLdiA"><use class="FIP" height="10" transform="rotate(90 623.5 668.5)" width="10" x="618.5" xlink:href="#PortSymbol" y="663.5" /></g><g class="Box FOP" id="_Xcln2pfoEeymfMCyhvLdiA"><use class="FOP" height="10" transform="rotate(0 723.5 595.5)" width="10" x="718.5" xlink:href="#PortSymbol" y="590.5" /></g><g class="Box FOP" id="_XcmO4pfoEeymfMCyhvLdiA"><use class="FOP" height="10" transform="rotate(180 729.5 690.5)" width="10" x="724.5" xlink:href="#PortSymbol" y="685.5" /></g><g class="Box PhysicalFunction" id="_XcdE8JfoEeymfMCyhvLdiA"><rect class="PhysicalFunction" height="51" style="stroke-width: 1" width="191" x="860.5" y="432.5" /><text class="PhysicalFunction" dominant-baseline="middle" style="fill: #095C2E" text-anchor="middle" x="860" y="432"><tspan x="955.5" xml:space="preserve" y="452.5">Maintain Condensation</tspan><tspan x="955.5" xml:space="preserve" y="462.5">Pressure</tspan></text><use height="20" width="20" x="873.3571428571429" xlink:href="#PhysicalFunctionSymbol" y="447.5" /></g><g class="Box FOP" id="_XcmO5pfoEeymfMCyhvLdiA"><use class="FOP" height="10" transform="rotate(270 863.5 458.5)" width="10" x="858.5" xlink:href="#PortSymbol" y="453.5" /></g><g class="Box PhysicalFunction" id="_XcdE85foEeymfMCyhvLdiA"><rect class="PhysicalFunction" height="51" style="stroke-width: 1" width="189" x="880.5" y="332.5" /><text class="PhysicalFunction" dominant-baseline="middle" style="fill: #095C2E" text-anchor="middle" x="880" y="332"><tspan x="974.5" xml:space="preserve" y="351.0714285714286">Maintain Vapourisation</tspan><tspan x="974.5" xml:space="preserve" y="363.92857142857144">Pressure</tspan></text><use height="20" width="20" x="892.3571428571429" xlink:href="#PhysicalFunctionSymbol" y="347.5" /></g><g class="Box FOP" id="_XcmO6pfoEeymfMCyhvLdiA"><use class="FOP" height="10" transform="rotate(180 964.5 380.5)" width="10" x="959.5" xlink:href="#PortSymbol" y="375.5" /></g><g class="Box PhysicalFunction" id="_XcdE9pfoEeymfMCyhvLdiA"><rect class="PhysicalFunction" height="61" style="stroke-width: 1" width="209" x="860.5" y="522.5" /><text class="PhysicalFunction" dominant-baseline="middle" style="fill: #095C2E" text-anchor="middle" x="860" y="522"><tspan x="964.5" xml:space="preserve" y="552.5">Maintain Storage Pressure</tspan></text><use height="20" width="20" x="873.7857142857143" xlink:href="#PhysicalFunctionSymbol" y="542.5" /></g><g class="Box FOP" id="_Xcm18pfoEeymfMCyhvLdiA"><use class="FOP" height="10" transform="rotate(90 1066.5 558.5)" width="10" x="1061.5" xlink:href="#PortSymbol" y="553.5" /></g><g class="Box PhysicalComponent" id="_fq7Xs5fnEeymfMCyhvLdiA"><rect class="PhysicalComponent" height="151" style="fill: url(&quot;#CustomGradient_C3E6FF_96B1DA&quot;); stroke: #4A4A97; stroke-width: 1" width="499" x="600.5" y="733.5" /><text class="PhysicalComponent" dominant-baseline="middle" text-anchor="middle" x="600" y="733"><tspan x="849.5" xml:space="preserve" y="744.4285714285714">Cryogenic cooler</tspan></text></g><g class="Box PhysicalFunction" id="_b5ClAJfoEeymfMCyhvLdiA"><rect class="PhysicalFunction" height="101" style="stroke-width: 1" width="441" x="630.5" y="762.5" /><text class="PhysicalFunction" dominant-baseline="middle" style="fill: #095C2E" text-anchor="middle" x="630" y="762"><tspan x="850.5" xml:space="preserve" y="812.5">Cool oxygen to liquidification temperature</tspan></text><use height="20" width="20" x="717.6428571428571" xlink:href="#PhysicalFunctionSymbol" y="802.5" /></g><g class="Box FIP" id="_b5IEmJfoEeymfMCyhvLdiA"><use class="FIP" height="10" transform="rotate(-180 723.5 765.5)" width="10" x="718.5" xlink:href="#PortSymbol" y="760.5" /></g><g class="Box FIP" id="_b5IEnJfoEeymfMCyhvLdiA"><use class="FIP" height="10" transform="rotate(-180 672.5 765.5)" width="10" x="667.5" xlink:href="#PortSymbol" y="760.5" /></g><g class="Box FOP" id="_b5IEoJfoEeymfMCyhvLdiA"><use class="FOP" height="10" transform="rotate(90 1068.5 828.5)" width="10" x="1063.5" xlink:href="#PortSymbol" y="823.5" /></g><g class="Box FOP" id="_b5IropfoEeymfMCyhvLdiA"><use class="FOP" height="10" transform="rotate(180 729.5 860.5)" width="10" x="724.5" xlink:href="#PortSymbol" y="855.5" /></g><g class="Box PhysicalComponent" id="_plO0MGGuEeyJ3eS83iqQLw"><rect class="PhysicalComponent" height="741" style="stroke-width: 1" width="850" x="1151.5" y="264.5" /><text class="PhysicalComponent" dominant-baseline="middle" text-anchor="middle" x="1151" y="264"><tspan x="1576.0" xml:space="preserve" y="275.42857142857144">Oxygen Storage System</tspan></text></g><g class="Box PhysicalComponent" id="_t9q94G1QEeyGAcBgdGuPdQ"><rect class="PhysicalComponent" height="161" style="stroke-width: 1" width="729" x="1170.5" y="813.5" /><text class="PhysicalComponent" dominant-baseline="middle" text-anchor="middle" x="1170" y="813"><tspan x="1534.5" xml:space="preserve" y="824.4285714285714">Emergency Exit Valve</tspan></text></g><g class="Box PhysicalComponent" id="_2HgB8GGuEeyJ3eS83iqQLw"><rect class="PhysicalComponent" height="109" style="fill: url(&quot;#CustomGradient_C3E6FF_96B1DA&quot;); stroke: #4A4A97; stroke-width: 1" width="611" x="1210.5" y="852.5" /><text class="PhysicalComponent" dominant-baseline="middle" text-anchor="middle" x="1210" y="852"><tspan x="1515.5" xml:space="preserve" y="863.4285714285714">Emergency Valve</tspan></text></g><g class="Box PhysicalFunction" id="_hkwEsGGwEeyJ3eS83iqQLw"><rect class="PhysicalFunction" height="71" style="stroke-width: 1" width="241" x="1240.5" y="881.5" /><text class="PhysicalFunction" dominant-baseline="middle" style="fill: #095C2E" text-anchor="middle" x="1240" y="881"><tspan x="1360.5" xml:space="preserve" y="916.5">Vent Tank in case of emergency</tspan></text><use height="20" width="20" x="1255.5" xlink:href="#PhysicalFunctionSymbol" y="906.5" /></g><g class="Box FIP" id="_kS2CpGGwEeyJ3eS83iqQLw"><use class="FIP" height="10" transform="rotate(-180 1356.5 884.5)" width="10" x="1351.5" xlink:href="#PortSymbol" y="879.5" /></g><g class="Box PhysicalComponent" id="_zlN1MG1QEeyGAcBgdGuPdQ"><rect class="PhysicalComponent" height="469" style="stroke-width: 1" width="729" x="1170.5" y="323.5" /><text class="PhysicalComponent" dominant-baseline="middle" text-anchor="middle" x="1170" y="323"><tspan x="1534.5" xml:space="preserve" y="334.42857142857144">Storage Tank</tspan></text></g><g class="Box PhysicalComponent" id="_r7Q3cGGuEeyJ3eS83iqQLw"><rect class="PhysicalComponent" height="411" style="fill: url(&quot;#CustomGradient_C3E6FF_96B1DA&quot;); stroke: #4A4A97; stroke-width: 1" width="661" x="1200.5" y="352.5" /><text class="PhysicalComponent" dominant-baseline="middle" text-anchor="middle" x="1200" y="352"><tspan x="1530.5" xml:space="preserve" y="363.42857142857144">Storage Tank</tspan></text></g><g class="Box PhysicalFunction" id="__FNuYGGvEeyJ3eS83iqQLw"><rect class="PhysicalFunction" height="341" style="stroke-width: 1" width="591" x="1240.5" y="391.5" /><text class="PhysicalFunction" dominant-baseline="middle" style="fill: #095C2E" text-anchor="middle" x="1240" y="391"><tspan x="1535.5" xml:space="preserve" y="561.5">Store Pure Oxygen</tspan></text><use height="20" width="20" x="1465.5" xlink:href="#PhysicalFunctionSymbol" y="551.5" /></g><g class="Box FIP" id="__FRY1mGvEeyJ3eS83iqQLw"><use class="FIP" height="10" transform="rotate(0 1720.5 729.5)" width="10" x="1715.5" xlink:href="#PortSymbol" y="724.5" /></g><g class="Box FIP" id="__FR_02GvEeyJ3eS83iqQLw"><use class="FIP" height="10" transform="rotate(90 1243.5 557.5)" width="10" x="1238.5" xlink:href="#PortSymbol" y="552.5" /></g><g class="Box FIP" id="__FR_12GvEeyJ3eS83iqQLw"><use class="FIP" height="10" transform="rotate(90 1243.5 707.5)" width="10" x="1238.5" xlink:href="#PortSymbol" y="702.5" /></g><g class="Box FOP" id="__FR_22GvEeyJ3eS83iqQLw"><use class="FOP" height="10" transform="rotate(0 1390.5 394.5)" width="10" x="1385.5" xlink:href="#PortSymbol" y="389.5" /></g><g class="Box FOP" id="__FR_32GvEeyJ3eS83iqQLw"><use class="FOP" height="10" transform="rotate(0 1345.5 394.5)" width="10" x="1340.5" xlink:href="#PortSymbol" y="389.5" /></g><g class="Box FOP" id="_kS2CoGGwEeyJ3eS83iqQLw"><use class="FOP" height="10" transform="rotate(180 1352.5 729.5)" width="10" x="1347.5" xlink:href="#PortSymbol" y="724.5" /></g><g class="Box PhysicalComponent" id="_YeXqZJfnEeymfMCyhvLdiA"><rect class="PhysicalComponent" height="301" style="stroke-width: 1" width="1901" x="110.5" y="1064.5" /><text class="PhysicalComponent" dominant-baseline="middle" text-anchor="middle" x="110" y="1064"><tspan x="1060.5" xml:space="preserve" y="1075.4285714285713">Oxygen Recovery Thermal Control System</tspan></text></g><g class="Box PhysicalComponent" id="_YeaGoJfnEeymfMCyhvLdiA"><rect class="PhysicalComponent" height="238" style="stroke-width: 1" width="511" x="1390.5" y="1093.5" /><text class="PhysicalComponent" dominant-baseline="middle" text-anchor="middle" x="1390" y="1093"><tspan x="1645.5" xml:space="preserve" y="1104.4285714285713">Sunlight Heat Shield Oxygen Recovery</tspan></text></g><g class="Box PhysicalComponent" id="_kvxKkJfnEeymfMCyhvLdiA"><rect class="PhysicalComponent" height="139" style="fill: url(&quot;#CustomGradient_C3E6FF_96B1DA&quot;); stroke: #4A4A97; stroke-width: 1" width="460" x="1420.5" y="1163.5" /><text class="PhysicalComponent" dominant-baseline="middle" text-anchor="middle" x="1420" y="1163"><tspan x="1650.0" xml:space="preserve" y="1174.4285714285713">Sunlight Heat Shield 2</tspan></text></g><g class="Box PhysicalFunction" id="_Zg5o8JfoEeymfMCyhvLdiA"><rect class="PhysicalFunction" height="50" style="stroke-width: 1" width="291" x="1485.5" y="1192.5" /><text class="PhysicalFunction" dominant-baseline="middle" style="fill: #095C2E" text-anchor="middle" x="1485" y="1192"><tspan x="1630.5" xml:space="preserve" y="1217.0">Protect Recovery System from sun heat</tspan></text><use height="20" width="20" x="1505.5" xlink:href="#PhysicalFunctionSymbol" y="1207.0" /></g><g class="Box FIP" id="_ZhA9tZfoEeymfMCyhvLdiA"><use class="FIP" height="10" transform="rotate(0 1587.5 1239.5)" width="10" x="1582.5" xlink:href="#PortSymbol" y="1234.5" /></g><g class="Box CP_IN" id="_kvxxoZfnEeymfMCyhvLdiA"><use class="CP_IN" height="10" transform="rotate(180 1547.5 1299.5)" width="10" x="1542.5" xlink:href="#ComponentPortSymbol" y="1294.5" /></g><g class="Box PhysicalComponent" id="_YeYRcJfnEeymfMCyhvLdiA"><rect class="PhysicalComponent" height="239" style="stroke-width: 1" width="431" x="160.5" y="1093.5" /><text class="PhysicalComponent" dominant-baseline="middle" text-anchor="middle" x="160" y="1093"><tspan x="375.5" xml:space="preserve" y="1103.0">Cold Radiator</tspan></text></g><g class="Box PhysicalComponent" id="_hliDMJfnEeymfMCyhvLdiA"><rect class="PhysicalComponent" height="139" style="fill: url(&quot;#CustomGradient_C3E6FF_96B1DA&quot;); stroke: #4A4A97; stroke-width: 1" width="341" x="210.5" y="1142.5" /><text class="PhysicalComponent" dominant-baseline="middle" text-anchor="middle" x="210" y="1142"><tspan x="380.5" xml:space="preserve" y="1152.0">Radiator</tspan></text></g><g class="Box PhysicalFunction" id="_e1a2kJfoEeymfMCyhvLdiA"><rect class="PhysicalFunction" height="61" style="stroke-width: 1" width="241" x="250.5" y="1181.5" /><text class="PhysicalFunction" dominant-baseline="middle" style="fill: #095C2E" text-anchor="middle" x="250" y="1181"><tspan x="370.5" xml:space="preserve" y="1205.0714285714284">Remove Heat from Oxygen Recovery to</tspan><tspan x="370.5" xml:space="preserve" y="1217.9285714285713">environment</tspan></text><use height="20" width="20" x="248" xlink:href="#PhysicalFunctionSymbol" y="1201.5" /></g><g class="Box FIP" id="_e1iLWpfoEeymfMCyhvLdiA"><use class="FIP" height="10" transform="rotate(-90 488.5 1217.5)" width="10" x="483.5" xlink:href="#PortSymbol" y="1212.5" /></g><g class="Box PhysicalComponent" id="_YeYRc5fnEeymfMCyhvLdiA"><rect class="PhysicalComponent" height="238" style="stroke-width: 1" width="761" x="610.5" y="1093.5" /><text class="PhysicalComponent" dominant-baseline="middle" text-anchor="middle" x="610" y="1093"><tspan x="990.5" xml:space="preserve" y="1104.4285714285713">Oxygen Recovery Heat Transfer System</tspan></text></g><g class="Box PhysicalComponent" id="_goucsJfnEeymfMCyhvLdiA"><rect class="PhysicalComponent" height="161" style="fill: url(&quot;#CustomGradient_C3E6FF_96B1DA&quot;); stroke: #4A4A97; stroke-width: 1" width="719" x="630.5" y="1142.5" /><text class="PhysicalComponent" dominant-baseline="middle" text-anchor="middle" x="630" y="1142"><tspan x="989.5" xml:space="preserve" y="1153.4285714285713">Oxygen Recovery Heat Transfer System</tspan></text></g><g class="Box PhysicalFunction" id="_av8O8JfoEeymfMCyhvLdiA"><rect class="PhysicalFunction" height="91" style="stroke-width: 1" width="301" x="660.5" y="1181.5" /><text class="PhysicalFunction" dominant-baseline="middle" style="fill: #095C2E" text-anchor="middle" x="660" y="1181"><tspan x="810.5" xml:space="preserve" y="1226.5">Transfer Heat from CryoCompressor to Radiator</tspan></text><use height="20" width="20" x="661.9285714285714" xlink:href="#PhysicalFunctionSymbol" y="1216.5" /></g><g class="Box FIP" id="_awDjvpfoEeymfMCyhvLdiA"><use class="FIP" height="10" transform="rotate(-180 724.5 1184.5)" width="10" x="719.5" xlink:href="#PortSymbol" y="1179.5" /></g><g class="Box FOP" id="_awEKwZfoEeymfMCyhvLdiA"><use class="FOP" height="10" transform="rotate(270 663.5 1217.5)" width="10" x="658.5" xlink:href="#PortSymbol" y="1212.5" /></g><g class="Box PhysicalFunction" id="_av-rMJfoEeymfMCyhvLdiA"><rect class="PhysicalFunction" height="91" style="stroke-width: 1" width="331" x="1000.5" y="1191.5" /><text class="PhysicalFunction" dominant-baseline="middle" style="fill: #095C2E" text-anchor="middle" x="1000" y="1191"><tspan x="1165.5" xml:space="preserve" y="1236.5">Transfer Heat in Storage to Radiator</tspan></text><use height="20" width="20" x="1049.0714285714287" xlink:href="#PhysicalFunctionSymbol" y="1226.5" /></g><g class="Box FOP" id="_awEKxZfoEeymfMCyhvLdiA"><use class="FOP" height="10" transform="rotate(0 1084.5 1194.5)" width="10" x="1079.5" xlink:href="#PortSymbol" y="1189.5" /></g><g class="Edge FunctionalExchange" id="_kS2ps2GwEeyJ3eS83iqQLw"><path class="Edge" d="M 1352.5 734.5 1356.5 879.5" /><rect class="AnnotationBB" height="13" width="82" x="1310" y="796" /><text class="Annotation" dominant-baseline="middle" text-anchor="middle" x="1298.0" y="796"><tspan x="1352.0" xml:space="preserve" y="802.4285714285714">VentingOxygen</tspan></text><use height="20" width="20" x="1291.2857142857142" xlink:href="#FunctionalExchangeSymbol" y="792.4285714285714" /></g><g class="Edge FunctionalExchange" id="_Xcp5RJfoEeymfMCyhvLdiA"><path class="Edge" d="M 764.5 395.5 764.5 590.5" /><rect class="AnnotationBB" height="10" width="189" x="670" y="448" /><text class="Annotation" dominant-baseline="middle" text-anchor="middle" x="658.0" y="448"><tspan x="765.5" xml:space="preserve" y="453.0">PowerGasTransferOutofCondenser</tspan></text><use height="20" width="20" x="651.2142857142857" xlink:href="#FunctionalExchangeSymbol" y="443.0" /></g><g class="Edge FunctionalExchange" id="_Xcp5TZfoEeymfMCyhvLdiA"><path class="Edge" d="M 1071.5 558.5 1238.5 557.5" /><rect class="AnnotationBB" height="13" width="89" x="1110" y="548" /><text class="Annotation" dominant-baseline="middle" text-anchor="middle" x="1098.0" y="548"><tspan x="1155.5" xml:space="preserve" y="554.4285714285714">StoragePressure</tspan></text><use height="20" width="20" x="1091.2142857142858" xlink:href="#FunctionalExchangeSymbol" y="544.4285714285714" /></g><g class="Edge FIPAllocation" id="_ZhBkwZfoEeymfMCyhvLdiA"><path class="Edge" d="M 1550.5 1294.5 1584.5 1244.5" style="stroke: #E08503; stroke-dasharray: 5; stroke-width: 2" /><rect class="AnnotationBB" height="0" width="0" x="1558" y="1264" /><text class="Annotation" dominant-baseline="middle" text-anchor="middle" x="1558" y="1264"><tspan x="1558.0" xml:space="preserve" y="1264.0" /></text></g><g class="Edge FunctionalExchange" id="_awEx6JfoEeymfMCyhvLdiA"><path class="Edge" d="M 1084.5 1189.5 1084.5 1021.5 1719.5 1021.5 1719.5 734.5 1720.5 734.5" /><rect class="AnnotationBB" height="13" width="112" x="1490" y="978" /><text class="Annotation" dominant-baseline="middle" text-anchor="middle" x="1478.0" y="978"><tspan x="1547.0" xml:space="preserve" y="984.4285714285714">StorageTemperature</tspan></text><use height="20" width="20" x="1471.2857142857142" xlink:href="#FunctionalExchangeSymbol" y="974.4285714285714" /></g><g class="Edge FunctionalExchange" id="_b5LH7JfoEeymfMCyhvLdiA"><path class="Edge" d="M 728.5 695.5 724.5 760.5" /><rect class="AnnotationBB" height="13" width="128" x="667" y="706" /><text class="Annotation" dominant-baseline="middle" text-anchor="middle" x="655.0" y="706"><tspan x="732.0" xml:space="preserve" y="712.4285714285714">CompressedOxygenGas</tspan></text><use height="20" width="20" x="648.4285714285714" xlink:href="#FunctionalExchangeSymbol" y="702.4285714285714" /></g><g class="Edge FunctionalExchange" id="_b5LH9ZfoEeymfMCyhvLdiA"><path class="Edge" d="M 728.5 865.5 724.5 1179.5" /><rect class="AnnotationBB" height="13" width="143" x="660" y="1013" /><text class="Annotation" dominant-baseline="middle" text-anchor="middle" x="648.0" y="1013"><tspan x="732.5" xml:space="preserve" y="1019.4285714285714">HeatFromOxygenRecovery</tspan></text><use height="20" width="20" x="641.0714285714286" xlink:href="#FunctionalExchangeSymbol" y="1009.4285714285714" /></g><g class="Edge FunctionalExchange" id="_d_AzFJfoEeymfMCyhvLdiA"><path class="Edge" d="M 493.5 558.5 560.5 558.5 560.5 668.5 618.5 668.5 618.5 668.5" /><rect class="AnnotationBB" height="13" width="99" x="451" y="542" /><text class="Annotation" dominant-baseline="middle" text-anchor="middle" x="439.0" y="542"><tspan x="501.5" xml:space="preserve" y="548.4285714285714">Pressurize Oxygen</tspan></text><use height="20" width="20" x="432.2142857142857" xlink:href="#FunctionalExchangeSymbol" y="538.4285714285714" /></g><g class="Edge FunctionalExchange" id="_d_AzHZfoEeymfMCyhvLdiA"><path class="Edge" d="M 285.5 710.5 286.5 645.5" /><rect class="AnnotationBB" height="13" width="188" x="187" y="665" /><text class="Annotation" dominant-baseline="middle" text-anchor="middle" x="175.0" y="665"><tspan x="282.0" xml:space="preserve" y="671.4285714285714">RemoveDustFromProducedOxygen</tspan></text><use height="20" width="20" x="168.42857142857144" xlink:href="#FunctionalExchangeSymbol" y="661.4285714285714" /></g><g class="Edge FunctionalExchange" id="_e1kApJfoEeymfMCyhvLdiA"><path class="Edge" d="M 658.5 1217.5 493.5 1217.5" /><rect class="AnnotationBB" height="10" width="60" x="544" y="1217" /><text class="Annotation" dominant-baseline="middle" text-anchor="middle" x="532.0" y="1217"><tspan x="575.0" xml:space="preserve" y="1222.0">OxRecHeat</tspan></text><use height="20" width="20" x="525.0" xlink:href="#FunctionalExchangeSymbol" y="1212.0" /></g></svg>