<svg baseProfile="full" class="PhysicalArchitectureBlank" height="1191" version="1.1" viewBox="30 10 1391 1191" width="1391" xmlns="http://www.w3.org/2000/svg" xmlns:ev="http://www.w3.org/2001/xml-events" xmlns:xlink="http://www.w3.org/1999/xlink"><defs><style>.PhysicalArchitectureBlank * { shape-rendering: geometricPrecision; }
.PhysicalArchitectureBlank text { font-family: "Segoe UI"; font-size: 8pt; }
.PhysicalArchitectureBlank g { cursor: pointer; }
.PhysicalArchitectureBlank g.Edge &gt; path { fill: none; stroke: rgb(0, 0, 0); }
.PhysicalArchitectureBlank g.Box &gt; line { stroke: #000000; }
.PhysicalArchitectureBlank g.Box &gt; rect, .PhysicalArchitectureBlank g.Box &gt; use { fill: transparent; stroke: #000000; stroke-width: 1; }
.PhysicalArchitectureBlank g.Box.Annotation &gt; line { stroke: none; }
.PhysicalArchitectureBlank g.Box.Annotation &gt; rect, .PhysicalArchitectureBlank g.Box.Annotation &gt; use { fill: none; stroke: none; }
.PhysicalArchitectureBlank g.Box.Constraint &gt; line { stroke: #888888; }
.PhysicalArchitectureBlank g.Box.Constraint &gt; rect, .PhysicalArchitectureBlank g.Box.Constraint &gt; use { fill: #FFF5B5; stroke: #888888; }
.PhysicalArchitectureBlank g.Box.Constraint &gt; text { fill: #000000; }
.PhysicalArchitectureBlank g.Box.Note &gt; line { stroke: #FFCC66; }
.PhysicalArchitectureBlank g.Box.Note &gt; rect, .PhysicalArchitectureBlank g.Box.Note &gt; use { fill: #FFFFCB; stroke: #FFCC66; }
.PhysicalArchitectureBlank g.Box.Note &gt; text { fill: #000000; }
.PhysicalArchitectureBlank g.Box.Requirement &gt; line { stroke: #72496E; }
.PhysicalArchitectureBlank g.Box.Requirement &gt; rect, .PhysicalArchitectureBlank g.Box.Requirement &gt; use { fill: #D9C4D7; stroke: #72496E; }
.PhysicalArchitectureBlank g.Box.Requirement &gt; text { fill: #000000; }
.PhysicalArchitectureBlank g.Box.Text &gt; line { stroke: transparent; }
.PhysicalArchitectureBlank g.Box.Text &gt; rect, .PhysicalArchitectureBlank g.Box.Text &gt; use { stroke: transparent; }
.PhysicalArchitectureBlank g.Edge &gt; rect { fill: none; stroke: none; }
.PhysicalArchitectureBlank g.Circle &gt; circle { fill: #000000; stroke: none; }
.PhysicalArchitectureBlank g.Edge &gt; path { stroke-width: 1; }
.PhysicalArchitectureBlank g.Edge.Connector &gt; rect { fill: none; stroke: none; }
.PhysicalArchitectureBlank g.Circle.Connector &gt; circle { fill: #B0B0B0; stroke: none; }
.PhysicalArchitectureBlank g.Edge.Connector &gt; path { stroke: #B0B0B0; stroke-dasharray: 1; }
.PhysicalArchitectureBlank g.Edge.Constraint &gt; rect { fill: none; stroke: none; }
.PhysicalArchitectureBlank g.Circle.Constraint &gt; circle { fill: #000000; stroke: none; }
.PhysicalArchitectureBlank g.Edge.Constraint &gt; path { stroke: #000000; stroke-dasharray: 1, 3; marker-end: url(#FineArrowMark_000000); stroke-linecap: round; }
.PhysicalArchitectureBlank g.Edge.Note &gt; rect { fill: none; stroke: none; }
.PhysicalArchitectureBlank g.Circle.Note &gt; circle { fill: #000000; stroke: none; }
.PhysicalArchitectureBlank g.Edge.Note &gt; path { stroke: #000000; stroke-dasharray: 1, 3; }
.PhysicalArchitectureBlank g.Edge.RequirementRelation &gt; rect { fill: none; stroke: none; }
.PhysicalArchitectureBlank g.Circle.RequirementRelation &gt; circle { fill: #72496E; stroke: none; }
.PhysicalArchitectureBlank g.Edge.RequirementRelation &gt; path { stroke: #72496E; stroke-width: 2; marker-end: url(#FineArrowMark_72496E); stroke-dasharray: 5; }
.PhysicalArchitectureBlank g.Edge.RequirementRelation &gt; text { fill: #72496E; }
.PhysicalArchitectureBlank g.Box.CP_IN &gt; line { stroke: #000000; }
.PhysicalArchitectureBlank g.Box.CP_IN &gt; rect, .PhysicalArchitectureBlank g.Box.CP_IN &gt; use { fill: #FFFFFF; stroke: #000000; }
.PhysicalArchitectureBlank g.Box.CP_OUT &gt; line { stroke: #000000; }
.PhysicalArchitectureBlank g.Box.CP_OUT &gt; rect, .PhysicalArchitectureBlank g.Box.CP_OUT &gt; use { fill: #FFFFFF; stroke: #000000; }
.PhysicalArchitectureBlank g.Box.CP_INOUT &gt; line { stroke: #000000; }
.PhysicalArchitectureBlank g.Box.CP_INOUT &gt; rect, .PhysicalArchitectureBlank g.Box.CP_INOUT &gt; use { fill: #FFFFFF; stroke: #000000; }
.PhysicalArchitectureBlank g.Box.FIP &gt; rect, .PhysicalArchitectureBlank g.Box.FIP &gt; use { fill: #E08503; stroke-width: 0; }
.PhysicalArchitectureBlank g.Box.FOP &gt; rect, .PhysicalArchitectureBlank g.Box.FOP &gt; use { fill: #095C2E; stroke-width: 0; }
.PhysicalArchitectureBlank g.Box.PP &gt; line { stroke: #7B694F; }
.PhysicalArchitectureBlank g.Box.PP &gt; rect, .PhysicalArchitectureBlank g.Box.PP &gt; use { fill: #FFF477; stroke: #7B694F; }
.PhysicalArchitectureBlank g.Box.PhysicalComponent &gt; line { stroke: #7B694F; }
.PhysicalArchitectureBlank g.Box.PhysicalComponent &gt; rect, .PhysicalArchitectureBlank g.Box.PhysicalComponent &gt; use { fill: url("#.PhysicalComponentFillGradient"); stroke: #7B694F; }
.PhysicalArchitectureBlank g.Box.PhysicalComponent &gt; text { fill: #000000; }
.PhysicalArchitectureBlank g.Box.PhysicalFunction &gt; line { stroke: #095C2E; }
.PhysicalArchitectureBlank g.Box.PhysicalFunction &gt; rect, .PhysicalArchitectureBlank g.Box.PhysicalFunction &gt; use { fill: #C5FFA6; stroke: #095C2E; }
.PhysicalArchitectureBlank g.Edge.ComponentExchange &gt; rect { fill: none; stroke: none; }
.PhysicalArchitectureBlank g.Circle.ComponentExchange &gt; circle { fill: #4A4A97; stroke: none; }
.PhysicalArchitectureBlank g.Edge.ComponentExchange &gt; path { stroke: #4A4A97; stroke-width: 2; }
.PhysicalArchitectureBlank g.Edge.ComponentExchange &gt; text { fill: #4A4A97; }
.PhysicalArchitectureBlank g.Edge.FunctionalExchange &gt; rect { fill: none; stroke: none; }
.PhysicalArchitectureBlank g.Circle.FunctionalExchange &gt; circle { fill: #095C2E; stroke: none; }
.PhysicalArchitectureBlank g.Edge.FunctionalExchange &gt; path { stroke: #095C2E; stroke-width: 2; }
.PhysicalArchitectureBlank g.Edge.FunctionalExchange &gt; text { fill: #095C2E; }
.PhysicalArchitectureBlank g.Edge.PhysicalLink &gt; rect { fill: none; stroke: none; }
.PhysicalArchitectureBlank g.Circle.PhysicalLink &gt; circle { fill: #EF2929; stroke: none; }
.PhysicalArchitectureBlank g.Edge.PhysicalLink &gt; path { stroke: #EF2929; stroke-width: 2; }
.PhysicalArchitectureBlank g.Edge.PhysicalLink &gt; text { fill: #EF2929; }
</style><symbol id="ErrorSymbol" viewBox="0 0 2.6458 2.6458"><path d="M 0,0 2.6458333,2.6458333 M 0,2.6458333 2.6458333,0" style="fill: none; stroke: red; stroke-width: 0.5;" /></symbol><symbol id="RequirementSymbol" style="stroke: none;" viewBox="0 0 50 50"><path d="M 12.806813,6.5702324 A 6.244379,5.8113241 0 0 1 6.5624342,12.381557 6.244379,5.8113241 0 0 1 0.31805515,6.5702324 6.244379,5.8113241 0 0 1 6.5624342,0.75890827 6.244379,5.8113241 0 0 1 12.806813,6.5702324 Z" style="fill: #431964" /><path d="m 4.3228658,5.8752475 h 2.9514721 q 0.2945581,0 0.5184223,-0.1413879 Q 8.0225155,5.5865806 8.1462299,5.3214783 8.2699443,5.056376 8.2758355,4.7029063 v 0 q 0,-0.3475786 -0.1237144,-0.6126808 Q 8.0284067,3.8251232 7.7986513,3.6837353 7.5747872,3.5364562 7.2743379,3.5364562 H 4.3228658 V 2.1873801 h 2.9927103 q 0.7246129,0 1.2724909,0.3122316 0.5478781,0.3122316 0.8483274,0.8836743 0.3063404,0.5714427 0.3063404,1.3196203 v 0 q 0,0.7540687 -0.3063404,1.3255114 Q 9.1359451,6.5998605 8.5821759,6.912092 8.0342978,7.2243236 7.3155761,7.2243236 H 4.3228658 Z M 3.7396407,2.1873801 H 5.1476285 V 10.759021 H 3.7396407 Z M 6.3906636,6.9592213 7.8516718,6.6882279 10.102096,10.759021 H 8.4113322 Z" style="fill:#ffffff;" /></symbol><symbol id="PhysicalLinkSymbol" viewBox="0 0 40 30"><linearGradient id="PhysicalLinkSymbol-gradient" x1="0" x2="1" y1="0" y2="1"><stop offset="0.0" stop-color="#DFDF00" stop-opacity="1" /><stop offset="1.0" stop-color="#E8E809" stop-opacity="1" /></linearGradient><linearGradient id="PhysicalLinkSymbol-gradientreverse" x1="0" x2="1" y1="0" y2="1"><stop offset="0.0" stop-color="#E8E809" stop-opacity="1" /><stop offset="1.0" stop-color="#DFDF00" stop-opacity="1" /></linearGradient><g style="stroke:#000;stroke-width:2;"><path d="M 36.190065,5.0377724 V 24.962228 H 26.17482 V 5.0377724 Z" style="fill: url(#PhysicalLinkSymbol-gradientreverse)" /><path d="m 14.372107,10 h 12.622435 c 0.926189,0.585267 1.836022,1.274509 2.268178,5 -0.208657,2.812473 -0.954601,4.503809 -2.273297,5 H 14.296948" style="fill: #F60A0A" /><path d="M 3.9464908,5.0048246 V 24.995175 H 10.87518 C 12.433713,24.159139 15.158267,20.291241 15.313795,15 15.498614,11.583142 14.059659,6.6240913 10.87518,5.0048246 c -2.2179509,0 -4.5908341,0 -6.9286892,0 z" style="fill: url(#PhysicalLinkSymbol-gradient)" /></g></symbol><symbol id="ComponentExchangeSymbol" viewBox="0 0 40 30"><linearGradient id="ComponentExchangeSymbol-gradient" x1="0" x2="1" y1="0" y2="1"><stop offset="0.0" stop-color="#8FA5B6" stop-opacity="1" /><stop offset="1.0" stop-color="#E0E9F3" stop-opacity="1" /></linearGradient><linearGradient id="ComponentExchangeSymbol-gradientreverse" x1="0" x2="1" y1="0" y2="1"><stop offset="0.0" stop-color="#E0E9F3" stop-opacity="1" /><stop offset="1.0" stop-color="#8FA5B6" stop-opacity="1" /></linearGradient><g style="stroke:#000;stroke-width:2;"><path d="M 36.190065,5.0377724 V 24.962228 H 26.17482 V 5.0377724 Z" style="fill: url(#ComponentExchangeSymbol-gradientreverse)" /><path d="m 14.372107,10 h 12.622435 c 0.926189,0.585267 1.836022,1.274509 2.268178,5 -0.208657,2.812473 -0.954601,4.503809 -2.273297,5 H 14.296948" style="fill: #A3BCD0" /><path d="M 3.9464908,5.0048246 V 24.995175 H 10.87518 C 12.433713,24.159139 15.158267,20.291241 15.313795,15 15.498614,11.583142 14.059659,6.6240913 10.87518,5.0048246 c -2.2179509,0 -4.5908341,0 -6.9286892,0 z" style="fill: url(#ComponentExchangeSymbol-gradient)" /></g></symbol><symbol id="ComponentPortSymbol" viewBox="0 0 10 10"><path d="M0 0h10v10H0z" /><path d="M 2,2 5,7 8,2" /></symbol><symbol id="PortSymbol" viewBox="0 0 10 10"><path d="M0 0h10v10H0z" /><path d="M5 1L1 9h8z" fill="#fff" /></symbol><linearGradient id=".PhysicalComponentFillGradient" x1="0%" x2="0%" y1="0%" y2="100%"><stop offset="0" stop-color="#FFFFDC" /><stop offset="1" stop-color="#FFFCB7" /></linearGradient><linearGradient id="CustomGradient_C3E6FF_96B1DA" x1="0" x2="0" y1="0" y2="1"><stop offset="0.0" stop-color="#C3E6FF" stop-opacity="1" /><stop offset="1.0" stop-color="#96B1DA" stop-opacity="1" /></linearGradient><linearGradient id="CustomGradient_DAFDFF_C6E6FF" x1="0" x2="0" y1="0" y2="1"><stop offset="0.0" stop-color="#DAFDFF" stop-opacity="1" /><stop offset="1.0" stop-color="#C6E6FF" stop-opacity="1" /></linearGradient></defs><rect fill="white" height="1191" stroke="none" width="1391" x="30" y="10" /><g class="Box PhysicalComponent" id="_LQAP4GPXEey9ycqoyTpVSQ"><rect class="PhysicalComponent" height="1171" style="stroke-width: 1" width="1061" x="350.5" y="20.5" /><text class="PhysicalComponent" dominant-baseline="middle" text-anchor="middle" x="350" y="20"><tspan x="880.5" xml:space="preserve" y="31.42857142857143">Regolith Inlet System</tspan></text></g><g class="Box PhysicalComponent" id="_kaQR0GPXEey9ycqoyTpVSQ"><rect class="PhysicalComponent" height="161" style="stroke-width: 1" width="321" x="495.5" y="64.5" /><text class="PhysicalComponent" dominant-baseline="middle" text-anchor="middle" x="495" y="64"><tspan x="655.5" xml:space="preserve" y="75.42857142857143">Inlet Hopper</tspan></text></g><g class="Box PhysicalComponent" id="_6VRXoGPXEey9ycqoyTpVSQ"><rect class="PhysicalComponent" height="110" style="fill: url(&quot;#CustomGradient_C3E6FF_96B1DA&quot;); stroke: #4A4A97; stroke-width: 1" width="250" x="520.5" y="88.5" /><text class="PhysicalComponent" dominant-baseline="middle" text-anchor="middle" x="520" y="88"><tspan x="645.0" xml:space="preserve" y="99.42857142857143">Scoop Interface</tspan></text></g><g class="Box PhysicalFunction" id="_xDuo4GPZEey9ycqoyTpVSQ"><rect class="PhysicalFunction" height="60" style="stroke-width: 1" width="180" x="560.5" y="112.5" /><text class="PhysicalFunction" dominant-baseline="middle" style="fill: #095C2E" text-anchor="middle" x="560" y="112"><tspan x="650.0" xml:space="preserve" y="141.99999999999997">Store Bulk Regolith</tspan></text><use height="20" width="20" x="579.2857142857143" xlink:href="#PhysicalFunctionSymbol" y="131.99999999999997" /></g><g class="Box FIP" id="_xDyTSGPZEey9ycqoyTpVSQ"><use class="FIP" height="10" transform="rotate(90 563.5 149.5)" width="10" x="558.5" xlink:href="#PortSymbol" y="144.5" /></g><g class="Box FOP" id="_xDyTTGPZEey9ycqoyTpVSQ"><use class="FOP" height="10" transform="rotate(180 636.5 169.5)" width="10" x="631.5" xlink:href="#PortSymbol" y="164.5" /></g><g class="Box CP_IN" id="_p5KfoWPZEey9ycqoyTpVSQ"><use class="CP_IN" height="10" transform="rotate(270 523.5 156.5)" width="10" x="518.5" xlink:href="#ComponentPortSymbol" y="151.5" /></g><g class="Box PhysicalComponent" id="_ovaUMGPXEey9ycqoyTpVSQ"><rect class="PhysicalComponent" height="741" style="stroke-width: 1" width="491" x="355.5" y="254.5" /><text class="PhysicalComponent" dominant-baseline="middle" text-anchor="middle" x="355" y="254"><tspan x="600.5" xml:space="preserve" y="265.42857142857144">Shaking Sieve</tspan></text></g><g class="Box PhysicalComponent" id="_Ity40G1OEeyGAcBgdGuPdQ"><rect class="PhysicalComponent" height="191" style="stroke-width: 1" width="181" x="650.5" y="278.5" /><text class="PhysicalComponent" dominant-baseline="middle" text-anchor="middle" x="650" y="278"><tspan x="740.5" xml:space="preserve" y="289.42857142857144">Shaking Motor</tspan></text></g><g class="Box PhysicalComponent" id="_jnhF8GPaEey9ycqoyTpVSQ"><rect class="PhysicalComponent" height="141" style="fill: url(&quot;#CustomGradient_C3E6FF_96B1DA&quot;); stroke: #4A4A97; stroke-width: 1" width="161" x="655.5" y="302.5" /><text class="PhysicalComponent" dominant-baseline="middle" text-anchor="middle" x="655" y="302"><tspan x="735.5" xml:space="preserve" y="313.42857142857144">Shaking Motor</tspan></text></g><g class="Box PhysicalFunction" id="_xDv3AGPZEey9ycqoyTpVSQ"><rect class="PhysicalFunction" height="81" style="stroke-width: 1" width="141" x="665.5" y="341.5" /><text class="PhysicalFunction" dominant-baseline="middle" style="fill: #095C2E" text-anchor="middle" x="665" y="341"><tspan x="735.5" xml:space="preserve" y="375.0714285714286">Convert Electricity</tspan><tspan x="735.5" xml:space="preserve" y="387.92857142857144">into Sifting Power</tspan></text><use height="20" width="20" x="666.9285714285714" xlink:href="#PhysicalFunctionSymbol" y="371.5" /></g><g class="Box FIP" id="_xDy6ZWPZEey9ycqoyTpVSQ"><use class="FIP" height="10" transform="rotate(-180 791.5 344.5)" width="10" x="786.5" xlink:href="#PortSymbol" y="339.5" /></g><g class="Box FOP" id="_xDzhYmPZEey9ycqoyTpVSQ"><use class="FOP" height="10" transform="rotate(270 668.5 367.5)" width="10" x="663.5" xlink:href="#PortSymbol" y="362.5" /></g><g class="Box PhysicalComponent" id="_RD1WsG1OEeyGAcBgdGuPdQ"><rect class="PhysicalComponent" height="189" style="stroke-width: 1" width="239" x="370.5" y="279.5" /><text class="PhysicalComponent" dominant-baseline="middle" text-anchor="middle" x="370" y="279"><tspan x="489.5" xml:space="preserve" y="289.0">Metallic Sieves</tspan></text></g><g class="Box PhysicalComponent" id="_p3FcAGPZEey9ycqoyTpVSQ"><rect class="PhysicalComponent" height="140" style="fill: url(&quot;#CustomGradient_C3E6FF_96B1DA&quot;); stroke: #4A4A97; stroke-width: 1" width="200" x="395.5" y="303.5" /><text class="PhysicalComponent" dominant-baseline="middle" text-anchor="middle" x="395" y="303"><tspan x="495.0" xml:space="preserve" y="313.0">Sieves</tspan></text></g><g class="Box PhysicalFunction" id="_xDvP8GPZEey9ycqoyTpVSQ"><rect class="PhysicalFunction" height="80" style="stroke-width: 1" width="160" x="415.5" y="342.5" /><text class="PhysicalFunction" dominant-baseline="middle" style="fill: #095C2E" text-anchor="middle" x="415" y="342"><tspan x="495.0" xml:space="preserve" y="382.0">Remove big rocks</tspan></text><use height="20" width="20" x="427.85714285714283" xlink:href="#PhysicalFunctionSymbol" y="372.0" /></g><g class="Box FIP" id="_xDyTUGPZEey9ycqoyTpVSQ"><use class="FIP" height="10" transform="rotate(-180 521.5 345.5)" width="10" x="516.5" xlink:href="#PortSymbol" y="340.5" /></g><g class="Box FOP" id="_xDy6UWPZEey9ycqoyTpVSQ"><use class="FOP" height="10" transform="rotate(180 471.5 419.5)" width="10" x="466.5" xlink:href="#PortSymbol" y="414.5" /></g><g class="Box FOP" id="_xDy6VWPZEey9ycqoyTpVSQ"><use class="FOP" height="10" transform="rotate(180 426.5 419.5)" width="10" x="421.5" xlink:href="#PortSymbol" y="414.5" /></g><g class="Box FIP" id="_xDy6XWPZEey9ycqoyTpVSQ"><use class="FIP" height="10" transform="rotate(-90 572.5 367.5)" width="10" x="567.5" xlink:href="#PortSymbol" y="362.5" /></g><g class="Box FOP" id="_esG88H3mEeyzaLkoFCOuvA"><use class="FOP" height="10" transform="rotate(180 551.5 419.5)" width="10" x="546.5" xlink:href="#PortSymbol" y="414.5" /></g><g class="Box CP_OUT" id="_tKLBZ21xEeyGAcBgdGuPdQ"><use class="CP_OUT" height="10" transform="rotate(0 471.5 440.5)" width="10" x="466.5" xlink:href="#ComponentPortSymbol" y="435.5" /></g><g class="Box PhysicalComponent" id="_cxtTEG1OEeyGAcBgdGuPdQ"><rect class="PhysicalComponent" height="161" style="stroke-width: 1" width="439" x="380.5" y="788.5" /><text class="PhysicalComponent" dominant-baseline="middle" text-anchor="middle" x="380" y="788"><tspan x="599.5" xml:space="preserve" y="799.4285714285714">Regolith Outlet</tspan></text></g><g class="Box PhysicalComponent" id="_muYwQGPaEey9ycqoyTpVSQ"><rect class="PhysicalComponent" height="107" style="fill: url(&quot;#CustomGradient_C3E6FF_96B1DA&quot;); stroke: #4A4A97; stroke-width: 1" width="171" x="395.5" y="812.5" /><text class="PhysicalComponent" dominant-baseline="middle" text-anchor="middle" x="395" y="812"><tspan x="480.5" xml:space="preserve" y="822.0">Rocks Outlet Channel</tspan></text></g><g class="Box PhysicalFunction" id="_xDvP82PZEey9ycqoyTpVSQ"><rect class="PhysicalFunction" height="50" style="stroke-width: 1" width="100" x="425.5" y="851.5" /><text class="PhysicalFunction" dominant-baseline="middle" style="fill: #095C2E" text-anchor="middle" x="425" y="851"><tspan x="475.0" xml:space="preserve" y="869.5714285714286">Remove Large</tspan><tspan x="475.0" xml:space="preserve" y="882.4285714285714">Rocks</tspan></text><use height="20" width="20" x="423" xlink:href="#PhysicalFunctionSymbol" y="866.0" /></g><g class="Box FIP" id="_xDy6WWPZEey9ycqoyTpVSQ"><use class="FIP" height="10" transform="rotate(-180 431.5 854.5)" width="10" x="426.5" xlink:href="#PortSymbol" y="849.5" /></g><g class="Box FOP" id="_xDy6YWPZEey9ycqoyTpVSQ"><use class="FOP" height="10" transform="rotate(270 428.5 878.5)" width="10" x="423.5" xlink:href="#PortSymbol" y="873.5" /></g><g class="Box CP_OUT" id="_y0II8m1wEeyGAcBgdGuPdQ"><use class="CP_OUT" height="10" transform="rotate(90 398.5 878.5)" width="10" x="393.5" xlink:href="#ComponentPortSymbol" y="873.5" /></g><g class="Box PhysicalComponent" id="_XCT6AH3mEeyzaLkoFCOuvA"><rect class="PhysicalComponent" height="107" style="fill: url(&quot;#CustomGradient_C3E6FF_96B1DA&quot;); stroke: #4A4A97; stroke-width: 1" width="171" x="585.5" y="812.5" /><text class="PhysicalComponent" dominant-baseline="middle" text-anchor="middle" x="585" y="812"><tspan x="670.5" xml:space="preserve" y="822.0">Dust Outlet Channel</tspan></text></g><g class="Box PhysicalFunction" id="_Y6ZdAH3mEeyzaLkoFCOuvA"><rect class="PhysicalFunction" height="50" style="stroke-width: 1" width="121" x="615.5" y="851.5" /><text class="PhysicalFunction" dominant-baseline="middle" style="fill: #095C2E" text-anchor="middle" x="615" y="851"><tspan x="675.5" xml:space="preserve" y="871.0">Remove too fine</tspan><tspan x="675.5" xml:space="preserve" y="881.0">dust</tspan></text><use height="20" width="20" x="613" xlink:href="#PhysicalFunctionSymbol" y="866.0" /></g><g class="Box FIP" id="_esHkA33mEeyzaLkoFCOuvA"><use class="FIP" height="10" transform="rotate(90 618.5 857.5)" width="10" x="613.5" xlink:href="#PortSymbol" y="852.5" /></g><g class="Box FOP" id="_FoBSUo0ZEeyhn6eVz531Yw"><use class="FOP" height="10" transform="rotate(270 618.5 887.5)" width="10" x="613.5" xlink:href="#PortSymbol" y="882.5" /></g><g class="Box CP_OUT" id="_FoAENo0ZEeyhn6eVz531Yw"><use class="CP_OUT" height="10" transform="rotate(90 588.5 907.5)" width="10" x="583.5" xlink:href="#ComponentPortSymbol" y="902.5" /></g><g class="Box PhysicalComponent" id="_NSx1AG1QEeyGAcBgdGuPdQ"><rect class="PhysicalComponent" height="241" style="stroke-width: 1" width="449" x="380.5" y="518.5" /><text class="PhysicalComponent" dominant-baseline="middle" text-anchor="middle" x="380" y="518"><tspan x="604.5" xml:space="preserve" y="529.4285714285714">Regolith Powder Hopper</tspan></text></g><g class="Box PhysicalComponent" id="_GTXZ8GPbEey9ycqoyTpVSQ"><rect class="PhysicalComponent" height="151" style="fill: url(&quot;#CustomGradient_C3E6FF_96B1DA&quot;); stroke: #4A4A97; stroke-width: 1" width="374" x="402.5" y="542.5" /><text class="PhysicalComponent" dominant-baseline="middle" text-anchor="middle" x="402" y="542"><tspan x="589.0" xml:space="preserve" y="553.4285714285714">Regolith Powder Container</tspan></text></g><g class="Box PhysicalFunction" id="_L5_gsGPaEey9ycqoyTpVSQ"><rect class="PhysicalFunction" height="84" style="stroke-width: 1" width="271" x="445.5" y="581.5" /><text class="PhysicalFunction" dominant-baseline="middle" style="fill: #095C2E" text-anchor="middle" x="445" y="581"><tspan x="580.5" xml:space="preserve" y="623.0">Store Regolith Powder</tspan></text><use height="20" width="20" x="500.5" xlink:href="#PhysicalFunctionSymbol" y="613.0" /></g><g class="Box FIP" id="_L6DyMmPaEey9ycqoyTpVSQ"><use class="FIP" height="10" transform="rotate(-180 472.5 584.5)" width="10" x="467.5" xlink:href="#PortSymbol" y="579.5" /></g><g class="Box FOP" id="_L6EZMGPaEey9ycqoyTpVSQ"><use class="FOP" height="10" transform="rotate(270 448.5 607.5)" width="10" x="443.5" xlink:href="#PortSymbol" y="602.5" /></g><g class="Box FOP" id="_L6EZNGPaEey9ycqoyTpVSQ"><use class="FOP" height="10" transform="rotate(90 713.5 637.5)" width="10" x="708.5" xlink:href="#PortSymbol" y="632.5" /></g><g class="Box FOP" id="_L6EZOGPaEey9ycqoyTpVSQ"><use class="FOP" height="10" transform="rotate(270 448.5 647.5)" width="10" x="443.5" xlink:href="#PortSymbol" y="642.5" /></g><g class="Box FOP" id="_XTP2tG8MEeyfvfoYzf83oA"><use class="FOP" height="10" transform="rotate(270 448.5 627.5)" width="10" x="443.5" xlink:href="#PortSymbol" y="622.5" /></g><g class="Box CP_IN" id="_tKLoim1xEeyGAcBgdGuPdQ"><use class="CP_IN" height="10" transform="rotate(0 471.5 545.5)" width="10" x="466.5" xlink:href="#ComponentPortSymbol" y="540.5" /></g><g class="Box PhysicalComponent" id="_sUVMcGPXEey9ycqoyTpVSQ"><rect class="PhysicalComponent" height="1071" style="stroke-width: 1" width="521" x="865.5" y="74.5" /><text class="PhysicalComponent" dominant-baseline="middle" text-anchor="middle" x="865" y="74"><tspan x="1125.5" xml:space="preserve" y="85.42857142857143">Regolilth Transfer System</tspan></text></g><g class="Box PhysicalComponent" id="_Av_p4G1QEeyGAcBgdGuPdQ"><rect class="PhysicalComponent" height="221" style="stroke-width: 1" width="481" x="880.5" y="108.5" /><text class="PhysicalComponent" dominant-baseline="middle" text-anchor="middle" x="880" y="108"><tspan x="1120.5" xml:space="preserve" y="119.42857142857143">Regolith Transfer System Electrical Engine</tspan></text></g><g class="Box PhysicalComponent" id="_M9vAMGPbEey9ycqoyTpVSQ"><rect class="PhysicalComponent" height="161" style="fill: url(&quot;#CustomGradient_C3E6FF_96B1DA&quot;); stroke: #4A4A97; stroke-width: 1" width="441" x="895.5" y="142.5" /><text class="PhysicalComponent" dominant-baseline="middle" text-anchor="middle" x="895" y="142"><tspan x="1115.5" xml:space="preserve" y="153.42857142857142">Hatch Engine</tspan></text></g><g class="Box PhysicalFunction" id="_L5_gs2PaEey9ycqoyTpVSQ"><rect class="PhysicalFunction" height="90" style="stroke-width: 1" width="371" x="925.5" y="181.5" /><text class="PhysicalFunction" dominant-baseline="middle" style="fill: #095C2E" text-anchor="middle" x="925" y="181"><tspan x="1110.5" xml:space="preserve" y="219.57142857142856">Convert Electricity to control Regolith powder transfer in and out</tspan><tspan x="1110.5" xml:space="preserve" y="232.42857142857142">of chamber</tspan></text><use height="20" width="20" x="923" xlink:href="#PhysicalFunctionSymbol" y="216.0" /></g><g class="Box FIP" id="_L6EZPGPaEey9ycqoyTpVSQ"><use class="FIP" height="10" transform="rotate(-180 951.5 184.5)" width="10" x="946.5" xlink:href="#PortSymbol" y="179.5" /></g><g class="Box FOP" id="_L6EZQGPaEey9ycqoyTpVSQ"><use class="FOP" height="10" transform="rotate(180 966.5 268.5)" width="10" x="961.5" xlink:href="#PortSymbol" y="263.5" /></g><g class="Box PhysicalComponent" id="_WuMxgGPXEey9ycqoyTpVSQ"><rect class="PhysicalComponent" height="151" style="stroke-width: 1" width="457" x="880.5" y="758.5" /><text class="PhysicalComponent" dominant-baseline="middle" text-anchor="middle" x="880" y="758"><tspan x="1108.5" xml:space="preserve" y="768.0">Chamber Inlet Seal</tspan></text></g><g class="Box PhysicalComponent" id="_06l60GPbEey9ycqoyTpVSQ"><rect class="PhysicalComponent" height="105" style="fill: url(&quot;#CustomGradient_C3E6FF_96B1DA&quot;); stroke: #4A4A97; stroke-width: 1" width="401" x="895.5" y="782.5" /><text class="PhysicalComponent" dominant-baseline="middle" text-anchor="middle" x="895" y="782"><tspan x="1095.5" xml:space="preserve" y="793.4285714285714">Chamber Regolith Inlet Seal</tspan></text></g><g class="Box PhysicalFunction" id="_6ICQEGPbEey9ycqoyTpVSQ"><rect class="PhysicalFunction" height="61" style="stroke-width: 1" width="230" x="985.5" y="811.5" /><text class="PhysicalFunction" dominant-baseline="middle" style="fill: #095C2E" text-anchor="middle" x="985" y="811"><tspan x="1100.0" xml:space="preserve" y="835.0714285714286">Seal Vaporisation Chamber Inlet from</tspan><tspan x="1100.0" xml:space="preserve" y="847.9285714285714">Lunar Atmosphere</tspan></text><use height="20" width="20" x="983" xlink:href="#PhysicalFunctionSymbol" y="831.5" /></g><g class="Box FIP" id="_baA0jG_MEeyOFpKNW4HVvQ"><use class="FIP" height="10" transform="rotate(-180 1031.5 814.5)" width="10" x="1026.5" xlink:href="#PortSymbol" y="809.5" /></g><g class="Box FOP" id="_cI3egm_MEeyOFpKNW4HVvQ"><use class="FOP" height="10" transform="rotate(0 1176.5 814.5)" width="10" x="1171.5" xlink:href="#PortSymbol" y="809.5" /></g><g class="Box FIP" id="_FoE8so0ZEeyhn6eVz531Yw"><use class="FIP" height="10" transform="rotate(90 988.5 847.5)" width="10" x="983.5" xlink:href="#PortSymbol" y="842.5" /></g><g class="Box PhysicalComponent" id="_PxNI0I0ZEeyhn6eVz531Yw"><rect class="PhysicalComponent" height="351" style="stroke-width: 1" width="471" x="880.5" y="348.5" /><text class="PhysicalComponent" dominant-baseline="middle" text-anchor="middle" x="880" y="348"><tspan x="1115.5" xml:space="preserve" y="359.42857142857144">Regolith Crucible</tspan></text></g><g class="Box PhysicalComponent" id="_RaUbsI0ZEeyhn6eVz531Yw"><rect class="PhysicalComponent" height="251" style="fill: url(&quot;#CustomGradient_C3E6FF_96B1DA&quot;); stroke: #4A4A97; stroke-width: 1" width="441" x="885.5" y="402.5" /><text class="PhysicalComponent" dominant-baseline="middle" text-anchor="middle" x="885" y="402"><tspan x="1105.5" xml:space="preserve" y="413.42857142857144">Regolith Crucible</tspan></text></g><g class="Box PhysicalFunction" id="_V7CN0I0ZEeyhn6eVz531Yw"><rect class="PhysicalFunction" height="82" style="stroke-width: 1" width="210" x="1095.5" y="430.5" /><text class="PhysicalFunction" dominant-baseline="middle" style="fill: #095C2E" text-anchor="middle" x="1095" y="430"><tspan x="1200.0" xml:space="preserve" y="464.5714285714286">Host Solid Regolith during</tspan><tspan x="1200.0" xml:space="preserve" y="477.42857142857144">vaporisation</tspan></text><use height="20" width="20" x="1110.7142857142858" xlink:href="#PhysicalFunctionSymbol" y="461.0" /></g><g class="Box FIP" id="_V7NM9I0ZEeyhn6eVz531Yw"><use class="FIP" height="10" transform="rotate(-90 1302.5 497.5)" width="10" x="1297.5" xlink:href="#PortSymbol" y="492.5" /></g><g class="Box FIP" id="_V7N0AY0ZEeyhn6eVz531Yw"><use class="FIP" height="10" transform="rotate(0 1181.5 509.5)" width="10" x="1176.5" xlink:href="#PortSymbol" y="504.5" /></g><g class="Box FOP" id="_V7N0BY0ZEeyhn6eVz531Yw"><use class="FOP" height="10" transform="rotate(90 1302.5 479.5)" width="10" x="1297.5" xlink:href="#PortSymbol" y="474.5" /></g><g class="Box FOP" id="_V7N0CY0ZEeyhn6eVz531Yw"><use class="FOP" height="10" transform="rotate(180 1131.5 509.5)" width="10" x="1126.5" xlink:href="#PortSymbol" y="504.5" /></g><g class="Box FOP" id="_V7ObEo0ZEeyhn6eVz531Yw"><use class="FOP" height="10" transform="rotate(0 1211.5 433.5)" width="10" x="1206.5" xlink:href="#PortSymbol" y="428.5" /></g><g class="Box PhysicalFunction" id="_V7C04o0ZEeyhn6eVz531Yw"><rect class="PhysicalFunction" height="82" style="stroke-width: 1" width="171" x="905.5" y="430.5" /><text class="PhysicalFunction" dominant-baseline="middle" style="fill: #095C2E" text-anchor="middle" x="905" y="430"><tspan x="990.5" xml:space="preserve" y="464.5714285714286">Transfer Regolith Powder</tspan><tspan x="990.5" xml:space="preserve" y="477.42857142857144">to vapourisation</tspan></text><use height="20" width="20" x="903" xlink:href="#PhysicalFunctionSymbol" y="461.0" /></g><g class="Box FIP" id="_V7ObFo0ZEeyhn6eVz531Yw"><use class="FIP" height="10" transform="rotate(90 908.5 477.5)" width="10" x="903.5" xlink:href="#PortSymbol" y="472.5" /></g><g class="Box FIP" id="_V7PCIY0ZEeyhn6eVz531Yw"><use class="FIP" height="10" transform="rotate(-180 971.5 433.5)" width="10" x="966.5" xlink:href="#PortSymbol" y="428.5" /></g><g class="Box FOP" id="_V7PCJY0ZEeyhn6eVz531Yw"><use class="FOP" height="10" transform="rotate(180 1026.5 509.5)" width="10" x="1021.5" xlink:href="#PortSymbol" y="504.5" /></g><g class="Box PhysicalFunction" id="_V7Db8I0ZEeyhn6eVz531Yw"><rect class="PhysicalFunction" height="111" style="stroke-width: 1" width="171" x="905.5" y="531.5" /><text class="PhysicalFunction" dominant-baseline="middle" style="fill: #095C2E" text-anchor="middle" x="905" y="531"><tspan x="990.5" xml:space="preserve" y="573.6428571428571">Transfer Unpyrolysed</tspan><tspan x="990.5" xml:space="preserve" y="586.5">Regolith to lunar</tspan><tspan x="990.5" xml:space="preserve" y="599.3571428571429">environment</tspan></text><use height="20" width="20" x="913.3571428571429" xlink:href="#PhysicalFunctionSymbol" y="576.5" /></g><g class="Box FIP" id="_V7PpMY0ZEeyhn6eVz531Yw"><use class="FIP" height="10" transform="rotate(-90 1073.5 597.5)" width="10" x="1068.5" xlink:href="#PortSymbol" y="592.5" /></g><g class="Box FOP" id="_V7PpNY0ZEeyhn6eVz531Yw"><use class="FOP" height="10" transform="rotate(180 976.5 639.5)" width="10" x="971.5" xlink:href="#PortSymbol" y="634.5" /></g><g class="Box PhysicalComponent" id="_PxQMII0ZEeyhn6eVz531Yw"><rect class="PhysicalComponent" height="191" style="stroke-width: 1" width="461" x="880.5" y="928.5" /><text class="PhysicalComponent" dominant-baseline="middle" text-anchor="middle" x="880" y="928"><tspan x="1110.5" xml:space="preserve" y="939.4285714285714">Vaporisation Waste Outlet</tspan></text></g><g class="Box PhysicalComponent" id="_TEdCQI0ZEeyhn6eVz531Yw"><rect class="PhysicalComponent" height="124" style="fill: url(&quot;#CustomGradient_C3E6FF_96B1DA&quot;); stroke: #4A4A97; stroke-width: 1" width="399" x="897.5" y="962.5" /><text class="PhysicalComponent" dominant-baseline="middle" text-anchor="middle" x="897" y="962"><tspan x="1096.5" xml:space="preserve" y="973.4285714285714">Vapourisation Waste Outlet</tspan></text></g><g class="Box PhysicalFunction" id="_UoHNYI0ZEeyhn6eVz531Yw"><rect class="PhysicalFunction" height="50" style="stroke-width: 1" width="341" x="925.5" y="1011.5" /><text class="PhysicalFunction" dominant-baseline="middle" style="fill: #095C2E" text-anchor="middle" x="925" y="1011"><tspan x="1095.5" xml:space="preserve" y="1036.0">Remove Unvapourised Regolith by gravity</tspan></text><use height="20" width="20" x="964.0714285714286" xlink:href="#PhysicalFunctionSymbol" y="1026.0" /></g><g class="Box FIP" id="_UoXsE40ZEeyhn6eVz531Yw"><use class="FIP" height="10" transform="rotate(-180 981.5 1014.5)" width="10" x="976.5" xlink:href="#PortSymbol" y="1009.5" /></g><g class="Box FIP" id="_UoXsF40ZEeyhn6eVz531Yw"><use class="FIP" height="10" transform="rotate(90 928.5 1037.5)" width="10" x="923.5" xlink:href="#PortSymbol" y="1032.5" /></g><g class="Box FOP" id="_UoYTI40ZEeyhn6eVz531Yw"><use class="FOP" height="10" transform="rotate(180 1081.5 1058.5)" width="10" x="1076.5" xlink:href="#PortSymbol" y="1053.5" /></g><g class="Box CP_OUT" id="_TEjI4I0ZEeyhn6eVz531Yw"><use class="CP_OUT" height="10" transform="rotate(0 1061.5 1083.5)" width="10" x="1056.5" xlink:href="#ComponentPortSymbol" y="1078.5" /></g><g class="Box PhysicalActor" id="_txvTsGPZEey9ycqoyTpVSQ"><rect class="PhysicalActor" height="171" style="fill: url(&quot;#CustomGradient_DAFDFF_C6E6FF&quot;); stroke: #4A4A97; stroke-width: 1" width="281" x="40.5" y="100.5" /><text class="PhysicalActor" dominant-baseline="middle" text-anchor="middle" x="40" y="100"><tspan x="180.5" xml:space="preserve" y="111.42857142857143">Excavation System</tspan></text></g><g class="Box PhysicalFunction" id="_5lYg4GPZEey9ycqoyTpVSQ"><rect class="PhysicalFunction" height="50" style="stroke-width: 1" width="190" x="91.5" y="199.5" /><text class="PhysicalFunction" dominant-baseline="middle" style="fill: #095C2E" text-anchor="middle" x="91" y="199"><tspan x="186.0" xml:space="preserve" y="223.99999999999997">Drill Regolith</tspan></text><use height="20" width="20" x="131.71428571428572" xlink:href="#PhysicalFunctionSymbol" y="213.99999999999997" /></g><g class="Box FIP" id="_5lgct2PZEey9ycqoyTpVSQ"><use class="FIP" height="10" transform="rotate(0 106.5 246.5)" width="10" x="101.5" xlink:href="#PortSymbol" y="241.5" /></g><g class="Box FIP" id="_5lgcu2PZEey9ycqoyTpVSQ"><use class="FIP" height="10" transform="rotate(0 126.5 246.5)" width="10" x="121.5" xlink:href="#PortSymbol" y="241.5" /></g><g class="Box FIP" id="_5lhDwmPZEey9ycqoyTpVSQ"><use class="FIP" height="10" transform="rotate(0 146.5 246.5)" width="10" x="141.5" xlink:href="#PortSymbol" y="241.5" /></g><g class="Box FOP" id="_5lhDxmPZEey9ycqoyTpVSQ"><use class="FOP" height="10" transform="rotate(0 206.5 202.5)" width="10" x="201.5" xlink:href="#PortSymbol" y="197.5" /></g><g class="Box FOP" id="_5lhDymPZEey9ycqoyTpVSQ"><use class="FOP" height="10" transform="rotate(180 246.5 246.5)" width="10" x="241.5" xlink:href="#PortSymbol" y="241.5" /></g><g class="Box PhysicalFunction" id="_5lZH8mPZEey9ycqoyTpVSQ"><rect class="PhysicalFunction" height="50" style="stroke-width: 1" width="191" x="80.5" y="129.5" /><text class="PhysicalFunction" dominant-baseline="middle" style="fill: #095C2E" text-anchor="middle" x="80" y="129"><tspan x="175.5" xml:space="preserve" y="153.99999999999997">Provide Unprocessed Regolith</tspan></text><use height="20" width="20" x="78" xlink:href="#PhysicalFunctionSymbol" y="143.99999999999997" /></g><g class="Box FIP" id="_5lhq0GPZEey9ycqoyTpVSQ"><use class="FIP" height="10" transform="rotate(0 206.5 176.5)" width="10" x="201.5" xlink:href="#PortSymbol" y="171.5" /></g><g class="Box FOP" id="_5lhq1GPZEey9ycqoyTpVSQ"><use class="FOP" height="10" transform="rotate(90 268.5 155.5)" width="10" x="263.5" xlink:href="#PortSymbol" y="150.5" /></g><g class="Box CP_IN" id="_tx0MMGPZEey9ycqoyTpVSQ"><use class="CP_IN" height="10" transform="rotate(180 106.5 268.5)" width="10" x="101.5" xlink:href="#ComponentPortSymbol" y="263.5" /></g><g class="Box CP_IN" id="_tx0MM2PZEey9ycqoyTpVSQ"><use class="CP_IN" height="10" transform="rotate(180 146.5 268.5)" width="10" x="141.5" xlink:href="#ComponentPortSymbol" y="263.5" /></g><g class="Box CP_OUT" id="_tx0MNmPZEey9ycqoyTpVSQ"><use class="CP_OUT" height="10" transform="rotate(0 246.5 268.5)" width="10" x="241.5" xlink:href="#ComponentPortSymbol" y="263.5" /></g><g class="Box CP_IN" id="_tx0MOWPZEey9ycqoyTpVSQ"><use class="CP_IN" height="10" transform="rotate(180 126.5 268.5)" width="10" x="121.5" xlink:href="#ComponentPortSymbol" y="263.5" /></g><g class="Box CP_OUT" id="_tx0zQWPZEey9ycqoyTpVSQ"><use class="CP_OUT" height="10" transform="rotate(-90 318.5 156.5)" width="10" x="313.5" xlink:href="#ComponentPortSymbol" y="151.5" /></g><g class="Edge ComponentExchange" id="_tx4drmPZEey9ycqoyTpVSQ"><path class="Edge" d="M 313.5 156.5 518.5 156.5" /><rect class="AnnotationBB" height="13" width="115" x="369" y="145" /><text class="Annotation" dominant-baseline="middle" text-anchor="middle" x="357.0" y="145"><tspan x="427.5" xml:space="preserve" y="151.42857142857142">UnprocessedRegolith</tspan></text><use height="20" width="20" x="350.35714285714283" xlink:href="#ComponentExchangeSymbol" y="141.42857142857142" /></g><g class="Edge FIPAllocation" id="_5liR6GPZEey9ycqoyTpVSQ"><path class="Edge" d="M 101.5 268.5 101.5 246.5" style="stroke: #E08503; stroke-dasharray: 5; stroke-width: 2" /><rect class="AnnotationBB" height="0" width="0" x="112" y="257" /><text class="Annotation" dominant-baseline="middle" text-anchor="middle" x="112" y="257"><tspan x="112.0" xml:space="preserve" y="257.0" /></text></g><g class="Edge FIPAllocation" id="_5li48mPZEey9ycqoyTpVSQ"><path class="Edge" d="M 141.5 268.5 141.5 246.5" style="stroke: #E08503; stroke-dasharray: 5; stroke-width: 2" /><rect class="AnnotationBB" height="0" width="0" x="147" y="255" /><text class="Annotation" dominant-baseline="middle" text-anchor="middle" x="147" y="255"><tspan x="147.0" xml:space="preserve" y="255.0" /></text></g><g class="Edge FOPAllocation" id="_5li492PZEey9ycqoyTpVSQ"><path class="Edge" d="M 241.5 268.5 241.5 246.5" style="stroke: #274C72; stroke-dasharray: 5; stroke-width: 2" /><rect class="AnnotationBB" height="0" width="0" x="242" y="250" /><text class="Annotation" dominant-baseline="middle" text-anchor="middle" x="242" y="250"><tspan x="242.0" xml:space="preserve" y="250.0" /></text></g><g class="Edge FIPAllocation" id="_5li4_GPZEey9ycqoyTpVSQ"><path class="Edge" d="M 121.5 268.5 121.5 246.5" style="stroke: #E08503; stroke-dasharray: 5; stroke-width: 2" /><rect class="AnnotationBB" height="0" width="0" x="124" y="255" /><text class="Annotation" dominant-baseline="middle" text-anchor="middle" x="124" y="255"><tspan x="124.0" xml:space="preserve" y="255.0" /></text></g><g class="Edge FunctionalExchange" id="_5ljgGGPZEey9ycqoyTpVSQ"><path class="Edge" d="M 201.5 202.5 201.5 176.5" /><rect class="AnnotationBB" height="13" width="80" x="164" y="179" /><text class="Annotation" dominant-baseline="middle" text-anchor="middle" x="152.0" y="179"><tspan x="205.0" xml:space="preserve" y="185.42857142857142">ExtractRegolith</tspan></text><use height="20" width="20" x="145.0" xlink:href="#FunctionalExchangeSymbol" y="175.42857142857142" /></g><g class="Edge FOPAllocation" id="_9N11aGPZEey9ycqoyTpVSQ"><path class="Edge" d="M 313.5 156.5 263.5 155.5" style="stroke: #274C72; stroke-dasharray: 5; stroke-width: 2" /><rect class="AnnotationBB" height="0" width="0" x="295" y="162" /><text class="Annotation" dominant-baseline="middle" text-anchor="middle" x="295" y="162"><tspan x="295.0" xml:space="preserve" y="162.0" /></text></g><g class="Edge FIPAllocation" id="_9N11bWPZEey9ycqoyTpVSQ"><path class="Edge" d="M 518.5 156.5 558.5 149.5" style="stroke: #E08503; stroke-dasharray: 5; stroke-width: 2" /><rect class="AnnotationBB" height="0" width="0" x="543" y="149" /><text class="Annotation" dominant-baseline="middle" text-anchor="middle" x="543" y="149"><tspan x="543.0" xml:space="preserve" y="149.0" /></text></g><g class="Edge FunctionalExchange" id="_xD0vgGPZEey9ycqoyTpVSQ"><path class="Edge" d="M 631.5 169.5 636.5 227.5 521.5 227.5 516.5 345.5" /><rect class="AnnotationBB" height="13" width="115" x="520" y="227" /><text class="Annotation" dominant-baseline="middle" text-anchor="middle" x="508.0" y="227"><tspan x="578.5" xml:space="preserve" y="233.42857142857142">UnprocessedRegolith</tspan></text><use height="20" width="20" x="501.3571428571429" xlink:href="#FunctionalExchangeSymbol" y="223.42857142857142" /></g><g class="Edge FunctionalExchange" id="_xD0vkmPZEey9ycqoyTpVSQ"><path class="Edge" d="M 663.5 367.5 567.5 367.5" /><rect class="AnnotationBB" height="13" width="129" x="565" y="371" /><text class="Annotation" dominant-baseline="middle" text-anchor="middle" x="553.0" y="371"><tspan x="630.5" xml:space="preserve" y="377.42857142857144">PowerForRegolithSifting</tspan></text><use height="20" width="20" x="546.2142857142857" xlink:href="#FunctionalExchangeSymbol" y="367.42857142857144" /></g><g class="Edge FunctionalExchange" id="_xD0viWPZEey9ycqoyTpVSQ"><path class="Edge" d="M 421.5 419.5 426.5 854.5" /><rect class="AnnotationBB" height="13" width="65" x="404" y="578" /><text class="Annotation" dominant-baseline="middle" text-anchor="middle" x="392.0" y="578"><tspan x="437.5" xml:space="preserve" y="584.4285714285714">Large Rocks</tspan></text><use height="20" width="20" x="385.35714285714283" xlink:href="#FunctionalExchangeSymbol" y="574.4285714285714" /></g><g class="Edge FOPAllocation" id="__6illG1wEeyGAcBgdGuPdQ"><path class="Edge" d="M 393.5 878.5 423.5 878.5" style="stroke: #274C72; stroke-dasharray: 5; stroke-width: 2" /><rect class="AnnotationBB" height="0" width="0" x="410" y="873" /><text class="Annotation" dominant-baseline="middle" text-anchor="middle" x="410" y="873"><tspan x="410.0" xml:space="preserve" y="873.0" /></text></g><g class="Edge FOPAllocation" id="_wy40pG1xEeyGAcBgdGuPdQ"><path class="Edge" d="M 466.5 440.5 466.5 419.5" style="stroke: #274C72; stroke-dasharray: 5; stroke-width: 2" /><rect class="AnnotationBB" height="0" width="0" x="474" y="434" /><text class="Annotation" dominant-baseline="middle" text-anchor="middle" x="474" y="434"><tspan x="474.0" xml:space="preserve" y="434.0" /></text></g><g class="Edge FunctionalExchange" id="_esILEH3mEeyzaLkoFCOuvA"><path class="Edge" d="M 546.5 419.5 613.5 857.5" /><rect class="AnnotationBB" height="13" width="98" x="534" y="602" /><text class="Annotation" dominant-baseline="middle" text-anchor="middle" x="522.0" y="602"><tspan x="584.0" xml:space="preserve" y="608.4285714285714">Fine Regolith Dust</tspan></text><use height="20" width="20" x="515.4285714285714" xlink:href="#FunctionalExchangeSymbol" y="598.4285714285714" /></g><g class="Edge ComponentExchange" id="_tKNdpG1xEeyGAcBgdGuPdQ"><path class="Edge" d="M 466.5 440.5 466.5 545.5" /><rect class="AnnotationBB" height="13" width="185" x="385" y="484" /><text class="Annotation" dominant-baseline="middle" text-anchor="middle" x="373.0" y="484"><tspan x="478.5" xml:space="preserve" y="490.42857142857144">RegolithPowderTransferToStorage</tspan></text><use height="20" width="20" x="366.3571428571429" xlink:href="#ComponentExchangeSymbol" y="480.42857142857144" /></g><g class="Edge FIPAllocation" id="_wy40qW1xEeyGAcBgdGuPdQ"><path class="Edge" d="M 466.5 545.5 467.5 584.5" style="stroke: #E08503; stroke-dasharray: 5; stroke-width: 2" /><rect class="AnnotationBB" height="0" width="0" x="478" y="563" /><text class="Annotation" dominant-baseline="middle" text-anchor="middle" x="478" y="563"><tspan x="478.0" xml:space="preserve" y="563.0" /></text></g><g class="Edge FOPAllocation" id="_FoJOLI0ZEeyhn6eVz531Yw"><path class="Edge" d="M 583.5 907.5 613.5 887.5" style="stroke: #274C72; stroke-dasharray: 5; stroke-width: 2" /><rect class="AnnotationBB" height="0" width="0" x="604" y="886" /><text class="Annotation" dominant-baseline="middle" text-anchor="middle" x="604" y="886"><tspan x="604.0" xml:space="preserve" y="886.0" /></text></g><g class="Edge FOPAllocation" id="_UodytI0ZEeyhn6eVz531Yw"><path class="Edge" d="M 1056.5 1083.5 1076.5 1058.5" style="stroke: #274C72; stroke-dasharray: 5; stroke-width: 2" /><rect class="AnnotationBB" height="0" width="0" x="1070" y="1070" /><text class="Annotation" dominant-baseline="middle" text-anchor="middle" x="1070" y="1070"><tspan x="1070.0" xml:space="preserve" y="1070.0" /></text></g><g class="Edge FunctionalExchange" id="_V7YzMI0ZEeyhn6eVz531Yw"><path class="Edge" d="M 708.5 637.5 795.5 637.5 795.5 477.5 903.5 477.5" /><rect class="AnnotationBB" height="13" width="120" x="741" y="459" /><text class="Annotation" dominant-baseline="middle" text-anchor="middle" x="729.0" y="459"><tspan x="802.0" xml:space="preserve" y="465.42857142857144">StoredRegolithPowder</tspan></text><use height="20" width="20" x="722.0" xlink:href="#FunctionalExchangeSymbol" y="455.42857142857144" /></g><g class="Edge FunctionalExchange" id="_V7ZaOI0ZEeyhn6eVz531Yw"><path class="Edge" d="M 961.5 268.5 966.5 433.5" /><rect class="AnnotationBB" height="13" width="156" x="892" y="324" /><text class="Annotation" dominant-baseline="middle" text-anchor="middle" x="880.0" y="324"><tspan x="971.0" xml:space="preserve" y="330.42857142857144">PowerforRegPowderTransfer</tspan></text><use height="20" width="20" x="873.1428571428571" xlink:href="#FunctionalExchangeSymbol" y="320.42857142857144" /></g><g class="Edge FunctionalExchange" id="_V7aBRI0ZEeyhn6eVz531Yw"><path class="Edge" d="M 1171.5 814.5 1176.5 509.5" /><rect class="AnnotationBB" height="13" width="172" x="1084" y="657" /><text class="Annotation" dominant-baseline="middle" text-anchor="middle" x="1072.0" y="657"><tspan x="1171.0" xml:space="preserve" y="663.4285714285714">RegolithInVaporisationChamber</tspan></text><use height="20" width="20" x="1065.2857142857142" xlink:href="#FunctionalExchangeSymbol" y="653.4285714285714" /></g><g class="Edge FunctionalExchange" id="_V7aBTY0ZEeyhn6eVz531Yw"><path class="Edge" d="M 1126.5 509.5 1131.5 597.5 1068.5 597.5" /><rect class="AnnotationBB" height="13" width="119" x="1072" y="561" /><text class="Annotation" dominant-baseline="middle" text-anchor="middle" x="1060.0" y="561"><tspan x="1132.5" xml:space="preserve" y="567.4285714285714">UnvapourisedRegolith</tspan></text><use height="20" width="20" x="1053.2142857142858" xlink:href="#FunctionalExchangeSymbol" y="557.4285714285714" /></g><g class="Edge FunctionalExchange" id="_V7aoUI0ZEeyhn6eVz531Yw"><path class="Edge" d="M 1021.5 509.5 1026.5 814.5" /><rect class="AnnotationBB" height="13" width="86" x="876" y="667" /><text class="Annotation" dominant-baseline="middle" text-anchor="middle" x="864.0" y="667"><tspan x="920.0" xml:space="preserve" y="673.4285714285714">RegolithPowder</tspan></text><use height="20" width="20" x="857.1428571428571" xlink:href="#FunctionalExchangeSymbol" y="663.4285714285714" /></g><g class="Edge FunctionalExchange" id="_V7aoWY0ZEeyhn6eVz531Yw"><path class="Edge" d="M 971.5 639.5 976.5 1014.5" /><rect class="AnnotationBB" height="13" width="182" x="884" y="817" /><text class="Annotation" dominant-baseline="middle" text-anchor="middle" x="872.0" y="817"><tspan x="976.0" xml:space="preserve" y="823.4285714285714">PowerForUnpyrolisedRegTransfer</tspan></text><use height="20" width="20" x="865.2857142857143" xlink:href="#FunctionalExchangeSymbol" y="813.4285714285714" /></g></svg>