<svg baseProfile="full" class="PhysicalArchitectureBlank" height="1191" version="1.1" viewBox="35 15 1391 1191" width="1391" xmlns="http://www.w3.org/2000/svg" xmlns:ev="http://www.w3.org/2001/xml-events" xmlns:xlink="http://www.w3.org/1999/xlink"><defs><style>.PhysicalArchitectureBlank * { shape-rendering: geometricPrecision; }
.PhysicalArchitectureBlank text { font-family: "Segoe UI"; font-size: 8pt; }
.PhysicalArchitectureBlank g { cursor: pointer; }
.PhysicalArchitectureBlank g.Edge &gt; path { fill: none; stroke: rgb(0, 0, 0); }
.PhysicalArchitectureBlank g.Box &gt; line { stroke: #000000; }
.PhysicalArchitectureBlank g.Box &gt; rect, .PhysicalArchitectureBlank g.Box &gt; use { fill: transparent; stroke: #000000; stroke-width: 1; }
.PhysicalArchitectureBlank g.Box.Annotation &gt; line { stroke: none; }
.PhysicalArchitectureBlank g.Box.Annotation &gt; rect, .PhysicalArchitectureBlank g.Box.Annotation &gt; use { fill: none; stroke: none; }
.PhysicalArchitectureBlank g.Box.Constraint &gt; line { stroke: #888888; }
.PhysicalArchitectureBlank g.Box.Constraint &gt; rect, .PhysicalArchitectureBlank g.Box.Constraint &gt; use { fill: #FFF5B5; stroke: #888888; }
.PhysicalArchitectureBlank g.Box.Constraint &gt; text { fill: #000000; }
.PhysicalArchitectureBlank g.Box.Note &gt; line { stroke: #FFCC66; }
.PhysicalArchitectureBlank g.Box.Note &gt; rect, .PhysicalArchitectureBlank g.Box.Note &gt; use { fill: #FFFFCB; stroke: #FFCC66; }
.PhysicalArchitectureBlank g.Box.Note &gt; text { fill: #000000; }
.PhysicalArchitectureBlank g.Box.Requirement &gt; line { stroke: #72496E; }
.PhysicalArchitectureBlank g.Box.Requirement &gt; rect, .PhysicalArchitectureBlank g.Box.Requirement &gt; use { fill: #D9C4D7; stroke: #72496E; }
.PhysicalArchitectureBlank g.Box.Requirement &gt; text { fill: #000000; }
.PhysicalArchitectureBlank g.Box.Text &gt; line { stroke: transparent; }
.PhysicalArchitectureBlank g.Box.Text &gt; rect, .PhysicalArchitectureBlank g.Box.Text &gt; use { stroke: transparent; }
.PhysicalArchitectureBlank g.Edge &gt; rect { fill: none; stroke: none; }
.PhysicalArchitectureBlank g.Circle &gt; circle { fill: #000000; stroke: none; }
.PhysicalArchitectureBlank g.Edge &gt; path { stroke-width: 1; }
.PhysicalArchitectureBlank g.Edge.Connector &gt; rect { fill: none; stroke: none; }
.PhysicalArchitectureBlank g.Circle.Connector &gt; circle { fill: #B0B0B0; stroke: none; }
.PhysicalArchitectureBlank g.Edge.Connector &gt; path { stroke: #B0B0B0; stroke-dasharray: 1; }
.PhysicalArchitectureBlank g.Edge.Constraint &gt; rect { fill: none; stroke: none; }
.PhysicalArchitectureBlank g.Circle.Constraint &gt; circle { fill: #000000; stroke: none; }
.PhysicalArchitectureBlank g.Edge.Constraint &gt; path { stroke: #000000; stroke-dasharray: 1, 3; marker-end: url(#FineArrowMark_000000); stroke-linecap: round; }
.PhysicalArchitectureBlank g.Edge.Note &gt; rect { fill: none; stroke: none; }
.PhysicalArchitectureBlank g.Circle.Note &gt; circle { fill: #000000; stroke: none; }
.PhysicalArchitectureBlank g.Edge.Note &gt; path { stroke: #000000; stroke-dasharray: 1, 3; }
.PhysicalArchitectureBlank g.Edge.RequirementRelation &gt; rect { fill: none; stroke: none; }
.PhysicalArchitectureBlank g.Circle.RequirementRelation &gt; circle { fill: #72496E; stroke: none; }
.PhysicalArchitectureBlank g.Edge.RequirementRelation &gt; path { stroke: #72496E; stroke-width: 2; marker-end: url(#FineArrowMark_72496E); stroke-dasharray: 5; }
.PhysicalArchitectureBlank g.Edge.RequirementRelation &gt; text { fill: #72496E; }
.PhysicalArchitectureBlank g.Box.CP_IN &gt; line { stroke: #000000; }
.PhysicalArchitectureBlank g.Box.CP_IN &gt; rect, .PhysicalArchitectureBlank g.Box.CP_IN &gt; use { fill: #FFFFFF; stroke: #000000; }
.PhysicalArchitectureBlank g.Box.CP_OUT &gt; line { stroke: #000000; }
.PhysicalArchitectureBlank g.Box.CP_OUT &gt; rect, .PhysicalArchitectureBlank g.Box.CP_OUT &gt; use { fill: #FFFFFF; stroke: #000000; }
.PhysicalArchitectureBlank g.Box.CP_INOUT &gt; line { stroke: #000000; }
.PhysicalArchitectureBlank g.Box.CP_INOUT &gt; rect, .PhysicalArchitectureBlank g.Box.CP_INOUT &gt; use { fill: #FFFFFF; stroke: #000000; }
.PhysicalArchitectureBlank g.Box.FIP &gt; rect, .PhysicalArchitectureBlank g.Box.FIP &gt; use { fill: #E08503; stroke-width: 0; }
.PhysicalArchitectureBlank g.Box.FOP &gt; rect, .PhysicalArchitectureBlank g.Box.FOP &gt; use { fill: #095C2E; stroke-width: 0; }
.PhysicalArchitectureBlank g.Box.PP &gt; line { stroke: #7B694F; }
.PhysicalArchitectureBlank g.Box.PP &gt; rect, .PhysicalArchitectureBlank g.Box.PP &gt; use { fill: #FFF477; stroke: #7B694F; }
.PhysicalArchitectureBlank g.Box.PhysicalComponent &gt; line { stroke: #7B694F; }
.PhysicalArchitectureBlank g.Box.PhysicalComponent &gt; rect, .PhysicalArchitectureBlank g.Box.PhysicalComponent &gt; use { fill: url("#.PhysicalComponentFillGradient"); stroke: #7B694F; }
.PhysicalArchitectureBlank g.Box.PhysicalComponent &gt; text { fill: #000000; }
.PhysicalArchitectureBlank g.Box.PhysicalFunction &gt; line { stroke: #095C2E; }
.PhysicalArchitectureBlank g.Box.PhysicalFunction &gt; rect, .PhysicalArchitectureBlank g.Box.PhysicalFunction &gt; use { fill: #C5FFA6; stroke: #095C2E; }
.PhysicalArchitectureBlank g.Edge.ComponentExchange &gt; rect { fill: none; stroke: none; }
.PhysicalArchitectureBlank g.Circle.ComponentExchange &gt; circle { fill: #4A4A97; stroke: none; }
.PhysicalArchitectureBlank g.Edge.ComponentExchange &gt; path { stroke: #4A4A97; stroke-width: 2; }
.PhysicalArchitectureBlank g.Edge.ComponentExchange &gt; text { fill: #4A4A97; }
.PhysicalArchitectureBlank g.Edge.FunctionalExchange &gt; rect { fill: none; stroke: none; }
.PhysicalArchitectureBlank g.Circle.FunctionalExchange &gt; circle { fill: #095C2E; stroke: none; }
.PhysicalArchitectureBlank g.Edge.FunctionalExchange &gt; path { stroke: #095C2E; stroke-width: 2; }
.PhysicalArchitectureBlank g.Edge.FunctionalExchange &gt; text { fill: #095C2E; }
.PhysicalArchitectureBlank g.Edge.PhysicalLink &gt; rect { fill: none; stroke: none; }
.PhysicalArchitectureBlank g.Circle.PhysicalLink &gt; circle { fill: #EF2929; stroke: none; }
.PhysicalArchitectureBlank g.Edge.PhysicalLink &gt; path { stroke: #EF2929; stroke-width: 2; }
.PhysicalArchitectureBlank g.Edge.PhysicalLink &gt; text { fill: #EF2929; }
</style><symbol id="ErrorSymbol" viewBox="0 0 2.6458 2.6458"><path d="M 0,0 2.6458333,2.6458333 M 0,2.6458333 2.6458333,0" style="fill: none; stroke: red; stroke-width: 0.5;" /></symbol><symbol id="RequirementSymbol" style="stroke: none;" viewBox="0 0 50 50"><path d="M 12.806813,6.5702324 A 6.244379,5.8113241 0 0 1 6.5624342,12.381557 6.244379,5.8113241 0 0 1 0.31805515,6.5702324 6.244379,5.8113241 0 0 1 6.5624342,0.75890827 6.244379,5.8113241 0 0 1 12.806813,6.5702324 Z" style="fill: #431964" /><path d="m 4.3228658,5.8752475 h 2.9514721 q 0.2945581,0 0.5184223,-0.1413879 Q 8.0225155,5.5865806 8.1462299,5.3214783 8.2699443,5.056376 8.2758355,4.7029063 v 0 q 0,-0.3475786 -0.1237144,-0.6126808 Q 8.0284067,3.8251232 7.7986513,3.6837353 7.5747872,3.5364562 7.2743379,3.5364562 H 4.3228658 V 2.1873801 h 2.9927103 q 0.7246129,0 1.2724909,0.3122316 0.5478781,0.3122316 0.8483274,0.8836743 0.3063404,0.5714427 0.3063404,1.3196203 v 0 q 0,0.7540687 -0.3063404,1.3255114 Q 9.1359451,6.5998605 8.5821759,6.912092 8.0342978,7.2243236 7.3155761,7.2243236 H 4.3228658 Z M 3.7396407,2.1873801 H 5.1476285 V 10.759021 H 3.7396407 Z M 6.3906636,6.9592213 7.8516718,6.6882279 10.102096,10.759021 H 8.4113322 Z" style="fill:#ffffff;" /></symbol><symbol id="PhysicalLinkSymbol" viewBox="0 0 40 30"><linearGradient id="PhysicalLinkSymbol-gradient" x1="0" x2="1" y1="0" y2="1"><stop offset="0.0" stop-color="#DFDF00" stop-opacity="1" /><stop offset="1.0" stop-color="#E8E809" stop-opacity="1" /></linearGradient><linearGradient id="PhysicalLinkSymbol-gradientreverse" x1="0" x2="1" y1="0" y2="1"><stop offset="0.0" stop-color="#E8E809" stop-opacity="1" /><stop offset="1.0" stop-color="#DFDF00" stop-opacity="1" /></linearGradient><g style="stroke:#000;stroke-width:2;"><path d="M 36.190065,5.0377724 V 24.962228 H 26.17482 V 5.0377724 Z" style="fill: url(#PhysicalLinkSymbol-gradientreverse)" /><path d="m 14.372107,10 h 12.622435 c 0.926189,0.585267 1.836022,1.274509 2.268178,5 -0.208657,2.812473 -0.954601,4.503809 -2.273297,5 H 14.296948" style="fill: #F60A0A" /><path d="M 3.9464908,5.0048246 V 24.995175 H 10.87518 C 12.433713,24.159139 15.158267,20.291241 15.313795,15 15.498614,11.583142 14.059659,6.6240913 10.87518,5.0048246 c -2.2179509,0 -4.5908341,0 -6.9286892,0 z" style="fill: url(#PhysicalLinkSymbol-gradient)" /></g></symbol><symbol id="ComponentExchangeSymbol" viewBox="0 0 40 30"><linearGradient id="ComponentExchangeSymbol-gradient" x1="0" x2="1" y1="0" y2="1"><stop offset="0.0" stop-color="#8FA5B6" stop-opacity="1" /><stop offset="1.0" stop-color="#E0E9F3" stop-opacity="1" /></linearGradient><linearGradient id="ComponentExchangeSymbol-gradientreverse" x1="0" x2="1" y1="0" y2="1"><stop offset="0.0" stop-color="#E0E9F3" stop-opacity="1" /><stop offset="1.0" stop-color="#8FA5B6" stop-opacity="1" /></linearGradient><g style="stroke:#000;stroke-width:2;"><path d="M 36.190065,5.0377724 V 24.962228 H 26.17482 V 5.0377724 Z" style="fill: url(#ComponentExchangeSymbol-gradientreverse)" /><path d="m 14.372107,10 h 12.622435 c 0.926189,0.585267 1.836022,1.274509 2.268178,5 -0.208657,2.812473 -0.954601,4.503809 -2.273297,5 H 14.296948" style="fill: #A3BCD0" /><path d="M 3.9464908,5.0048246 V 24.995175 H 10.87518 C 12.433713,24.159139 15.158267,20.291241 15.313795,15 15.498614,11.583142 14.059659,6.6240913 10.87518,5.0048246 c -2.2179509,0 -4.5908341,0 -6.9286892,0 z" style="fill: url(#ComponentExchangeSymbol-gradient)" /></g></symbol><symbol id="ComponentPortSymbol" viewBox="0 0 10 10"><path d="M0 0h10v10H0z" /><path d="M 2,2 5,7 8,2" /></symbol><symbol id="PortSymbol" viewBox="0 0 10 10"><path d="M0 0h10v10H0z" /><path d="M5 1L1 9h8z" fill="#fff" /></symbol><linearGradient id=".PhysicalComponentFillGradient" x1="0%" x2="0%" y1="0%" y2="100%"><stop offset="0" stop-color="#FFFFDC" /><stop offset="1" stop-color="#FFFCB7" /></linearGradient><linearGradient id="CustomGradient_C3E6FF_96B1DA" x1="0" x2="0" y1="0" y2="1"><stop offset="0.0" stop-color="#C3E6FF" stop-opacity="1" /><stop offset="1.0" stop-color="#96B1DA" stop-opacity="1" /></linearGradient><linearGradient id="CustomGradient_DAFDFF_C6E6FF" x1="0" x2="0" y1="0" y2="1"><stop offset="0.0" stop-color="#DAFDFF" stop-opacity="1" /><stop offset="1.0" stop-color="#C6E6FF" stop-opacity="1" /></linearGradient></defs><rect fill="white" height="1191" stroke="none" width="1391" x="35" y="15" /><g class="Box PhysicalComponent" id="_LQAP4GPXEey9ycqoyTpVSQ"><rect class="PhysicalComponent" height="1171" style="stroke-width: 1" width="1061" x="355.5" y="25.5" /><text class="PhysicalComponent" dominant-baseline="middle" text-anchor="middle" x="355" y="25"><tspan x="885.5" xml:space="preserve" y="36.42857142857143">Regolith Inlet System</tspan></text></g><g class="Box PhysicalComponent" id="_kaQR0GPXEey9ycqoyTpVSQ"><rect class="PhysicalComponent" height="161" style="stroke-width: 1" width="321" x="505.5" y="74.5" /><text class="PhysicalComponent" dominant-baseline="middle" text-anchor="middle" x="505" y="74"><tspan x="665.5" xml:space="preserve" y="85.42857142857143">Inlet Hopper</tspan></text></g><g class="Box PhysicalComponent" id="_6VRXoGPXEey9ycqoyTpVSQ"><rect class="PhysicalComponent" height="110" style="fill: url(&quot;#CustomGradient_C3E6FF_96B1DA&quot;); stroke: #4A4A97; stroke-width: 1" width="250" x="535.5" y="103.5" /><text class="PhysicalComponent" dominant-baseline="middle" text-anchor="middle" x="535" y="103"><tspan x="660.0" xml:space="preserve" y="114.42857142857143">Scoop Interface</tspan></text></g><g class="Box PhysicalFunction" id="_xDuo4GPZEey9ycqoyTpVSQ"><rect class="PhysicalFunction" height="60" style="stroke-width: 1" width="180" x="575.5" y="127.5" /><text class="PhysicalFunction" dominant-baseline="middle" style="fill: #095C2E" text-anchor="middle" x="575" y="127"><tspan x="665.0" xml:space="preserve" y="156.99999999999997">Store Bulk Regolith</tspan></text><use height="20" width="20" x="594.2857142857143" xlink:href="#PhysicalFunctionSymbol" y="146.99999999999997" /></g><g class="Box FIP" id="_xDyTSGPZEey9ycqoyTpVSQ"><use class="FIP" height="10" transform="rotate(90 578.5 164.5)" width="10" x="573.5" xlink:href="#PortSymbol" y="159.5" /></g><g class="Box FOP" id="_xDyTTGPZEey9ycqoyTpVSQ"><use class="FOP" height="10" transform="rotate(180 652.5 184.5)" width="10" x="647.5" xlink:href="#PortSymbol" y="179.5" /></g><g class="Box CP_IN" id="_p5KfoWPZEey9ycqoyTpVSQ"><use class="CP_IN" height="10" transform="rotate(270 538.5 159.5)" width="10" x="533.5" xlink:href="#ComponentPortSymbol" y="154.5" /></g><g class="Box PhysicalComponent" id="_ovaUMGPXEey9ycqoyTpVSQ"><rect class="PhysicalComponent" height="741" style="stroke-width: 1" width="491" x="365.5" y="264.5" /><text class="PhysicalComponent" dominant-baseline="middle" text-anchor="middle" x="365" y="264"><tspan x="610.5" xml:space="preserve" y="275.42857142857144">Shaking Sieve</tspan></text></g><g class="Box PhysicalComponent" id="_Ity40G1OEeyGAcBgdGuPdQ"><rect class="PhysicalComponent" height="191" style="stroke-width: 1" width="181" x="665.5" y="293.5" /><text class="PhysicalComponent" dominant-baseline="middle" text-anchor="middle" x="665" y="293"><tspan x="755.5" xml:space="preserve" y="304.42857142857144">Shaking Motor</tspan></text></g><g class="Box PhysicalComponent" id="_jnhF8GPaEey9ycqoyTpVSQ"><rect class="PhysicalComponent" height="141" style="fill: url(&quot;#CustomGradient_C3E6FF_96B1DA&quot;); stroke: #4A4A97; stroke-width: 1" width="161" x="675.5" y="322.5" /><text class="PhysicalComponent" dominant-baseline="middle" text-anchor="middle" x="675" y="322"><tspan x="755.5" xml:space="preserve" y="333.42857142857144">Shaking Motor</tspan></text></g><g class="Box PhysicalFunction" id="_xDv3AGPZEey9ycqoyTpVSQ"><rect class="PhysicalFunction" height="81" style="stroke-width: 1" width="141" x="685.5" y="361.5" /><text class="PhysicalFunction" dominant-baseline="middle" style="fill: #095C2E" text-anchor="middle" x="685" y="361"><tspan x="755.5" xml:space="preserve" y="395.0714285714286">Convert Electricity</tspan><tspan x="755.5" xml:space="preserve" y="407.92857142857144">into Sifting Power</tspan></text><use height="20" width="20" x="686.9285714285714" xlink:href="#PhysicalFunctionSymbol" y="391.5" /></g><g class="Box FIP" id="_xDy6ZWPZEey9ycqoyTpVSQ"><use class="FIP" height="10" transform="rotate(-180 813.5 364.5)" width="10" x="808.5" xlink:href="#PortSymbol" y="359.5" /></g><g class="Box FOP" id="_xDzhYmPZEey9ycqoyTpVSQ"><use class="FOP" height="10" transform="rotate(270 688.5 387.5)" width="10" x="683.5" xlink:href="#PortSymbol" y="382.5" /></g><g class="Box PhysicalComponent" id="_RD1WsG1OEeyGAcBgdGuPdQ"><rect class="PhysicalComponent" height="189" style="stroke-width: 1" width="239" x="385.5" y="294.5" /><text class="PhysicalComponent" dominant-baseline="middle" text-anchor="middle" x="385" y="294"><tspan x="504.5" xml:space="preserve" y="304.0">Metallic Sieves</tspan></text></g><g class="Box PhysicalComponent" id="_p3FcAGPZEey9ycqoyTpVSQ"><rect class="PhysicalComponent" height="140" style="fill: url(&quot;#CustomGradient_C3E6FF_96B1DA&quot;); stroke: #4A4A97; stroke-width: 1" width="200" x="415.5" y="323.5" /><text class="PhysicalComponent" dominant-baseline="middle" text-anchor="middle" x="415" y="323"><tspan x="515.0" xml:space="preserve" y="333.0">Sieves</tspan></text></g><g class="Box PhysicalFunction" id="_xDvP8GPZEey9ycqoyTpVSQ"><rect class="PhysicalFunction" height="80" style="stroke-width: 1" width="160" x="435.5" y="362.5" /><text class="PhysicalFunction" dominant-baseline="middle" style="fill: #095C2E" text-anchor="middle" x="435" y="362"><tspan x="515.0" xml:space="preserve" y="402.0">Remove big rocks</tspan></text><use height="20" width="20" x="447.85714285714283" xlink:href="#PhysicalFunctionSymbol" y="392.0" /></g><g class="Box FIP" id="_xDyTUGPZEey9ycqoyTpVSQ"><use class="FIP" height="10" transform="rotate(-180 542.5 365.5)" width="10" x="537.5" xlink:href="#PortSymbol" y="360.5" /></g><g class="Box FOP" id="_xDy6UWPZEey9ycqoyTpVSQ"><use class="FOP" height="10" transform="rotate(180 492.5 439.5)" width="10" x="487.5" xlink:href="#PortSymbol" y="434.5" /></g><g class="Box FOP" id="_xDy6VWPZEey9ycqoyTpVSQ"><use class="FOP" height="10" transform="rotate(180 453.5 439.5)" width="10" x="448.5" xlink:href="#PortSymbol" y="434.5" /></g><g class="Box FIP" id="_xDy6XWPZEey9ycqoyTpVSQ"><use class="FIP" height="10" transform="rotate(-90 592.5 388.5)" width="10" x="587.5" xlink:href="#PortSymbol" y="383.5" /></g><g class="Box FOP" id="_esG88H3mEeyzaLkoFCOuvA"><use class="FOP" height="10" transform="rotate(180 570.5 439.5)" width="10" x="565.5" xlink:href="#PortSymbol" y="434.5" /></g><g class="Box CP_OUT" id="_tKLBZ21xEeyGAcBgdGuPdQ"><use class="CP_OUT" height="10" transform="rotate(0 491.5 460.5)" width="10" x="486.5" xlink:href="#ComponentPortSymbol" y="455.5" /></g><g class="Box PhysicalComponent" id="_cxtTEG1OEeyGAcBgdGuPdQ"><rect class="PhysicalComponent" height="161" style="stroke-width: 1" width="439" x="395.5" y="803.5" /><text class="PhysicalComponent" dominant-baseline="middle" text-anchor="middle" x="395" y="803"><tspan x="614.5" xml:space="preserve" y="814.4285714285714">Regolith Outlet</tspan></text></g><g class="Box PhysicalComponent" id="_muYwQGPaEey9ycqoyTpVSQ"><rect class="PhysicalComponent" height="107" style="fill: url(&quot;#CustomGradient_C3E6FF_96B1DA&quot;); stroke: #4A4A97; stroke-width: 1" width="171" x="415.5" y="832.5" /><text class="PhysicalComponent" dominant-baseline="middle" text-anchor="middle" x="415" y="832"><tspan x="500.5" xml:space="preserve" y="842.0">Rocks Outlet Channel</tspan></text></g><g class="Box PhysicalFunction" id="_xDvP82PZEey9ycqoyTpVSQ"><rect class="PhysicalFunction" height="50" style="stroke-width: 1" width="100" x="445.5" y="871.5" /><text class="PhysicalFunction" dominant-baseline="middle" style="fill: #095C2E" text-anchor="middle" x="445" y="871"><tspan x="495.0" xml:space="preserve" y="889.5714285714286">Remove Large</tspan><tspan x="495.0" xml:space="preserve" y="902.4285714285714">Rocks</tspan></text><use height="20" width="20" x="443" xlink:href="#PhysicalFunctionSymbol" y="886.0" /></g><g class="Box FIP" id="_xDy6WWPZEey9ycqoyTpVSQ"><use class="FIP" height="10" transform="rotate(-180 470.5 874.5)" width="10" x="465.5" xlink:href="#PortSymbol" y="869.5" /></g><g class="Box FOP" id="_xDy6YWPZEey9ycqoyTpVSQ"><use class="FOP" height="10" transform="rotate(270 448.5 897.5)" width="10" x="443.5" xlink:href="#PortSymbol" y="892.5" /></g><g class="Box CP_OUT" id="_y0II8m1wEeyGAcBgdGuPdQ"><use class="CP_OUT" height="10" transform="rotate(90 418.5 898.5)" width="10" x="413.5" xlink:href="#ComponentPortSymbol" y="893.5" /></g><g class="Box PhysicalComponent" id="_XCT6AH3mEeyzaLkoFCOuvA"><rect class="PhysicalComponent" height="107" style="fill: url(&quot;#CustomGradient_C3E6FF_96B1DA&quot;); stroke: #4A4A97; stroke-width: 1" width="171" x="605.5" y="832.5" /><text class="PhysicalComponent" dominant-baseline="middle" text-anchor="middle" x="605" y="832"><tspan x="690.5" xml:space="preserve" y="842.0">Dust Outlet Channel</tspan></text></g><g class="Box PhysicalFunction" id="_Y6ZdAH3mEeyzaLkoFCOuvA"><rect class="PhysicalFunction" height="50" style="stroke-width: 1" width="121" x="635.5" y="871.5" /><text class="PhysicalFunction" dominant-baseline="middle" style="fill: #095C2E" text-anchor="middle" x="635" y="871"><tspan x="695.5" xml:space="preserve" y="891.0">Remove too fine</tspan><tspan x="695.5" xml:space="preserve" y="901.0">dust</tspan></text><use height="20" width="20" x="633" xlink:href="#PhysicalFunctionSymbol" y="886.0" /></g><g class="Box FIP" id="_esHkA33mEeyzaLkoFCOuvA"><use class="FIP" height="10" transform="rotate(90 638.5 877.5)" width="10" x="633.5" xlink:href="#PortSymbol" y="872.5" /></g><g class="Box FOP" id="_FoBSUo0ZEeyhn6eVz531Yw"><use class="FOP" height="10" transform="rotate(270 638.5 907.5)" width="10" x="633.5" xlink:href="#PortSymbol" y="902.5" /></g><g class="Box CP_OUT" id="_FoAENo0ZEeyhn6eVz531Yw"><use class="CP_OUT" height="10" transform="rotate(90 608.5 928.5)" width="10" x="603.5" xlink:href="#ComponentPortSymbol" y="923.5" /></g><g class="Box PhysicalComponent" id="_NSx1AG1QEeyGAcBgdGuPdQ"><rect class="PhysicalComponent" height="241" style="stroke-width: 1" width="449" x="395.5" y="533.5" /><text class="PhysicalComponent" dominant-baseline="middle" text-anchor="middle" x="395" y="533"><tspan x="619.5" xml:space="preserve" y="544.4285714285714">Regolith Powder Hopper</tspan></text></g><g class="Box PhysicalComponent" id="_GTXZ8GPbEey9ycqoyTpVSQ"><rect class="PhysicalComponent" height="151" style="fill: url(&quot;#CustomGradient_C3E6FF_96B1DA&quot;); stroke: #4A4A97; stroke-width: 1" width="374" x="422.5" y="562.5" /><text class="PhysicalComponent" dominant-baseline="middle" text-anchor="middle" x="422" y="562"><tspan x="609.0" xml:space="preserve" y="573.4285714285714">Regolith Powder Container</tspan></text></g><g class="Box PhysicalFunction" id="_L5_gsGPaEey9ycqoyTpVSQ"><rect class="PhysicalFunction" height="84" style="stroke-width: 1" width="271" x="465.5" y="601.5" /><text class="PhysicalFunction" dominant-baseline="middle" style="fill: #095C2E" text-anchor="middle" x="465" y="601"><tspan x="600.5" xml:space="preserve" y="643.0">Store Regolith Powder</tspan></text><use height="20" width="20" x="520.5" xlink:href="#PhysicalFunctionSymbol" y="633.0" /></g><g class="Box FIP" id="_L6DyMmPaEey9ycqoyTpVSQ"><use class="FIP" height="10" transform="rotate(-180 489.5 604.5)" width="10" x="484.5" xlink:href="#PortSymbol" y="599.5" /></g><g class="Box FOP" id="_L6EZMGPaEey9ycqoyTpVSQ"><use class="FOP" height="10" transform="rotate(270 468.5 627.5)" width="10" x="463.5" xlink:href="#PortSymbol" y="622.5" /></g><g class="Box FOP" id="_L6EZNGPaEey9ycqoyTpVSQ"><use class="FOP" height="10" transform="rotate(90 733.5 657.5)" width="10" x="728.5" xlink:href="#PortSymbol" y="652.5" /></g><g class="Box FOP" id="_L6EZOGPaEey9ycqoyTpVSQ"><use class="FOP" height="10" transform="rotate(270 468.5 667.5)" width="10" x="463.5" xlink:href="#PortSymbol" y="662.5" /></g><g class="Box FOP" id="_XTP2tG8MEeyfvfoYzf83oA"><use class="FOP" height="10" transform="rotate(270 468.5 647.5)" width="10" x="463.5" xlink:href="#PortSymbol" y="642.5" /></g><g class="Box CP_IN" id="_tKLoim1xEeyGAcBgdGuPdQ"><use class="CP_IN" height="10" transform="rotate(0 489.5 565.5)" width="10" x="484.5" xlink:href="#ComponentPortSymbol" y="560.5" /></g><g class="Box PhysicalComponent" id="_sUVMcGPXEey9ycqoyTpVSQ"><rect class="PhysicalComponent" height="1071" style="stroke-width: 1" width="521" x="875.5" y="84.5" /><text class="PhysicalComponent" dominant-baseline="middle" text-anchor="middle" x="875" y="84"><tspan x="1135.5" xml:space="preserve" y="95.42857142857143">Regolilth Transfer System</tspan></text></g><g class="Box PhysicalComponent" id="_Av_p4G1QEeyGAcBgdGuPdQ"><rect class="PhysicalComponent" height="221" style="stroke-width: 1" width="481" x="895.5" y="123.5" /><text class="PhysicalComponent" dominant-baseline="middle" text-anchor="middle" x="895" y="123"><tspan x="1135.5" xml:space="preserve" y="134.42857142857142">Regolith Transfer System Electrical Engine</tspan></text></g><g class="Box PhysicalComponent" id="_M9vAMGPbEey9ycqoyTpVSQ"><rect class="PhysicalComponent" height="161" style="fill: url(&quot;#CustomGradient_C3E6FF_96B1DA&quot;); stroke: #4A4A97; stroke-width: 1" width="441" x="915.5" y="162.5" /><text class="PhysicalComponent" dominant-baseline="middle" text-anchor="middle" x="915" y="162"><tspan x="1135.5" xml:space="preserve" y="173.42857142857142">Hatch Engine</tspan></text></g><g class="Box PhysicalFunction" id="_L5_gs2PaEey9ycqoyTpVSQ"><rect class="PhysicalFunction" height="90" style="stroke-width: 1" width="371" x="945.5" y="201.5" /><text class="PhysicalFunction" dominant-baseline="middle" style="fill: #095C2E" text-anchor="middle" x="945" y="201"><tspan x="1130.5" xml:space="preserve" y="239.57142857142856">Convert Electricity to control Regolith powder transfer in and out</tspan><tspan x="1130.5" xml:space="preserve" y="252.42857142857142">of chamber</tspan></text><use height="20" width="20" x="943" xlink:href="#PhysicalFunctionSymbol" y="236.0" /></g><g class="Box FIP" id="_L6EZPGPaEey9ycqoyTpVSQ"><use class="FIP" height="10" transform="rotate(-180 967.5 204.5)" width="10" x="962.5" xlink:href="#PortSymbol" y="199.5" /></g><g class="Box FOP" id="_L6EZQGPaEey9ycqoyTpVSQ"><use class="FOP" height="10" transform="rotate(180 994.5 288.5)" width="10" x="989.5" xlink:href="#PortSymbol" y="283.5" /></g><g class="Box PhysicalComponent" id="_WuMxgGPXEey9ycqoyTpVSQ"><rect class="PhysicalComponent" height="151" style="stroke-width: 1" width="457" x="895.5" y="773.5" /><text class="PhysicalComponent" dominant-baseline="middle" text-anchor="middle" x="895" y="773"><tspan x="1123.5" xml:space="preserve" y="783.0">Chamber Inlet Seal</tspan></text></g><g class="Box PhysicalComponent" id="_06l60GPbEey9ycqoyTpVSQ"><rect class="PhysicalComponent" height="105" style="fill: url(&quot;#CustomGradient_C3E6FF_96B1DA&quot;); stroke: #4A4A97; stroke-width: 1" width="401" x="915.5" y="802.5" /><text class="PhysicalComponent" dominant-baseline="middle" text-anchor="middle" x="915" y="802"><tspan x="1115.5" xml:space="preserve" y="813.4285714285714">Chamber Regolith Inlet Seal</tspan></text></g><g class="Box PhysicalFunction" id="_6ICQEGPbEey9ycqoyTpVSQ"><rect class="PhysicalFunction" height="61" style="stroke-width: 1" width="230" x="1005.5" y="831.5" /><text class="PhysicalFunction" dominant-baseline="middle" style="fill: #095C2E" text-anchor="middle" x="1005" y="831"><tspan x="1120.0" xml:space="preserve" y="855.0714285714286">Seal Vaporisation Chamber Inlet from</tspan><tspan x="1120.0" xml:space="preserve" y="867.9285714285714">Lunar Atmosphere</tspan></text><use height="20" width="20" x="1003" xlink:href="#PhysicalFunctionSymbol" y="851.5" /></g><g class="Box FIP" id="_baA0jG_MEeyOFpKNW4HVvQ"><use class="FIP" height="10" transform="rotate(-180 1048.5 834.5)" width="10" x="1043.5" xlink:href="#PortSymbol" y="829.5" /></g><g class="Box FOP" id="_cI3egm_MEeyOFpKNW4HVvQ"><use class="FOP" height="10" transform="rotate(0 1204.5 834.5)" width="10" x="1199.5" xlink:href="#PortSymbol" y="829.5" /></g><g class="Box FIP" id="_FoE8so0ZEeyhn6eVz531Yw"><use class="FIP" height="10" transform="rotate(90 1008.5 867.5)" width="10" x="1003.5" xlink:href="#PortSymbol" y="862.5" /></g><g class="Box PhysicalComponent" id="_PxNI0I0ZEeyhn6eVz531Yw"><rect class="PhysicalComponent" height="351" style="stroke-width: 1" width="471" x="895.5" y="363.5" /><text class="PhysicalComponent" dominant-baseline="middle" text-anchor="middle" x="895" y="363"><tspan x="1130.5" xml:space="preserve" y="374.42857142857144">Regolith Crucible</tspan></text></g><g class="Box PhysicalComponent" id="_RaUbsI0ZEeyhn6eVz531Yw"><rect class="PhysicalComponent" height="251" style="fill: url(&quot;#CustomGradient_C3E6FF_96B1DA&quot;); stroke: #4A4A97; stroke-width: 1" width="441" x="905.5" y="422.5" /><text class="PhysicalComponent" dominant-baseline="middle" text-anchor="middle" x="905" y="422"><tspan x="1125.5" xml:space="preserve" y="433.42857142857144">Regolith Crucible</tspan></text></g><g class="Box PhysicalFunction" id="_V7CN0I0ZEeyhn6eVz531Yw"><rect class="PhysicalFunction" height="82" style="stroke-width: 1" width="210" x="1115.5" y="450.5" /><text class="PhysicalFunction" dominant-baseline="middle" style="fill: #095C2E" text-anchor="middle" x="1115" y="450"><tspan x="1220.0" xml:space="preserve" y="484.5714285714286">Host Solid Regolith during</tspan><tspan x="1220.0" xml:space="preserve" y="497.42857142857144">vaporisation</tspan></text><use height="20" width="20" x="1130.7142857142858" xlink:href="#PhysicalFunctionSymbol" y="481.0" /></g><g class="Box FIP" id="_V7NM9I0ZEeyhn6eVz531Yw"><use class="FIP" height="10" transform="rotate(-90 1322.5 517.5)" width="10" x="1317.5" xlink:href="#PortSymbol" y="512.5" /></g><g class="Box FIP" id="_V7N0AY0ZEeyhn6eVz531Yw"><use class="FIP" height="10" transform="rotate(0 1201.5 529.5)" width="10" x="1196.5" xlink:href="#PortSymbol" y="524.5" /></g><g class="Box FOP" id="_V7N0BY0ZEeyhn6eVz531Yw"><use class="FOP" height="10" transform="rotate(90 1322.5 499.5)" width="10" x="1317.5" xlink:href="#PortSymbol" y="494.5" /></g><g class="Box FOP" id="_V7N0CY0ZEeyhn6eVz531Yw"><use class="FOP" height="10" transform="rotate(180 1153.5 529.5)" width="10" x="1148.5" xlink:href="#PortSymbol" y="524.5" /></g><g class="Box FOP" id="_V7ObEo0ZEeyhn6eVz531Yw"><use class="FOP" height="10" transform="rotate(0 1231.5 453.5)" width="10" x="1226.5" xlink:href="#PortSymbol" y="448.5" /></g><g class="Box PhysicalFunction" id="_V7C04o0ZEeyhn6eVz531Yw"><rect class="PhysicalFunction" height="82" style="stroke-width: 1" width="171" x="925.5" y="450.5" /><text class="PhysicalFunction" dominant-baseline="middle" style="fill: #095C2E" text-anchor="middle" x="925" y="450"><tspan x="1010.5" xml:space="preserve" y="484.5714285714286">Transfer Regolith Powder</tspan><tspan x="1010.5" xml:space="preserve" y="497.42857142857144">to vapourisation</tspan></text><use height="20" width="20" x="923" xlink:href="#PhysicalFunctionSymbol" y="481.0" /></g><g class="Box FIP" id="_V7ObFo0ZEeyhn6eVz531Yw"><use class="FIP" height="10" transform="rotate(90 928.5 497.5)" width="10" x="923.5" xlink:href="#PortSymbol" y="492.5" /></g><g class="Box FIP" id="_V7PCIY0ZEeyhn6eVz531Yw"><use class="FIP" height="10" transform="rotate(-180 990.5 453.5)" width="10" x="985.5" xlink:href="#PortSymbol" y="448.5" /></g><g class="Box FOP" id="_V7PCJY0ZEeyhn6eVz531Yw"><use class="FOP" height="10" transform="rotate(180 1050.5 529.5)" width="10" x="1045.5" xlink:href="#PortSymbol" y="524.5" /></g><g class="Box PhysicalFunction" id="_V7Db8I0ZEeyhn6eVz531Yw"><rect class="PhysicalFunction" height="111" style="stroke-width: 1" width="171" x="925.5" y="551.5" /><text class="PhysicalFunction" dominant-baseline="middle" style="fill: #095C2E" text-anchor="middle" x="925" y="551"><tspan x="1010.5" xml:space="preserve" y="593.6428571428571">Transfer Unpyrolysed</tspan><tspan x="1010.5" xml:space="preserve" y="606.5">Regolith to lunar</tspan><tspan x="1010.5" xml:space="preserve" y="619.3571428571429">environment</tspan></text><use height="20" width="20" x="933.3571428571429" xlink:href="#PhysicalFunctionSymbol" y="596.5" /></g><g class="Box FIP" id="_V7PpMY0ZEeyhn6eVz531Yw"><use class="FIP" height="10" transform="rotate(-90 1093.5 617.5)" width="10" x="1088.5" xlink:href="#PortSymbol" y="612.5" /></g><g class="Box FOP" id="_V7PpNY0ZEeyhn6eVz531Yw"><use class="FOP" height="10" transform="rotate(180 1001.5 659.5)" width="10" x="996.5" xlink:href="#PortSymbol" y="654.5" /></g><g class="Box PhysicalComponent" id="_PxQMII0ZEeyhn6eVz531Yw"><rect class="PhysicalComponent" height="191" style="stroke-width: 1" width="461" x="895.5" y="943.5" /><text class="PhysicalComponent" dominant-baseline="middle" text-anchor="middle" x="895" y="943"><tspan x="1125.5" xml:space="preserve" y="954.4285714285714">Vaporisation Waste Outlet</tspan></text></g><g class="Box PhysicalComponent" id="_TEdCQI0ZEeyhn6eVz531Yw"><rect class="PhysicalComponent" height="124" style="fill: url(&quot;#CustomGradient_C3E6FF_96B1DA&quot;); stroke: #4A4A97; stroke-width: 1" width="399" x="917.5" y="982.5" /><text class="PhysicalComponent" dominant-baseline="middle" text-anchor="middle" x="917" y="982"><tspan x="1116.5" xml:space="preserve" y="993.4285714285714">Vapourisation Waste Outlet</tspan></text></g><g class="Box PhysicalFunction" id="_UoHNYI0ZEeyhn6eVz531Yw"><rect class="PhysicalFunction" height="50" style="stroke-width: 1" width="341" x="945.5" y="1031.5" /><text class="PhysicalFunction" dominant-baseline="middle" style="fill: #095C2E" text-anchor="middle" x="945" y="1031"><tspan x="1115.5" xml:space="preserve" y="1056.0">Remove Unvapourised Regolith by gravity</tspan></text><use height="20" width="20" x="984.0714285714286" xlink:href="#PhysicalFunctionSymbol" y="1046.0" /></g><g class="Box FIP" id="_UoXsE40ZEeyhn6eVz531Yw"><use class="FIP" height="10" transform="rotate(-180 996.5 1034.5)" width="10" x="991.5" xlink:href="#PortSymbol" y="1029.5" /></g><g class="Box FIP" id="_UoXsF40ZEeyhn6eVz531Yw"><use class="FIP" height="10" transform="rotate(90 948.5 1057.5)" width="10" x="943.5" xlink:href="#PortSymbol" y="1052.5" /></g><g class="Box FOP" id="_UoYTI40ZEeyhn6eVz531Yw"><use class="FOP" height="10" transform="rotate(180 1102.5 1078.5)" width="10" x="1097.5" xlink:href="#PortSymbol" y="1073.5" /></g><g class="Box CP_OUT" id="_TEjI4I0ZEeyhn6eVz531Yw"><use class="CP_OUT" height="10" transform="rotate(0 1082.5 1103.5)" width="10" x="1077.5" xlink:href="#ComponentPortSymbol" y="1098.5" /></g><g class="Box PhysicalActor" id="_txvTsGPZEey9ycqoyTpVSQ"><rect class="PhysicalActor" height="171" style="fill: url(&quot;#CustomGradient_DAFDFF_C6E6FF&quot;); stroke: #4A4A97; stroke-width: 1" width="281" x="45.5" y="105.5" /><text class="PhysicalActor" dominant-baseline="middle" text-anchor="middle" x="45" y="105"><tspan x="185.5" xml:space="preserve" y="116.42857142857143">Excavation System</tspan></text></g><g class="Box PhysicalFunction" id="_5lYg4GPZEey9ycqoyTpVSQ"><rect class="PhysicalFunction" height="50" style="stroke-width: 1" width="190" x="96.5" y="204.5" /><text class="PhysicalFunction" dominant-baseline="middle" style="fill: #095C2E" text-anchor="middle" x="96" y="204"><tspan x="191.0" xml:space="preserve" y="228.99999999999997">Drill Regolith</tspan></text><use height="20" width="20" x="136.71428571428572" xlink:href="#PhysicalFunctionSymbol" y="218.99999999999997" /></g><g class="Box FIP" id="_5lgct2PZEey9ycqoyTpVSQ"><use class="FIP" height="10" transform="rotate(0 114.5 251.5)" width="10" x="109.5" xlink:href="#PortSymbol" y="246.5" /></g><g class="Box FIP" id="_5lgcu2PZEey9ycqoyTpVSQ"><use class="FIP" height="10" transform="rotate(0 134.5 251.5)" width="10" x="129.5" xlink:href="#PortSymbol" y="246.5" /></g><g class="Box FIP" id="_5lhDwmPZEey9ycqoyTpVSQ"><use class="FIP" height="10" transform="rotate(0 153.5 251.5)" width="10" x="148.5" xlink:href="#PortSymbol" y="246.5" /></g><g class="Box FOP" id="_5lhDxmPZEey9ycqoyTpVSQ"><use class="FOP" height="10" transform="rotate(0 212.5 207.5)" width="10" x="207.5" xlink:href="#PortSymbol" y="202.5" /></g><g class="Box FOP" id="_5lhDymPZEey9ycqoyTpVSQ"><use class="FOP" height="10" transform="rotate(180 248.5 251.5)" width="10" x="243.5" xlink:href="#PortSymbol" y="246.5" /></g><g class="Box PhysicalFunction" id="_5lZH8mPZEey9ycqoyTpVSQ"><rect class="PhysicalFunction" height="50" style="stroke-width: 1" width="191" x="85.5" y="134.5" /><text class="PhysicalFunction" dominant-baseline="middle" style="fill: #095C2E" text-anchor="middle" x="85" y="134"><tspan x="180.5" xml:space="preserve" y="158.99999999999997">Provide Unprocessed Regolith</tspan></text><use height="20" width="20" x="83" xlink:href="#PhysicalFunctionSymbol" y="148.99999999999997" /></g><g class="Box FIP" id="_5lhq0GPZEey9ycqoyTpVSQ"><use class="FIP" height="10" transform="rotate(0 210.5 181.5)" width="10" x="205.5" xlink:href="#PortSymbol" y="176.5" /></g><g class="Box FOP" id="_5lhq1GPZEey9ycqoyTpVSQ"><use class="FOP" height="10" transform="rotate(90 273.5 160.5)" width="10" x="268.5" xlink:href="#PortSymbol" y="155.5" /></g><g class="Box CP_IN" id="_tx0MMGPZEey9ycqoyTpVSQ"><use class="CP_IN" height="10" transform="rotate(180 112.5 273.5)" width="10" x="107.5" xlink:href="#ComponentPortSymbol" y="268.5" /></g><g class="Box CP_IN" id="_tx0MM2PZEey9ycqoyTpVSQ"><use class="CP_IN" height="10" transform="rotate(180 151.5 273.5)" width="10" x="146.5" xlink:href="#ComponentPortSymbol" y="268.5" /></g><g class="Box CP_OUT" id="_tx0MNmPZEey9ycqoyTpVSQ"><use class="CP_OUT" height="10" transform="rotate(0 250.5 273.5)" width="10" x="245.5" xlink:href="#ComponentPortSymbol" y="268.5" /></g><g class="Box CP_IN" id="_tx0MOWPZEey9ycqoyTpVSQ"><use class="CP_IN" height="10" transform="rotate(180 132.5 273.5)" width="10" x="127.5" xlink:href="#ComponentPortSymbol" y="268.5" /></g><g class="Box CP_OUT" id="_tx0zQWPZEey9ycqoyTpVSQ"><use class="CP_OUT" height="10" transform="rotate(-90 323.5 161.5)" width="10" x="318.5" xlink:href="#ComponentPortSymbol" y="156.5" /></g><g class="Edge ComponentExchange" id="_tx4drmPZEey9ycqoyTpVSQ"><path class="Edge" d="M 328.5 161.5 533.5 159.5" /><rect class="AnnotationBB" height="13" width="115" x="374" y="150" /><text class="Annotation" dominant-baseline="middle" text-anchor="middle" x="362.0" y="150"><tspan x="432.5" xml:space="preserve" y="156.42857142857142">UnprocessedRegolith</tspan></text><use height="20" width="20" x="355.35714285714283" xlink:href="#ComponentExchangeSymbol" y="146.42857142857142" /></g><g class="Edge FIPAllocation" id="_5liR6GPZEey9ycqoyTpVSQ"><path class="Edge" d="M 112.5 268.5 114.5 256.5" style="stroke: #E08503; stroke-dasharray: 5; stroke-width: 2" /><rect class="AnnotationBB" height="0" width="0" x="118" y="262" /><text class="Annotation" dominant-baseline="middle" text-anchor="middle" x="118" y="262"><tspan x="118.0" xml:space="preserve" y="262.0" /></text></g><g class="Edge FIPAllocation" id="_5li48mPZEey9ycqoyTpVSQ"><path class="Edge" d="M 152.5 268.5 152.5 256.5" style="stroke: #E08503; stroke-dasharray: 5; stroke-width: 2" /><rect class="AnnotationBB" height="0" width="0" x="152" y="260" /><text class="Annotation" dominant-baseline="middle" text-anchor="middle" x="152" y="260"><tspan x="152.0" xml:space="preserve" y="260.0" /></text></g><g class="Edge FOPAllocation" id="_5li492PZEey9ycqoyTpVSQ"><path class="Edge" d="M 250.5 268.5 249.5 256.5" style="stroke: #274C72; stroke-dasharray: 5; stroke-width: 2" /><rect class="AnnotationBB" height="0" width="0" x="246" y="255" /><text class="Annotation" dominant-baseline="middle" text-anchor="middle" x="246" y="255"><tspan x="246.0" xml:space="preserve" y="255.0" /></text></g><g class="Edge FIPAllocation" id="_5li4_GPZEey9ycqoyTpVSQ"><path class="Edge" d="M 132.5 268.5 133.5 256.5" style="stroke: #E08503; stroke-dasharray: 5; stroke-width: 2" /><rect class="AnnotationBB" height="0" width="0" x="130" y="260" /><text class="Annotation" dominant-baseline="middle" text-anchor="middle" x="130" y="260"><tspan x="130.0" xml:space="preserve" y="260.0" /></text></g><g class="Edge FunctionalExchange" id="_5ljgGGPZEey9ycqoyTpVSQ"><path class="Edge" d="M 212.5 202.5 210.5 186.5" /><rect class="AnnotationBB" height="13" width="80" x="170" y="184" /><text class="Annotation" dominant-baseline="middle" text-anchor="middle" x="158.0" y="184"><tspan x="211.0" xml:space="preserve" y="190.42857142857142">ExtractRegolith</tspan></text><use height="20" width="20" x="151.0" xlink:href="#FunctionalExchangeSymbol" y="180.42857142857142" /></g><g class="Edge FOPAllocation" id="_9N11aGPZEey9ycqoyTpVSQ"><path class="Edge" d="M 318.5 161.5 278.5 160.5" style="stroke: #274C72; stroke-dasharray: 5; stroke-width: 2" /><rect class="AnnotationBB" height="0" width="0" x="300" y="167" /><text class="Annotation" dominant-baseline="middle" text-anchor="middle" x="300" y="167"><tspan x="300.0" xml:space="preserve" y="167.0" /></text></g><g class="Edge FIPAllocation" id="_9N11bWPZEey9ycqoyTpVSQ"><path class="Edge" d="M 543.5 160.5 573.5 163.5" style="stroke: #E08503; stroke-dasharray: 5; stroke-width: 2" /><rect class="AnnotationBB" height="0" width="0" x="558" y="152" /><text class="Annotation" dominant-baseline="middle" text-anchor="middle" x="558" y="152"><tspan x="558.0" xml:space="preserve" y="152.0" /></text></g><g class="Edge FunctionalExchange" id="_xD0vgGPZEey9ycqoyTpVSQ"><path class="Edge" d="M 652.5 189.5 652.5 242.5 542.5 242.5 542.5 360.5 542.5 360.5" /><rect class="AnnotationBB" height="13" width="115" x="535" y="242" /><text class="Annotation" dominant-baseline="middle" text-anchor="middle" x="523.0" y="242"><tspan x="593.5" xml:space="preserve" y="248.42857142857142">UnprocessedRegolith</tspan></text><use height="20" width="20" x="516.3571428571429" xlink:href="#FunctionalExchangeSymbol" y="238.42857142857142" /></g><g class="Edge FunctionalExchange" id="_xD0vkmPZEey9ycqoyTpVSQ"><path class="Edge" d="M 683.5 387.5 597.5 388.5" /><rect class="AnnotationBB" height="13" width="129" x="585" y="390" /><text class="Annotation" dominant-baseline="middle" text-anchor="middle" x="573.0" y="390"><tspan x="650.5" xml:space="preserve" y="396.42857142857144">PowerForRegolithSifting</tspan></text><use height="20" width="20" x="566.2142857142857" xlink:href="#FunctionalExchangeSymbol" y="386.42857142857144" /></g><g class="Edge FunctionalExchange" id="_xD0viWPZEey9ycqoyTpVSQ"><path class="Edge" d="M 453.5 444.5 470.5 869.5" /><rect class="AnnotationBB" height="13" width="65" x="425" y="598" /><text class="Annotation" dominant-baseline="middle" text-anchor="middle" x="413.0" y="598"><tspan x="458.5" xml:space="preserve" y="604.4285714285714">Large Rocks</tspan></text><use height="20" width="20" x="406.35714285714283" xlink:href="#FunctionalExchangeSymbol" y="594.4285714285714" /></g><g class="Edge FOPAllocation" id="__6illG1wEeyGAcBgdGuPdQ"><path class="Edge" d="M 423.5 898.5 443.5 897.5" style="stroke: #274C72; stroke-dasharray: 5; stroke-width: 2" /><rect class="AnnotationBB" height="0" width="0" x="430" y="893" /><text class="Annotation" dominant-baseline="middle" text-anchor="middle" x="430" y="893"><tspan x="430.0" xml:space="preserve" y="893.0" /></text></g><g class="Edge FOPAllocation" id="_wy40pG1xEeyGAcBgdGuPdQ"><path class="Edge" d="M 491.5 455.5 492.5 444.5" style="stroke: #274C72; stroke-dasharray: 5; stroke-width: 2" /><rect class="AnnotationBB" height="0" width="0" x="494" y="454" /><text class="Annotation" dominant-baseline="middle" text-anchor="middle" x="494" y="454"><tspan x="494.0" xml:space="preserve" y="454.0" /></text></g><g class="Edge FunctionalExchange" id="_esILEH3mEeyzaLkoFCOuvA"><path class="Edge" d="M 570.5 444.5 637.5 872.5" /><rect class="AnnotationBB" height="13" width="98" x="552" y="622" /><text class="Annotation" dominant-baseline="middle" text-anchor="middle" x="540.0" y="622"><tspan x="602.0" xml:space="preserve" y="628.4285714285714">Fine Regolith Dust</tspan></text><use height="20" width="20" x="533.4285714285714" xlink:href="#FunctionalExchangeSymbol" y="618.4285714285714" /></g><g class="Edge ComponentExchange" id="_tKNdpG1xEeyGAcBgdGuPdQ"><path class="Edge" d="M 491.5 465.5 489.5 560.5" /><rect class="AnnotationBB" height="13" width="185" x="405" y="504" /><text class="Annotation" dominant-baseline="middle" text-anchor="middle" x="393.0" y="504"><tspan x="498.5" xml:space="preserve" y="510.42857142857144">RegolithPowderTransferToStorage</tspan></text><use height="20" width="20" x="386.3571428571429" xlink:href="#ComponentExchangeSymbol" y="500.42857142857144" /></g><g class="Edge FIPAllocation" id="_wy40qW1xEeyGAcBgdGuPdQ"><path class="Edge" d="M 489.5 570.5 489.5 599.5" style="stroke: #E08503; stroke-dasharray: 5; stroke-width: 2" /><rect class="AnnotationBB" height="0" width="0" x="496" y="583" /><text class="Annotation" dominant-baseline="middle" text-anchor="middle" x="496" y="583"><tspan x="496.0" xml:space="preserve" y="583.0" /></text></g><g class="Edge FOPAllocation" id="_FoJOLI0ZEeyhn6eVz531Yw"><path class="Edge" d="M 613.5 924.5 633.5 910.5" style="stroke: #274C72; stroke-dasharray: 5; stroke-width: 2" /><rect class="AnnotationBB" height="0" width="0" x="624" y="907" /><text class="Annotation" dominant-baseline="middle" text-anchor="middle" x="624" y="907"><tspan x="624.0" xml:space="preserve" y="907.0" /></text></g><g class="Edge FOPAllocation" id="_UodytI0ZEeyhn6eVz531Yw"><path class="Edge" d="M 1086.5 1098.5 1098.5 1083.5" style="stroke: #274C72; stroke-dasharray: 5; stroke-width: 2" /><rect class="AnnotationBB" height="0" width="0" x="1091" y="1090" /><text class="Annotation" dominant-baseline="middle" text-anchor="middle" x="1091" y="1090"><tspan x="1091.0" xml:space="preserve" y="1090.0" /></text></g><g class="Edge FunctionalExchange" id="_V7YzMI0ZEeyhn6eVz531Yw"><path class="Edge" d="M 738.5 657.5 815.5 657.5 815.5 497.5 923.5 497.5 923.5 497.5" /><rect class="AnnotationBB" height="13" width="120" x="761" y="479" /><text class="Annotation" dominant-baseline="middle" text-anchor="middle" x="749.0" y="479"><tspan x="822.0" xml:space="preserve" y="485.42857142857144">StoredRegolithPowder</tspan></text><use height="20" width="20" x="742.0" xlink:href="#FunctionalExchangeSymbol" y="475.42857142857144" /></g><g class="Edge FunctionalExchange" id="_V7ZaOI0ZEeyhn6eVz531Yw"><path class="Edge" d="M 994.5 293.5 991.5 448.5" /><rect class="AnnotationBB" height="13" width="156" x="915" y="344" /><text class="Annotation" dominant-baseline="middle" text-anchor="middle" x="903.0" y="344"><tspan x="994.0" xml:space="preserve" y="350.42857142857144">PowerforRegPowderTransfer</tspan></text><use height="20" width="20" x="896.1428571428571" xlink:href="#FunctionalExchangeSymbol" y="340.42857142857144" /></g><g class="Edge FunctionalExchange" id="_V7aBRI0ZEeyhn6eVz531Yw"><path class="Edge" d="M 1204.5 829.5 1202.5 534.5" /><rect class="AnnotationBB" height="13" width="172" x="1107" y="677" /><text class="Annotation" dominant-baseline="middle" text-anchor="middle" x="1095.0" y="677"><tspan x="1194.0" xml:space="preserve" y="683.4285714285714">RegolithInVaporisationChamber</tspan></text><use height="20" width="20" x="1088.2857142857142" xlink:href="#FunctionalExchangeSymbol" y="673.4285714285714" /></g><g class="Edge FunctionalExchange" id="_V7aBTY0ZEeyhn6eVz531Yw"><path class="Edge" d="M 1153.5 534.5 1153.5 616.5 1098.5 616.5 1098.5 617.5" /><rect class="AnnotationBB" height="13" width="119" x="1093" y="581" /><text class="Annotation" dominant-baseline="middle" text-anchor="middle" x="1081.0" y="581"><tspan x="1153.5" xml:space="preserve" y="587.4285714285714">UnvapourisedRegolith</tspan></text><use height="20" width="20" x="1074.2142857142858" xlink:href="#FunctionalExchangeSymbol" y="577.4285714285714" /></g><g class="Edge FunctionalExchange" id="_V7aoUI0ZEeyhn6eVz531Yw"><path class="Edge" d="M 1050.5 534.5 1050.5 829.5 1048.5 829.5" /><rect class="AnnotationBB" height="13" width="86" x="895" y="687" /><text class="Annotation" dominant-baseline="middle" text-anchor="middle" x="883.0" y="687"><tspan x="939.0" xml:space="preserve" y="693.4285714285714">RegolithPowder</tspan></text><use height="20" width="20" x="876.1428571428571" xlink:href="#FunctionalExchangeSymbol" y="683.4285714285714" /></g><g class="Edge FunctionalExchange" id="_V7aoWY0ZEeyhn6eVz531Yw"><path class="Edge" d="M 1001.5 664.5 996.5 1029.5" /><rect class="AnnotationBB" height="13" width="182" x="904" y="837" /><text class="Annotation" dominant-baseline="middle" text-anchor="middle" x="892.0" y="837"><tspan x="996.0" xml:space="preserve" y="843.4285714285714">PowerForUnpyrolisedRegTransfer</tspan></text><use height="20" width="20" x="885.2857142857143" xlink:href="#FunctionalExchangeSymbol" y="833.4285714285714" /></g></svg>