<svg baseProfile="full" class="PhysicalArchitectureBlank" height="841" version="1.1" viewBox="320 110 1539 841" width="1539" xmlns="http://www.w3.org/2000/svg" xmlns:ev="http://www.w3.org/2001/xml-events" xmlns:xlink="http://www.w3.org/1999/xlink"><defs><style>.PhysicalArchitectureBlank * { shape-rendering: geometricPrecision; }
.PhysicalArchitectureBlank text { font-family: "Segoe UI"; font-size: 8pt; }
.PhysicalArchitectureBlank g { cursor: pointer; }
.PhysicalArchitectureBlank g.Edge &gt; path { fill: none; stroke: rgb(0, 0, 0); }
.PhysicalArchitectureBlank g.Box &gt; line { stroke: #000000; }
.PhysicalArchitectureBlank g.Box &gt; rect, .PhysicalArchitectureBlank g.Box &gt; use { fill: transparent; stroke: #000000; stroke-width: 1; }
.PhysicalArchitectureBlank g.Box.Annotation &gt; line { stroke: none; }
.PhysicalArchitectureBlank g.Box.Annotation &gt; rect, .PhysicalArchitectureBlank g.Box.Annotation &gt; use { fill: none; stroke: none; }
.PhysicalArchitectureBlank g.Box.Constraint &gt; line { stroke: #888888; }
.PhysicalArchitectureBlank g.Box.Constraint &gt; rect, .PhysicalArchitectureBlank g.Box.Constraint &gt; use { fill: #FFF5B5; stroke: #888888; }
.PhysicalArchitectureBlank g.Box.Constraint &gt; text { fill: #000000; }
.PhysicalArchitectureBlank g.Box.Note &gt; line { stroke: #FFCC66; }
.PhysicalArchitectureBlank g.Box.Note &gt; rect, .PhysicalArchitectureBlank g.Box.Note &gt; use { fill: #FFFFCB; stroke: #FFCC66; }
.PhysicalArchitectureBlank g.Box.Note &gt; text { fill: #000000; }
.PhysicalArchitectureBlank g.Box.Requirement &gt; line { stroke: #72496E; }
.PhysicalArchitectureBlank g.Box.Requirement &gt; rect, .PhysicalArchitectureBlank g.Box.Requirement &gt; use { fill: #D9C4D7; stroke: #72496E; }
.PhysicalArchitectureBlank g.Box.Requirement &gt; text { fill: #000000; }
.PhysicalArchitectureBlank g.Box.Text &gt; line { stroke: transparent; }
.PhysicalArchitectureBlank g.Box.Text &gt; rect, .PhysicalArchitectureBlank g.Box.Text &gt; use { stroke: transparent; }
.PhysicalArchitectureBlank g.Edge &gt; rect { fill: none; stroke: none; }
.PhysicalArchitectureBlank g.Circle &gt; circle { fill: #000000; stroke: none; }
.PhysicalArchitectureBlank g.Edge &gt; path { stroke-width: 1; }
.PhysicalArchitectureBlank g.Edge.Connector &gt; rect { fill: none; stroke: none; }
.PhysicalArchitectureBlank g.Circle.Connector &gt; circle { fill: #B0B0B0; stroke: none; }
.PhysicalArchitectureBlank g.Edge.Connector &gt; path { stroke: #B0B0B0; stroke-dasharray: 1; }
.PhysicalArchitectureBlank g.Edge.Constraint &gt; rect { fill: none; stroke: none; }
.PhysicalArchitectureBlank g.Circle.Constraint &gt; circle { fill: #000000; stroke: none; }
.PhysicalArchitectureBlank g.Edge.Constraint &gt; path { stroke: #000000; stroke-dasharray: 1, 3; marker-end: url(#FineArrowMark_000000); stroke-linecap: round; }
.PhysicalArchitectureBlank g.Edge.Note &gt; rect { fill: none; stroke: none; }
.PhysicalArchitectureBlank g.Circle.Note &gt; circle { fill: #000000; stroke: none; }
.PhysicalArchitectureBlank g.Edge.Note &gt; path { stroke: #000000; stroke-dasharray: 1, 3; }
.PhysicalArchitectureBlank g.Edge.RequirementRelation &gt; rect { fill: none; stroke: none; }
.PhysicalArchitectureBlank g.Circle.RequirementRelation &gt; circle { fill: #72496E; stroke: none; }
.PhysicalArchitectureBlank g.Edge.RequirementRelation &gt; path { stroke: #72496E; stroke-width: 2; marker-end: url(#FineArrowMark_72496E); stroke-dasharray: 5; }
.PhysicalArchitectureBlank g.Edge.RequirementRelation &gt; text { fill: #72496E; }
.PhysicalArchitectureBlank g.Box.CP_IN &gt; line { stroke: #000000; }
.PhysicalArchitectureBlank g.Box.CP_IN &gt; rect, .PhysicalArchitectureBlank g.Box.CP_IN &gt; use { fill: #FFFFFF; stroke: #000000; }
.PhysicalArchitectureBlank g.Box.CP_OUT &gt; line { stroke: #000000; }
.PhysicalArchitectureBlank g.Box.CP_OUT &gt; rect, .PhysicalArchitectureBlank g.Box.CP_OUT &gt; use { fill: #FFFFFF; stroke: #000000; }
.PhysicalArchitectureBlank g.Box.CP_INOUT &gt; line { stroke: #000000; }
.PhysicalArchitectureBlank g.Box.CP_INOUT &gt; rect, .PhysicalArchitectureBlank g.Box.CP_INOUT &gt; use { fill: #FFFFFF; stroke: #000000; }
.PhysicalArchitectureBlank g.Box.PP &gt; line { stroke: #7B694F; }
.PhysicalArchitectureBlank g.Box.PP &gt; rect, .PhysicalArchitectureBlank g.Box.PP &gt; use { fill: #FFF477; stroke: #7B694F; }
.PhysicalArchitectureBlank g.Box.PhysicalComponent &gt; line { stroke: #7B694F; }
.PhysicalArchitectureBlank g.Box.PhysicalComponent &gt; rect, .PhysicalArchitectureBlank g.Box.PhysicalComponent &gt; use { fill: url("#.PhysicalComponentFillGradient"); stroke: #7B694F; }
.PhysicalArchitectureBlank g.Box.PhysicalComponent &gt; text { fill: #000000; }
.PhysicalArchitectureBlank g.Edge.PhysicalLink &gt; rect { fill: none; stroke: none; }
.PhysicalArchitectureBlank g.Circle.PhysicalLink &gt; circle { fill: #EF2929; stroke: none; }
.PhysicalArchitectureBlank g.Edge.PhysicalLink &gt; path { stroke: #EF2929; stroke-width: 2; }
.PhysicalArchitectureBlank g.Edge.PhysicalLink &gt; text { fill: #EF2929; }
</style><symbol id="ErrorSymbol" viewBox="0 0 2.6458 2.6458"><path d="M 0,0 2.6458333,2.6458333 M 0,2.6458333 2.6458333,0" style="fill: none; stroke: red; stroke-width: 0.5;" /></symbol><symbol id="RequirementSymbol" style="stroke: none;" viewBox="0 0 50 50"><path d="M 12.806813,6.5702324 A 6.244379,5.8113241 0 0 1 6.5624342,12.381557 6.244379,5.8113241 0 0 1 0.31805515,6.5702324 6.244379,5.8113241 0 0 1 6.5624342,0.75890827 6.244379,5.8113241 0 0 1 12.806813,6.5702324 Z" style="fill: #431964" /><path d="m 4.3228658,5.8752475 h 2.9514721 q 0.2945581,0 0.5184223,-0.1413879 Q 8.0225155,5.5865806 8.1462299,5.3214783 8.2699443,5.056376 8.2758355,4.7029063 v 0 q 0,-0.3475786 -0.1237144,-0.6126808 Q 8.0284067,3.8251232 7.7986513,3.6837353 7.5747872,3.5364562 7.2743379,3.5364562 H 4.3228658 V 2.1873801 h 2.9927103 q 0.7246129,0 1.2724909,0.3122316 0.5478781,0.3122316 0.8483274,0.8836743 0.3063404,0.5714427 0.3063404,1.3196203 v 0 q 0,0.7540687 -0.3063404,1.3255114 Q 9.1359451,6.5998605 8.5821759,6.912092 8.0342978,7.2243236 7.3155761,7.2243236 H 4.3228658 Z M 3.7396407,2.1873801 H 5.1476285 V 10.759021 H 3.7396407 Z M 6.3906636,6.9592213 7.8516718,6.6882279 10.102096,10.759021 H 8.4113322 Z" style="fill:#ffffff;" /></symbol><symbol id="PhysicalLinkSymbol" viewBox="0 0 40 30"><linearGradient id="PhysicalLinkSymbol-gradient" x1="0" x2="1" y1="0" y2="1"><stop offset="0.0" stop-color="#DFDF00" stop-opacity="1" /><stop offset="1.0" stop-color="#E8E809" stop-opacity="1" /></linearGradient><linearGradient id="PhysicalLinkSymbol-gradientreverse" x1="0" x2="1" y1="0" y2="1"><stop offset="0.0" stop-color="#E8E809" stop-opacity="1" /><stop offset="1.0" stop-color="#DFDF00" stop-opacity="1" /></linearGradient><g style="stroke:#000;stroke-width:2;"><path d="M 36.190065,5.0377724 V 24.962228 H 26.17482 V 5.0377724 Z" style="fill: url(#PhysicalLinkSymbol-gradientreverse)" /><path d="m 14.372107,10 h 12.622435 c 0.926189,0.585267 1.836022,1.274509 2.268178,5 -0.208657,2.812473 -0.954601,4.503809 -2.273297,5 H 14.296948" style="fill: #F60A0A" /><path d="M 3.9464908,5.0048246 V 24.995175 H 10.87518 C 12.433713,24.159139 15.158267,20.291241 15.313795,15 15.498614,11.583142 14.059659,6.6240913 10.87518,5.0048246 c -2.2179509,0 -4.5908341,0 -6.9286892,0 z" style="fill: url(#PhysicalLinkSymbol-gradient)" /></g></symbol><symbol id="ComponentExchangeSymbol" viewBox="0 0 40 30"><linearGradient id="ComponentExchangeSymbol-gradient" x1="0" x2="1" y1="0" y2="1"><stop offset="0.0" stop-color="#8FA5B6" stop-opacity="1" /><stop offset="1.0" stop-color="#E0E9F3" stop-opacity="1" /></linearGradient><linearGradient id="ComponentExchangeSymbol-gradientreverse" x1="0" x2="1" y1="0" y2="1"><stop offset="0.0" stop-color="#E0E9F3" stop-opacity="1" /><stop offset="1.0" stop-color="#8FA5B6" stop-opacity="1" /></linearGradient><g style="stroke:#000;stroke-width:2;"><path d="M 36.190065,5.0377724 V 24.962228 H 26.17482 V 5.0377724 Z" style="fill: url(#ComponentExchangeSymbol-gradientreverse)" /><path d="m 14.372107,10 h 12.622435 c 0.926189,0.585267 1.836022,1.274509 2.268178,5 -0.208657,2.812473 -0.954601,4.503809 -2.273297,5 H 14.296948" style="fill: #A3BCD0" /><path d="M 3.9464908,5.0048246 V 24.995175 H 10.87518 C 12.433713,24.159139 15.158267,20.291241 15.313795,15 15.498614,11.583142 14.059659,6.6240913 10.87518,5.0048246 c -2.2179509,0 -4.5908341,0 -6.9286892,0 z" style="fill: url(#ComponentExchangeSymbol-gradient)" /></g></symbol><symbol id="ComponentPortSymbol" viewBox="0 0 10 10"><path d="M0 0h10v10H0z" /><path d="M 2,2 5,7 8,2" /></symbol><symbol id="PortSymbol" viewBox="0 0 10 10"><path d="M0 0h10v10H0z" /><path d="M5 1L1 9h8z" fill="#fff" /></symbol><linearGradient id=".PhysicalComponentFillGradient" x1="0%" x2="0%" y1="0%" y2="100%"><stop offset="0" stop-color="#FFFFDC" /><stop offset="1" stop-color="#FFFCB7" /></linearGradient><linearGradient id="CustomGradient_C3E6FF_96B1DA" x1="0" x2="0" y1="0" y2="1"><stop offset="0.0" stop-color="#C3E6FF" stop-opacity="1" /><stop offset="1.0" stop-color="#96B1DA" stop-opacity="1" /></linearGradient></defs><rect fill="white" height="841" stroke="none" width="1539" x="320" y="110" /><g class="Box PhysicalComponent" id="_plO0MGGuEeyJ3eS83iqQLw"><rect class="PhysicalComponent" height="821" style="stroke-width: 1" width="1519" x="330.5" y="120.5" /><text class="PhysicalComponent" dominant-baseline="middle" text-anchor="middle" x="330" y="120"><tspan x="1089.5" xml:space="preserve" y="131.42857142857142">Oxygen Storage System</tspan></text></g><g class="Box PhysicalComponent" id="_r7Q3cGGuEeyJ3eS83iqQLw"><rect class="PhysicalComponent" height="359" style="fill: url(&quot;#CustomGradient_C3E6FF_96B1DA&quot;); stroke: #4A4A97; stroke-width: 1" width="729" x="1025.5" y="224.5" /><text class="PhysicalComponent" dominant-baseline="middle" text-anchor="middle" x="1025" y="224"><tspan x="1389.5" xml:space="preserve" y="235.42857142857142">Storage Tank</tspan></text></g><g class="Box PhysicalFunction" id="__FNuYGGvEeyJ3eS83iqQLw"><rect class="PhysicalFunction" height="121" style="fill: #C5FFA6; stroke: #095C2E; stroke-width: 1" width="361" x="1245.5" y="353.5" /><text class="PhysicalFunction" dominant-baseline="middle" style="fill: #095C2E" text-anchor="middle" x="1245" y="353"><tspan x="1425.5" xml:space="preserve" y="413.5">Store Pure Oxygen</tspan></text></g><g class="Box FIP"><use class="FIP" height="10" transform="rotate(90 1248.5 389.5)" width="10" x="1243.5" xlink:href="#PortSymbol" y="384.5" /></g><g class="Box FIP"><use class="FIP" height="10" transform="rotate(90 1248.5 369.5)" width="10" x="1243.5" xlink:href="#PortSymbol" y="364.5" /></g><g class="Box FIP"><use class="FIP" height="10" transform="rotate(90 1248.5 449.5)" width="10" x="1243.5" xlink:href="#PortSymbol" y="444.5" /></g><g class="Box FOP"><use class="FOP" height="10" transform="rotate(0 1471.5 356.5)" width="10" x="1466.5" xlink:href="#PortSymbol" y="351.5" /></g><g class="Box FOP"><use class="FOP" height="10" transform="rotate(0 1331.5 356.5)" width="10" x="1326.5" xlink:href="#PortSymbol" y="351.5" /></g><g class="Box FOP"><use class="FOP" height="10" transform="rotate(180 1421.5 471.5)" width="10" x="1416.5" xlink:href="#PortSymbol" y="466.5" /></g><g class="Box PhysicalComponent" id="_zTwH8GGuEeyJ3eS83iqQLw"><rect class="PhysicalComponent" height="501" style="fill: url(&quot;#CustomGradient_C3E6FF_96B1DA&quot;); stroke: #4A4A97; stroke-width: 1" width="561" x="385.5" y="144.5" /><text class="PhysicalComponent" dominant-baseline="middle" text-anchor="middle" x="385" y="144"><tspan x="665.5" xml:space="preserve" y="155.42857142857142">Storage Compressor</tspan></text></g><g class="Box PhysicalFunction" id="__FO8hGGvEeyJ3eS83iqQLw"><rect class="PhysicalFunction" height="81" style="fill: #C5FFA6; stroke: #095C2E; stroke-width: 1" width="221" x="435.5" y="533.5" /><text class="PhysicalFunction" dominant-baseline="middle" style="fill: #095C2E" text-anchor="middle" x="435" y="533"><tspan x="545.5" xml:space="preserve" y="567.0714285714286">Convert Electricity into Gas Transfer to</tspan><tspan x="545.5" xml:space="preserve" y="579.9285714285714">Storage</tspan></text></g><g class="Box FIP"><use class="FIP" height="10" transform="rotate(-180 451.5 536.5)" width="10" x="446.5" xlink:href="#PortSymbol" y="531.5" /></g><g class="Box FOP"><use class="FOP" height="10" transform="rotate(90 653.5 579.5)" width="10" x="648.5" xlink:href="#PortSymbol" y="574.5" /></g><g class="Box PhysicalFunction" id="__FO8gWGvEeyJ3eS83iqQLw"><rect class="PhysicalFunction" height="91" style="fill: #C5FFA6; stroke: #095C2E; stroke-width: 1" width="271" x="425.5" y="193.5" /><text class="PhysicalFunction" dominant-baseline="middle" style="fill: #095C2E" text-anchor="middle" x="425" y="193"><tspan x="560.5" xml:space="preserve" y="238.49999999999997">Convert Electricity to Pressure for Storage</tspan></text></g><g class="Box FIP"><use class="FIP" height="10" transform="rotate(-180 441.5 196.5)" width="10" x="436.5" xlink:href="#PortSymbol" y="191.5" /></g><g class="Box FOP"><use class="FOP" height="10" transform="rotate(90 693.5 249.5)" width="10" x="688.5" xlink:href="#PortSymbol" y="244.5" /></g><g class="Box PhysicalFunction" id="__FOVeWGvEeyJ3eS83iqQLw"><rect class="PhysicalFunction" height="91" style="fill: #C5FFA6; stroke: #095C2E; stroke-width: 1" width="271" x="425.5" y="313.5" /><text class="PhysicalFunction" dominant-baseline="middle" style="fill: #095C2E" text-anchor="middle" x="425" y="313"><tspan x="560.5" xml:space="preserve" y="352.07142857142856">Convert Electricity into Heating or Cooling for</tspan><tspan x="560.5" xml:space="preserve" y="364.9285714285714">Storage</tspan></text></g><g class="Box FIP"><use class="FIP" height="10" transform="rotate(90 428.5 329.5)" width="10" x="423.5" xlink:href="#PortSymbol" y="324.5" /></g><g class="Box FOP"><use class="FOP" height="10" transform="rotate(90 693.5 339.5)" width="10" x="688.5" xlink:href="#PortSymbol" y="334.5" /></g><g class="Box PhysicalFunction" id="__FOVdmGvEeyJ3eS83iqQLw"><rect class="PhysicalFunction" height="81" style="fill: #C5FFA6; stroke: #095C2E; stroke-width: 1" width="220" x="705.5" y="533.5" /><text class="PhysicalFunction" dominant-baseline="middle" style="fill: #095C2E" text-anchor="middle" x="705" y="533"><tspan x="815.0" xml:space="preserve" y="567.0714285714286">Transfer Oxygen from Purification to</tspan><tspan x="815.0" xml:space="preserve" y="579.9285714285714">Storage</tspan></text></g><g class="Box FIP"><use class="FIP" height="10" transform="rotate(90 708.5 549.5)" width="10" x="703.5" xlink:href="#PortSymbol" y="544.5" /></g><g class="Box FIP"><use class="FIP" height="10" transform="rotate(90 708.5 579.5)" width="10" x="703.5" xlink:href="#PortSymbol" y="574.5" /></g><g class="Box FOP"><use class="FOP" height="10" transform="rotate(90 922.5 579.5)" width="10" x="917.5" xlink:href="#PortSymbol" y="574.5" /></g><g class="Box PhysicalFunction" id="__FOVc2GvEeyJ3eS83iqQLw"><rect class="PhysicalFunction" height="91" style="fill: #C5FFA6; stroke: #095C2E; stroke-width: 1" width="191" x="725.5" y="193.5" /><text class="PhysicalFunction" dominant-baseline="middle" style="fill: #095C2E" text-anchor="middle" x="725" y="193"><tspan x="820.5" xml:space="preserve" y="238.49999999999997">Provide Storage Pressure</tspan></text></g><g class="Box FIP"><use class="FIP" height="10" transform="rotate(90 728.5 259.5)" width="10" x="723.5" xlink:href="#PortSymbol" y="254.5" /></g><g class="Box FOP"><use class="FOP" height="10" transform="rotate(90 913.5 269.5)" width="10" x="908.5" xlink:href="#PortSymbol" y="264.5" /></g><g class="Box PhysicalFunction" id="__FOVcGGvEeyJ3eS83iqQLw"><rect class="PhysicalFunction" height="91" style="fill: #C5FFA6; stroke: #095C2E; stroke-width: 1" width="191" x="725.5" y="313.5" /><text class="PhysicalFunction" dominant-baseline="middle" style="fill: #095C2E" text-anchor="middle" x="725" y="313"><tspan x="820.5" xml:space="preserve" y="358.5">Provide Storage Temperature</tspan></text></g><g class="Box FIP"><use class="FIP" height="10" transform="rotate(90 728.5 339.5)" width="10" x="723.5" xlink:href="#PortSymbol" y="334.5" /></g><g class="Box FOP"><use class="FOP" height="10" transform="rotate(90 913.5 359.5)" width="10" x="908.5" xlink:href="#PortSymbol" y="354.5" /></g><g class="Box PhysicalComponent" id="_2HgB8GGuEeyJ3eS83iqQLw"><rect class="PhysicalComponent" height="219" style="fill: url(&quot;#CustomGradient_C3E6FF_96B1DA&quot;); stroke: #4A4A97; stroke-width: 1" width="397" x="1225.5" y="664.5" /><text class="PhysicalComponent" dominant-baseline="middle" text-anchor="middle" x="1225" y="664"><tspan x="1423.5" xml:space="preserve" y="675.4285714285714">Emergency Valve</tspan></text></g><g class="Box PhysicalFunction" id="_hkwEsGGwEeyJ3eS83iqQLw"><rect class="PhysicalFunction" height="71" style="fill: #C5FFA6; stroke: #095C2E; stroke-width: 1" width="251" x="1305.5" y="763.5" /><text class="PhysicalFunction" dominant-baseline="middle" style="fill: #095C2E" text-anchor="middle" x="1305" y="763"><tspan x="1430.5" xml:space="preserve" y="798.5">Vent Tank in case of emergency</tspan></text></g><g class="Box FIP"><use class="FIP" height="10" transform="rotate(-180 1421.5 766.5)" width="10" x="1416.5" xlink:href="#PortSymbol" y="761.5" /></g><g class="Edge FunctionalExchange" id="__FVqQmGvEeyJ3eS83iqQLw"><path class="Edge" d="M 658.5 579.5 703.5 579.5" style="stroke: #095C2E" /><rect class="AnnotationBB" height="13" width="166" x="582" y="575" /><text class="Annotation" dominant-baseline="middle" text-anchor="middle" x="570.0" y="575"><tspan x="666.0" xml:space="preserve" y="581.4285714285714">PowerForOxTransferToStorage</tspan></text><use height="20" width="20" x="563.1428571428571" xlink:href="#FunctionalExchangeSymbol" y="571.4285714285714" /></g><g class="Edge FunctionalExchange" id="__FVqOWGvEeyJ3eS83iqQLw"><path class="Edge" d="M 698.5 249.5 723.5 259.5" style="stroke: #095C2E" /><rect class="AnnotationBB" height="13" width="89" x="676" y="250" /><text class="Annotation" dominant-baseline="middle" text-anchor="middle" x="664.0" y="250"><tspan x="721.5" xml:space="preserve" y="256.42857142857144">StoragePressure</tspan></text><use height="20" width="20" x="657.2142857142857" xlink:href="#FunctionalExchangeSymbol" y="246.42857142857142" /></g><g class="Edge FunctionalExchange" id="__FVqMGGvEeyJ3eS83iqQLw"><path class="Edge" d="M 698.5 339.5 723.5 339.5" style="stroke: #095C2E" /><rect class="AnnotationBB" height="13" width="103" x="658" y="332" /><text class="Annotation" dominant-baseline="middle" text-anchor="middle" x="646.0" y="332"><tspan x="710.5" xml:space="preserve" y="338.42857142857144">HeatorCoolStorage</tspan></text><use height="20" width="20" x="639.0714285714286" xlink:href="#FunctionalExchangeSymbol" y="328.42857142857144" /></g><g class="Edge FunctionalExchange" id="__FVDIGGvEeyJ3eS83iqQLw"><path class="Edge" d="M 918.5 359.5 1243.5 389.5" style="stroke: #095C2E" /><rect class="AnnotationBB" height="13" width="112" x="1003" y="365" /><text class="Annotation" dominant-baseline="middle" text-anchor="middle" x="991.0" y="365"><tspan x="1060.0" xml:space="preserve" y="371.42857142857144">StorageTemperature</tspan></text><use height="20" width="20" x="984.2857142857143" xlink:href="#FunctionalExchangeSymbol" y="361.42857142857144" /></g><g class="Edge FunctionalExchange" id="__FVDKWGvEeyJ3eS83iqQLw"><path class="Edge" d="M 918.5 269.5 1243.5 369.5" style="stroke: #095C2E" /><rect class="AnnotationBB" height="13" width="89" x="1007" y="308" /><text class="Annotation" dominant-baseline="middle" text-anchor="middle" x="995.0" y="308"><tspan x="1052.5" xml:space="preserve" y="314.42857142857144">StoragePressure</tspan></text><use height="20" width="20" x="988.2142857142857" xlink:href="#FunctionalExchangeSymbol" y="304.42857142857144" /></g><g class="Edge FunctionalExchange" id="__FVDMmGvEeyJ3eS83iqQLw"><path class="Edge" d="M 927.5 579.5 1243.5 449.5" style="stroke: #095C2E" /><rect class="AnnotationBB" height="13" width="66" x="1028" y="516" /><text class="Annotation" dominant-baseline="middle" text-anchor="middle" x="1016.0" y="516"><tspan x="1062.0" xml:space="preserve" y="522.4285714285714">PureOxygen</tspan></text><use height="20" width="20" x="1009.1428571428571" xlink:href="#FunctionalExchangeSymbol" y="512.4285714285714" /></g><g class="Edge FunctionalExchange" id="_kS2ps2GwEeyJ3eS83iqQLw"><path class="Edge" d="M 1421.5 476.5 1421.5 761.5" style="stroke: #095C2E" /><rect class="AnnotationBB" height="13" width="82" x="1390" y="644" /><text class="Annotation" dominant-baseline="middle" text-anchor="middle" x="1378.0" y="644"><tspan x="1432.0" xml:space="preserve" y="650.4285714285714">VentingOxygen</tspan></text><use height="20" width="20" x="1371.2857142857142" xlink:href="#FunctionalExchangeSymbol" y="640.4285714285714" /></g></svg>