<svg baseProfile="full" class="PhysicalArchitectureBlank" height="761" version="1.1" viewBox="30 10 1651 761" width="1651" xmlns="http://www.w3.org/2000/svg" xmlns:ev="http://www.w3.org/2001/xml-events" xmlns:xlink="http://www.w3.org/1999/xlink"><defs><style>.PhysicalArchitectureBlank * { shape-rendering: geometricPrecision; }
.PhysicalArchitectureBlank text { font-family: "Segoe UI"; font-size: 8pt; }
.PhysicalArchitectureBlank g { cursor: pointer; }
.PhysicalArchitectureBlank g.Edge &gt; path { fill: none; stroke: rgb(0, 0, 0); }
.PhysicalArchitectureBlank g.Box &gt; line { stroke: #000000; }
.PhysicalArchitectureBlank g.Box &gt; rect, .PhysicalArchitectureBlank g.Box &gt; use { fill: transparent; stroke: #000000; stroke-width: 1; }
.PhysicalArchitectureBlank g.Box.Annotation &gt; line { stroke: none; }
.PhysicalArchitectureBlank g.Box.Annotation &gt; rect, .PhysicalArchitectureBlank g.Box.Annotation &gt; use { fill: none; stroke: none; }
.PhysicalArchitectureBlank g.Box.Constraint &gt; line { stroke: #888888; }
.PhysicalArchitectureBlank g.Box.Constraint &gt; rect, .PhysicalArchitectureBlank g.Box.Constraint &gt; use { fill: #FFF5B5; stroke: #888888; }
.PhysicalArchitectureBlank g.Box.Constraint &gt; text { fill: #000000; }
.PhysicalArchitectureBlank g.Box.Note &gt; line { stroke: #FFCC66; }
.PhysicalArchitectureBlank g.Box.Note &gt; rect, .PhysicalArchitectureBlank g.Box.Note &gt; use { fill: #FFFFCB; stroke: #FFCC66; }
.PhysicalArchitectureBlank g.Box.Note &gt; text { fill: #000000; }
.PhysicalArchitectureBlank g.Box.Requirement &gt; line { stroke: #72496E; }
.PhysicalArchitectureBlank g.Box.Requirement &gt; rect, .PhysicalArchitectureBlank g.Box.Requirement &gt; use { fill: #D9C4D7; stroke: #72496E; }
.PhysicalArchitectureBlank g.Box.Requirement &gt; text { fill: #000000; }
.PhysicalArchitectureBlank g.Box.Text &gt; line { stroke: transparent; }
.PhysicalArchitectureBlank g.Box.Text &gt; rect, .PhysicalArchitectureBlank g.Box.Text &gt; use { stroke: transparent; }
.PhysicalArchitectureBlank g.Edge &gt; rect { fill: none; stroke: none; }
.PhysicalArchitectureBlank g.Circle &gt; circle { fill: #000000; stroke: none; }
.PhysicalArchitectureBlank g.Edge &gt; path { stroke-width: 1; }
.PhysicalArchitectureBlank g.Edge.Connector &gt; rect { fill: none; stroke: none; }
.PhysicalArchitectureBlank g.Circle.Connector &gt; circle { fill: #B0B0B0; stroke: none; }
.PhysicalArchitectureBlank g.Edge.Connector &gt; path { stroke: #B0B0B0; stroke-dasharray: 1; }
.PhysicalArchitectureBlank g.Edge.Constraint &gt; rect { fill: none; stroke: none; }
.PhysicalArchitectureBlank g.Circle.Constraint &gt; circle { fill: #000000; stroke: none; }
.PhysicalArchitectureBlank g.Edge.Constraint &gt; path { stroke: #000000; stroke-dasharray: 1, 3; marker-end: url(#FineArrowMark_000000); stroke-linecap: round; }
.PhysicalArchitectureBlank g.Edge.Note &gt; rect { fill: none; stroke: none; }
.PhysicalArchitectureBlank g.Circle.Note &gt; circle { fill: #000000; stroke: none; }
.PhysicalArchitectureBlank g.Edge.Note &gt; path { stroke: #000000; stroke-dasharray: 1, 3; }
.PhysicalArchitectureBlank g.Edge.RequirementRelation &gt; rect { fill: none; stroke: none; }
.PhysicalArchitectureBlank g.Circle.RequirementRelation &gt; circle { fill: #72496E; stroke: none; }
.PhysicalArchitectureBlank g.Edge.RequirementRelation &gt; path { stroke: #72496E; stroke-width: 2; marker-end: url(#FineArrowMark_72496E); stroke-dasharray: 5; }
.PhysicalArchitectureBlank g.Edge.RequirementRelation &gt; text { fill: #72496E; }
.PhysicalArchitectureBlank g.Box.CP_IN &gt; line { stroke: #000000; }
.PhysicalArchitectureBlank g.Box.CP_IN &gt; rect, .PhysicalArchitectureBlank g.Box.CP_IN &gt; use { fill: #FFFFFF; stroke: #000000; }
.PhysicalArchitectureBlank g.Box.CP_OUT &gt; line { stroke: #000000; }
.PhysicalArchitectureBlank g.Box.CP_OUT &gt; rect, .PhysicalArchitectureBlank g.Box.CP_OUT &gt; use { fill: #FFFFFF; stroke: #000000; }
.PhysicalArchitectureBlank g.Box.CP_INOUT &gt; line { stroke: #000000; }
.PhysicalArchitectureBlank g.Box.CP_INOUT &gt; rect, .PhysicalArchitectureBlank g.Box.CP_INOUT &gt; use { fill: #FFFFFF; stroke: #000000; }
.PhysicalArchitectureBlank g.Box.PP &gt; line { stroke: #7B694F; }
.PhysicalArchitectureBlank g.Box.PP &gt; rect, .PhysicalArchitectureBlank g.Box.PP &gt; use { fill: #FFF477; stroke: #7B694F; }
.PhysicalArchitectureBlank g.Box.PhysicalComponent &gt; line { stroke: #7B694F; }
.PhysicalArchitectureBlank g.Box.PhysicalComponent &gt; rect, .PhysicalArchitectureBlank g.Box.PhysicalComponent &gt; use { fill: url("#.PhysicalComponentFillGradient"); stroke: #7B694F; }
.PhysicalArchitectureBlank g.Box.PhysicalComponent &gt; text { fill: #000000; }
.PhysicalArchitectureBlank g.Edge.PhysicalLink &gt; rect { fill: none; stroke: none; }
.PhysicalArchitectureBlank g.Circle.PhysicalLink &gt; circle { fill: #EF2929; stroke: none; }
.PhysicalArchitectureBlank g.Edge.PhysicalLink &gt; path { stroke: #EF2929; stroke-width: 2; }
.PhysicalArchitectureBlank g.Edge.PhysicalLink &gt; text { fill: #EF2929; }
</style><symbol id="ErrorSymbol" viewBox="0 0 2.6458 2.6458"><path d="M 0,0 2.6458333,2.6458333 M 0,2.6458333 2.6458333,0" style="fill: none; stroke: red; stroke-width: 0.5;" /></symbol><symbol id="RequirementSymbol" style="stroke: none;" viewBox="0 0 50 50"><path d="M 12.806813,6.5702324 A 6.244379,5.8113241 0 0 1 6.5624342,12.381557 6.244379,5.8113241 0 0 1 0.31805515,6.5702324 6.244379,5.8113241 0 0 1 6.5624342,0.75890827 6.244379,5.8113241 0 0 1 12.806813,6.5702324 Z" style="fill: #431964" /><path d="m 4.3228658,5.8752475 h 2.9514721 q 0.2945581,0 0.5184223,-0.1413879 Q 8.0225155,5.5865806 8.1462299,5.3214783 8.2699443,5.056376 8.2758355,4.7029063 v 0 q 0,-0.3475786 -0.1237144,-0.6126808 Q 8.0284067,3.8251232 7.7986513,3.6837353 7.5747872,3.5364562 7.2743379,3.5364562 H 4.3228658 V 2.1873801 h 2.9927103 q 0.7246129,0 1.2724909,0.3122316 0.5478781,0.3122316 0.8483274,0.8836743 0.3063404,0.5714427 0.3063404,1.3196203 v 0 q 0,0.7540687 -0.3063404,1.3255114 Q 9.1359451,6.5998605 8.5821759,6.912092 8.0342978,7.2243236 7.3155761,7.2243236 H 4.3228658 Z M 3.7396407,2.1873801 H 5.1476285 V 10.759021 H 3.7396407 Z M 6.3906636,6.9592213 7.8516718,6.6882279 10.102096,10.759021 H 8.4113322 Z" style="fill:#ffffff;" /></symbol><symbol id="PhysicalLinkSymbol" viewBox="0 0 40 30"><linearGradient id="PhysicalLinkSymbol-gradient" x1="0" x2="1" y1="0" y2="1"><stop offset="0.0" stop-color="#DFDF00" stop-opacity="1" /><stop offset="1.0" stop-color="#E8E809" stop-opacity="1" /></linearGradient><linearGradient id="PhysicalLinkSymbol-gradientreverse" x1="0" x2="1" y1="0" y2="1"><stop offset="0.0" stop-color="#E8E809" stop-opacity="1" /><stop offset="1.0" stop-color="#DFDF00" stop-opacity="1" /></linearGradient><g style="stroke:#000;stroke-width:2;"><path d="M 36.190065,5.0377724 V 24.962228 H 26.17482 V 5.0377724 Z" style="fill: url(#PhysicalLinkSymbol-gradientreverse)" /><path d="m 14.372107,10 h 12.622435 c 0.926189,0.585267 1.836022,1.274509 2.268178,5 -0.208657,2.812473 -0.954601,4.503809 -2.273297,5 H 14.296948" style="fill: #F60A0A" /><path d="M 3.9464908,5.0048246 V 24.995175 H 10.87518 C 12.433713,24.159139 15.158267,20.291241 15.313795,15 15.498614,11.583142 14.059659,6.6240913 10.87518,5.0048246 c -2.2179509,0 -4.5908341,0 -6.9286892,0 z" style="fill: url(#PhysicalLinkSymbol-gradient)" /></g></symbol><symbol id="ComponentExchangeSymbol" viewBox="0 0 40 30"><linearGradient id="ComponentExchangeSymbol-gradient" x1="0" x2="1" y1="0" y2="1"><stop offset="0.0" stop-color="#8FA5B6" stop-opacity="1" /><stop offset="1.0" stop-color="#E0E9F3" stop-opacity="1" /></linearGradient><linearGradient id="ComponentExchangeSymbol-gradientreverse" x1="0" x2="1" y1="0" y2="1"><stop offset="0.0" stop-color="#E0E9F3" stop-opacity="1" /><stop offset="1.0" stop-color="#8FA5B6" stop-opacity="1" /></linearGradient><g style="stroke:#000;stroke-width:2;"><path d="M 36.190065,5.0377724 V 24.962228 H 26.17482 V 5.0377724 Z" style="fill: url(#ComponentExchangeSymbol-gradientreverse)" /><path d="m 14.372107,10 h 12.622435 c 0.926189,0.585267 1.836022,1.274509 2.268178,5 -0.208657,2.812473 -0.954601,4.503809 -2.273297,5 H 14.296948" style="fill: #A3BCD0" /><path d="M 3.9464908,5.0048246 V 24.995175 H 10.87518 C 12.433713,24.159139 15.158267,20.291241 15.313795,15 15.498614,11.583142 14.059659,6.6240913 10.87518,5.0048246 c -2.2179509,0 -4.5908341,0 -6.9286892,0 z" style="fill: url(#ComponentExchangeSymbol-gradient)" /></g></symbol><symbol id="ComponentPortSymbol" viewBox="0 0 10 10"><path d="M0 0h10v10H0z" /><path d="M 2,2 5,7 8,2" /></symbol><symbol id="PortSymbol" viewBox="0 0 10 10"><path d="M0 0h10v10H0z" /><path d="M5 1L1 9h8z" fill="#fff" /></symbol><linearGradient id=".PhysicalComponentFillGradient" x1="0%" x2="0%" y1="0%" y2="100%"><stop offset="0" stop-color="#FFFFDC" /><stop offset="1" stop-color="#FFFCB7" /></linearGradient><linearGradient id="CustomGradient_C3E6FF_96B1DA" x1="0" x2="0" y1="0" y2="1"><stop offset="0.0" stop-color="#C3E6FF" stop-opacity="1" /><stop offset="1.0" stop-color="#96B1DA" stop-opacity="1" /></linearGradient><linearGradient id="CustomGradient_DAFDFF_C6E6FF" x1="0" x2="0" y1="0" y2="1"><stop offset="0.0" stop-color="#DAFDFF" stop-opacity="1" /><stop offset="1.0" stop-color="#C6E6FF" stop-opacity="1" /></linearGradient></defs><rect fill="white" height="761" stroke="none" width="1651" x="30" y="10" /><g class="Box PhysicalComponent" id="_LQAP4GPXEey9ycqoyTpVSQ"><rect class="PhysicalComponent" height="741" style="stroke-width: 1" width="951" x="360.5" y="20.5" /><text class="PhysicalComponent" dominant-baseline="middle" text-anchor="middle" x="360" y="20"><tspan x="835.5" xml:space="preserve" y="31.42857142857143">Regolith Inlet System</tspan></text></g><g class="Box PhysicalComponent" id="_kaQR0GPXEey9ycqoyTpVSQ"><rect class="PhysicalComponent" height="161" style="stroke-width: 1" width="321" x="395.5" y="64.5" /><text class="PhysicalComponent" dominant-baseline="middle" text-anchor="middle" x="395" y="64"><tspan x="555.5" xml:space="preserve" y="75.42857142857143">Inlet Hopper</tspan></text></g><g class="Box PhysicalComponent" id="_6VRXoGPXEey9ycqoyTpVSQ"><rect class="PhysicalComponent" height="89" style="fill: url(&quot;#CustomGradient_C3E6FF_96B1DA&quot;); stroke: #4A4A97; stroke-width: 1" width="239" x="420.5" y="102.5" /><text class="PhysicalComponent" dominant-baseline="middle" text-anchor="middle" x="420" y="102"><tspan x="539.5" xml:space="preserve" y="113.42857142857143">Scoop Interface</tspan></text></g><g class="Box PhysicalFunction" id="_xDuo4GPZEey9ycqoyTpVSQ"><rect class="PhysicalFunction" height="50" style="fill: #C5FFA6; stroke: #095C2E; stroke-width: 1" width="191" x="450.5" y="127.5" /><text class="PhysicalFunction" dominant-baseline="middle" style="fill: #095C2E" text-anchor="middle" x="450" y="127"><tspan x="545.5" xml:space="preserve" y="151.99999999999997">Store Unprocessed Regolith</tspan></text></g><g class="Box FIP"><use class="FIP" height="10" transform="rotate(90 453.5 149.5)" width="10" x="448.5" xlink:href="#PortSymbol" y="144.5" /></g><g class="Box FOP"><use class="FOP" height="10" transform="rotate(180 515.5 174.5)" width="10" x="510.5" xlink:href="#PortSymbol" y="169.5" /></g><g class="Box CP_IN"><use class="CP_IN" height="10" transform="rotate(270 423.5 156.5)" width="10" x="418.5" xlink:href="#ComponentPortSymbol" y="151.5" /></g><g class="Box PhysicalComponent" id="_ovaUMGPXEey9ycqoyTpVSQ"><rect class="PhysicalComponent" height="401" style="stroke-width: 1" width="451" x="395.5" y="254.5" /><text class="PhysicalComponent" dominant-baseline="middle" text-anchor="middle" x="395" y="254"><tspan x="620.5" xml:space="preserve" y="265.42857142857144">Shaking Sieve</tspan></text></g><g class="Box PhysicalComponent" id="_Ity40G1OEeyGAcBgdGuPdQ"><rect class="PhysicalComponent" height="191" style="stroke-width: 1" width="181" x="650.5" y="278.5" /><text class="PhysicalComponent" dominant-baseline="middle" text-anchor="middle" x="650" y="278"><tspan x="740.5" xml:space="preserve" y="289.42857142857144">Shaking Motor</tspan></text></g><g class="Box PhysicalComponent" id="_jnhF8GPaEey9ycqoyTpVSQ"><rect class="PhysicalComponent" height="141" style="fill: url(&quot;#CustomGradient_C3E6FF_96B1DA&quot;); stroke: #4A4A97; stroke-width: 1" width="159" x="655.5" y="312.5" /><text class="PhysicalComponent" dominant-baseline="middle" text-anchor="middle" x="655" y="312"><tspan x="734.5" xml:space="preserve" y="323.42857142857144">Shaking Motor</tspan></text></g><g class="Box PhysicalFunction" id="_xDv3AGPZEey9ycqoyTpVSQ"><rect class="PhysicalFunction" height="91" style="fill: #C5FFA6; stroke: #095C2E; stroke-width: 1" width="116" x="677.5" y="351.5" /><text class="PhysicalFunction" dominant-baseline="middle" style="fill: #095C2E" text-anchor="middle" x="677" y="351"><tspan x="735.0" xml:space="preserve" y="390.07142857142856">Convert Electricity</tspan><tspan x="735.0" xml:space="preserve" y="402.9285714285714">into Sifting Power</tspan></text></g><g class="Box FIP"><use class="FIP" height="10" transform="rotate(-90 790.5 390.5)" width="10" x="785.5" xlink:href="#PortSymbol" y="385.5" /></g><g class="Box FOP"><use class="FOP" height="10" transform="rotate(270 680.5 389.5)" width="10" x="675.5" xlink:href="#PortSymbol" y="384.5" /></g><g class="Box PhysicalComponent" id="_RD1WsG1OEeyGAcBgdGuPdQ"><rect class="PhysicalComponent" height="189" style="stroke-width: 1" width="219" x="410.5" y="278.5" /><text class="PhysicalComponent" dominant-baseline="middle" text-anchor="middle" x="410" y="278"><tspan x="519.5" xml:space="preserve" y="288.0">Metallic Sieve</tspan></text></g><g class="Box PhysicalComponent" id="_p3FcAGPZEey9ycqoyTpVSQ"><rect class="PhysicalComponent" height="141" style="fill: url(&quot;#CustomGradient_C3E6FF_96B1DA&quot;); stroke: #4A4A97; stroke-width: 1" width="161" x="435.5" y="302.5" /><text class="PhysicalComponent" dominant-baseline="middle" text-anchor="middle" x="435" y="302"><tspan x="515.5" xml:space="preserve" y="312.0">Sieve</tspan></text></g><g class="Box PhysicalFunction" id="_xDvP8GPZEey9ycqoyTpVSQ"><rect class="PhysicalFunction" height="101" style="fill: #C5FFA6; stroke: #095C2E; stroke-width: 1" width="111" x="455.5" y="322.5" /><text class="PhysicalFunction" dominant-baseline="middle" style="fill: #095C2E" text-anchor="middle" x="455" y="322"><tspan x="510.5" xml:space="preserve" y="366.07142857142856">Sift Unprocessed</tspan><tspan x="510.5" xml:space="preserve" y="378.9285714285714">Regolith</tspan></text></g><g class="Box FIP"><use class="FIP" height="10" transform="rotate(-180 515.5 325.5)" width="10" x="510.5" xlink:href="#PortSymbol" y="320.5" /></g><g class="Box FOP"><use class="FOP" height="10" transform="rotate(90 563.5 408.5)" width="10" x="558.5" xlink:href="#PortSymbol" y="403.5" /></g><g class="Box FOP"><use class="FOP" height="10" transform="rotate(180 521.5 420.5)" width="10" x="516.5" xlink:href="#PortSymbol" y="415.5" /></g><g class="Box FIP"><use class="FIP" height="10" transform="rotate(-90 563.5 389.5)" width="10" x="558.5" xlink:href="#PortSymbol" y="384.5" /></g><g class="Box CP_OUT"><use class="CP_OUT" height="10" transform="rotate(90 438.5 336.5)" width="10" x="433.5" xlink:href="#ComponentPortSymbol" y="331.5" /></g><g class="Box PhysicalComponent" id="_cxtTEG1OEeyGAcBgdGuPdQ"><rect class="PhysicalComponent" height="144" style="stroke-width: 1" width="421" x="410.5" y="478.5" /><text class="PhysicalComponent" dominant-baseline="middle" text-anchor="middle" x="410" y="478"><tspan x="620.5" xml:space="preserve" y="489.42857142857144">Bulk Regolith Outlet Tube</tspan></text></g><g class="Box PhysicalComponent" id="_muYwQGPaEey9ycqoyTpVSQ"><rect class="PhysicalComponent" height="99" style="fill: url(&quot;#CustomGradient_C3E6FF_96B1DA&quot;); stroke: #4A4A97; stroke-width: 1" width="159" x="445.5" y="507.5" /><text class="PhysicalComponent" dominant-baseline="middle" text-anchor="middle" x="445" y="507"><tspan x="524.5" xml:space="preserve" y="517.0">Rocks Outlet Channel</tspan></text></g><g class="Box PhysicalFunction" id="_xDvP82PZEey9ycqoyTpVSQ"><rect class="PhysicalFunction" height="50" style="fill: #C5FFA6; stroke: #095C2E; stroke-width: 1" width="111" x="465.5" y="546.5" /><text class="PhysicalFunction" dominant-baseline="middle" style="fill: #095C2E" text-anchor="middle" x="465" y="546"><tspan x="520.5" xml:space="preserve" y="571.0">Remove Large Rocks</tspan></text></g><g class="Box FIP"><use class="FIP" height="10" transform="rotate(-180 521.5 549.5)" width="10" x="516.5" xlink:href="#PortSymbol" y="544.5" /></g><g class="Box FOP"><use class="FOP" height="10" transform="rotate(180 489.5 593.5)" width="10" x="484.5" xlink:href="#PortSymbol" y="588.5" /></g><g class="Box CP_OUT"><use class="CP_OUT" height="10" transform="rotate(90 448.5 518.5)" width="10" x="443.5" xlink:href="#ComponentPortSymbol" y="513.5" /></g><g class="Box PhysicalComponent" id="_sUVMcGPXEey9ycqoyTpVSQ"><rect class="PhysicalComponent" height="641" style="stroke-width: 1" width="401" x="865.5" y="74.5" /><text class="PhysicalComponent" dominant-baseline="middle" text-anchor="middle" x="865" y="74"><tspan x="1065.5" xml:space="preserve" y="85.42857142857143">Regolilth Transfer System</tspan></text></g><g class="Box PhysicalComponent" id="_Av_p4G1QEeyGAcBgdGuPdQ"><rect class="PhysicalComponent" height="159" style="stroke-width: 1" width="343" x="894.5" y="108.5" /><text class="PhysicalComponent" dominant-baseline="middle" text-anchor="middle" x="894" y="108"><tspan x="1065.5" xml:space="preserve" y="119.42857142857143">Hatch Electrical Engine</tspan></text></g><g class="Box PhysicalComponent" id="_M9vAMGPbEey9ycqoyTpVSQ"><rect class="PhysicalComponent" height="110" style="fill: url(&quot;#CustomGradient_C3E6FF_96B1DA&quot;); stroke: #4A4A97; stroke-width: 1" width="291" x="923.5" y="132.5" /><text class="PhysicalComponent" dominant-baseline="middle" text-anchor="middle" x="923" y="132"><tspan x="1068.5" xml:space="preserve" y="143.42857142857142">Hatch Engine</tspan></text></g><g class="Box PhysicalFunction" id="_L5_gs2PaEey9ycqoyTpVSQ"><rect class="PhysicalFunction" height="71" style="fill: #C5FFA6; stroke: #095C2E; stroke-width: 1" width="221" x="963.5" y="161.5" /><text class="PhysicalFunction" dominant-baseline="middle" style="fill: #095C2E" text-anchor="middle" x="963" y="161"><tspan x="1073.5" xml:space="preserve" y="190.07142857142856">Convert Electricity to control Regolith</tspan><tspan x="1073.5" xml:space="preserve" y="202.92857142857142">powder transfer</tspan></text></g><g class="Box FIP"><use class="FIP" height="10" transform="rotate(-180 989.5 164.5)" width="10" x="984.5" xlink:href="#PortSymbol" y="159.5" /></g><g class="Box FOP"><use class="FOP" height="10" transform="rotate(180 1131.5 229.5)" width="10" x="1126.5" xlink:href="#PortSymbol" y="224.5" /></g><g class="Box PhysicalComponent" id="_NSx1AG1QEeyGAcBgdGuPdQ"><rect class="PhysicalComponent" height="171" style="stroke-width: 1" width="245" x="894.5" y="308.5" /><text class="PhysicalComponent" dominant-baseline="middle" text-anchor="middle" x="894" y="308"><tspan x="1016.5" xml:space="preserve" y="319.42857142857144">Regolith Powder Hopper</tspan></text></g><g class="Box PhysicalComponent" id="_GTXZ8GPbEey9ycqoyTpVSQ"><rect class="PhysicalComponent" height="109" style="fill: url(&quot;#CustomGradient_C3E6FF_96B1DA&quot;); stroke: #4A4A97; stroke-width: 1" width="201" x="905.5" y="332.5" /><text class="PhysicalComponent" dominant-baseline="middle" text-anchor="middle" x="905" y="332"><tspan x="1005.5" xml:space="preserve" y="343.42857142857144">Regolith Container</tspan></text></g><g class="Box PhysicalFunction" id="_L5_gsGPaEey9ycqoyTpVSQ"><rect class="PhysicalFunction" height="50" style="fill: #C5FFA6; stroke: #095C2E; stroke-width: 1" width="131" x="935.5" y="361.5" /><text class="PhysicalFunction" dominant-baseline="middle" style="fill: #095C2E" text-anchor="middle" x="935" y="361"><tspan x="1000.5" xml:space="preserve" y="386.0">Store Regolith Powder</tspan></text></g><g class="Box FIP"><use class="FIP" height="10" transform="rotate(90 938.5 407.5)" width="10" x="933.5" xlink:href="#PortSymbol" y="402.5" /></g><g class="Box FOP"><use class="FOP" height="10" transform="rotate(0 1001.5 364.5)" width="10" x="996.5" xlink:href="#PortSymbol" y="359.5" /></g><g class="Box FOP"><use class="FOP" height="10" transform="rotate(0 991.5 364.5)" width="10" x="986.5" xlink:href="#PortSymbol" y="359.5" /></g><g class="Box FOP"><use class="FOP" height="10" transform="rotate(0 1031.5 364.5)" width="10" x="1026.5" xlink:href="#PortSymbol" y="359.5" /></g><g class="Box CP_IN"><use class="CP_IN" height="10" transform="rotate(270 908.5 336.5)" width="10" x="903.5" xlink:href="#ComponentPortSymbol" y="331.5" /></g><g class="Box PhysicalComponent" id="_VmbtQG1QEeyGAcBgdGuPdQ"><rect class="PhysicalComponent" height="189" style="stroke-width: 1" width="343" x="894.5" y="498.5" /><text class="PhysicalComponent" dominant-baseline="middle" text-anchor="middle" x="894" y="498"><tspan x="1065.5" xml:space="preserve" y="509.42857142857144">Regolith Tube to Vaporisation Chamber</tspan></text></g><g class="Box PhysicalComponent" id="_dBy2gGPXEey9ycqoyTpVSQ"><rect class="PhysicalComponent" height="141" style="fill: url(&quot;#CustomGradient_C3E6FF_96B1DA&quot;); stroke: #4A4A97; stroke-width: 1" width="311" x="905.5" y="522.5" /><text class="PhysicalComponent" dominant-baseline="middle" text-anchor="middle" x="905" y="522"><tspan x="1060.5" xml:space="preserve" y="533.4285714285714">Regolith Powder Transportation System to Vapourisation</tspan><tspan x="1060.5" xml:space="preserve" y="546.2857142857143">Chamber</tspan></text></g><g class="Box PhysicalFunction" id="_L5-5oGPaEey9ycqoyTpVSQ"><rect class="PhysicalFunction" height="80" style="fill: #C5FFA6; stroke: #095C2E; stroke-width: 1" width="221" x="955.5" y="571.5" /><text class="PhysicalFunction" dominant-baseline="middle" style="fill: #095C2E" text-anchor="middle" x="955" y="571"><tspan x="1065.5" xml:space="preserve" y="604.5714285714286">Transfer Regolith Powder to</tspan><tspan x="1065.5" xml:space="preserve" y="617.4285714285714">vapourisation using gravity</tspan></text></g><g class="Box FIP"><use class="FIP" height="10" transform="rotate(-180 991.5 574.5)" width="10" x="986.5" xlink:href="#PortSymbol" y="569.5" /></g><g class="Box FIP"><use class="FIP" height="10" transform="rotate(-180 1131.5 574.5)" width="10" x="1126.5" xlink:href="#PortSymbol" y="569.5" /></g><g class="Box FOP"><use class="FOP" height="10" transform="rotate(90 1173.5 617.5)" width="10" x="1168.5" xlink:href="#PortSymbol" y="612.5" /></g><g class="Box FOP"><use class="FOP" height="10" transform="rotate(90 1173.5 627.5)" width="10" x="1168.5" xlink:href="#PortSymbol" y="622.5" /></g><g class="Box PhysicalComponent" id="_WuMxgGPXEey9ycqoyTpVSQ"><rect class="PhysicalComponent" height="191" style="stroke-width: 1" width="311" x="1360.5" y="540.5" /><text class="PhysicalComponent" dominant-baseline="middle" text-anchor="middle" x="1360" y="540"><tspan x="1515.5" xml:space="preserve" y="550.0">Chamber Inlet Seal</tspan></text></g><g class="Box PhysicalComponent" id="_06l60GPbEey9ycqoyTpVSQ"><rect class="PhysicalComponent" height="131" style="fill: url(&quot;#CustomGradient_C3E6FF_96B1DA&quot;); stroke: #4A4A97; stroke-width: 1" width="271" x="1375.5" y="574.5" /><text class="PhysicalComponent" dominant-baseline="middle" text-anchor="middle" x="1375" y="574"><tspan x="1510.5" xml:space="preserve" y="585.4285714285714">Chamber Regolith Inlet Seal</tspan></text></g><g class="Box PhysicalFunction" id="_6ICQEGPbEey9ycqoyTpVSQ"><rect class="PhysicalFunction" height="61" style="fill: #C5FFA6; stroke: #095C2E; stroke-width: 1" width="211" x="1405.5" y="613.5" /><text class="PhysicalFunction" dominant-baseline="middle" style="fill: #095C2E" text-anchor="middle" x="1405" y="613"><tspan x="1510.5" xml:space="preserve" y="637.0714285714286">Seal Vaporisation Chamber from Lunar</tspan><tspan x="1510.5" xml:space="preserve" y="649.9285714285714">Atmosphere</tspan></text></g><g class="Box PhysicalActor" id="_txvTsGPZEey9ycqoyTpVSQ"><rect class="PhysicalActor" height="171" style="fill: url(&quot;#CustomGradient_DAFDFF_C6E6FF&quot;); stroke: #4A4A97; stroke-width: 1" width="281" x="40.5" y="100.5" /><text class="PhysicalActor" dominant-baseline="middle" text-anchor="middle" x="40" y="100"><tspan x="180.5" xml:space="preserve" y="111.42857142857143">Excavation System</tspan></text></g><g class="Box PhysicalFunction" id="_5lYg4GPZEey9ycqoyTpVSQ"><rect class="PhysicalFunction" height="50" style="fill: #C5FFA6; stroke: #095C2E; stroke-width: 1" width="190" x="91.5" y="199.5" /><text class="PhysicalFunction" dominant-baseline="middle" style="fill: #095C2E" text-anchor="middle" x="91" y="199"><tspan x="186.0" xml:space="preserve" y="223.99999999999997">Drill Regolith</tspan></text></g><g class="Box FIP"><use class="FIP" height="10" transform="rotate(0 106.5 246.5)" width="10" x="101.5" xlink:href="#PortSymbol" y="241.5" /></g><g class="Box FIP"><use class="FIP" height="10" transform="rotate(0 126.5 246.5)" width="10" x="121.5" xlink:href="#PortSymbol" y="241.5" /></g><g class="Box FIP"><use class="FIP" height="10" transform="rotate(0 146.5 246.5)" width="10" x="141.5" xlink:href="#PortSymbol" y="241.5" /></g><g class="Box FOP"><use class="FOP" height="10" transform="rotate(0 206.5 202.5)" width="10" x="201.5" xlink:href="#PortSymbol" y="197.5" /></g><g class="Box FOP"><use class="FOP" height="10" transform="rotate(180 246.5 246.5)" width="10" x="241.5" xlink:href="#PortSymbol" y="241.5" /></g><g class="Box PhysicalFunction" id="_5lZH8mPZEey9ycqoyTpVSQ"><rect class="PhysicalFunction" height="50" style="fill: #C5FFA6; stroke: #095C2E; stroke-width: 1" width="191" x="80.5" y="129.5" /><text class="PhysicalFunction" dominant-baseline="middle" style="fill: #095C2E" text-anchor="middle" x="80" y="129"><tspan x="175.5" xml:space="preserve" y="153.99999999999997">Provide Unprocessed Regolith</tspan></text></g><g class="Box FIP"><use class="FIP" height="10" transform="rotate(0 206.5 176.5)" width="10" x="201.5" xlink:href="#PortSymbol" y="171.5" /></g><g class="Box FOP"><use class="FOP" height="10" transform="rotate(90 268.5 155.5)" width="10" x="263.5" xlink:href="#PortSymbol" y="150.5" /></g><g class="Box CP_IN"><use class="CP_IN" height="10" transform="rotate(180 106.5 268.5)" width="10" x="101.5" xlink:href="#ComponentPortSymbol" y="263.5" /></g><g class="Box CP_IN"><use class="CP_IN" height="10" transform="rotate(180 146.5 268.5)" width="10" x="141.5" xlink:href="#ComponentPortSymbol" y="263.5" /></g><g class="Box CP_OUT"><use class="CP_OUT" height="10" transform="rotate(0 246.5 268.5)" width="10" x="241.5" xlink:href="#ComponentPortSymbol" y="263.5" /></g><g class="Box CP_IN"><use class="CP_IN" height="10" transform="rotate(180 126.5 268.5)" width="10" x="121.5" xlink:href="#ComponentPortSymbol" y="263.5" /></g><g class="Box CP_OUT"><use class="CP_OUT" height="10" transform="rotate(-90 318.5 156.5)" width="10" x="313.5" xlink:href="#ComponentPortSymbol" y="151.5" /></g><g class="Edge ComponentExchange" id="_tx4drmPZEey9ycqoyTpVSQ"><path class="Edge" d="M 323.5 156.5 418.5 156.5" style="stroke: #4A4A97" /><rect class="AnnotationBB" height="13" width="115" x="310" y="142" /><text class="Annotation" dominant-baseline="middle" text-anchor="middle" x="298.0" y="142"><tspan x="368.5" xml:space="preserve" y="148.42857142857142">UnprocessedRegolith</tspan></text><use height="20" width="20" x="291.35714285714283" xlink:href="#ComponentExchangeSymbol" y="138.42857142857142" /></g><g class="Edge FIPAllocation" id="_5liR6GPZEey9ycqoyTpVSQ"><path class="Edge" d="M 106.5 263.5 106.5 251.5" style="stroke: #E08503; stroke-dasharray: 5; stroke-width: 2" /><rect class="AnnotationBB" height="0" width="0" x="112" y="257" /><text class="Annotation" dominant-baseline="middle" text-anchor="middle" x="112" y="257"><tspan x="112.0" xml:space="preserve" y="257.0" /></text></g><g class="Edge FIPAllocation" id="_5li48mPZEey9ycqoyTpVSQ"><path class="Edge" d="M 146.5 263.5 146.5 251.5" style="stroke: #E08503; stroke-dasharray: 5; stroke-width: 2" /><rect class="AnnotationBB" height="0" width="0" x="147" y="255" /><text class="Annotation" dominant-baseline="middle" text-anchor="middle" x="147" y="255"><tspan x="147.0" xml:space="preserve" y="255.0" /></text></g><g class="Edge FOPAllocation" id="_5li492PZEey9ycqoyTpVSQ"><path class="Edge" d="M 246.5 263.5 246.5 251.5" style="stroke: #274C72; stroke-dasharray: 5; stroke-width: 2" /><rect class="AnnotationBB" height="0" width="0" x="242" y="250" /><text class="Annotation" dominant-baseline="middle" text-anchor="middle" x="242" y="250"><tspan x="242.0" xml:space="preserve" y="250.0" /></text></g><g class="Edge FIPAllocation" id="_5li4_GPZEey9ycqoyTpVSQ"><path class="Edge" d="M 126.5 263.5 126.5 251.5" style="stroke: #E08503; stroke-dasharray: 5; stroke-width: 2" /><rect class="AnnotationBB" height="0" width="0" x="124" y="255" /><text class="Annotation" dominant-baseline="middle" text-anchor="middle" x="124" y="255"><tspan x="124.0" xml:space="preserve" y="255.0" /></text></g><g class="Edge FunctionalExchange" id="_5ljgGGPZEey9ycqoyTpVSQ"><path class="Edge" d="M 206.5 197.5 206.5 181.5" style="stroke: #095C2E" /><rect class="AnnotationBB" height="13" width="80" x="164" y="179" /><text class="Annotation" dominant-baseline="middle" text-anchor="middle" x="152.0" y="179"><tspan x="205.0" xml:space="preserve" y="185.42857142857142">ExtractRegolith</tspan></text><use height="20" width="20" x="145.0" xlink:href="#FunctionalExchangeSymbol" y="175.42857142857142" /></g><g class="Edge FOPAllocation" id="_9N11aGPZEey9ycqoyTpVSQ"><path class="Edge" d="M 313.5 156.5 273.5 155.5" style="stroke: #274C72; stroke-dasharray: 5; stroke-width: 2" /><rect class="AnnotationBB" height="0" width="0" x="295" y="162" /><text class="Annotation" dominant-baseline="middle" text-anchor="middle" x="295" y="162"><tspan x="295.0" xml:space="preserve" y="162.0" /></text></g><g class="Edge FIPAllocation" id="_9N11bWPZEey9ycqoyTpVSQ"><path class="Edge" d="M 428.5 156.5 448.5 149.5" style="stroke: #E08503; stroke-dasharray: 5; stroke-width: 2" /><rect class="AnnotationBB" height="0" width="0" x="437" y="148" /><text class="Annotation" dominant-baseline="middle" text-anchor="middle" x="437" y="148"><tspan x="437.0" xml:space="preserve" y="148.0" /></text></g><g class="Edge FunctionalExchange" id="_xD0vgGPZEey9ycqoyTpVSQ"><path class="Edge" d="M 515.5 179.5 515.5 320.5" style="stroke: #095C2E" /><rect class="AnnotationBB" height="13" width="115" x="449" y="244" /><text class="Annotation" dominant-baseline="middle" text-anchor="middle" x="437.0" y="244"><tspan x="507.5" xml:space="preserve" y="250.42857142857142">UnprocessedRegolith</tspan></text><use height="20" width="20" x="430.35714285714283" xlink:href="#FunctionalExchangeSymbol" y="240.42857142857142" /></g><g class="Edge FunctionalExchange" id="_xD0vkmPZEey9ycqoyTpVSQ"><path class="Edge" d="M 675.5 389.5 568.5 389.5" style="stroke: #095C2E" /><rect class="AnnotationBB" height="13" width="129" x="557" y="383" /><text class="Annotation" dominant-baseline="middle" text-anchor="middle" x="545.0" y="383"><tspan x="622.5" xml:space="preserve" y="389.42857142857144">PowerForRegolithSifting</tspan></text><use height="20" width="20" x="538.2142857142857" xlink:href="#FunctionalExchangeSymbol" y="379.42857142857144" /></g><g class="Edge FunctionalExchange" id="_xD0viWPZEey9ycqoyTpVSQ"><path class="Edge" d="M 521.5 425.5 521.5 544.5" style="stroke: #095C2E" /><rect class="AnnotationBB" height="13" width="65" x="487" y="484" /><text class="Annotation" dominant-baseline="middle" text-anchor="middle" x="475.0" y="484"><tspan x="520.5" xml:space="preserve" y="490.42857142857144">Large Rocks</tspan></text><use height="20" width="20" x="468.35714285714283" xlink:href="#FunctionalExchangeSymbol" y="480.42857142857144" /></g><g class="Edge FunctionalExchange" id="_L6GOiWPaEey9ycqoyTpVSQ"><path class="Edge" d="M 991.5 369.5 991.5 569.5" style="stroke: #095C2E" /><rect class="AnnotationBB" height="13" width="120" x="924" y="438" /><text class="Annotation" dominant-baseline="middle" text-anchor="middle" x="912.0" y="438"><tspan x="985.0" xml:space="preserve" y="444.42857142857144">StoredRegolithPowder</tspan></text><use height="20" width="20" x="905.0" xlink:href="#FunctionalExchangeSymbol" y="434.42857142857144" /></g><g class="Edge FunctionalExchange" id="_L6GOkmPaEey9ycqoyTpVSQ"><path class="Edge" d="M 1131.5 234.5 1131.5 569.5" style="stroke: #095C2E" /><rect class="AnnotationBB" height="13" width="156" x="1049" y="362" /><text class="Annotation" dominant-baseline="middle" text-anchor="middle" x="1037.0" y="362"><tspan x="1128.0" xml:space="preserve" y="368.42857142857144">PowerforRegPowderTransfer</tspan></text><use height="20" width="20" x="1030.142857142857" xlink:href="#FunctionalExchangeSymbol" y="358.42857142857144" /></g><g class="Edge FOPAllocation" id="__6illG1wEeyGAcBgdGuPdQ"><path class="Edge" d="M 448.5 523.5 489.5 588.5" style="stroke: #274C72; stroke-dasharray: 5; stroke-width: 2" /><rect class="AnnotationBB" height="0" width="0" x="476" y="551" /><text class="Annotation" dominant-baseline="middle" text-anchor="middle" x="476" y="551"><tspan x="476.0" xml:space="preserve" y="551.0" /></text></g><g class="Edge ComponentExchange" id="_tKNdpG1xEeyGAcBgdGuPdQ"><path class="Edge" d="M 443.5 336.5 903.5 336.5" style="stroke: #4A4A97" /><rect class="AnnotationBB" height="13" width="185" x="581" y="306" /><text class="Annotation" dominant-baseline="middle" text-anchor="middle" x="569.0" y="306"><tspan x="674.5" xml:space="preserve" y="312.42857142857144">RegolithPowderTransferToStorage</tspan></text><use height="20" width="20" x="562.3571428571429" xlink:href="#ComponentExchangeSymbol" y="302.42857142857144" /></g><g class="Edge FOPAllocation" id="_wy40pG1xEeyGAcBgdGuPdQ"><path class="Edge" d="M 443.5 336.5 558.5 408.5" style="stroke: #274C72; stroke-dasharray: 5; stroke-width: 2" /><rect class="AnnotationBB" height="0" width="0" x="516" y="378" /><text class="Annotation" dominant-baseline="middle" text-anchor="middle" x="516" y="378"><tspan x="516.0" xml:space="preserve" y="378.0" /></text></g><g class="Edge FIPAllocation" id="_wy40qW1xEeyGAcBgdGuPdQ"><path class="Edge" d="M 908.5 341.5 938.5 402.5" style="stroke: #E08503; stroke-dasharray: 5; stroke-width: 2" /><rect class="AnnotationBB" height="0" width="0" x="932" y="367" /><text class="Annotation" dominant-baseline="middle" text-anchor="middle" x="932" y="367"><tspan x="932.0" xml:space="preserve" y="367.0" /></text></g></svg>